G04 #@! TF.GenerationSoftware,KiCad,Pcbnew,7.0.8*
G04 #@! TF.CreationDate,2024-03-09T11:55:45+01:00*
G04 #@! TF.ProjectId,v2-raster,76322d72-6173-4746-9572-2e6b69636164,rev?*
G04 #@! TF.SameCoordinates,Original*
G04 #@! TF.FileFunction,Soldermask,Top*
G04 #@! TF.FilePolarity,Negative*
%FSLAX46Y46*%
G04 Gerber Fmt 4.6, Leading zero omitted, Abs format (unit mm)*
G04 Created by KiCad (PCBNEW 7.0.8) date 2024-03-09 11:55:45*
%MOMM*%
%LPD*%
G01*
G04 APERTURE LIST*
G04 Aperture macros list*
%AMRoundRect*
0 Rectangle with rounded corners*
0 $1 Rounding radius*
0 $2 $3 $4 $5 $6 $7 $8 $9 X,Y pos of 4 corners*
0 Add a 4 corners polygon primitive as box body*
4,1,4,$2,$3,$4,$5,$6,$7,$8,$9,$2,$3,0*
0 Add four circle primitives for the rounded corners*
1,1,$1+$1,$2,$3*
1,1,$1+$1,$4,$5*
1,1,$1+$1,$6,$7*
1,1,$1+$1,$8,$9*
0 Add four rect primitives between the rounded corners*
20,1,$1+$1,$2,$3,$4,$5,0*
20,1,$1+$1,$4,$5,$6,$7,0*
20,1,$1+$1,$6,$7,$8,$9,0*
20,1,$1+$1,$8,$9,$2,$3,0*%
G04 Aperture macros list end*
%ADD10RoundRect,0.250000X-0.400000X-0.625000X0.400000X-0.625000X0.400000X0.625000X-0.400000X0.625000X0*%
%ADD11RoundRect,0.250001X-0.462499X-0.624999X0.462499X-0.624999X0.462499X0.624999X-0.462499X0.624999X0*%
%ADD12RoundRect,0.250000X0.750000X-0.250000X0.750000X0.250000X-0.750000X0.250000X-0.750000X-0.250000X0*%
G04 APERTURE END LIST*
D10*
X103400000Y-72450000D03*
X106500000Y-72450000D03*
X103450000Y-87500000D03*
X106550000Y-87500000D03*
D11*
X103512500Y-75000000D03*
X106487500Y-75000000D03*
D12*
X121000000Y-109050000D03*
D10*
X133450000Y-107550000D03*
X136550000Y-107550000D03*
D11*
X133512500Y-64950000D03*
X136487500Y-64950000D03*
X133512500Y-105000000D03*
X136487500Y-105000000D03*
D10*
X103450000Y-62400000D03*
X106550000Y-62400000D03*
X113450000Y-107550000D03*
X116550000Y-107550000D03*
D11*
X143512500Y-105000000D03*
X146487500Y-105000000D03*
X103512500Y-65000000D03*
X106487500Y-65000000D03*
D12*
X121100000Y-60900000D03*
D10*
X113450000Y-92450000D03*
X116550000Y-92450000D03*
X103450000Y-67550000D03*
X106550000Y-67550000D03*
D11*
X123512500Y-75000000D03*
X126487500Y-75000000D03*
D10*
X123450000Y-107550000D03*
X126550000Y-107550000D03*
D11*
X103512500Y-95000000D03*
X106487500Y-95000000D03*
X133512500Y-95000000D03*
X136487500Y-95000000D03*
D10*
X123400000Y-92400000D03*
X126500000Y-92400000D03*
D11*
X143512500Y-75000000D03*
X146487500Y-75000000D03*
D10*
X133450000Y-97600000D03*
X136550000Y-97600000D03*
X123450000Y-72450000D03*
X126550000Y-72450000D03*
X123450000Y-82450000D03*
X126550000Y-82450000D03*
D11*
X143512500Y-65050000D03*
X146487500Y-65050000D03*
D10*
X103400000Y-77500000D03*
X106500000Y-77500000D03*
X113450000Y-62450000D03*
X116550000Y-62450000D03*
D11*
X113512500Y-65000000D03*
X116487500Y-65000000D03*
X123512500Y-65000000D03*
X126487500Y-65000000D03*
D10*
X113400000Y-72450000D03*
X116500000Y-72450000D03*
X133450000Y-62350000D03*
X136550000Y-62350000D03*
X143500000Y-67650000D03*
X146600000Y-67650000D03*
D11*
X123512500Y-85000000D03*
X126487500Y-85000000D03*
X123512500Y-95000000D03*
X126487500Y-95000000D03*
D10*
X143400000Y-77550000D03*
X146500000Y-77550000D03*
X113400000Y-102450000D03*
X116500000Y-102450000D03*
X143450000Y-82450000D03*
X146550000Y-82450000D03*
X143400000Y-62500000D03*
X146500000Y-62500000D03*
X103450000Y-97550000D03*
X106550000Y-97550000D03*
X123400000Y-87550000D03*
X126500000Y-87550000D03*
X143450000Y-97550000D03*
X146550000Y-97550000D03*
X133400000Y-77600000D03*
X136500000Y-77600000D03*
X123400000Y-62500000D03*
X126500000Y-62500000D03*
X143450000Y-87550000D03*
X146550000Y-87550000D03*
X123450000Y-102450000D03*
X126550000Y-102450000D03*
D11*
X143512500Y-85000000D03*
X146487500Y-85000000D03*
D10*
X143450000Y-72500000D03*
X146550000Y-72500000D03*
X143450000Y-107500000D03*
X146550000Y-107500000D03*
X133500000Y-82450000D03*
X136600000Y-82450000D03*
D11*
X133512500Y-75000000D03*
X136487500Y-75000000D03*
D10*
X133450000Y-67550000D03*
X136550000Y-67550000D03*
X103450000Y-82450000D03*
X106550000Y-82450000D03*
X123450000Y-67550000D03*
X126550000Y-67550000D03*
D11*
X113512500Y-95000000D03*
X116487500Y-95000000D03*
X123512500Y-105000000D03*
X126487500Y-105000000D03*
X113512500Y-85000000D03*
X116487500Y-85000000D03*
D10*
X113450000Y-77600000D03*
X116550000Y-77600000D03*
X113500000Y-97550000D03*
X116600000Y-97550000D03*
X123500000Y-97550000D03*
X126600000Y-97550000D03*
D11*
X143512500Y-95000000D03*
X146487500Y-95000000D03*
D10*
X143450000Y-102300000D03*
X146550000Y-102300000D03*
X113450000Y-82450000D03*
X116550000Y-82450000D03*
D11*
X103512500Y-85000000D03*
X106487500Y-85000000D03*
X103512500Y-105000000D03*
X106487500Y-105000000D03*
X133562500Y-85000000D03*
X136537500Y-85000000D03*
X113512500Y-75000000D03*
X116487500Y-75000000D03*
D10*
X133500000Y-87550000D03*
X136600000Y-87550000D03*
X143450000Y-92450000D03*
X146550000Y-92450000D03*
X113400000Y-67550000D03*
X116500000Y-67550000D03*
X103450000Y-107500000D03*
X106550000Y-107500000D03*
X133450000Y-72500000D03*
X136550000Y-72500000D03*
X103400000Y-92450000D03*
X106500000Y-92450000D03*
X133400000Y-102450000D03*
X136500000Y-102450000D03*
X123400000Y-77600000D03*
X126500000Y-77600000D03*
X133450000Y-92400000D03*
X136550000Y-92400000D03*
D11*
X113512500Y-105000000D03*
X116487500Y-105000000D03*
D10*
X103400000Y-102450000D03*
X106500000Y-102450000D03*
X113450000Y-87550000D03*
X116550000Y-87550000D03*
M02*
