G04 #@! TF.GenerationSoftware,KiCad,Pcbnew,7.0.8*
G04 #@! TF.CreationDate,2024-03-09T11:55:45+01:00*
G04 #@! TF.ProjectId,v2-raster,76322d72-6173-4746-9572-2e6b69636164,rev?*
G04 #@! TF.SameCoordinates,Original*
G04 #@! TF.FileFunction,Copper,L1,Top*
G04 #@! TF.FilePolarity,Positive*
%FSLAX46Y46*%
G04 Gerber Fmt 4.6, Leading zero omitted, Abs format (unit mm)*
G04 Created by KiCad (PCBNEW 7.0.8) date 2024-03-09 11:55:45*
%MOMM*%
%LPD*%
G01*
G04 APERTURE LIST*
G04 Aperture macros list*
%AMRoundRect*
0 Rectangle with rounded corners*
0 $1 Rounding radius*
0 $2 $3 $4 $5 $6 $7 $8 $9 X,Y pos of 4 corners*
0 Add a 4 corners polygon primitive as box body*
4,1,4,$2,$3,$4,$5,$6,$7,$8,$9,$2,$3,0*
0 Add four circle primitives for the rounded corners*
1,1,$1+$1,$2,$3*
1,1,$1+$1,$4,$5*
1,1,$1+$1,$6,$7*
1,1,$1+$1,$8,$9*
0 Add four rect primitives between the rounded corners*
20,1,$1+$1,$2,$3,$4,$5,0*
20,1,$1+$1,$4,$5,$6,$7,0*
20,1,$1+$1,$6,$7,$8,$9,0*
20,1,$1+$1,$8,$9,$2,$3,0*%
G04 Aperture macros list end*
G04 #@! TA.AperFunction,SMDPad,CuDef*
%ADD10RoundRect,0.250000X-0.400000X-0.625000X0.400000X-0.625000X0.400000X0.625000X-0.400000X0.625000X0*%
G04 #@! TD*
G04 #@! TA.AperFunction,SMDPad,CuDef*
%ADD11RoundRect,0.250001X-0.462499X-0.624999X0.462499X-0.624999X0.462499X0.624999X-0.462499X0.624999X0*%
G04 #@! TD*
G04 #@! TA.AperFunction,SMDPad,CuDef*
%ADD12RoundRect,0.250000X0.750000X-0.250000X0.750000X0.250000X-0.750000X0.250000X-0.750000X-0.250000X0*%
G04 #@! TD*
G04 #@! TA.AperFunction,Conductor*
%ADD13C,0.250000*%
G04 #@! TD*
G04 APERTURE END LIST*
D10*
X103400000Y-72450000D03*
X106500000Y-72450000D03*
X103450000Y-87500000D03*
X106550000Y-87500000D03*
D11*
X103512500Y-75000000D03*
X106487500Y-75000000D03*
D12*
X121000000Y-109050000D03*
D10*
X133450000Y-107550000D03*
X136550000Y-107550000D03*
D11*
X133512500Y-64950000D03*
X136487500Y-64950000D03*
X133512500Y-105000000D03*
X136487500Y-105000000D03*
D10*
X103450000Y-62400000D03*
X106550000Y-62400000D03*
X113450000Y-107550000D03*
X116550000Y-107550000D03*
D11*
X143512500Y-105000000D03*
X146487500Y-105000000D03*
X103512500Y-65000000D03*
X106487500Y-65000000D03*
D12*
X121100000Y-60900000D03*
D10*
X113450000Y-92450000D03*
X116550000Y-92450000D03*
X103450000Y-67550000D03*
X106550000Y-67550000D03*
D11*
X123512500Y-75000000D03*
X126487500Y-75000000D03*
D10*
X123450000Y-107550000D03*
X126550000Y-107550000D03*
D11*
X103512500Y-95000000D03*
X106487500Y-95000000D03*
X133512500Y-95000000D03*
X136487500Y-95000000D03*
D10*
X123400000Y-92400000D03*
X126500000Y-92400000D03*
D11*
X143512500Y-75000000D03*
X146487500Y-75000000D03*
D10*
X133450000Y-97600000D03*
X136550000Y-97600000D03*
X123450000Y-72450000D03*
X126550000Y-72450000D03*
X123450000Y-82450000D03*
X126550000Y-82450000D03*
D11*
X143512500Y-65050000D03*
X146487500Y-65050000D03*
D10*
X103400000Y-77500000D03*
X106500000Y-77500000D03*
X113450000Y-62450000D03*
X116550000Y-62450000D03*
D11*
X113512500Y-65000000D03*
X116487500Y-65000000D03*
X123512500Y-65000000D03*
X126487500Y-65000000D03*
D10*
X113400000Y-72450000D03*
X116500000Y-72450000D03*
X133450000Y-62350000D03*
X136550000Y-62350000D03*
X143500000Y-67650000D03*
X146600000Y-67650000D03*
D11*
X123512500Y-85000000D03*
X126487500Y-85000000D03*
X123512500Y-95000000D03*
X126487500Y-95000000D03*
D10*
X143400000Y-77550000D03*
X146500000Y-77550000D03*
X113400000Y-102450000D03*
X116500000Y-102450000D03*
X143450000Y-82450000D03*
X146550000Y-82450000D03*
X143400000Y-62500000D03*
X146500000Y-62500000D03*
X103450000Y-97550000D03*
X106550000Y-97550000D03*
X123400000Y-87550000D03*
X126500000Y-87550000D03*
X143450000Y-97550000D03*
X146550000Y-97550000D03*
X133400000Y-77600000D03*
X136500000Y-77600000D03*
X123400000Y-62500000D03*
X126500000Y-62500000D03*
X143450000Y-87550000D03*
X146550000Y-87550000D03*
X123450000Y-102450000D03*
X126550000Y-102450000D03*
D11*
X143512500Y-85000000D03*
X146487500Y-85000000D03*
D10*
X143450000Y-72500000D03*
X146550000Y-72500000D03*
X143450000Y-107500000D03*
X146550000Y-107500000D03*
X133500000Y-82450000D03*
X136600000Y-82450000D03*
D11*
X133512500Y-75000000D03*
X136487500Y-75000000D03*
D10*
X133450000Y-67550000D03*
X136550000Y-67550000D03*
X103450000Y-82450000D03*
X106550000Y-82450000D03*
X123450000Y-67550000D03*
X126550000Y-67550000D03*
D11*
X113512500Y-95000000D03*
X116487500Y-95000000D03*
X123512500Y-105000000D03*
X126487500Y-105000000D03*
X113512500Y-85000000D03*
X116487500Y-85000000D03*
D10*
X113450000Y-77600000D03*
X116550000Y-77600000D03*
X113500000Y-97550000D03*
X116600000Y-97550000D03*
X123500000Y-97550000D03*
X126600000Y-97550000D03*
D11*
X143512500Y-95000000D03*
X146487500Y-95000000D03*
D10*
X143450000Y-102300000D03*
X146550000Y-102300000D03*
X113450000Y-82450000D03*
X116550000Y-82450000D03*
D11*
X103512500Y-85000000D03*
X106487500Y-85000000D03*
X103512500Y-105000000D03*
X106487500Y-105000000D03*
X133562500Y-85000000D03*
X136537500Y-85000000D03*
X113512500Y-75000000D03*
X116487500Y-75000000D03*
D10*
X133500000Y-87550000D03*
X136600000Y-87550000D03*
X143450000Y-92450000D03*
X146550000Y-92450000D03*
X113400000Y-67550000D03*
X116500000Y-67550000D03*
X103450000Y-107500000D03*
X106550000Y-107500000D03*
X133450000Y-72500000D03*
X136550000Y-72500000D03*
X103400000Y-92450000D03*
X106500000Y-92450000D03*
X133400000Y-102450000D03*
X136500000Y-102450000D03*
X123400000Y-77600000D03*
X126500000Y-77600000D03*
X133450000Y-92400000D03*
X136550000Y-92400000D03*
D11*
X113512500Y-105000000D03*
X116487500Y-105000000D03*
D10*
X103400000Y-102450000D03*
X106500000Y-102450000D03*
X113450000Y-87550000D03*
X116550000Y-87550000D03*
D13*
X119380000Y-108356400D02*
X119227600Y-108356400D01*
X120073600Y-109050000D02*
X119380000Y-108356400D01*
X121000000Y-109050000D02*
X120073600Y-109050000D01*
X113512500Y-105000000D02*
X111450000Y-105000000D01*
X100550000Y-95000000D02*
X100500000Y-95050000D01*
X121100000Y-60900000D02*
X120750000Y-61250000D01*
X133512500Y-105000000D02*
X131550000Y-105000000D01*
X123512500Y-75000000D02*
X121200000Y-75000000D01*
X133562500Y-85000000D02*
X131150000Y-85000000D01*
X113512500Y-65000000D02*
X111150000Y-65000000D01*
X123512500Y-95000000D02*
X121300000Y-95000000D01*
X133512500Y-75000000D02*
X131150000Y-75000000D01*
X123512500Y-105000000D02*
X121000000Y-105000000D01*
X120850000Y-60950000D02*
X100750000Y-60950000D01*
X111250000Y-75000000D02*
X111200000Y-75050000D01*
X103512500Y-105000000D02*
X100500000Y-105000000D01*
X123512500Y-85000000D02*
X121250000Y-85000000D01*
X103512500Y-75000000D02*
X100600000Y-75000000D01*
X143512500Y-85000000D02*
X141550000Y-85000000D01*
X141100000Y-60950000D02*
X141250000Y-61100000D01*
X143512500Y-95000000D02*
X141200000Y-95000000D01*
X143512500Y-65050000D02*
X141550000Y-65050000D01*
X103512500Y-85000000D02*
X100500000Y-85000000D01*
X103512500Y-65000000D02*
X100850000Y-65000000D01*
X113512500Y-85000000D02*
X111300000Y-85000000D01*
X121450000Y-61250000D02*
X121450000Y-61900000D01*
X120750000Y-61250000D02*
X120750000Y-61950000D01*
X133512500Y-95000000D02*
X131100000Y-95000000D01*
X131200000Y-64950000D02*
X131100000Y-65050000D01*
X141350000Y-105000000D02*
X143512500Y-105000000D01*
X121100000Y-60900000D02*
X121450000Y-61250000D01*
X123512500Y-65000000D02*
X121100000Y-65000000D01*
X113512500Y-75000000D02*
X111250000Y-75000000D01*
X113512500Y-95000000D02*
X111400000Y-95000000D01*
X103512500Y-95000000D02*
X100550000Y-95000000D01*
X120850000Y-60950000D02*
X141100000Y-60950000D01*
X143512500Y-75000000D02*
X141200000Y-75000000D01*
X133512500Y-64950000D02*
X131200000Y-64950000D01*
X106550000Y-64937500D02*
X106487500Y-65000000D01*
X106550000Y-62400000D02*
X106550000Y-64937500D01*
X106500000Y-74987500D02*
X106487500Y-75000000D01*
X106500000Y-72450000D02*
X106500000Y-74987500D01*
X106550000Y-82450000D02*
X106550000Y-84937500D01*
X106550000Y-84937500D02*
X106487500Y-85000000D01*
X106500000Y-94987500D02*
X106487500Y-95000000D01*
X106500000Y-92450000D02*
X106500000Y-94987500D01*
X106500000Y-104987500D02*
X106487500Y-105000000D01*
X106500000Y-102450000D02*
X106500000Y-104987500D01*
X116550000Y-64937500D02*
X116487500Y-65000000D01*
X116550000Y-62450000D02*
X116550000Y-64937500D01*
X116500000Y-72450000D02*
X116500000Y-74987500D01*
X116500000Y-74987500D02*
X116487500Y-75000000D01*
X116550000Y-82450000D02*
X116550000Y-84937500D01*
X116550000Y-84937500D02*
X116487500Y-85000000D01*
X116550000Y-92450000D02*
X116550000Y-94937500D01*
X116550000Y-94937500D02*
X116487500Y-95000000D01*
X116487500Y-105000000D02*
X116487500Y-102462500D01*
X116487500Y-102462500D02*
X116500000Y-102450000D01*
X126500000Y-62500000D02*
X126500000Y-64987500D01*
X126500000Y-64987500D02*
X126487500Y-65000000D01*
X126550000Y-72450000D02*
X126550000Y-74937500D01*
X126550000Y-74937500D02*
X126487500Y-75000000D01*
X126550000Y-82450000D02*
X126550000Y-84937500D01*
X126550000Y-84937500D02*
X126487500Y-85000000D01*
X126500000Y-92400000D02*
X126500000Y-94987500D01*
X126500000Y-94987500D02*
X126487500Y-95000000D01*
X126550000Y-102450000D02*
X126550000Y-104937500D01*
X126550000Y-104937500D02*
X126487500Y-105000000D01*
X136550000Y-62350000D02*
X136550000Y-64887500D01*
X136550000Y-64887500D02*
X136487500Y-64950000D01*
X136550000Y-74937500D02*
X136487500Y-75000000D01*
X136550000Y-72500000D02*
X136550000Y-74937500D01*
X136600000Y-82450000D02*
X136600000Y-84937500D01*
X136600000Y-84937500D02*
X136537500Y-85000000D01*
X136550000Y-94937500D02*
X136487500Y-95000000D01*
X136550000Y-92400000D02*
X136550000Y-94937500D01*
X136500000Y-104987500D02*
X136487500Y-105000000D01*
X136500000Y-102450000D02*
X136500000Y-104987500D01*
X104950000Y-67150000D02*
X104950000Y-62750000D01*
X104950000Y-62750000D02*
X104600000Y-62400000D01*
X105350000Y-67550000D02*
X104950000Y-67150000D01*
X104600000Y-62400000D02*
X103450000Y-62400000D01*
X106550000Y-67550000D02*
X105350000Y-67550000D01*
X105400000Y-77500000D02*
X105050000Y-77150000D01*
X106500000Y-77500000D02*
X105400000Y-77500000D01*
X105050000Y-72800000D02*
X104700000Y-72450000D01*
X104700000Y-72450000D02*
X103400000Y-72450000D01*
X105050000Y-77150000D02*
X105050000Y-72800000D01*
X105200000Y-87500000D02*
X105000000Y-87300000D01*
X105000000Y-82650000D02*
X104800000Y-82450000D01*
X105000000Y-87300000D02*
X105000000Y-82650000D01*
X106550000Y-87500000D02*
X105200000Y-87500000D01*
X104800000Y-82450000D02*
X103450000Y-82450000D01*
X105300000Y-97550000D02*
X105050000Y-97300000D01*
X106550000Y-97550000D02*
X105300000Y-97550000D01*
X105050000Y-92600000D02*
X104900000Y-92450000D01*
X104900000Y-92450000D02*
X103400000Y-92450000D01*
X105050000Y-97300000D02*
X105050000Y-92600000D01*
X105000000Y-102700000D02*
X104750000Y-102450000D01*
X106550000Y-107500000D02*
X105250000Y-107500000D01*
X104750000Y-102450000D02*
X103400000Y-102450000D01*
X105000000Y-107250000D02*
X105000000Y-102700000D01*
X105250000Y-107500000D02*
X105000000Y-107250000D01*
X115050000Y-62800000D02*
X114700000Y-62450000D01*
X115300000Y-67550000D02*
X115050000Y-67300000D01*
X116500000Y-67550000D02*
X115300000Y-67550000D01*
X114700000Y-62450000D02*
X113450000Y-62450000D01*
X115050000Y-67300000D02*
X115050000Y-62800000D01*
X115250000Y-77600000D02*
X115050000Y-77400000D01*
X114750000Y-72450000D02*
X113400000Y-72450000D01*
X115050000Y-77400000D02*
X115050000Y-72750000D01*
X115050000Y-72750000D02*
X114750000Y-72450000D01*
X116550000Y-77600000D02*
X115250000Y-77600000D01*
X115050000Y-82750000D02*
X114750000Y-82450000D01*
X115050000Y-87400000D02*
X115050000Y-82750000D01*
X116550000Y-87550000D02*
X115200000Y-87550000D01*
X115200000Y-87550000D02*
X115050000Y-87400000D01*
X114750000Y-82450000D02*
X113450000Y-82450000D01*
X115000000Y-92650000D02*
X114800000Y-92450000D01*
X115000000Y-97350000D02*
X115000000Y-92650000D01*
X115200000Y-97550000D02*
X115000000Y-97350000D01*
X114800000Y-92450000D02*
X113450000Y-92450000D01*
X116600000Y-97550000D02*
X115200000Y-97550000D01*
X116550000Y-107550000D02*
X115250000Y-107550000D01*
X115000000Y-107300000D02*
X115000000Y-102800000D01*
X115250000Y-107550000D02*
X115000000Y-107300000D01*
X115000000Y-102800000D02*
X114650000Y-102450000D01*
X114650000Y-102450000D02*
X113400000Y-102450000D01*
X125050000Y-62750000D02*
X124800000Y-62500000D01*
X125050000Y-67350000D02*
X125050000Y-62750000D01*
X126550000Y-67550000D02*
X125250000Y-67550000D01*
X124800000Y-62500000D02*
X123400000Y-62500000D01*
X125250000Y-67550000D02*
X125050000Y-67350000D01*
X124700000Y-72450000D02*
X123450000Y-72450000D01*
X126500000Y-77600000D02*
X125250000Y-77600000D01*
X125000000Y-72750000D02*
X124700000Y-72450000D01*
X125250000Y-77600000D02*
X125000000Y-77350000D01*
X125000000Y-77350000D02*
X125000000Y-72750000D01*
X126500000Y-87550000D02*
X125200000Y-87550000D01*
X125200000Y-87550000D02*
X125050000Y-87400000D01*
X125050000Y-87400000D02*
X125050000Y-82750000D01*
X125050000Y-82750000D02*
X124750000Y-82450000D01*
X124750000Y-82450000D02*
X123450000Y-82450000D01*
X125000000Y-92750000D02*
X124650000Y-92400000D01*
X126600000Y-97550000D02*
X125250000Y-97550000D01*
X125000000Y-97300000D02*
X125000000Y-92750000D01*
X125250000Y-97550000D02*
X125000000Y-97300000D01*
X124650000Y-92400000D02*
X123400000Y-92400000D01*
X126550000Y-107550000D02*
X125300000Y-107550000D01*
X124650000Y-102450000D02*
X123450000Y-102450000D01*
X125300000Y-107550000D02*
X125000000Y-107250000D01*
X125000000Y-107250000D02*
X125000000Y-102800000D01*
X125000000Y-102800000D02*
X124650000Y-102450000D01*
X135050000Y-67300000D02*
X135050000Y-62600000D01*
X135050000Y-62600000D02*
X134800000Y-62350000D01*
X136550000Y-67550000D02*
X135300000Y-67550000D01*
X134800000Y-62350000D02*
X133450000Y-62350000D01*
X135300000Y-67550000D02*
X135050000Y-67300000D01*
X135050000Y-77350000D02*
X135050000Y-72850000D01*
X135050000Y-72850000D02*
X134700000Y-72500000D01*
X136500000Y-77600000D02*
X135300000Y-77600000D01*
X134700000Y-72500000D02*
X133450000Y-72500000D01*
X135300000Y-77600000D02*
X135050000Y-77350000D01*
X134700000Y-82450000D02*
X133500000Y-82450000D01*
X136600000Y-87550000D02*
X135200000Y-87550000D01*
X135000000Y-82750000D02*
X134700000Y-82450000D01*
X135000000Y-87350000D02*
X135000000Y-82750000D01*
X135200000Y-87550000D02*
X135000000Y-87350000D01*
X134650000Y-92400000D02*
X133450000Y-92400000D01*
X135000000Y-97350000D02*
X135000000Y-92750000D01*
X135000000Y-92750000D02*
X134650000Y-92400000D01*
X135250000Y-97600000D02*
X135000000Y-97350000D01*
X136550000Y-97600000D02*
X135250000Y-97600000D01*
X134600000Y-102450000D02*
X133400000Y-102450000D01*
X135300000Y-107550000D02*
X135000000Y-107250000D01*
X135000000Y-102850000D02*
X134600000Y-102450000D01*
X135000000Y-107250000D02*
X135000000Y-102850000D01*
X136550000Y-107550000D02*
X135300000Y-107550000D01*
X146500000Y-65037500D02*
X146487500Y-65050000D01*
X146500000Y-62500000D02*
X146500000Y-65037500D01*
X146550000Y-72500000D02*
X146550000Y-74937500D01*
X146550000Y-74937500D02*
X146487500Y-75000000D01*
X146550000Y-82450000D02*
X146550000Y-84937500D01*
X146550000Y-84937500D02*
X146487500Y-85000000D01*
X146550000Y-94937500D02*
X146487500Y-95000000D01*
X146550000Y-92450000D02*
X146550000Y-94937500D01*
X146550000Y-104937500D02*
X146487500Y-105000000D01*
X146550000Y-102300000D02*
X146550000Y-104937500D01*
X146600000Y-67650000D02*
X145250000Y-67650000D01*
X145250000Y-67650000D02*
X145050000Y-67450000D01*
X145050000Y-62800000D02*
X144750000Y-62500000D01*
X144750000Y-62500000D02*
X143400000Y-62500000D01*
X145050000Y-67450000D02*
X145050000Y-62800000D01*
X146500000Y-77550000D02*
X145250000Y-77550000D01*
X145050000Y-77350000D02*
X145050000Y-72850000D01*
X144700000Y-72500000D02*
X143450000Y-72500000D01*
X145250000Y-77550000D02*
X145050000Y-77350000D01*
X145050000Y-72850000D02*
X144700000Y-72500000D01*
X145000000Y-87350000D02*
X145000000Y-82750000D01*
X145200000Y-87550000D02*
X145000000Y-87350000D01*
X145000000Y-82750000D02*
X144700000Y-82450000D01*
X146550000Y-87550000D02*
X145200000Y-87550000D01*
X144700000Y-82450000D02*
X143450000Y-82450000D01*
X145000000Y-97300000D02*
X145000000Y-92750000D01*
X144700000Y-92450000D02*
X143450000Y-92450000D01*
X145000000Y-92750000D02*
X144700000Y-92450000D01*
X145250000Y-97550000D02*
X145000000Y-97300000D01*
X146550000Y-97550000D02*
X145250000Y-97550000D01*
X145350000Y-107500000D02*
X145000000Y-107150000D01*
X145000000Y-107150000D02*
X145000000Y-102650000D01*
X144650000Y-102300000D02*
X143450000Y-102300000D01*
X146550000Y-107500000D02*
X145350000Y-107500000D01*
X145000000Y-102650000D02*
X144650000Y-102300000D01*
X143450000Y-87550000D02*
X144900000Y-89000000D01*
X125000000Y-99050000D02*
X129200000Y-99050000D01*
X134950000Y-89000000D02*
X139400000Y-89000000D01*
X115000000Y-99050000D02*
X119100000Y-99050000D01*
X143450000Y-109050000D02*
X149500000Y-109050000D01*
X103450000Y-107500000D02*
X105000000Y-109050000D01*
X123450000Y-67550000D02*
X124950000Y-69050000D01*
X143400000Y-77550000D02*
X144900000Y-79050000D01*
X133450000Y-109050000D02*
X143450000Y-109050000D01*
X103450000Y-67550000D02*
X104900000Y-69000000D01*
X143450000Y-97550000D02*
X144950000Y-99050000D01*
X124850000Y-89000000D02*
X129150000Y-89000000D01*
X113450000Y-87550000D02*
X114900000Y-89000000D01*
X103400000Y-67600000D02*
X103450000Y-67550000D01*
X113450000Y-109050000D02*
X120900000Y-109050000D01*
X114900000Y-89000000D02*
X119200000Y-89000000D01*
X103450000Y-97550000D02*
X104950000Y-99050000D01*
X105000000Y-109050000D02*
X113450000Y-109050000D01*
X144900000Y-79050000D02*
X149450000Y-79050000D01*
X144900000Y-89000000D02*
X149450000Y-89000000D01*
X143450000Y-107500000D02*
X143450000Y-109050000D01*
X113400000Y-67550000D02*
X114900000Y-69050000D01*
X123450000Y-109050000D02*
X133450000Y-109050000D01*
X120900000Y-109050000D02*
X123450000Y-109050000D01*
X144950000Y-99050000D02*
X149450000Y-99050000D01*
X123500000Y-97550000D02*
X125000000Y-99050000D01*
X114900000Y-69050000D02*
X119200000Y-69050000D01*
X143500000Y-67650000D02*
X145000000Y-69150000D01*
X133450000Y-107550000D02*
X133450000Y-109050000D01*
X124950000Y-69050000D02*
X129150000Y-69050000D01*
X134950000Y-69050000D02*
X139200000Y-69050000D01*
X114900000Y-79050000D02*
X119200000Y-79050000D01*
X145000000Y-69150000D02*
X149400000Y-69150000D01*
X113450000Y-77600000D02*
X114900000Y-79050000D01*
X103450000Y-87500000D02*
X104900000Y-88950000D01*
X134950000Y-99100000D02*
X139200000Y-99100000D01*
X103400000Y-77500000D02*
X104850000Y-78950000D01*
X133450000Y-67550000D02*
X134950000Y-69050000D01*
X124900000Y-79100000D02*
X129100000Y-79100000D01*
X104900000Y-88950000D02*
X109150000Y-88950000D01*
X149500000Y-109050000D02*
X149550000Y-109000000D01*
X123400000Y-87550000D02*
X124850000Y-89000000D01*
X134850000Y-79050000D02*
X139400000Y-79050000D01*
X123400000Y-77600000D02*
X124900000Y-79100000D01*
X104950000Y-99050000D02*
X109250000Y-99050000D01*
X113500000Y-97550000D02*
X115000000Y-99050000D01*
X104900000Y-69000000D02*
X109450000Y-69000000D01*
X104850000Y-78950000D02*
X108950000Y-78950000D01*
X113450000Y-107550000D02*
X113450000Y-109050000D01*
X123450000Y-107550000D02*
X123450000Y-109050000D01*
X133450000Y-97600000D02*
X134950000Y-99100000D01*
X133400000Y-77600000D02*
X134850000Y-79050000D01*
X133500000Y-87550000D02*
X134950000Y-89000000D01*
G04 #@! TA.AperFunction,Conductor*
G36*
X111493039Y-60819685D02*
G01*
X111538794Y-60872489D01*
X111550000Y-60924000D01*
X111550000Y-105026000D01*
X111530315Y-105093039D01*
X111477511Y-105138794D01*
X111426000Y-105150000D01*
X110723860Y-105150000D01*
X110656821Y-105130315D01*
X110611066Y-105077511D01*
X110599860Y-105026140D01*
X110550140Y-60924140D01*
X110569749Y-60857078D01*
X110622501Y-60811264D01*
X110674140Y-60800000D01*
X111426000Y-60800000D01*
X111493039Y-60819685D01*
G37*
G04 #@! TD.AperFunction*
G04 #@! TA.AperFunction,Conductor*
G36*
X119602523Y-68919685D02*
G01*
X119648278Y-68972489D01*
X119659484Y-69024000D01*
X119659484Y-108293569D01*
X119641023Y-108358665D01*
X119565645Y-108480871D01*
X119565641Y-108480880D01*
X119510494Y-108647302D01*
X119510493Y-108647309D01*
X119500000Y-108750013D01*
X119500000Y-108750025D01*
X119500001Y-108925999D01*
X119480317Y-108993039D01*
X119427513Y-109038794D01*
X119376001Y-109050000D01*
X118833330Y-109050000D01*
X118766291Y-109030315D01*
X118720536Y-108977511D01*
X118709330Y-108926154D01*
X118659639Y-69024154D01*
X118679240Y-68957090D01*
X118731987Y-68911270D01*
X118783639Y-68900000D01*
X119535484Y-68900000D01*
X119602523Y-68919685D01*
G37*
G04 #@! TD.AperFunction*
G04 #@! TA.AperFunction,Conductor*
G36*
X131501080Y-60819213D02*
G01*
X131546835Y-60872017D01*
X131558041Y-60923528D01*
X131558041Y-105025528D01*
X131538356Y-105092567D01*
X131485552Y-105138322D01*
X131434041Y-105149528D01*
X130731901Y-105149528D01*
X130664862Y-105129843D01*
X130619107Y-105077039D01*
X130607901Y-105025668D01*
X130558181Y-60923668D01*
X130577790Y-60856606D01*
X130630542Y-60810792D01*
X130682181Y-60799528D01*
X131434041Y-60799528D01*
X131501080Y-60819213D01*
G37*
G04 #@! TD.AperFunction*
G04 #@! TA.AperFunction,Conductor*
G36*
X101192899Y-60819685D02*
G01*
X101238654Y-60872489D01*
X101249860Y-60924140D01*
X101200140Y-105026140D01*
X101180380Y-105093157D01*
X101127524Y-105138852D01*
X101076140Y-105150000D01*
X100374140Y-105150000D01*
X100307101Y-105130315D01*
X100261346Y-105077511D01*
X100250140Y-105025860D01*
X100299860Y-60923860D01*
X100319620Y-60856843D01*
X100372476Y-60811148D01*
X100423860Y-60800000D01*
X101125860Y-60800000D01*
X101192899Y-60819685D01*
G37*
G04 #@! TD.AperFunction*
G04 #@! TA.AperFunction,Conductor*
G36*
X141650800Y-60819213D02*
G01*
X141696555Y-60872017D01*
X141707761Y-60923808D01*
X141608320Y-105025808D01*
X141588484Y-105092803D01*
X141535577Y-105138438D01*
X141484320Y-105149528D01*
X140782181Y-105149528D01*
X140715142Y-105129843D01*
X140669387Y-105077039D01*
X140658181Y-105025388D01*
X140707901Y-60923388D01*
X140727661Y-60856371D01*
X140780517Y-60810676D01*
X140831901Y-60799528D01*
X141583761Y-60799528D01*
X141650800Y-60819213D01*
G37*
G04 #@! TD.AperFunction*
G04 #@! TA.AperFunction,Conductor*
G36*
X149645092Y-69019123D02*
G01*
X149690847Y-69071927D01*
X149702053Y-69123438D01*
X149702053Y-109025438D01*
X149682368Y-109092477D01*
X149629564Y-109138232D01*
X149578053Y-109149438D01*
X148875899Y-109149438D01*
X148808860Y-109129753D01*
X148763105Y-109076949D01*
X148751899Y-109025592D01*
X148702208Y-69123592D01*
X148721809Y-69056528D01*
X148774556Y-69010708D01*
X148826208Y-68999438D01*
X149578053Y-68999438D01*
X149645092Y-69019123D01*
G37*
G04 #@! TD.AperFunction*
G04 #@! TA.AperFunction,Conductor*
G36*
X139752369Y-68919685D02*
G01*
X139798124Y-68972489D01*
X139809330Y-69024154D01*
X139759638Y-109026154D01*
X139739870Y-109093169D01*
X139687009Y-109138858D01*
X139635638Y-109150000D01*
X138933484Y-109150000D01*
X138866445Y-109130315D01*
X138820690Y-109077511D01*
X138809484Y-109026000D01*
X138809484Y-69024000D01*
X138829169Y-68956961D01*
X138881973Y-68911206D01*
X138933484Y-68900000D01*
X139685330Y-68900000D01*
X139752369Y-68919685D01*
G37*
G04 #@! TD.AperFunction*
G04 #@! TA.AperFunction,Conductor*
G36*
X121350000Y-61899999D02*
G01*
X121483968Y-61899999D01*
X121551007Y-61919684D01*
X121596762Y-61972488D01*
X121607968Y-62024143D01*
X121558184Y-105025672D01*
X121538422Y-105092688D01*
X121485565Y-105138382D01*
X121434184Y-105149528D01*
X120732043Y-105149528D01*
X120665004Y-105129843D01*
X120619249Y-105077039D01*
X120608043Y-105025526D01*
X120608827Y-62023997D01*
X120628513Y-61956958D01*
X120681318Y-61911204D01*
X120732827Y-61899999D01*
X120850000Y-61899999D01*
X120850000Y-61270328D01*
X121350000Y-61270328D01*
X121350000Y-61899999D01*
G37*
G04 #@! TD.AperFunction*
G04 #@! TA.AperFunction,Conductor*
G36*
X109594482Y-68869685D02*
G01*
X109640237Y-68922489D01*
X109651443Y-68974000D01*
X109651443Y-109026000D01*
X109631758Y-109093039D01*
X109578954Y-109138794D01*
X109527443Y-109150000D01*
X108825289Y-109150000D01*
X108758250Y-109130315D01*
X108712495Y-109077511D01*
X108701289Y-109026154D01*
X108651597Y-68974154D01*
X108671198Y-68907090D01*
X108723946Y-68861270D01*
X108775597Y-68850000D01*
X109527443Y-68850000D01*
X109594482Y-68869685D01*
G37*
G04 #@! TD.AperFunction*
G04 #@! TA.AperFunction,Conductor*
G36*
X129502831Y-68919685D02*
G01*
X129548586Y-68972489D01*
X129559792Y-69023692D01*
X129659175Y-108975692D01*
X129639657Y-109042780D01*
X129586967Y-109088666D01*
X129535175Y-109100000D01*
X128833022Y-109100000D01*
X128765983Y-109080315D01*
X128720228Y-109027511D01*
X128709023Y-108976463D01*
X128559948Y-69024463D01*
X128579382Y-68957350D01*
X128632015Y-68911399D01*
X128683947Y-68900000D01*
X129435792Y-68900000D01*
X129502831Y-68919685D01*
G37*
G04 #@! TD.AperFunction*
M02*
