G04 #@! TF.GenerationSoftware,KiCad,Pcbnew,7.0.9*
G04 #@! TF.CreationDate,2024-04-06T01:03:45+02:00*
G04 #@! TF.ProjectId,v3,76332e6b-6963-4616-945f-706362585858,rev?*
G04 #@! TF.SameCoordinates,Original*
G04 #@! TF.FileFunction,Copper,L1,Top*
G04 #@! TF.FilePolarity,Positive*
%FSLAX46Y46*%
G04 Gerber Fmt 4.6, Leading zero omitted, Abs format (unit mm)*
G04 Created by KiCad (PCBNEW 7.0.9) date 2024-04-06 01:03:45*
%MOMM*%
%LPD*%
G01*
G04 APERTURE LIST*
G04 Aperture macros list*
%AMRoundRect*
0 Rectangle with rounded corners*
0 $1 Rounding radius*
0 $2 $3 $4 $5 $6 $7 $8 $9 X,Y pos of 4 corners*
0 Add a 4 corners polygon primitive as box body*
4,1,4,$2,$3,$4,$5,$6,$7,$8,$9,$2,$3,0*
0 Add four circle primitives for the rounded corners*
1,1,$1+$1,$2,$3*
1,1,$1+$1,$4,$5*
1,1,$1+$1,$6,$7*
1,1,$1+$1,$8,$9*
0 Add four rect primitives between the rounded corners*
20,1,$1+$1,$2,$3,$4,$5,0*
20,1,$1+$1,$4,$5,$6,$7,0*
20,1,$1+$1,$6,$7,$8,$9,0*
20,1,$1+$1,$8,$9,$2,$3,0*%
G04 Aperture macros list end*
G04 #@! TA.AperFunction,SMDPad,CuDef*
%ADD10RoundRect,0.250000X-0.262500X-0.450000X0.262500X-0.450000X0.262500X0.450000X-0.262500X0.450000X0*%
G04 #@! TD*
G04 #@! TA.AperFunction,SMDPad,CuDef*
%ADD11RoundRect,0.218750X-0.218750X-0.256250X0.218750X-0.256250X0.218750X0.256250X-0.218750X0.256250X0*%
G04 #@! TD*
G04 #@! TA.AperFunction,ComponentPad*
%ADD12RoundRect,0.250000X0.600000X0.600000X-0.600000X0.600000X-0.600000X-0.600000X0.600000X-0.600000X0*%
G04 #@! TD*
G04 #@! TA.AperFunction,ComponentPad*
%ADD13R,1.700000X1.700000*%
G04 #@! TD*
G04 #@! TA.AperFunction,ComponentPad*
%ADD14O,1.700000X1.700000*%
G04 #@! TD*
G04 #@! TA.AperFunction,ComponentPad*
%ADD15O,1.700000X1.100000*%
G04 #@! TD*
G04 #@! TA.AperFunction,ViaPad*
%ADD16C,0.800000*%
G04 #@! TD*
G04 #@! TA.AperFunction,Conductor*
%ADD17C,0.500000*%
G04 #@! TD*
G04 APERTURE END LIST*
D10*
X174062500Y-116900000D03*
X175887500Y-116900000D03*
X174062500Y-106900000D03*
X175887500Y-106900000D03*
X174062500Y-96900000D03*
X175887500Y-96900000D03*
X174062500Y-86900000D03*
X175887500Y-86900000D03*
X174062500Y-76900000D03*
X175887500Y-76900000D03*
X164062500Y-116900000D03*
X165887500Y-116900000D03*
X164062500Y-106900000D03*
X165887500Y-106900000D03*
X164062500Y-96900000D03*
X165887500Y-96900000D03*
X164062500Y-86900000D03*
X165887500Y-86900000D03*
X164062500Y-76900000D03*
X165887500Y-76900000D03*
X154062500Y-116900000D03*
X155887500Y-116900000D03*
X154062500Y-106900000D03*
X155887500Y-106900000D03*
X154062500Y-96900000D03*
X155887500Y-96900000D03*
X154062500Y-86900000D03*
X155887500Y-86900000D03*
X154062500Y-76900000D03*
X155887500Y-76900000D03*
X144062500Y-116900000D03*
X145887500Y-116900000D03*
X144062500Y-106900000D03*
X145887500Y-106900000D03*
X144062500Y-96800000D03*
X145887500Y-96800000D03*
X144062500Y-86900000D03*
X145887500Y-86900000D03*
X144062500Y-76900000D03*
X145887500Y-76900000D03*
X134062500Y-116900000D03*
X135887500Y-116900000D03*
X134112500Y-106900000D03*
X135937500Y-106900000D03*
X134062500Y-96900000D03*
X135887500Y-96900000D03*
X134062500Y-86900000D03*
X135887500Y-86900000D03*
X134062500Y-76900000D03*
X135887500Y-76900000D03*
D11*
X154200000Y-75000000D03*
X155775000Y-75000000D03*
X154225000Y-85000000D03*
X155800000Y-85000000D03*
X134237500Y-95000000D03*
X135812500Y-95000000D03*
X164225000Y-105000000D03*
X165800000Y-105000000D03*
X164225000Y-115000000D03*
X165800000Y-115000000D03*
X144225000Y-85000000D03*
X145800000Y-85000000D03*
X174225000Y-85000000D03*
X175800000Y-85000000D03*
X144200000Y-105000000D03*
X145775000Y-105000000D03*
X164225000Y-95000000D03*
X165800000Y-95000000D03*
X174225000Y-115000000D03*
X175800000Y-115000000D03*
X174225000Y-95000000D03*
X175800000Y-95000000D03*
X144225000Y-75000000D03*
X145800000Y-75000000D03*
X134225000Y-75000000D03*
X135800000Y-75000000D03*
X164225000Y-85000000D03*
X165800000Y-85000000D03*
X134225000Y-115000000D03*
X135800000Y-115000000D03*
X154225000Y-115000000D03*
X155800000Y-115000000D03*
X174225000Y-75000000D03*
X175800000Y-75000000D03*
X134237500Y-85000000D03*
X135812500Y-85000000D03*
X164225000Y-75000000D03*
X165800000Y-75000000D03*
X134237500Y-105000000D03*
X135812500Y-105000000D03*
X144225000Y-115000000D03*
X145800000Y-115000000D03*
X154225000Y-95000000D03*
X155800000Y-95000000D03*
X174225000Y-105000000D03*
X175800000Y-105000000D03*
X144225000Y-95000000D03*
X145800000Y-95000000D03*
X154225000Y-105000000D03*
X155800000Y-105000000D03*
D12*
X159300000Y-89500000D03*
D13*
X154360000Y-102800000D03*
D14*
X156900000Y-102800000D03*
X159440000Y-102800000D03*
X161980000Y-102800000D03*
X164520000Y-102800000D03*
D15*
X132600000Y-100400000D03*
X136400000Y-100400000D03*
X132600000Y-91760000D03*
X136400000Y-91760000D03*
D16*
X132900000Y-105000000D03*
X132850000Y-75000000D03*
X142800000Y-115000000D03*
X142800000Y-85000000D03*
X172800000Y-105000000D03*
X172900000Y-95000000D03*
X152850000Y-75000000D03*
X172900000Y-75000000D03*
X163000000Y-95000000D03*
X142900000Y-105000000D03*
X139000000Y-93000000D03*
X132700000Y-115000000D03*
X155700000Y-83400000D03*
X162900000Y-105000000D03*
X142800000Y-75000000D03*
X132700000Y-85000000D03*
X172800000Y-115000000D03*
X152800000Y-115000000D03*
X162800000Y-85000000D03*
X152900000Y-105000000D03*
X162850000Y-75000000D03*
X155800000Y-89700000D03*
X162800000Y-115000000D03*
X172900000Y-84900000D03*
X154600000Y-81400000D03*
X151600000Y-83400000D03*
X150100000Y-87800000D03*
X152500000Y-87800000D03*
X151300000Y-87050000D03*
D17*
X141000000Y-95000000D02*
X144225000Y-95000000D01*
X139000000Y-93000000D02*
X141000000Y-95000000D01*
X134237500Y-105000000D02*
X132900000Y-105000000D01*
X155800000Y-92855000D02*
X154225000Y-94430000D01*
X155800000Y-89700000D02*
X155800000Y-92855000D01*
X154225000Y-94430000D02*
X154225000Y-95000000D01*
X155700000Y-83400000D02*
X154225000Y-84875000D01*
X154225000Y-84875000D02*
X154225000Y-85000000D01*
X164225000Y-105000000D02*
X164225000Y-104775000D01*
X174225000Y-75000000D02*
X172900000Y-75000000D01*
X174225000Y-105000000D02*
X172800000Y-105000000D01*
X173000000Y-85000000D02*
X172900000Y-84900000D01*
X174225000Y-115000000D02*
X172800000Y-115000000D01*
X142850000Y-85000000D02*
X142800000Y-85000000D01*
X164225000Y-75000000D02*
X162850000Y-75000000D01*
X132750000Y-115000000D02*
X132700000Y-115000000D01*
X132750000Y-85000000D02*
X132700000Y-85000000D01*
X174225000Y-95000000D02*
X172900000Y-95000000D01*
X154200000Y-75000000D02*
X152850000Y-75000000D01*
X142850000Y-115000000D02*
X142800000Y-115000000D01*
X144200000Y-105000000D02*
X142900000Y-105000000D01*
X144225000Y-85000000D02*
X142850000Y-85000000D01*
X164225000Y-105000000D02*
X163200000Y-105000000D01*
X144225000Y-115000000D02*
X142850000Y-115000000D01*
X144225000Y-75000000D02*
X142800000Y-75000000D01*
X164225000Y-95000000D02*
X163000000Y-95000000D01*
X154225000Y-105000000D02*
X152900000Y-105000000D01*
X162800000Y-85000000D02*
X164225000Y-85000000D01*
X154225000Y-115000000D02*
X152800000Y-115000000D01*
X174225000Y-85000000D02*
X173000000Y-85000000D01*
X132600000Y-91760000D02*
X136400000Y-91760000D01*
X134237500Y-93397500D02*
X132600000Y-91760000D01*
X163200000Y-105000000D02*
X162900000Y-105000000D01*
X134225000Y-115000000D02*
X132750000Y-115000000D01*
X162800000Y-115000000D02*
X164225000Y-115000000D01*
X134237500Y-95000000D02*
X134237500Y-93397500D01*
X134225000Y-75000000D02*
X132850000Y-75000000D01*
X134237500Y-85000000D02*
X132750000Y-85000000D01*
X136400000Y-100400000D02*
X132600000Y-100400000D01*
X135800000Y-76900000D02*
X135800000Y-75000000D01*
X135800000Y-85012500D02*
X135812500Y-85000000D01*
X135800000Y-86900000D02*
X135800000Y-85012500D01*
X135812500Y-95000000D02*
X135812500Y-96887500D01*
X135812500Y-96887500D02*
X135800000Y-96900000D01*
X135812500Y-106862500D02*
X135850000Y-106900000D01*
X135812500Y-105000000D02*
X135812500Y-106862500D01*
X135800000Y-115000000D02*
X135800000Y-116900000D01*
X145800000Y-76900000D02*
X145800000Y-75000000D01*
X145800000Y-85000000D02*
X145800000Y-86900000D01*
X145800000Y-95000000D02*
X145800000Y-96800000D01*
X145775000Y-106875000D02*
X145800000Y-106900000D01*
X145775000Y-105000000D02*
X145775000Y-106875000D01*
X145800000Y-115000000D02*
X145800000Y-116900000D01*
X155800000Y-75025000D02*
X155775000Y-75000000D01*
X155800000Y-76900000D02*
X155800000Y-75025000D01*
X155800000Y-86900000D02*
X155800000Y-85000000D01*
X155800000Y-95000000D02*
X155800000Y-96900000D01*
X155800000Y-105000000D02*
X155800000Y-106900000D01*
X155800000Y-115000000D02*
X155800000Y-116900000D01*
X165800000Y-75000000D02*
X165800000Y-76900000D01*
X165800000Y-86900000D02*
X165800000Y-85000000D01*
X165800000Y-96900000D02*
X165800000Y-95000000D01*
X165800000Y-105000000D02*
X165800000Y-106900000D01*
X165800000Y-115000000D02*
X165800000Y-116900000D01*
X175800000Y-76900000D02*
X175800000Y-75000000D01*
X175800000Y-86900000D02*
X175800000Y-85000000D01*
X175800000Y-96900000D02*
X175800000Y-95000000D01*
X175800000Y-105000000D02*
X175800000Y-106900000D01*
X175800000Y-115000000D02*
X175800000Y-116900000D01*
X151600000Y-83400000D02*
X152700000Y-83400000D01*
X152700000Y-83400000D02*
X154600000Y-81500000D01*
X154600000Y-81500000D02*
X154600000Y-81400000D01*
G04 #@! TA.AperFunction,Conductor*
G36*
X132993039Y-86519685D02*
G01*
X133038794Y-86572489D01*
X133050000Y-86624000D01*
X133050000Y-86650000D01*
X134188500Y-86650000D01*
X134255539Y-86669685D01*
X134301294Y-86722489D01*
X134312500Y-86774000D01*
X134312500Y-88099999D01*
X134374972Y-88099999D01*
X134374986Y-88099998D01*
X134477697Y-88089505D01*
X134644119Y-88034358D01*
X134644124Y-88034356D01*
X134793342Y-87942317D01*
X134886964Y-87848695D01*
X134948287Y-87815210D01*
X135017979Y-87820194D01*
X135062327Y-87848695D01*
X135156344Y-87942712D01*
X135305666Y-88034814D01*
X135472203Y-88089999D01*
X135574991Y-88100500D01*
X136200008Y-88100499D01*
X136200016Y-88100498D01*
X136200019Y-88100498D01*
X136256302Y-88094748D01*
X136302797Y-88089999D01*
X136469334Y-88034814D01*
X136618656Y-87942712D01*
X136742712Y-87818656D01*
X136834814Y-87669334D01*
X136889999Y-87502797D01*
X136900500Y-87400009D01*
X136900500Y-87150000D01*
X143050001Y-87150000D01*
X143050001Y-87399986D01*
X143060494Y-87502697D01*
X143115641Y-87669119D01*
X143115643Y-87669124D01*
X143207684Y-87818345D01*
X143331654Y-87942315D01*
X143480875Y-88034356D01*
X143480880Y-88034358D01*
X143647302Y-88089505D01*
X143647309Y-88089506D01*
X143750019Y-88099999D01*
X143812499Y-88099998D01*
X143812500Y-88099998D01*
X143812500Y-87150000D01*
X143050001Y-87150000D01*
X136900500Y-87150000D01*
X136900499Y-86623999D01*
X136920183Y-86556961D01*
X136972987Y-86511206D01*
X137024499Y-86500000D01*
X142926000Y-86500000D01*
X142993039Y-86519685D01*
X143038794Y-86572489D01*
X143050000Y-86624000D01*
X143050000Y-86650000D01*
X144188500Y-86650000D01*
X144255539Y-86669685D01*
X144301294Y-86722489D01*
X144312500Y-86774000D01*
X144312500Y-88099999D01*
X144374972Y-88099999D01*
X144374986Y-88099998D01*
X144477697Y-88089505D01*
X144644119Y-88034358D01*
X144644124Y-88034356D01*
X144793342Y-87942317D01*
X144886964Y-87848695D01*
X144948287Y-87815210D01*
X145017979Y-87820194D01*
X145062327Y-87848695D01*
X145156344Y-87942712D01*
X145305666Y-88034814D01*
X145472203Y-88089999D01*
X145574991Y-88100500D01*
X146200008Y-88100499D01*
X146200016Y-88100498D01*
X146200019Y-88100498D01*
X146256302Y-88094748D01*
X146302797Y-88089999D01*
X146469334Y-88034814D01*
X146618656Y-87942712D01*
X146742712Y-87818656D01*
X146834814Y-87669334D01*
X146889999Y-87502797D01*
X146900500Y-87400009D01*
X146900500Y-87150000D01*
X153050001Y-87150000D01*
X153050001Y-87399986D01*
X153060494Y-87502697D01*
X153115641Y-87669119D01*
X153115643Y-87669124D01*
X153207684Y-87818345D01*
X153331654Y-87942315D01*
X153480875Y-88034356D01*
X153480880Y-88034358D01*
X153647302Y-88089505D01*
X153647309Y-88089506D01*
X153750019Y-88099999D01*
X153812499Y-88099998D01*
X153812500Y-88099998D01*
X153812500Y-87150000D01*
X153050001Y-87150000D01*
X146900500Y-87150000D01*
X146900499Y-86623999D01*
X146920183Y-86556961D01*
X146972987Y-86511206D01*
X147024499Y-86500000D01*
X152926000Y-86500000D01*
X152993039Y-86519685D01*
X153038794Y-86572489D01*
X153050000Y-86624000D01*
X153050000Y-86650000D01*
X154188500Y-86650000D01*
X154255539Y-86669685D01*
X154301294Y-86722489D01*
X154312500Y-86774000D01*
X154312500Y-88099999D01*
X154374972Y-88099999D01*
X154374986Y-88099998D01*
X154477697Y-88089505D01*
X154644119Y-88034358D01*
X154644124Y-88034356D01*
X154793342Y-87942317D01*
X154886964Y-87848695D01*
X154948287Y-87815210D01*
X155017979Y-87820194D01*
X155062327Y-87848695D01*
X155156344Y-87942712D01*
X155305666Y-88034814D01*
X155472203Y-88089999D01*
X155574991Y-88100500D01*
X156200008Y-88100499D01*
X156200016Y-88100498D01*
X156200019Y-88100498D01*
X156256302Y-88094748D01*
X156302797Y-88089999D01*
X156469334Y-88034814D01*
X156618656Y-87942712D01*
X156742712Y-87818656D01*
X156834814Y-87669334D01*
X156889999Y-87502797D01*
X156900500Y-87400009D01*
X156900500Y-87150000D01*
X163050001Y-87150000D01*
X163050001Y-87399986D01*
X163060494Y-87502697D01*
X163115641Y-87669119D01*
X163115643Y-87669124D01*
X163207684Y-87818345D01*
X163331654Y-87942315D01*
X163480875Y-88034356D01*
X163480880Y-88034358D01*
X163647302Y-88089505D01*
X163647309Y-88089506D01*
X163750019Y-88099999D01*
X163812499Y-88099998D01*
X163812500Y-88099998D01*
X163812500Y-87150000D01*
X163050001Y-87150000D01*
X156900500Y-87150000D01*
X156900499Y-86623999D01*
X156920183Y-86556961D01*
X156972987Y-86511206D01*
X157024499Y-86500000D01*
X162926000Y-86500000D01*
X162993039Y-86519685D01*
X163038794Y-86572489D01*
X163050000Y-86624000D01*
X163050000Y-86650000D01*
X164188500Y-86650000D01*
X164255539Y-86669685D01*
X164301294Y-86722489D01*
X164312500Y-86774000D01*
X164312500Y-88099999D01*
X164374972Y-88099999D01*
X164374986Y-88099998D01*
X164477697Y-88089505D01*
X164644119Y-88034358D01*
X164644124Y-88034356D01*
X164793342Y-87942317D01*
X164886964Y-87848695D01*
X164948287Y-87815210D01*
X165017979Y-87820194D01*
X165062327Y-87848695D01*
X165156344Y-87942712D01*
X165305666Y-88034814D01*
X165472203Y-88089999D01*
X165574991Y-88100500D01*
X166200008Y-88100499D01*
X166200016Y-88100498D01*
X166200019Y-88100498D01*
X166256302Y-88094748D01*
X166302797Y-88089999D01*
X166469334Y-88034814D01*
X166618656Y-87942712D01*
X166742712Y-87818656D01*
X166834814Y-87669334D01*
X166889999Y-87502797D01*
X166900500Y-87400009D01*
X166900500Y-87150000D01*
X173050001Y-87150000D01*
X173050001Y-87399986D01*
X173060494Y-87502697D01*
X173115641Y-87669119D01*
X173115643Y-87669124D01*
X173207684Y-87818345D01*
X173331654Y-87942315D01*
X173480875Y-88034356D01*
X173480880Y-88034358D01*
X173647302Y-88089505D01*
X173647309Y-88089506D01*
X173750019Y-88099999D01*
X173812499Y-88099998D01*
X173812500Y-88099998D01*
X173812500Y-87150000D01*
X173050001Y-87150000D01*
X166900500Y-87150000D01*
X166900499Y-86623999D01*
X166920183Y-86556961D01*
X166972987Y-86511206D01*
X167024499Y-86500000D01*
X172926000Y-86500000D01*
X172993039Y-86519685D01*
X173038794Y-86572489D01*
X173050000Y-86624000D01*
X173050000Y-86650000D01*
X174188500Y-86650000D01*
X174255539Y-86669685D01*
X174301294Y-86722489D01*
X174312500Y-86774000D01*
X174312500Y-88099999D01*
X174374972Y-88099999D01*
X174374986Y-88099998D01*
X174477697Y-88089505D01*
X174644119Y-88034358D01*
X174644124Y-88034356D01*
X174793342Y-87942317D01*
X174886964Y-87848695D01*
X174948287Y-87815210D01*
X175017979Y-87820194D01*
X175062327Y-87848695D01*
X175156344Y-87942712D01*
X175305666Y-88034814D01*
X175472203Y-88089999D01*
X175574991Y-88100500D01*
X176200008Y-88100499D01*
X176200016Y-88100498D01*
X176200019Y-88100498D01*
X176256302Y-88094748D01*
X176302797Y-88089999D01*
X176469334Y-88034814D01*
X176618656Y-87942712D01*
X176742712Y-87818656D01*
X176834814Y-87669334D01*
X176889999Y-87502797D01*
X176900500Y-87400009D01*
X176900499Y-86623999D01*
X176920183Y-86556961D01*
X176972987Y-86511206D01*
X176993188Y-86506811D01*
X177000000Y-86500000D01*
X177000000Y-88500000D01*
X160604266Y-88500000D01*
X160537227Y-88480315D01*
X160498729Y-88441099D01*
X160492712Y-88431344D01*
X160368657Y-88307289D01*
X160368656Y-88307288D01*
X160219334Y-88215186D01*
X160052797Y-88160001D01*
X160052795Y-88160000D01*
X159950010Y-88149500D01*
X158649998Y-88149500D01*
X158649981Y-88149501D01*
X158547203Y-88160000D01*
X158547200Y-88160001D01*
X158380668Y-88215185D01*
X158380663Y-88215187D01*
X158231342Y-88307289D01*
X158107287Y-88431344D01*
X158101271Y-88441099D01*
X158049323Y-88487822D01*
X157995734Y-88500000D01*
X132124000Y-88500000D01*
X132056961Y-88480315D01*
X132011206Y-88427511D01*
X132000000Y-88376000D01*
X132000000Y-87150000D01*
X133050001Y-87150000D01*
X133050001Y-87399986D01*
X133060494Y-87502697D01*
X133115641Y-87669119D01*
X133115643Y-87669124D01*
X133207684Y-87818345D01*
X133331654Y-87942315D01*
X133480875Y-88034356D01*
X133480880Y-88034358D01*
X133647302Y-88089505D01*
X133647309Y-88089506D01*
X133750019Y-88099999D01*
X133812499Y-88099998D01*
X133812500Y-88099998D01*
X133812500Y-87150000D01*
X133050001Y-87150000D01*
X132000000Y-87150000D01*
X132000000Y-86624000D01*
X132019685Y-86556961D01*
X132072489Y-86511206D01*
X132124000Y-86500000D01*
X132926000Y-86500000D01*
X132993039Y-86519685D01*
G37*
G04 #@! TD.AperFunction*
G04 #@! TA.AperFunction,Conductor*
G36*
X133043039Y-106519685D02*
G01*
X133088794Y-106572489D01*
X133100000Y-106624000D01*
X133100000Y-106650000D01*
X134238500Y-106650000D01*
X134305539Y-106669685D01*
X134351294Y-106722489D01*
X134362500Y-106774000D01*
X134362500Y-108099999D01*
X134424972Y-108099999D01*
X134424986Y-108099998D01*
X134527697Y-108089505D01*
X134694119Y-108034358D01*
X134694124Y-108034356D01*
X134843342Y-107942317D01*
X134936964Y-107848695D01*
X134998287Y-107815210D01*
X135067979Y-107820194D01*
X135112327Y-107848695D01*
X135206344Y-107942712D01*
X135355666Y-108034814D01*
X135522203Y-108089999D01*
X135624991Y-108100500D01*
X136250008Y-108100499D01*
X136250016Y-108100498D01*
X136250019Y-108100498D01*
X136306302Y-108094748D01*
X136352797Y-108089999D01*
X136519334Y-108034814D01*
X136668656Y-107942712D01*
X136792712Y-107818656D01*
X136884814Y-107669334D01*
X136939999Y-107502797D01*
X136950500Y-107400009D01*
X136950500Y-107150000D01*
X143050001Y-107150000D01*
X143050001Y-107399986D01*
X143060494Y-107502697D01*
X143115641Y-107669119D01*
X143115643Y-107669124D01*
X143207684Y-107818345D01*
X143331654Y-107942315D01*
X143480875Y-108034356D01*
X143480880Y-108034358D01*
X143647302Y-108089505D01*
X143647309Y-108089506D01*
X143750019Y-108099999D01*
X143812499Y-108099998D01*
X143812500Y-108099998D01*
X143812500Y-107150000D01*
X143050001Y-107150000D01*
X136950500Y-107150000D01*
X136950499Y-106623999D01*
X136970183Y-106556961D01*
X137022987Y-106511206D01*
X137074499Y-106500000D01*
X142926000Y-106500000D01*
X142993039Y-106519685D01*
X143038794Y-106572489D01*
X143050000Y-106624000D01*
X143050000Y-106650000D01*
X144188500Y-106650000D01*
X144255539Y-106669685D01*
X144301294Y-106722489D01*
X144312500Y-106774000D01*
X144312500Y-108099999D01*
X144374972Y-108099999D01*
X144374986Y-108099998D01*
X144477697Y-108089505D01*
X144644119Y-108034358D01*
X144644124Y-108034356D01*
X144793342Y-107942317D01*
X144886964Y-107848695D01*
X144948287Y-107815210D01*
X145017979Y-107820194D01*
X145062327Y-107848695D01*
X145156344Y-107942712D01*
X145305666Y-108034814D01*
X145472203Y-108089999D01*
X145574991Y-108100500D01*
X146200008Y-108100499D01*
X146200016Y-108100498D01*
X146200019Y-108100498D01*
X146256302Y-108094748D01*
X146302797Y-108089999D01*
X146469334Y-108034814D01*
X146618656Y-107942712D01*
X146742712Y-107818656D01*
X146834814Y-107669334D01*
X146889999Y-107502797D01*
X146900500Y-107400009D01*
X146900500Y-107150000D01*
X153050001Y-107150000D01*
X153050001Y-107399986D01*
X153060494Y-107502697D01*
X153115641Y-107669119D01*
X153115643Y-107669124D01*
X153207684Y-107818345D01*
X153331654Y-107942315D01*
X153480875Y-108034356D01*
X153480880Y-108034358D01*
X153647302Y-108089505D01*
X153647309Y-108089506D01*
X153750019Y-108099999D01*
X153812499Y-108099998D01*
X153812500Y-108099998D01*
X153812500Y-107150000D01*
X153050001Y-107150000D01*
X146900500Y-107150000D01*
X146900499Y-106623999D01*
X146920183Y-106556961D01*
X146972987Y-106511206D01*
X147024499Y-106500000D01*
X152926000Y-106500000D01*
X152993039Y-106519685D01*
X153038794Y-106572489D01*
X153050000Y-106624000D01*
X153050000Y-106650000D01*
X154188500Y-106650000D01*
X154255539Y-106669685D01*
X154301294Y-106722489D01*
X154312500Y-106774000D01*
X154312500Y-108099999D01*
X154374972Y-108099999D01*
X154374986Y-108099998D01*
X154477697Y-108089505D01*
X154644119Y-108034358D01*
X154644124Y-108034356D01*
X154793342Y-107942317D01*
X154886964Y-107848695D01*
X154948287Y-107815210D01*
X155017979Y-107820194D01*
X155062327Y-107848695D01*
X155156344Y-107942712D01*
X155305666Y-108034814D01*
X155472203Y-108089999D01*
X155574991Y-108100500D01*
X156200008Y-108100499D01*
X156200016Y-108100498D01*
X156200019Y-108100498D01*
X156256302Y-108094748D01*
X156302797Y-108089999D01*
X156469334Y-108034814D01*
X156618656Y-107942712D01*
X156742712Y-107818656D01*
X156834814Y-107669334D01*
X156889999Y-107502797D01*
X156900500Y-107400009D01*
X156900500Y-107150000D01*
X163050001Y-107150000D01*
X163050001Y-107399986D01*
X163060494Y-107502697D01*
X163115641Y-107669119D01*
X163115643Y-107669124D01*
X163207684Y-107818345D01*
X163331654Y-107942315D01*
X163480875Y-108034356D01*
X163480880Y-108034358D01*
X163647302Y-108089505D01*
X163647309Y-108089506D01*
X163750019Y-108099999D01*
X163812499Y-108099998D01*
X163812500Y-108099998D01*
X163812500Y-107150000D01*
X163050001Y-107150000D01*
X156900500Y-107150000D01*
X156900499Y-106623999D01*
X156920183Y-106556961D01*
X156972987Y-106511206D01*
X157024499Y-106500000D01*
X162926000Y-106500000D01*
X162993039Y-106519685D01*
X163038794Y-106572489D01*
X163050000Y-106624000D01*
X163050000Y-106650000D01*
X164188500Y-106650000D01*
X164255539Y-106669685D01*
X164301294Y-106722489D01*
X164312500Y-106774000D01*
X164312500Y-108099999D01*
X164374972Y-108099999D01*
X164374986Y-108099998D01*
X164477697Y-108089505D01*
X164644119Y-108034358D01*
X164644124Y-108034356D01*
X164793342Y-107942317D01*
X164886964Y-107848695D01*
X164948287Y-107815210D01*
X165017979Y-107820194D01*
X165062327Y-107848695D01*
X165156344Y-107942712D01*
X165305666Y-108034814D01*
X165472203Y-108089999D01*
X165574991Y-108100500D01*
X166200008Y-108100499D01*
X166200016Y-108100498D01*
X166200019Y-108100498D01*
X166256302Y-108094748D01*
X166302797Y-108089999D01*
X166469334Y-108034814D01*
X166618656Y-107942712D01*
X166742712Y-107818656D01*
X166834814Y-107669334D01*
X166889999Y-107502797D01*
X166900500Y-107400009D01*
X166900500Y-107150000D01*
X173050001Y-107150000D01*
X173050001Y-107399986D01*
X173060494Y-107502697D01*
X173115641Y-107669119D01*
X173115643Y-107669124D01*
X173207684Y-107818345D01*
X173331654Y-107942315D01*
X173480875Y-108034356D01*
X173480880Y-108034358D01*
X173647302Y-108089505D01*
X173647309Y-108089506D01*
X173750019Y-108099999D01*
X173812499Y-108099998D01*
X173812500Y-108099998D01*
X173812500Y-107150000D01*
X173050001Y-107150000D01*
X166900500Y-107150000D01*
X166900499Y-106623999D01*
X166920183Y-106556961D01*
X166972987Y-106511206D01*
X167024499Y-106500000D01*
X172926000Y-106500000D01*
X172993039Y-106519685D01*
X173038794Y-106572489D01*
X173050000Y-106624000D01*
X173050000Y-106650000D01*
X174188500Y-106650000D01*
X174255539Y-106669685D01*
X174301294Y-106722489D01*
X174312500Y-106774000D01*
X174312500Y-108099999D01*
X174374972Y-108099999D01*
X174374986Y-108099998D01*
X174477697Y-108089505D01*
X174644119Y-108034358D01*
X174644124Y-108034356D01*
X174793342Y-107942317D01*
X174886964Y-107848695D01*
X174948287Y-107815210D01*
X175017979Y-107820194D01*
X175062327Y-107848695D01*
X175156344Y-107942712D01*
X175305666Y-108034814D01*
X175472203Y-108089999D01*
X175574991Y-108100500D01*
X176200008Y-108100499D01*
X176200016Y-108100498D01*
X176200019Y-108100498D01*
X176256302Y-108094748D01*
X176302797Y-108089999D01*
X176469334Y-108034814D01*
X176618656Y-107942712D01*
X176742712Y-107818656D01*
X176834814Y-107669334D01*
X176889999Y-107502797D01*
X176900500Y-107400009D01*
X176900499Y-106623999D01*
X176920183Y-106556961D01*
X176972987Y-106511206D01*
X176993188Y-106506811D01*
X177000000Y-106500000D01*
X177000000Y-108500000D01*
X132124000Y-108500000D01*
X132056961Y-108480315D01*
X132011206Y-108427511D01*
X132000000Y-108376000D01*
X132000000Y-107150000D01*
X133100001Y-107150000D01*
X133100001Y-107399986D01*
X133110494Y-107502697D01*
X133165641Y-107669119D01*
X133165643Y-107669124D01*
X133257684Y-107818345D01*
X133381654Y-107942315D01*
X133530875Y-108034356D01*
X133530880Y-108034358D01*
X133697302Y-108089505D01*
X133697309Y-108089506D01*
X133800019Y-108099999D01*
X133862499Y-108099998D01*
X133862500Y-108099998D01*
X133862500Y-107150000D01*
X133100001Y-107150000D01*
X132000000Y-107150000D01*
X132000000Y-106624000D01*
X132019685Y-106556961D01*
X132072489Y-106511206D01*
X132124000Y-106500000D01*
X132976000Y-106500000D01*
X133043039Y-106519685D01*
G37*
G04 #@! TD.AperFunction*
G04 #@! TA.AperFunction,Conductor*
G36*
X178943039Y-76519685D02*
G01*
X178988794Y-76572489D01*
X179000000Y-76624000D01*
X179000000Y-118376000D01*
X178980315Y-118443039D01*
X178927511Y-118488794D01*
X178876000Y-118500000D01*
X177000000Y-118500000D01*
X177000000Y-76500000D01*
X178876000Y-76500000D01*
X178943039Y-76519685D01*
G37*
G04 #@! TD.AperFunction*
G04 #@! TA.AperFunction,Conductor*
G36*
X132993039Y-76519685D02*
G01*
X133038794Y-76572489D01*
X133050000Y-76624000D01*
X133050000Y-76650000D01*
X134188500Y-76650000D01*
X134255539Y-76669685D01*
X134301294Y-76722489D01*
X134312500Y-76774000D01*
X134312500Y-78099999D01*
X134374972Y-78099999D01*
X134374986Y-78099998D01*
X134477697Y-78089505D01*
X134644119Y-78034358D01*
X134644124Y-78034356D01*
X134793342Y-77942317D01*
X134886964Y-77848695D01*
X134948287Y-77815210D01*
X135017979Y-77820194D01*
X135062327Y-77848695D01*
X135156344Y-77942712D01*
X135305666Y-78034814D01*
X135472203Y-78089999D01*
X135574991Y-78100500D01*
X136200008Y-78100499D01*
X136200016Y-78100498D01*
X136200019Y-78100498D01*
X136256302Y-78094748D01*
X136302797Y-78089999D01*
X136469334Y-78034814D01*
X136618656Y-77942712D01*
X136742712Y-77818656D01*
X136834814Y-77669334D01*
X136889999Y-77502797D01*
X136900500Y-77400009D01*
X136900500Y-77150000D01*
X143050001Y-77150000D01*
X143050001Y-77399986D01*
X143060494Y-77502697D01*
X143115641Y-77669119D01*
X143115643Y-77669124D01*
X143207684Y-77818345D01*
X143331654Y-77942315D01*
X143480875Y-78034356D01*
X143480880Y-78034358D01*
X143647302Y-78089505D01*
X143647309Y-78089506D01*
X143750019Y-78099999D01*
X143812499Y-78099998D01*
X143812500Y-78099998D01*
X143812500Y-77150000D01*
X143050001Y-77150000D01*
X136900500Y-77150000D01*
X136900499Y-76623999D01*
X136920183Y-76556961D01*
X136972987Y-76511206D01*
X137024499Y-76500000D01*
X142926000Y-76500000D01*
X142993039Y-76519685D01*
X143038794Y-76572489D01*
X143050000Y-76624000D01*
X143050000Y-76650000D01*
X144188500Y-76650000D01*
X144255539Y-76669685D01*
X144301294Y-76722489D01*
X144312500Y-76774000D01*
X144312500Y-78099999D01*
X144374972Y-78099999D01*
X144374986Y-78099998D01*
X144477697Y-78089505D01*
X144644119Y-78034358D01*
X144644124Y-78034356D01*
X144793342Y-77942317D01*
X144886964Y-77848695D01*
X144948287Y-77815210D01*
X145017979Y-77820194D01*
X145062327Y-77848695D01*
X145156344Y-77942712D01*
X145305666Y-78034814D01*
X145472203Y-78089999D01*
X145574991Y-78100500D01*
X146200008Y-78100499D01*
X146200016Y-78100498D01*
X146200019Y-78100498D01*
X146256302Y-78094748D01*
X146302797Y-78089999D01*
X146469334Y-78034814D01*
X146618656Y-77942712D01*
X146742712Y-77818656D01*
X146834814Y-77669334D01*
X146889999Y-77502797D01*
X146900500Y-77400009D01*
X146900500Y-77150000D01*
X153050001Y-77150000D01*
X153050001Y-77399986D01*
X153060494Y-77502697D01*
X153115641Y-77669119D01*
X153115643Y-77669124D01*
X153207684Y-77818345D01*
X153331654Y-77942315D01*
X153480875Y-78034356D01*
X153480880Y-78034358D01*
X153647302Y-78089505D01*
X153647309Y-78089506D01*
X153750019Y-78099999D01*
X153812499Y-78099998D01*
X153812500Y-78099998D01*
X153812500Y-77150000D01*
X153050001Y-77150000D01*
X146900500Y-77150000D01*
X146900499Y-76623999D01*
X146920183Y-76556961D01*
X146972987Y-76511206D01*
X147024499Y-76500000D01*
X152926000Y-76500000D01*
X152993039Y-76519685D01*
X153038794Y-76572489D01*
X153050000Y-76624000D01*
X153050000Y-76650000D01*
X154188500Y-76650000D01*
X154255539Y-76669685D01*
X154301294Y-76722489D01*
X154312500Y-76774000D01*
X154312500Y-78099999D01*
X154374972Y-78099999D01*
X154374986Y-78099998D01*
X154477697Y-78089505D01*
X154644119Y-78034358D01*
X154644124Y-78034356D01*
X154793342Y-77942317D01*
X154886964Y-77848695D01*
X154948287Y-77815210D01*
X155017979Y-77820194D01*
X155062327Y-77848695D01*
X155156344Y-77942712D01*
X155305666Y-78034814D01*
X155472203Y-78089999D01*
X155574991Y-78100500D01*
X156200008Y-78100499D01*
X156200016Y-78100498D01*
X156200019Y-78100498D01*
X156256302Y-78094748D01*
X156302797Y-78089999D01*
X156469334Y-78034814D01*
X156618656Y-77942712D01*
X156742712Y-77818656D01*
X156834814Y-77669334D01*
X156889999Y-77502797D01*
X156900500Y-77400009D01*
X156900500Y-77150000D01*
X163050001Y-77150000D01*
X163050001Y-77399986D01*
X163060494Y-77502697D01*
X163115641Y-77669119D01*
X163115643Y-77669124D01*
X163207684Y-77818345D01*
X163331654Y-77942315D01*
X163480875Y-78034356D01*
X163480880Y-78034358D01*
X163647302Y-78089505D01*
X163647309Y-78089506D01*
X163750019Y-78099999D01*
X163812499Y-78099998D01*
X163812500Y-78099998D01*
X163812500Y-77150000D01*
X163050001Y-77150000D01*
X156900500Y-77150000D01*
X156900499Y-76623999D01*
X156920183Y-76556961D01*
X156972987Y-76511206D01*
X157024499Y-76500000D01*
X162926000Y-76500000D01*
X162993039Y-76519685D01*
X163038794Y-76572489D01*
X163050000Y-76624000D01*
X163050000Y-76650000D01*
X164188500Y-76650000D01*
X164255539Y-76669685D01*
X164301294Y-76722489D01*
X164312500Y-76774000D01*
X164312500Y-78099999D01*
X164374972Y-78099999D01*
X164374986Y-78099998D01*
X164477697Y-78089505D01*
X164644119Y-78034358D01*
X164644124Y-78034356D01*
X164793342Y-77942317D01*
X164886964Y-77848695D01*
X164948287Y-77815210D01*
X165017979Y-77820194D01*
X165062327Y-77848695D01*
X165156344Y-77942712D01*
X165305666Y-78034814D01*
X165472203Y-78089999D01*
X165574991Y-78100500D01*
X166200008Y-78100499D01*
X166200016Y-78100498D01*
X166200019Y-78100498D01*
X166256302Y-78094748D01*
X166302797Y-78089999D01*
X166469334Y-78034814D01*
X166618656Y-77942712D01*
X166742712Y-77818656D01*
X166834814Y-77669334D01*
X166889999Y-77502797D01*
X166900500Y-77400009D01*
X166900500Y-77150000D01*
X173050001Y-77150000D01*
X173050001Y-77399986D01*
X173060494Y-77502697D01*
X173115641Y-77669119D01*
X173115643Y-77669124D01*
X173207684Y-77818345D01*
X173331654Y-77942315D01*
X173480875Y-78034356D01*
X173480880Y-78034358D01*
X173647302Y-78089505D01*
X173647309Y-78089506D01*
X173750019Y-78099999D01*
X173812499Y-78099998D01*
X173812500Y-78099998D01*
X173812500Y-77150000D01*
X173050001Y-77150000D01*
X166900500Y-77150000D01*
X166900499Y-76623999D01*
X166920183Y-76556961D01*
X166972987Y-76511206D01*
X167024499Y-76500000D01*
X172926000Y-76500000D01*
X172993039Y-76519685D01*
X173038794Y-76572489D01*
X173050000Y-76624000D01*
X173050000Y-76650000D01*
X174188500Y-76650000D01*
X174255539Y-76669685D01*
X174301294Y-76722489D01*
X174312500Y-76774000D01*
X174312500Y-78099999D01*
X174374972Y-78099999D01*
X174374986Y-78099998D01*
X174477697Y-78089505D01*
X174644119Y-78034358D01*
X174644124Y-78034356D01*
X174793342Y-77942317D01*
X174886964Y-77848695D01*
X174948287Y-77815210D01*
X175017979Y-77820194D01*
X175062327Y-77848695D01*
X175156344Y-77942712D01*
X175305666Y-78034814D01*
X175472203Y-78089999D01*
X175574991Y-78100500D01*
X176200008Y-78100499D01*
X176200016Y-78100498D01*
X176200019Y-78100498D01*
X176256302Y-78094748D01*
X176302797Y-78089999D01*
X176469334Y-78034814D01*
X176618656Y-77942712D01*
X176742712Y-77818656D01*
X176834814Y-77669334D01*
X176889999Y-77502797D01*
X176900500Y-77400009D01*
X176900499Y-76623999D01*
X176920183Y-76556961D01*
X176972987Y-76511206D01*
X177000000Y-76505329D01*
X177000000Y-78500000D01*
X132124000Y-78500000D01*
X132056961Y-78480315D01*
X132011206Y-78427511D01*
X132000000Y-78376000D01*
X132000000Y-77150000D01*
X133050001Y-77150000D01*
X133050001Y-77399986D01*
X133060494Y-77502697D01*
X133115641Y-77669119D01*
X133115643Y-77669124D01*
X133207684Y-77818345D01*
X133331654Y-77942315D01*
X133480875Y-78034356D01*
X133480880Y-78034358D01*
X133647302Y-78089505D01*
X133647309Y-78089506D01*
X133750019Y-78099999D01*
X133812499Y-78099998D01*
X133812500Y-78099998D01*
X133812500Y-77150000D01*
X133050001Y-77150000D01*
X132000000Y-77150000D01*
X132000000Y-76624000D01*
X132019685Y-76556961D01*
X132072489Y-76511206D01*
X132124000Y-76500000D01*
X132926000Y-76500000D01*
X132993039Y-76519685D01*
G37*
G04 #@! TD.AperFunction*
G04 #@! TA.AperFunction,Conductor*
G36*
X132993039Y-116519685D02*
G01*
X133038794Y-116572489D01*
X133050000Y-116624000D01*
X133050000Y-116650000D01*
X134188500Y-116650000D01*
X134255539Y-116669685D01*
X134301294Y-116722489D01*
X134312500Y-116774000D01*
X134312500Y-118099999D01*
X134374972Y-118099999D01*
X134374986Y-118099998D01*
X134477697Y-118089505D01*
X134644119Y-118034358D01*
X134644124Y-118034356D01*
X134793342Y-117942317D01*
X134886964Y-117848695D01*
X134948287Y-117815210D01*
X135017979Y-117820194D01*
X135062327Y-117848695D01*
X135156344Y-117942712D01*
X135305666Y-118034814D01*
X135472203Y-118089999D01*
X135574991Y-118100500D01*
X136200008Y-118100499D01*
X136200016Y-118100498D01*
X136200019Y-118100498D01*
X136256302Y-118094748D01*
X136302797Y-118089999D01*
X136469334Y-118034814D01*
X136618656Y-117942712D01*
X136742712Y-117818656D01*
X136834814Y-117669334D01*
X136889999Y-117502797D01*
X136900500Y-117400009D01*
X136900500Y-117150000D01*
X143050001Y-117150000D01*
X143050001Y-117399986D01*
X143060494Y-117502697D01*
X143115641Y-117669119D01*
X143115643Y-117669124D01*
X143207684Y-117818345D01*
X143331654Y-117942315D01*
X143480875Y-118034356D01*
X143480880Y-118034358D01*
X143647302Y-118089505D01*
X143647309Y-118089506D01*
X143750019Y-118099999D01*
X143812499Y-118099998D01*
X143812500Y-118099998D01*
X143812500Y-117150000D01*
X143050001Y-117150000D01*
X136900500Y-117150000D01*
X136900499Y-116623999D01*
X136920183Y-116556961D01*
X136972987Y-116511206D01*
X137024499Y-116500000D01*
X142926000Y-116500000D01*
X142993039Y-116519685D01*
X143038794Y-116572489D01*
X143050000Y-116624000D01*
X143050000Y-116650000D01*
X144188500Y-116650000D01*
X144255539Y-116669685D01*
X144301294Y-116722489D01*
X144312500Y-116774000D01*
X144312500Y-118099999D01*
X144374972Y-118099999D01*
X144374986Y-118099998D01*
X144477697Y-118089505D01*
X144644119Y-118034358D01*
X144644124Y-118034356D01*
X144793342Y-117942317D01*
X144886964Y-117848695D01*
X144948287Y-117815210D01*
X145017979Y-117820194D01*
X145062327Y-117848695D01*
X145156344Y-117942712D01*
X145305666Y-118034814D01*
X145472203Y-118089999D01*
X145574991Y-118100500D01*
X146200008Y-118100499D01*
X146200016Y-118100498D01*
X146200019Y-118100498D01*
X146256302Y-118094748D01*
X146302797Y-118089999D01*
X146469334Y-118034814D01*
X146618656Y-117942712D01*
X146742712Y-117818656D01*
X146834814Y-117669334D01*
X146889999Y-117502797D01*
X146900500Y-117400009D01*
X146900500Y-117150000D01*
X153050001Y-117150000D01*
X153050001Y-117399986D01*
X153060494Y-117502697D01*
X153115641Y-117669119D01*
X153115643Y-117669124D01*
X153207684Y-117818345D01*
X153331654Y-117942315D01*
X153480875Y-118034356D01*
X153480880Y-118034358D01*
X153647302Y-118089505D01*
X153647309Y-118089506D01*
X153750019Y-118099999D01*
X153812499Y-118099998D01*
X153812500Y-118099998D01*
X153812500Y-117150000D01*
X153050001Y-117150000D01*
X146900500Y-117150000D01*
X146900499Y-116623999D01*
X146920183Y-116556961D01*
X146972987Y-116511206D01*
X147024499Y-116500000D01*
X152926000Y-116500000D01*
X152993039Y-116519685D01*
X153038794Y-116572489D01*
X153050000Y-116624000D01*
X153050000Y-116650000D01*
X154188500Y-116650000D01*
X154255539Y-116669685D01*
X154301294Y-116722489D01*
X154312500Y-116774000D01*
X154312500Y-118099999D01*
X154374972Y-118099999D01*
X154374986Y-118099998D01*
X154477697Y-118089505D01*
X154644119Y-118034358D01*
X154644124Y-118034356D01*
X154793342Y-117942317D01*
X154886964Y-117848695D01*
X154948287Y-117815210D01*
X155017979Y-117820194D01*
X155062327Y-117848695D01*
X155156344Y-117942712D01*
X155305666Y-118034814D01*
X155472203Y-118089999D01*
X155574991Y-118100500D01*
X156200008Y-118100499D01*
X156200016Y-118100498D01*
X156200019Y-118100498D01*
X156256302Y-118094748D01*
X156302797Y-118089999D01*
X156469334Y-118034814D01*
X156618656Y-117942712D01*
X156742712Y-117818656D01*
X156834814Y-117669334D01*
X156889999Y-117502797D01*
X156900500Y-117400009D01*
X156900500Y-117150000D01*
X163050001Y-117150000D01*
X163050001Y-117399986D01*
X163060494Y-117502697D01*
X163115641Y-117669119D01*
X163115643Y-117669124D01*
X163207684Y-117818345D01*
X163331654Y-117942315D01*
X163480875Y-118034356D01*
X163480880Y-118034358D01*
X163647302Y-118089505D01*
X163647309Y-118089506D01*
X163750019Y-118099999D01*
X163812499Y-118099998D01*
X163812500Y-118099998D01*
X163812500Y-117150000D01*
X163050001Y-117150000D01*
X156900500Y-117150000D01*
X156900499Y-116623999D01*
X156920183Y-116556961D01*
X156972987Y-116511206D01*
X157024499Y-116500000D01*
X162926000Y-116500000D01*
X162993039Y-116519685D01*
X163038794Y-116572489D01*
X163050000Y-116624000D01*
X163050000Y-116650000D01*
X164188500Y-116650000D01*
X164255539Y-116669685D01*
X164301294Y-116722489D01*
X164312500Y-116774000D01*
X164312500Y-118099999D01*
X164374972Y-118099999D01*
X164374986Y-118099998D01*
X164477697Y-118089505D01*
X164644119Y-118034358D01*
X164644124Y-118034356D01*
X164793342Y-117942317D01*
X164886964Y-117848695D01*
X164948287Y-117815210D01*
X165017979Y-117820194D01*
X165062327Y-117848695D01*
X165156344Y-117942712D01*
X165305666Y-118034814D01*
X165472203Y-118089999D01*
X165574991Y-118100500D01*
X166200008Y-118100499D01*
X166200016Y-118100498D01*
X166200019Y-118100498D01*
X166256302Y-118094748D01*
X166302797Y-118089999D01*
X166469334Y-118034814D01*
X166618656Y-117942712D01*
X166742712Y-117818656D01*
X166834814Y-117669334D01*
X166889999Y-117502797D01*
X166900500Y-117400009D01*
X166900500Y-117150000D01*
X173050001Y-117150000D01*
X173050001Y-117399986D01*
X173060494Y-117502697D01*
X173115641Y-117669119D01*
X173115643Y-117669124D01*
X173207684Y-117818345D01*
X173331654Y-117942315D01*
X173480875Y-118034356D01*
X173480880Y-118034358D01*
X173647302Y-118089505D01*
X173647309Y-118089506D01*
X173750019Y-118099999D01*
X173812499Y-118099998D01*
X173812500Y-118099998D01*
X173812500Y-117150000D01*
X173050001Y-117150000D01*
X166900500Y-117150000D01*
X166900499Y-116623999D01*
X166920183Y-116556961D01*
X166972987Y-116511206D01*
X167024499Y-116500000D01*
X172926000Y-116500000D01*
X172993039Y-116519685D01*
X173038794Y-116572489D01*
X173050000Y-116624000D01*
X173050000Y-116650000D01*
X174188500Y-116650000D01*
X174255539Y-116669685D01*
X174301294Y-116722489D01*
X174312500Y-116774000D01*
X174312500Y-118099999D01*
X174374972Y-118099999D01*
X174374986Y-118099998D01*
X174477697Y-118089505D01*
X174644119Y-118034358D01*
X174644124Y-118034356D01*
X174793342Y-117942317D01*
X174886964Y-117848695D01*
X174948287Y-117815210D01*
X175017979Y-117820194D01*
X175062327Y-117848695D01*
X175156344Y-117942712D01*
X175305666Y-118034814D01*
X175472203Y-118089999D01*
X175574991Y-118100500D01*
X176200008Y-118100499D01*
X176200016Y-118100498D01*
X176200019Y-118100498D01*
X176256302Y-118094748D01*
X176302797Y-118089999D01*
X176469334Y-118034814D01*
X176618656Y-117942712D01*
X176742712Y-117818656D01*
X176834814Y-117669334D01*
X176889999Y-117502797D01*
X176900500Y-117400009D01*
X176900499Y-116623999D01*
X176920183Y-116556961D01*
X176972987Y-116511206D01*
X176993188Y-116506811D01*
X177000000Y-116500000D01*
X177000000Y-118500000D01*
X132124000Y-118500000D01*
X132056961Y-118480315D01*
X132011206Y-118427511D01*
X132000000Y-118376000D01*
X132000000Y-117150000D01*
X133050001Y-117150000D01*
X133050001Y-117399986D01*
X133060494Y-117502697D01*
X133115641Y-117669119D01*
X133115643Y-117669124D01*
X133207684Y-117818345D01*
X133331654Y-117942315D01*
X133480875Y-118034356D01*
X133480880Y-118034358D01*
X133647302Y-118089505D01*
X133647309Y-118089506D01*
X133750019Y-118099999D01*
X133812499Y-118099998D01*
X133812500Y-118099998D01*
X133812500Y-117150000D01*
X133050001Y-117150000D01*
X132000000Y-117150000D01*
X132000000Y-116624000D01*
X132019685Y-116556961D01*
X132072489Y-116511206D01*
X132124000Y-116500000D01*
X132926000Y-116500000D01*
X132993039Y-116519685D01*
G37*
G04 #@! TD.AperFunction*
G04 #@! TA.AperFunction,Conductor*
G36*
X132993039Y-96519685D02*
G01*
X133038794Y-96572489D01*
X133050000Y-96624000D01*
X133050000Y-96650000D01*
X134188500Y-96650000D01*
X134255539Y-96669685D01*
X134301294Y-96722489D01*
X134312500Y-96774000D01*
X134312500Y-98099999D01*
X134374972Y-98099999D01*
X134374986Y-98099998D01*
X134477697Y-98089505D01*
X134644119Y-98034358D01*
X134644124Y-98034356D01*
X134793342Y-97942317D01*
X134886964Y-97848695D01*
X134948287Y-97815210D01*
X135017979Y-97820194D01*
X135062327Y-97848695D01*
X135156344Y-97942712D01*
X135305666Y-98034814D01*
X135472203Y-98089999D01*
X135574991Y-98100500D01*
X136200008Y-98100499D01*
X136200016Y-98100498D01*
X136200019Y-98100498D01*
X136256302Y-98094748D01*
X136302797Y-98089999D01*
X136469334Y-98034814D01*
X136618656Y-97942712D01*
X136742712Y-97818656D01*
X136834814Y-97669334D01*
X136889999Y-97502797D01*
X136900500Y-97400009D01*
X136900500Y-97050000D01*
X143050001Y-97050000D01*
X143050001Y-97299986D01*
X143060494Y-97402697D01*
X143115641Y-97569119D01*
X143115643Y-97569124D01*
X143207684Y-97718345D01*
X143331654Y-97842315D01*
X143480875Y-97934356D01*
X143480880Y-97934358D01*
X143647302Y-97989505D01*
X143647309Y-97989506D01*
X143750019Y-97999999D01*
X143812499Y-97999998D01*
X143812500Y-97999998D01*
X143812500Y-97050000D01*
X143050001Y-97050000D01*
X136900500Y-97050000D01*
X136900499Y-96623999D01*
X136920183Y-96556961D01*
X136972987Y-96511206D01*
X137024499Y-96500000D01*
X142948638Y-96500000D01*
X143015677Y-96519685D01*
X143036319Y-96536319D01*
X143050000Y-96550000D01*
X144188500Y-96550000D01*
X144255539Y-96569685D01*
X144301294Y-96622489D01*
X144312500Y-96674000D01*
X144312500Y-97999999D01*
X144374972Y-97999999D01*
X144374986Y-97999998D01*
X144477697Y-97989505D01*
X144644119Y-97934358D01*
X144644124Y-97934356D01*
X144793342Y-97842317D01*
X144886964Y-97748695D01*
X144948287Y-97715210D01*
X145017979Y-97720194D01*
X145062327Y-97748695D01*
X145156344Y-97842712D01*
X145305666Y-97934814D01*
X145472203Y-97989999D01*
X145574991Y-98000500D01*
X146200008Y-98000499D01*
X146200016Y-98000498D01*
X146200019Y-98000498D01*
X146256302Y-97994748D01*
X146302797Y-97989999D01*
X146469334Y-97934814D01*
X146618656Y-97842712D01*
X146742712Y-97718656D01*
X146834814Y-97569334D01*
X146889999Y-97402797D01*
X146900500Y-97300009D01*
X146900500Y-97150000D01*
X153050001Y-97150000D01*
X153050001Y-97399986D01*
X153060494Y-97502697D01*
X153115641Y-97669119D01*
X153115643Y-97669124D01*
X153207684Y-97818345D01*
X153331654Y-97942315D01*
X153480875Y-98034356D01*
X153480880Y-98034358D01*
X153647302Y-98089505D01*
X153647309Y-98089506D01*
X153750019Y-98099999D01*
X153812499Y-98099998D01*
X153812500Y-98099998D01*
X153812500Y-97150000D01*
X153050001Y-97150000D01*
X146900500Y-97150000D01*
X146900499Y-96623998D01*
X146920183Y-96556961D01*
X146972987Y-96511206D01*
X147024499Y-96500000D01*
X152926000Y-96500000D01*
X152993039Y-96519685D01*
X153038794Y-96572489D01*
X153050000Y-96624000D01*
X153050000Y-96650000D01*
X154188500Y-96650000D01*
X154255539Y-96669685D01*
X154301294Y-96722489D01*
X154312500Y-96774000D01*
X154312500Y-98099999D01*
X154374972Y-98099999D01*
X154374986Y-98099998D01*
X154477697Y-98089505D01*
X154644119Y-98034358D01*
X154644124Y-98034356D01*
X154793342Y-97942317D01*
X154886964Y-97848695D01*
X154948287Y-97815210D01*
X155017979Y-97820194D01*
X155062327Y-97848695D01*
X155156344Y-97942712D01*
X155305666Y-98034814D01*
X155472203Y-98089999D01*
X155574991Y-98100500D01*
X156200008Y-98100499D01*
X156200016Y-98100498D01*
X156200019Y-98100498D01*
X156256302Y-98094748D01*
X156302797Y-98089999D01*
X156469334Y-98034814D01*
X156618656Y-97942712D01*
X156742712Y-97818656D01*
X156834814Y-97669334D01*
X156889999Y-97502797D01*
X156900500Y-97400009D01*
X156900500Y-97150000D01*
X163050001Y-97150000D01*
X163050001Y-97399986D01*
X163060494Y-97502697D01*
X163115641Y-97669119D01*
X163115643Y-97669124D01*
X163207684Y-97818345D01*
X163331654Y-97942315D01*
X163480875Y-98034356D01*
X163480880Y-98034358D01*
X163647302Y-98089505D01*
X163647309Y-98089506D01*
X163750019Y-98099999D01*
X163812499Y-98099998D01*
X163812500Y-98099998D01*
X163812500Y-97150000D01*
X163050001Y-97150000D01*
X156900500Y-97150000D01*
X156900499Y-96623999D01*
X156920183Y-96556961D01*
X156972987Y-96511206D01*
X157024499Y-96500000D01*
X162926000Y-96500000D01*
X162993039Y-96519685D01*
X163038794Y-96572489D01*
X163050000Y-96624000D01*
X163050000Y-96650000D01*
X164188500Y-96650000D01*
X164255539Y-96669685D01*
X164301294Y-96722489D01*
X164312500Y-96774000D01*
X164312500Y-98099999D01*
X164374972Y-98099999D01*
X164374986Y-98099998D01*
X164477697Y-98089505D01*
X164644119Y-98034358D01*
X164644124Y-98034356D01*
X164793342Y-97942317D01*
X164886964Y-97848695D01*
X164948287Y-97815210D01*
X165017979Y-97820194D01*
X165062327Y-97848695D01*
X165156344Y-97942712D01*
X165305666Y-98034814D01*
X165472203Y-98089999D01*
X165574991Y-98100500D01*
X166200008Y-98100499D01*
X166200016Y-98100498D01*
X166200019Y-98100498D01*
X166256302Y-98094748D01*
X166302797Y-98089999D01*
X166469334Y-98034814D01*
X166618656Y-97942712D01*
X166742712Y-97818656D01*
X166834814Y-97669334D01*
X166889999Y-97502797D01*
X166900500Y-97400009D01*
X166900500Y-97150000D01*
X173050001Y-97150000D01*
X173050001Y-97399986D01*
X173060494Y-97502697D01*
X173115641Y-97669119D01*
X173115643Y-97669124D01*
X173207684Y-97818345D01*
X173331654Y-97942315D01*
X173480875Y-98034356D01*
X173480880Y-98034358D01*
X173647302Y-98089505D01*
X173647309Y-98089506D01*
X173750019Y-98099999D01*
X173812499Y-98099998D01*
X173812500Y-98099998D01*
X173812500Y-97150000D01*
X173050001Y-97150000D01*
X166900500Y-97150000D01*
X166900499Y-96623999D01*
X166920183Y-96556961D01*
X166972987Y-96511206D01*
X167024499Y-96500000D01*
X172926000Y-96500000D01*
X172993039Y-96519685D01*
X173038794Y-96572489D01*
X173050000Y-96624000D01*
X173050000Y-96650000D01*
X174188500Y-96650000D01*
X174255539Y-96669685D01*
X174301294Y-96722489D01*
X174312500Y-96774000D01*
X174312500Y-98099999D01*
X174374972Y-98099999D01*
X174374986Y-98099998D01*
X174477697Y-98089505D01*
X174644119Y-98034358D01*
X174644124Y-98034356D01*
X174793342Y-97942317D01*
X174886964Y-97848695D01*
X174948287Y-97815210D01*
X175017979Y-97820194D01*
X175062327Y-97848695D01*
X175156344Y-97942712D01*
X175305666Y-98034814D01*
X175472203Y-98089999D01*
X175574991Y-98100500D01*
X176200008Y-98100499D01*
X176200016Y-98100498D01*
X176200019Y-98100498D01*
X176256302Y-98094748D01*
X176302797Y-98089999D01*
X176469334Y-98034814D01*
X176618656Y-97942712D01*
X176742712Y-97818656D01*
X176834814Y-97669334D01*
X176889999Y-97502797D01*
X176900500Y-97400009D01*
X176900499Y-96623999D01*
X176920183Y-96556961D01*
X176972987Y-96511206D01*
X176993188Y-96506811D01*
X177000000Y-96500000D01*
X177000000Y-98500000D01*
X132124000Y-98500000D01*
X132056961Y-98480315D01*
X132011206Y-98427511D01*
X132000000Y-98376000D01*
X132000000Y-97150000D01*
X133050001Y-97150000D01*
X133050001Y-97399986D01*
X133060494Y-97502697D01*
X133115641Y-97669119D01*
X133115643Y-97669124D01*
X133207684Y-97818345D01*
X133331654Y-97942315D01*
X133480875Y-98034356D01*
X133480880Y-98034358D01*
X133647302Y-98089505D01*
X133647309Y-98089506D01*
X133750019Y-98099999D01*
X133812499Y-98099998D01*
X133812500Y-98099998D01*
X133812500Y-97150000D01*
X133050001Y-97150000D01*
X132000000Y-97150000D01*
X132000000Y-96624000D01*
X132019685Y-96556961D01*
X132072489Y-96511206D01*
X132124000Y-96500000D01*
X132926000Y-96500000D01*
X132993039Y-96519685D01*
G37*
G04 #@! TD.AperFunction*
M02*
