%TF.GenerationSoftware,KiCad,Pcbnew,7.0.9*%
%TF.CreationDate,2024-04-06T01:04:06+02:00*%
%TF.ProjectId,v3,76332e6b-6963-4616-945f-706362585858,rev?*%
%TF.SameCoordinates,Original*%
%TF.FileFunction,Drillmap*%
%TF.FilePolarity,Positive*%
%FSLAX45Y45*%
G04 Gerber Fmt 4.5, Leading zero omitted, Abs format (unit mm)*
G04 Created by KiCad (PCBNEW 7.0.9) date 2024-04-06 01:04:06*
%MOMM*%
%LPD*%
G01*
G04 APERTURE LIST*
%ADD10C,0.100000*%
%ADD11C,0.200000*%
G04 APERTURE END LIST*
D10*
X13000000Y-7000000D02*
X18000000Y-7000000D01*
X18000000Y-12000000D01*
X13000000Y-12000000D01*
X13000000Y-7000000D01*
D11*
D10*
X13250000Y-8480000D02*
X13290000Y-8520000D01*
X13290000Y-8480000D02*
X13250000Y-8520000D01*
X13250000Y-11480000D02*
X13290000Y-11520000D01*
X13290000Y-11480000D02*
X13250000Y-11520000D01*
X13265000Y-7480000D02*
X13305000Y-7520000D01*
X13305000Y-7480000D02*
X13265000Y-7520000D01*
X13270000Y-10480000D02*
X13310000Y-10520000D01*
X13310000Y-10480000D02*
X13270000Y-10520000D01*
X13880000Y-9280000D02*
X13920000Y-9320000D01*
X13920000Y-9280000D02*
X13880000Y-9320000D01*
X14260000Y-7480000D02*
X14300000Y-7520000D01*
X14300000Y-7480000D02*
X14260000Y-7520000D01*
X14260000Y-8480000D02*
X14300000Y-8520000D01*
X14300000Y-8480000D02*
X14260000Y-8520000D01*
X14260000Y-11480000D02*
X14300000Y-11520000D01*
X14300000Y-11480000D02*
X14260000Y-11520000D01*
X14270000Y-10480000D02*
X14310000Y-10520000D01*
X14310000Y-10480000D02*
X14270000Y-10520000D01*
X14990000Y-8760000D02*
X15030000Y-8800000D01*
X15030000Y-8760000D02*
X14990000Y-8800000D01*
X15110000Y-8685000D02*
X15150000Y-8725000D01*
X15150000Y-8685000D02*
X15110000Y-8725000D01*
X15140000Y-8320000D02*
X15180000Y-8360000D01*
X15180000Y-8320000D02*
X15140000Y-8360000D01*
X15230000Y-8760000D02*
X15270000Y-8800000D01*
X15270000Y-8760000D02*
X15230000Y-8800000D01*
X15260000Y-11480000D02*
X15300000Y-11520000D01*
X15300000Y-11480000D02*
X15260000Y-11520000D01*
X15265000Y-7480000D02*
X15305000Y-7520000D01*
X15305000Y-7480000D02*
X15265000Y-7520000D01*
X15270000Y-10480000D02*
X15310000Y-10520000D01*
X15310000Y-10480000D02*
X15270000Y-10520000D01*
X15440000Y-8120000D02*
X15480000Y-8160000D01*
X15480000Y-8120000D02*
X15440000Y-8160000D01*
X15550000Y-8320000D02*
X15590000Y-8360000D01*
X15590000Y-8320000D02*
X15550000Y-8360000D01*
X15560000Y-8950000D02*
X15600000Y-8990000D01*
X15600000Y-8950000D02*
X15560000Y-8990000D01*
X16260000Y-8480000D02*
X16300000Y-8520000D01*
X16300000Y-8480000D02*
X16260000Y-8520000D01*
X16260000Y-11480000D02*
X16300000Y-11520000D01*
X16300000Y-11480000D02*
X16260000Y-11520000D01*
X16265000Y-7480000D02*
X16305000Y-7520000D01*
X16305000Y-7480000D02*
X16265000Y-7520000D01*
X16270000Y-10480000D02*
X16310000Y-10520000D01*
X16310000Y-10480000D02*
X16270000Y-10520000D01*
X16280000Y-9480000D02*
X16320000Y-9520000D01*
X16320000Y-9480000D02*
X16280000Y-9520000D01*
X17260000Y-10480000D02*
X17300000Y-10520000D01*
X17300000Y-10480000D02*
X17260000Y-10520000D01*
X17260000Y-11480000D02*
X17300000Y-11520000D01*
X17300000Y-11480000D02*
X17260000Y-11520000D01*
X17270000Y-7480000D02*
X17310000Y-7520000D01*
X17310000Y-7480000D02*
X17270000Y-7520000D01*
X17270000Y-8470000D02*
X17310000Y-8510000D01*
X17310000Y-8470000D02*
X17270000Y-8510000D01*
X17270000Y-9480000D02*
X17310000Y-9520000D01*
X17310000Y-9480000D02*
X17270000Y-9520000D01*
X13290000Y-9176000D02*
G75*
G03*
X13290000Y-9176000I-30000J0D01*
G01*
X13230000Y-9206000D02*
X13290000Y-9206000D01*
X13290000Y-9206000D02*
G75*
G03*
X13290000Y-9146000I0J30000D01*
G01*
X13290000Y-9146000D02*
X13230000Y-9146000D01*
X13230000Y-9146000D02*
G75*
G03*
X13230000Y-9206000I0J-30000D01*
G01*
X13290000Y-10040000D02*
G75*
G03*
X13290000Y-10040000I-30000J0D01*
G01*
X13230000Y-10070000D02*
X13290000Y-10070000D01*
X13290000Y-10070000D02*
G75*
G03*
X13290000Y-10010000I0J30000D01*
G01*
X13290000Y-10010000D02*
X13230000Y-10010000D01*
X13230000Y-10010000D02*
G75*
G03*
X13230000Y-10070000I0J-30000D01*
G01*
X13670000Y-9176000D02*
G75*
G03*
X13670000Y-9176000I-30000J0D01*
G01*
X13610000Y-9206000D02*
X13670000Y-9206000D01*
X13670000Y-9206000D02*
G75*
G03*
X13670000Y-9146000I0J30000D01*
G01*
X13670000Y-9146000D02*
X13610000Y-9146000D01*
X13610000Y-9146000D02*
G75*
G03*
X13610000Y-9206000I0J-30000D01*
G01*
X13670000Y-10040000D02*
G75*
G03*
X13670000Y-10040000I-30000J0D01*
G01*
X13610000Y-10070000D02*
X13670000Y-10070000D01*
X13670000Y-10070000D02*
G75*
G03*
X13670000Y-10010000I0J30000D01*
G01*
X13670000Y-10010000D02*
X13610000Y-10010000D01*
X13610000Y-10010000D02*
G75*
G03*
X13610000Y-10070000I0J-30000D01*
G01*
X15930000Y-8915000D02*
X15930000Y-8985000D01*
X15895000Y-8950000D02*
X15965000Y-8950000D01*
X15471356Y-10315356D02*
X15471356Y-10244644D01*
X15400644Y-10244644D01*
X15400644Y-10315356D01*
X15471356Y-10315356D01*
X15725356Y-10315356D02*
X15725356Y-10244644D01*
X15654644Y-10244644D01*
X15654644Y-10315356D01*
X15725356Y-10315356D01*
X15979356Y-10315356D02*
X15979356Y-10244644D01*
X15908644Y-10244644D01*
X15908644Y-10315356D01*
X15979356Y-10315356D01*
X16233356Y-10315356D02*
X16233356Y-10244644D01*
X16162644Y-10244644D01*
X16162644Y-10315356D01*
X16233356Y-10315356D01*
X16487356Y-10315356D02*
X16487356Y-10244644D01*
X16416644Y-10244644D01*
X16416644Y-10315356D01*
X16487356Y-10315356D01*
D11*
X13255777Y-12316484D02*
X13255777Y-12116484D01*
X13255777Y-12116484D02*
X13303396Y-12116484D01*
X13303396Y-12116484D02*
X13331967Y-12126008D01*
X13331967Y-12126008D02*
X13351015Y-12145055D01*
X13351015Y-12145055D02*
X13360539Y-12164103D01*
X13360539Y-12164103D02*
X13370062Y-12202198D01*
X13370062Y-12202198D02*
X13370062Y-12230769D01*
X13370062Y-12230769D02*
X13360539Y-12268865D01*
X13360539Y-12268865D02*
X13351015Y-12287912D01*
X13351015Y-12287912D02*
X13331967Y-12306960D01*
X13331967Y-12306960D02*
X13303396Y-12316484D01*
X13303396Y-12316484D02*
X13255777Y-12316484D01*
X13455777Y-12316484D02*
X13455777Y-12183150D01*
X13455777Y-12221246D02*
X13465301Y-12202198D01*
X13465301Y-12202198D02*
X13474824Y-12192674D01*
X13474824Y-12192674D02*
X13493872Y-12183150D01*
X13493872Y-12183150D02*
X13512920Y-12183150D01*
X13579586Y-12316484D02*
X13579586Y-12183150D01*
X13579586Y-12116484D02*
X13570062Y-12126008D01*
X13570062Y-12126008D02*
X13579586Y-12135531D01*
X13579586Y-12135531D02*
X13589110Y-12126008D01*
X13589110Y-12126008D02*
X13579586Y-12116484D01*
X13579586Y-12116484D02*
X13579586Y-12135531D01*
X13703396Y-12316484D02*
X13684348Y-12306960D01*
X13684348Y-12306960D02*
X13674824Y-12287912D01*
X13674824Y-12287912D02*
X13674824Y-12116484D01*
X13808158Y-12316484D02*
X13789110Y-12306960D01*
X13789110Y-12306960D02*
X13779586Y-12287912D01*
X13779586Y-12287912D02*
X13779586Y-12116484D01*
X14036729Y-12316484D02*
X14036729Y-12116484D01*
X14036729Y-12116484D02*
X14103396Y-12259341D01*
X14103396Y-12259341D02*
X14170062Y-12116484D01*
X14170062Y-12116484D02*
X14170062Y-12316484D01*
X14351015Y-12316484D02*
X14351015Y-12211722D01*
X14351015Y-12211722D02*
X14341491Y-12192674D01*
X14341491Y-12192674D02*
X14322443Y-12183150D01*
X14322443Y-12183150D02*
X14284348Y-12183150D01*
X14284348Y-12183150D02*
X14265301Y-12192674D01*
X14351015Y-12306960D02*
X14331967Y-12316484D01*
X14331967Y-12316484D02*
X14284348Y-12316484D01*
X14284348Y-12316484D02*
X14265301Y-12306960D01*
X14265301Y-12306960D02*
X14255777Y-12287912D01*
X14255777Y-12287912D02*
X14255777Y-12268865D01*
X14255777Y-12268865D02*
X14265301Y-12249817D01*
X14265301Y-12249817D02*
X14284348Y-12240293D01*
X14284348Y-12240293D02*
X14331967Y-12240293D01*
X14331967Y-12240293D02*
X14351015Y-12230769D01*
X14446253Y-12183150D02*
X14446253Y-12383150D01*
X14446253Y-12192674D02*
X14465301Y-12183150D01*
X14465301Y-12183150D02*
X14503396Y-12183150D01*
X14503396Y-12183150D02*
X14522443Y-12192674D01*
X14522443Y-12192674D02*
X14531967Y-12202198D01*
X14531967Y-12202198D02*
X14541491Y-12221246D01*
X14541491Y-12221246D02*
X14541491Y-12278388D01*
X14541491Y-12278388D02*
X14531967Y-12297436D01*
X14531967Y-12297436D02*
X14522443Y-12306960D01*
X14522443Y-12306960D02*
X14503396Y-12316484D01*
X14503396Y-12316484D02*
X14465301Y-12316484D01*
X14465301Y-12316484D02*
X14446253Y-12306960D01*
X14627205Y-12297436D02*
X14636729Y-12306960D01*
X14636729Y-12306960D02*
X14627205Y-12316484D01*
X14627205Y-12316484D02*
X14617682Y-12306960D01*
X14617682Y-12306960D02*
X14627205Y-12297436D01*
X14627205Y-12297436D02*
X14627205Y-12316484D01*
X14627205Y-12192674D02*
X14636729Y-12202198D01*
X14636729Y-12202198D02*
X14627205Y-12211722D01*
X14627205Y-12211722D02*
X14617682Y-12202198D01*
X14617682Y-12202198D02*
X14627205Y-12192674D01*
X14627205Y-12192674D02*
X14627205Y-12211722D01*
D10*
X12955000Y-12625000D02*
X12995000Y-12665000D01*
X12995000Y-12625000D02*
X12955000Y-12665000D01*
D11*
X13293872Y-12536484D02*
X13312920Y-12536484D01*
X13312920Y-12536484D02*
X13331967Y-12546008D01*
X13331967Y-12546008D02*
X13341491Y-12555531D01*
X13341491Y-12555531D02*
X13351015Y-12574579D01*
X13351015Y-12574579D02*
X13360539Y-12612674D01*
X13360539Y-12612674D02*
X13360539Y-12660293D01*
X13360539Y-12660293D02*
X13351015Y-12698388D01*
X13351015Y-12698388D02*
X13341491Y-12717436D01*
X13341491Y-12717436D02*
X13331967Y-12726960D01*
X13331967Y-12726960D02*
X13312920Y-12736484D01*
X13312920Y-12736484D02*
X13293872Y-12736484D01*
X13293872Y-12736484D02*
X13274824Y-12726960D01*
X13274824Y-12726960D02*
X13265301Y-12717436D01*
X13265301Y-12717436D02*
X13255777Y-12698388D01*
X13255777Y-12698388D02*
X13246253Y-12660293D01*
X13246253Y-12660293D02*
X13246253Y-12612674D01*
X13246253Y-12612674D02*
X13255777Y-12574579D01*
X13255777Y-12574579D02*
X13265301Y-12555531D01*
X13265301Y-12555531D02*
X13274824Y-12546008D01*
X13274824Y-12546008D02*
X13293872Y-12536484D01*
X13446253Y-12717436D02*
X13455777Y-12726960D01*
X13455777Y-12726960D02*
X13446253Y-12736484D01*
X13446253Y-12736484D02*
X13436729Y-12726960D01*
X13436729Y-12726960D02*
X13446253Y-12717436D01*
X13446253Y-12717436D02*
X13446253Y-12736484D01*
X13627205Y-12603150D02*
X13627205Y-12736484D01*
X13579586Y-12526960D02*
X13531967Y-12669817D01*
X13531967Y-12669817D02*
X13655777Y-12669817D01*
X13770062Y-12536484D02*
X13789110Y-12536484D01*
X13789110Y-12536484D02*
X13808158Y-12546008D01*
X13808158Y-12546008D02*
X13817682Y-12555531D01*
X13817682Y-12555531D02*
X13827205Y-12574579D01*
X13827205Y-12574579D02*
X13836729Y-12612674D01*
X13836729Y-12612674D02*
X13836729Y-12660293D01*
X13836729Y-12660293D02*
X13827205Y-12698388D01*
X13827205Y-12698388D02*
X13817682Y-12717436D01*
X13817682Y-12717436D02*
X13808158Y-12726960D01*
X13808158Y-12726960D02*
X13789110Y-12736484D01*
X13789110Y-12736484D02*
X13770062Y-12736484D01*
X13770062Y-12736484D02*
X13751015Y-12726960D01*
X13751015Y-12726960D02*
X13741491Y-12717436D01*
X13741491Y-12717436D02*
X13731967Y-12698388D01*
X13731967Y-12698388D02*
X13722443Y-12660293D01*
X13722443Y-12660293D02*
X13722443Y-12612674D01*
X13722443Y-12612674D02*
X13731967Y-12574579D01*
X13731967Y-12574579D02*
X13741491Y-12555531D01*
X13741491Y-12555531D02*
X13751015Y-12546008D01*
X13751015Y-12546008D02*
X13770062Y-12536484D01*
X13960539Y-12536484D02*
X13979586Y-12536484D01*
X13979586Y-12536484D02*
X13998634Y-12546008D01*
X13998634Y-12546008D02*
X14008158Y-12555531D01*
X14008158Y-12555531D02*
X14017682Y-12574579D01*
X14017682Y-12574579D02*
X14027205Y-12612674D01*
X14027205Y-12612674D02*
X14027205Y-12660293D01*
X14027205Y-12660293D02*
X14017682Y-12698388D01*
X14017682Y-12698388D02*
X14008158Y-12717436D01*
X14008158Y-12717436D02*
X13998634Y-12726960D01*
X13998634Y-12726960D02*
X13979586Y-12736484D01*
X13979586Y-12736484D02*
X13960539Y-12736484D01*
X13960539Y-12736484D02*
X13941491Y-12726960D01*
X13941491Y-12726960D02*
X13931967Y-12717436D01*
X13931967Y-12717436D02*
X13922443Y-12698388D01*
X13922443Y-12698388D02*
X13912920Y-12660293D01*
X13912920Y-12660293D02*
X13912920Y-12612674D01*
X13912920Y-12612674D02*
X13922443Y-12574579D01*
X13922443Y-12574579D02*
X13931967Y-12555531D01*
X13931967Y-12555531D02*
X13941491Y-12546008D01*
X13941491Y-12546008D02*
X13960539Y-12536484D01*
X14112920Y-12736484D02*
X14112920Y-12603150D01*
X14112920Y-12622198D02*
X14122443Y-12612674D01*
X14122443Y-12612674D02*
X14141491Y-12603150D01*
X14141491Y-12603150D02*
X14170063Y-12603150D01*
X14170063Y-12603150D02*
X14189110Y-12612674D01*
X14189110Y-12612674D02*
X14198634Y-12631722D01*
X14198634Y-12631722D02*
X14198634Y-12736484D01*
X14198634Y-12631722D02*
X14208158Y-12612674D01*
X14208158Y-12612674D02*
X14227205Y-12603150D01*
X14227205Y-12603150D02*
X14255777Y-12603150D01*
X14255777Y-12603150D02*
X14274824Y-12612674D01*
X14274824Y-12612674D02*
X14284348Y-12631722D01*
X14284348Y-12631722D02*
X14284348Y-12736484D01*
X14379586Y-12736484D02*
X14379586Y-12603150D01*
X14379586Y-12622198D02*
X14389110Y-12612674D01*
X14389110Y-12612674D02*
X14408158Y-12603150D01*
X14408158Y-12603150D02*
X14436729Y-12603150D01*
X14436729Y-12603150D02*
X14455777Y-12612674D01*
X14455777Y-12612674D02*
X14465301Y-12631722D01*
X14465301Y-12631722D02*
X14465301Y-12736484D01*
X14465301Y-12631722D02*
X14474824Y-12612674D01*
X14474824Y-12612674D02*
X14493872Y-12603150D01*
X14493872Y-12603150D02*
X14522443Y-12603150D01*
X14522443Y-12603150D02*
X14541491Y-12612674D01*
X14541491Y-12612674D02*
X14551015Y-12631722D01*
X14551015Y-12631722D02*
X14551015Y-12736484D01*
X14941491Y-12526960D02*
X14770063Y-12784103D01*
X15198634Y-12536484D02*
X15217682Y-12536484D01*
X15217682Y-12536484D02*
X15236729Y-12546008D01*
X15236729Y-12546008D02*
X15246253Y-12555531D01*
X15246253Y-12555531D02*
X15255777Y-12574579D01*
X15255777Y-12574579D02*
X15265301Y-12612674D01*
X15265301Y-12612674D02*
X15265301Y-12660293D01*
X15265301Y-12660293D02*
X15255777Y-12698388D01*
X15255777Y-12698388D02*
X15246253Y-12717436D01*
X15246253Y-12717436D02*
X15236729Y-12726960D01*
X15236729Y-12726960D02*
X15217682Y-12736484D01*
X15217682Y-12736484D02*
X15198634Y-12736484D01*
X15198634Y-12736484D02*
X15179586Y-12726960D01*
X15179586Y-12726960D02*
X15170063Y-12717436D01*
X15170063Y-12717436D02*
X15160539Y-12698388D01*
X15160539Y-12698388D02*
X15151015Y-12660293D01*
X15151015Y-12660293D02*
X15151015Y-12612674D01*
X15151015Y-12612674D02*
X15160539Y-12574579D01*
X15160539Y-12574579D02*
X15170063Y-12555531D01*
X15170063Y-12555531D02*
X15179586Y-12546008D01*
X15179586Y-12546008D02*
X15198634Y-12536484D01*
X15351015Y-12717436D02*
X15360539Y-12726960D01*
X15360539Y-12726960D02*
X15351015Y-12736484D01*
X15351015Y-12736484D02*
X15341491Y-12726960D01*
X15341491Y-12726960D02*
X15351015Y-12717436D01*
X15351015Y-12717436D02*
X15351015Y-12736484D01*
X15484348Y-12536484D02*
X15503396Y-12536484D01*
X15503396Y-12536484D02*
X15522444Y-12546008D01*
X15522444Y-12546008D02*
X15531967Y-12555531D01*
X15531967Y-12555531D02*
X15541491Y-12574579D01*
X15541491Y-12574579D02*
X15551015Y-12612674D01*
X15551015Y-12612674D02*
X15551015Y-12660293D01*
X15551015Y-12660293D02*
X15541491Y-12698388D01*
X15541491Y-12698388D02*
X15531967Y-12717436D01*
X15531967Y-12717436D02*
X15522444Y-12726960D01*
X15522444Y-12726960D02*
X15503396Y-12736484D01*
X15503396Y-12736484D02*
X15484348Y-12736484D01*
X15484348Y-12736484D02*
X15465301Y-12726960D01*
X15465301Y-12726960D02*
X15455777Y-12717436D01*
X15455777Y-12717436D02*
X15446253Y-12698388D01*
X15446253Y-12698388D02*
X15436729Y-12660293D01*
X15436729Y-12660293D02*
X15436729Y-12612674D01*
X15436729Y-12612674D02*
X15446253Y-12574579D01*
X15446253Y-12574579D02*
X15455777Y-12555531D01*
X15455777Y-12555531D02*
X15465301Y-12546008D01*
X15465301Y-12546008D02*
X15484348Y-12536484D01*
X15741491Y-12736484D02*
X15627206Y-12736484D01*
X15684348Y-12736484D02*
X15684348Y-12536484D01*
X15684348Y-12536484D02*
X15665301Y-12565055D01*
X15665301Y-12565055D02*
X15646253Y-12584103D01*
X15646253Y-12584103D02*
X15627206Y-12593627D01*
X15922444Y-12536484D02*
X15827206Y-12536484D01*
X15827206Y-12536484D02*
X15817682Y-12631722D01*
X15817682Y-12631722D02*
X15827206Y-12622198D01*
X15827206Y-12622198D02*
X15846253Y-12612674D01*
X15846253Y-12612674D02*
X15893872Y-12612674D01*
X15893872Y-12612674D02*
X15912920Y-12622198D01*
X15912920Y-12622198D02*
X15922444Y-12631722D01*
X15922444Y-12631722D02*
X15931967Y-12650769D01*
X15931967Y-12650769D02*
X15931967Y-12698388D01*
X15931967Y-12698388D02*
X15922444Y-12717436D01*
X15922444Y-12717436D02*
X15912920Y-12726960D01*
X15912920Y-12726960D02*
X15893872Y-12736484D01*
X15893872Y-12736484D02*
X15846253Y-12736484D01*
X15846253Y-12736484D02*
X15827206Y-12726960D01*
X15827206Y-12726960D02*
X15817682Y-12717436D01*
X15998634Y-12536484D02*
X16131967Y-12536484D01*
X16131967Y-12536484D02*
X16046253Y-12736484D01*
X16198634Y-12536484D02*
X16198634Y-12574579D01*
X16274825Y-12536484D02*
X16274825Y-12574579D01*
X16570063Y-12812674D02*
X16560539Y-12803150D01*
X16560539Y-12803150D02*
X16541491Y-12774579D01*
X16541491Y-12774579D02*
X16531968Y-12755531D01*
X16531968Y-12755531D02*
X16522444Y-12726960D01*
X16522444Y-12726960D02*
X16512920Y-12679341D01*
X16512920Y-12679341D02*
X16512920Y-12641246D01*
X16512920Y-12641246D02*
X16522444Y-12593627D01*
X16522444Y-12593627D02*
X16531968Y-12565055D01*
X16531968Y-12565055D02*
X16541491Y-12546008D01*
X16541491Y-12546008D02*
X16560539Y-12517436D01*
X16560539Y-12517436D02*
X16570063Y-12507912D01*
X16636729Y-12555531D02*
X16646253Y-12546008D01*
X16646253Y-12546008D02*
X16665301Y-12536484D01*
X16665301Y-12536484D02*
X16712920Y-12536484D01*
X16712920Y-12536484D02*
X16731968Y-12546008D01*
X16731968Y-12546008D02*
X16741491Y-12555531D01*
X16741491Y-12555531D02*
X16751015Y-12574579D01*
X16751015Y-12574579D02*
X16751015Y-12593627D01*
X16751015Y-12593627D02*
X16741491Y-12622198D01*
X16741491Y-12622198D02*
X16627206Y-12736484D01*
X16627206Y-12736484D02*
X16751015Y-12736484D01*
X16846253Y-12736484D02*
X16884349Y-12736484D01*
X16884349Y-12736484D02*
X16903396Y-12726960D01*
X16903396Y-12726960D02*
X16912920Y-12717436D01*
X16912920Y-12717436D02*
X16931968Y-12688865D01*
X16931968Y-12688865D02*
X16941491Y-12650769D01*
X16941491Y-12650769D02*
X16941491Y-12574579D01*
X16941491Y-12574579D02*
X16931968Y-12555531D01*
X16931968Y-12555531D02*
X16922444Y-12546008D01*
X16922444Y-12546008D02*
X16903396Y-12536484D01*
X16903396Y-12536484D02*
X16865301Y-12536484D01*
X16865301Y-12536484D02*
X16846253Y-12546008D01*
X16846253Y-12546008D02*
X16836730Y-12555531D01*
X16836730Y-12555531D02*
X16827206Y-12574579D01*
X16827206Y-12574579D02*
X16827206Y-12622198D01*
X16827206Y-12622198D02*
X16836730Y-12641246D01*
X16836730Y-12641246D02*
X16846253Y-12650769D01*
X16846253Y-12650769D02*
X16865301Y-12660293D01*
X16865301Y-12660293D02*
X16903396Y-12660293D01*
X16903396Y-12660293D02*
X16922444Y-12650769D01*
X16922444Y-12650769D02*
X16931968Y-12641246D01*
X16931968Y-12641246D02*
X16941491Y-12622198D01*
X17179587Y-12736484D02*
X17179587Y-12536484D01*
X17265301Y-12736484D02*
X17265301Y-12631722D01*
X17265301Y-12631722D02*
X17255777Y-12612674D01*
X17255777Y-12612674D02*
X17236730Y-12603150D01*
X17236730Y-12603150D02*
X17208158Y-12603150D01*
X17208158Y-12603150D02*
X17189111Y-12612674D01*
X17189111Y-12612674D02*
X17179587Y-12622198D01*
X17389111Y-12736484D02*
X17370063Y-12726960D01*
X17370063Y-12726960D02*
X17360539Y-12717436D01*
X17360539Y-12717436D02*
X17351015Y-12698388D01*
X17351015Y-12698388D02*
X17351015Y-12641246D01*
X17351015Y-12641246D02*
X17360539Y-12622198D01*
X17360539Y-12622198D02*
X17370063Y-12612674D01*
X17370063Y-12612674D02*
X17389111Y-12603150D01*
X17389111Y-12603150D02*
X17417682Y-12603150D01*
X17417682Y-12603150D02*
X17436730Y-12612674D01*
X17436730Y-12612674D02*
X17446253Y-12622198D01*
X17446253Y-12622198D02*
X17455777Y-12641246D01*
X17455777Y-12641246D02*
X17455777Y-12698388D01*
X17455777Y-12698388D02*
X17446253Y-12717436D01*
X17446253Y-12717436D02*
X17436730Y-12726960D01*
X17436730Y-12726960D02*
X17417682Y-12736484D01*
X17417682Y-12736484D02*
X17389111Y-12736484D01*
X17570063Y-12736484D02*
X17551015Y-12726960D01*
X17551015Y-12726960D02*
X17541492Y-12707912D01*
X17541492Y-12707912D02*
X17541492Y-12536484D01*
X17722444Y-12726960D02*
X17703396Y-12736484D01*
X17703396Y-12736484D02*
X17665301Y-12736484D01*
X17665301Y-12736484D02*
X17646253Y-12726960D01*
X17646253Y-12726960D02*
X17636730Y-12707912D01*
X17636730Y-12707912D02*
X17636730Y-12631722D01*
X17636730Y-12631722D02*
X17646253Y-12612674D01*
X17646253Y-12612674D02*
X17665301Y-12603150D01*
X17665301Y-12603150D02*
X17703396Y-12603150D01*
X17703396Y-12603150D02*
X17722444Y-12612674D01*
X17722444Y-12612674D02*
X17731968Y-12631722D01*
X17731968Y-12631722D02*
X17731968Y-12650769D01*
X17731968Y-12650769D02*
X17636730Y-12669817D01*
X17808158Y-12726960D02*
X17827206Y-12736484D01*
X17827206Y-12736484D02*
X17865301Y-12736484D01*
X17865301Y-12736484D02*
X17884349Y-12726960D01*
X17884349Y-12726960D02*
X17893873Y-12707912D01*
X17893873Y-12707912D02*
X17893873Y-12698388D01*
X17893873Y-12698388D02*
X17884349Y-12679341D01*
X17884349Y-12679341D02*
X17865301Y-12669817D01*
X17865301Y-12669817D02*
X17836730Y-12669817D01*
X17836730Y-12669817D02*
X17817682Y-12660293D01*
X17817682Y-12660293D02*
X17808158Y-12641246D01*
X17808158Y-12641246D02*
X17808158Y-12631722D01*
X17808158Y-12631722D02*
X17817682Y-12612674D01*
X17817682Y-12612674D02*
X17836730Y-12603150D01*
X17836730Y-12603150D02*
X17865301Y-12603150D01*
X17865301Y-12603150D02*
X17884349Y-12612674D01*
X17960539Y-12812674D02*
X17970063Y-12803150D01*
X17970063Y-12803150D02*
X17989111Y-12774579D01*
X17989111Y-12774579D02*
X17998634Y-12755531D01*
X17998634Y-12755531D02*
X18008158Y-12726960D01*
X18008158Y-12726960D02*
X18017682Y-12679341D01*
X18017682Y-12679341D02*
X18017682Y-12641246D01*
X18017682Y-12641246D02*
X18008158Y-12593627D01*
X18008158Y-12593627D02*
X17998634Y-12565055D01*
X17998634Y-12565055D02*
X17989111Y-12546008D01*
X17989111Y-12546008D02*
X17970063Y-12517436D01*
X17970063Y-12517436D02*
X17960539Y-12507912D01*
D10*
X12995000Y-12909000D02*
G75*
G03*
X12995000Y-12909000I-30000J0D01*
G01*
D11*
X13293872Y-12800484D02*
X13312920Y-12800484D01*
X13312920Y-12800484D02*
X13331967Y-12810008D01*
X13331967Y-12810008D02*
X13341491Y-12819531D01*
X13341491Y-12819531D02*
X13351015Y-12838579D01*
X13351015Y-12838579D02*
X13360539Y-12876674D01*
X13360539Y-12876674D02*
X13360539Y-12924293D01*
X13360539Y-12924293D02*
X13351015Y-12962388D01*
X13351015Y-12962388D02*
X13341491Y-12981436D01*
X13341491Y-12981436D02*
X13331967Y-12990960D01*
X13331967Y-12990960D02*
X13312920Y-13000484D01*
X13312920Y-13000484D02*
X13293872Y-13000484D01*
X13293872Y-13000484D02*
X13274824Y-12990960D01*
X13274824Y-12990960D02*
X13265301Y-12981436D01*
X13265301Y-12981436D02*
X13255777Y-12962388D01*
X13255777Y-12962388D02*
X13246253Y-12924293D01*
X13246253Y-12924293D02*
X13246253Y-12876674D01*
X13246253Y-12876674D02*
X13255777Y-12838579D01*
X13255777Y-12838579D02*
X13265301Y-12819531D01*
X13265301Y-12819531D02*
X13274824Y-12810008D01*
X13274824Y-12810008D02*
X13293872Y-12800484D01*
X13446253Y-12981436D02*
X13455777Y-12990960D01*
X13455777Y-12990960D02*
X13446253Y-13000484D01*
X13446253Y-13000484D02*
X13436729Y-12990960D01*
X13436729Y-12990960D02*
X13446253Y-12981436D01*
X13446253Y-12981436D02*
X13446253Y-13000484D01*
X13627205Y-12800484D02*
X13589110Y-12800484D01*
X13589110Y-12800484D02*
X13570062Y-12810008D01*
X13570062Y-12810008D02*
X13560539Y-12819531D01*
X13560539Y-12819531D02*
X13541491Y-12848103D01*
X13541491Y-12848103D02*
X13531967Y-12886198D01*
X13531967Y-12886198D02*
X13531967Y-12962388D01*
X13531967Y-12962388D02*
X13541491Y-12981436D01*
X13541491Y-12981436D02*
X13551015Y-12990960D01*
X13551015Y-12990960D02*
X13570062Y-13000484D01*
X13570062Y-13000484D02*
X13608158Y-13000484D01*
X13608158Y-13000484D02*
X13627205Y-12990960D01*
X13627205Y-12990960D02*
X13636729Y-12981436D01*
X13636729Y-12981436D02*
X13646253Y-12962388D01*
X13646253Y-12962388D02*
X13646253Y-12914769D01*
X13646253Y-12914769D02*
X13636729Y-12895722D01*
X13636729Y-12895722D02*
X13627205Y-12886198D01*
X13627205Y-12886198D02*
X13608158Y-12876674D01*
X13608158Y-12876674D02*
X13570062Y-12876674D01*
X13570062Y-12876674D02*
X13551015Y-12886198D01*
X13551015Y-12886198D02*
X13541491Y-12895722D01*
X13541491Y-12895722D02*
X13531967Y-12914769D01*
X13770062Y-12800484D02*
X13789110Y-12800484D01*
X13789110Y-12800484D02*
X13808158Y-12810008D01*
X13808158Y-12810008D02*
X13817682Y-12819531D01*
X13817682Y-12819531D02*
X13827205Y-12838579D01*
X13827205Y-12838579D02*
X13836729Y-12876674D01*
X13836729Y-12876674D02*
X13836729Y-12924293D01*
X13836729Y-12924293D02*
X13827205Y-12962388D01*
X13827205Y-12962388D02*
X13817682Y-12981436D01*
X13817682Y-12981436D02*
X13808158Y-12990960D01*
X13808158Y-12990960D02*
X13789110Y-13000484D01*
X13789110Y-13000484D02*
X13770062Y-13000484D01*
X13770062Y-13000484D02*
X13751015Y-12990960D01*
X13751015Y-12990960D02*
X13741491Y-12981436D01*
X13741491Y-12981436D02*
X13731967Y-12962388D01*
X13731967Y-12962388D02*
X13722443Y-12924293D01*
X13722443Y-12924293D02*
X13722443Y-12876674D01*
X13722443Y-12876674D02*
X13731967Y-12838579D01*
X13731967Y-12838579D02*
X13741491Y-12819531D01*
X13741491Y-12819531D02*
X13751015Y-12810008D01*
X13751015Y-12810008D02*
X13770062Y-12800484D01*
X13960539Y-12800484D02*
X13979586Y-12800484D01*
X13979586Y-12800484D02*
X13998634Y-12810008D01*
X13998634Y-12810008D02*
X14008158Y-12819531D01*
X14008158Y-12819531D02*
X14017682Y-12838579D01*
X14017682Y-12838579D02*
X14027205Y-12876674D01*
X14027205Y-12876674D02*
X14027205Y-12924293D01*
X14027205Y-12924293D02*
X14017682Y-12962388D01*
X14017682Y-12962388D02*
X14008158Y-12981436D01*
X14008158Y-12981436D02*
X13998634Y-12990960D01*
X13998634Y-12990960D02*
X13979586Y-13000484D01*
X13979586Y-13000484D02*
X13960539Y-13000484D01*
X13960539Y-13000484D02*
X13941491Y-12990960D01*
X13941491Y-12990960D02*
X13931967Y-12981436D01*
X13931967Y-12981436D02*
X13922443Y-12962388D01*
X13922443Y-12962388D02*
X13912920Y-12924293D01*
X13912920Y-12924293D02*
X13912920Y-12876674D01*
X13912920Y-12876674D02*
X13922443Y-12838579D01*
X13922443Y-12838579D02*
X13931967Y-12819531D01*
X13931967Y-12819531D02*
X13941491Y-12810008D01*
X13941491Y-12810008D02*
X13960539Y-12800484D01*
X14112920Y-13000484D02*
X14112920Y-12867150D01*
X14112920Y-12886198D02*
X14122443Y-12876674D01*
X14122443Y-12876674D02*
X14141491Y-12867150D01*
X14141491Y-12867150D02*
X14170063Y-12867150D01*
X14170063Y-12867150D02*
X14189110Y-12876674D01*
X14189110Y-12876674D02*
X14198634Y-12895722D01*
X14198634Y-12895722D02*
X14198634Y-13000484D01*
X14198634Y-12895722D02*
X14208158Y-12876674D01*
X14208158Y-12876674D02*
X14227205Y-12867150D01*
X14227205Y-12867150D02*
X14255777Y-12867150D01*
X14255777Y-12867150D02*
X14274824Y-12876674D01*
X14274824Y-12876674D02*
X14284348Y-12895722D01*
X14284348Y-12895722D02*
X14284348Y-13000484D01*
X14379586Y-13000484D02*
X14379586Y-12867150D01*
X14379586Y-12886198D02*
X14389110Y-12876674D01*
X14389110Y-12876674D02*
X14408158Y-12867150D01*
X14408158Y-12867150D02*
X14436729Y-12867150D01*
X14436729Y-12867150D02*
X14455777Y-12876674D01*
X14455777Y-12876674D02*
X14465301Y-12895722D01*
X14465301Y-12895722D02*
X14465301Y-13000484D01*
X14465301Y-12895722D02*
X14474824Y-12876674D01*
X14474824Y-12876674D02*
X14493872Y-12867150D01*
X14493872Y-12867150D02*
X14522443Y-12867150D01*
X14522443Y-12867150D02*
X14541491Y-12876674D01*
X14541491Y-12876674D02*
X14551015Y-12895722D01*
X14551015Y-12895722D02*
X14551015Y-13000484D01*
X14941491Y-12790960D02*
X14770063Y-13048103D01*
X15198634Y-12800484D02*
X15217682Y-12800484D01*
X15217682Y-12800484D02*
X15236729Y-12810008D01*
X15236729Y-12810008D02*
X15246253Y-12819531D01*
X15246253Y-12819531D02*
X15255777Y-12838579D01*
X15255777Y-12838579D02*
X15265301Y-12876674D01*
X15265301Y-12876674D02*
X15265301Y-12924293D01*
X15265301Y-12924293D02*
X15255777Y-12962388D01*
X15255777Y-12962388D02*
X15246253Y-12981436D01*
X15246253Y-12981436D02*
X15236729Y-12990960D01*
X15236729Y-12990960D02*
X15217682Y-13000484D01*
X15217682Y-13000484D02*
X15198634Y-13000484D01*
X15198634Y-13000484D02*
X15179586Y-12990960D01*
X15179586Y-12990960D02*
X15170063Y-12981436D01*
X15170063Y-12981436D02*
X15160539Y-12962388D01*
X15160539Y-12962388D02*
X15151015Y-12924293D01*
X15151015Y-12924293D02*
X15151015Y-12876674D01*
X15151015Y-12876674D02*
X15160539Y-12838579D01*
X15160539Y-12838579D02*
X15170063Y-12819531D01*
X15170063Y-12819531D02*
X15179586Y-12810008D01*
X15179586Y-12810008D02*
X15198634Y-12800484D01*
X15351015Y-12981436D02*
X15360539Y-12990960D01*
X15360539Y-12990960D02*
X15351015Y-13000484D01*
X15351015Y-13000484D02*
X15341491Y-12990960D01*
X15341491Y-12990960D02*
X15351015Y-12981436D01*
X15351015Y-12981436D02*
X15351015Y-13000484D01*
X15484348Y-12800484D02*
X15503396Y-12800484D01*
X15503396Y-12800484D02*
X15522444Y-12810008D01*
X15522444Y-12810008D02*
X15531967Y-12819531D01*
X15531967Y-12819531D02*
X15541491Y-12838579D01*
X15541491Y-12838579D02*
X15551015Y-12876674D01*
X15551015Y-12876674D02*
X15551015Y-12924293D01*
X15551015Y-12924293D02*
X15541491Y-12962388D01*
X15541491Y-12962388D02*
X15531967Y-12981436D01*
X15531967Y-12981436D02*
X15522444Y-12990960D01*
X15522444Y-12990960D02*
X15503396Y-13000484D01*
X15503396Y-13000484D02*
X15484348Y-13000484D01*
X15484348Y-13000484D02*
X15465301Y-12990960D01*
X15465301Y-12990960D02*
X15455777Y-12981436D01*
X15455777Y-12981436D02*
X15446253Y-12962388D01*
X15446253Y-12962388D02*
X15436729Y-12924293D01*
X15436729Y-12924293D02*
X15436729Y-12876674D01*
X15436729Y-12876674D02*
X15446253Y-12838579D01*
X15446253Y-12838579D02*
X15455777Y-12819531D01*
X15455777Y-12819531D02*
X15465301Y-12810008D01*
X15465301Y-12810008D02*
X15484348Y-12800484D01*
X15627206Y-12819531D02*
X15636729Y-12810008D01*
X15636729Y-12810008D02*
X15655777Y-12800484D01*
X15655777Y-12800484D02*
X15703396Y-12800484D01*
X15703396Y-12800484D02*
X15722444Y-12810008D01*
X15722444Y-12810008D02*
X15731967Y-12819531D01*
X15731967Y-12819531D02*
X15741491Y-12838579D01*
X15741491Y-12838579D02*
X15741491Y-12857627D01*
X15741491Y-12857627D02*
X15731967Y-12886198D01*
X15731967Y-12886198D02*
X15617682Y-13000484D01*
X15617682Y-13000484D02*
X15741491Y-13000484D01*
X15808158Y-12800484D02*
X15931967Y-12800484D01*
X15931967Y-12800484D02*
X15865301Y-12876674D01*
X15865301Y-12876674D02*
X15893872Y-12876674D01*
X15893872Y-12876674D02*
X15912920Y-12886198D01*
X15912920Y-12886198D02*
X15922444Y-12895722D01*
X15922444Y-12895722D02*
X15931967Y-12914769D01*
X15931967Y-12914769D02*
X15931967Y-12962388D01*
X15931967Y-12962388D02*
X15922444Y-12981436D01*
X15922444Y-12981436D02*
X15912920Y-12990960D01*
X15912920Y-12990960D02*
X15893872Y-13000484D01*
X15893872Y-13000484D02*
X15836729Y-13000484D01*
X15836729Y-13000484D02*
X15817682Y-12990960D01*
X15817682Y-12990960D02*
X15808158Y-12981436D01*
X16103396Y-12800484D02*
X16065301Y-12800484D01*
X16065301Y-12800484D02*
X16046253Y-12810008D01*
X16046253Y-12810008D02*
X16036729Y-12819531D01*
X16036729Y-12819531D02*
X16017682Y-12848103D01*
X16017682Y-12848103D02*
X16008158Y-12886198D01*
X16008158Y-12886198D02*
X16008158Y-12962388D01*
X16008158Y-12962388D02*
X16017682Y-12981436D01*
X16017682Y-12981436D02*
X16027206Y-12990960D01*
X16027206Y-12990960D02*
X16046253Y-13000484D01*
X16046253Y-13000484D02*
X16084348Y-13000484D01*
X16084348Y-13000484D02*
X16103396Y-12990960D01*
X16103396Y-12990960D02*
X16112920Y-12981436D01*
X16112920Y-12981436D02*
X16122444Y-12962388D01*
X16122444Y-12962388D02*
X16122444Y-12914769D01*
X16122444Y-12914769D02*
X16112920Y-12895722D01*
X16112920Y-12895722D02*
X16103396Y-12886198D01*
X16103396Y-12886198D02*
X16084348Y-12876674D01*
X16084348Y-12876674D02*
X16046253Y-12876674D01*
X16046253Y-12876674D02*
X16027206Y-12886198D01*
X16027206Y-12886198D02*
X16017682Y-12895722D01*
X16017682Y-12895722D02*
X16008158Y-12914769D01*
X16198634Y-12800484D02*
X16198634Y-12838579D01*
X16274825Y-12800484D02*
X16274825Y-12838579D01*
X16570063Y-13076674D02*
X16560539Y-13067150D01*
X16560539Y-13067150D02*
X16541491Y-13038579D01*
X16541491Y-13038579D02*
X16531968Y-13019531D01*
X16531968Y-13019531D02*
X16522444Y-12990960D01*
X16522444Y-12990960D02*
X16512920Y-12943341D01*
X16512920Y-12943341D02*
X16512920Y-12905246D01*
X16512920Y-12905246D02*
X16522444Y-12857627D01*
X16522444Y-12857627D02*
X16531968Y-12829055D01*
X16531968Y-12829055D02*
X16541491Y-12810008D01*
X16541491Y-12810008D02*
X16560539Y-12781436D01*
X16560539Y-12781436D02*
X16570063Y-12771912D01*
X16684348Y-12800484D02*
X16703396Y-12800484D01*
X16703396Y-12800484D02*
X16722444Y-12810008D01*
X16722444Y-12810008D02*
X16731968Y-12819531D01*
X16731968Y-12819531D02*
X16741491Y-12838579D01*
X16741491Y-12838579D02*
X16751015Y-12876674D01*
X16751015Y-12876674D02*
X16751015Y-12924293D01*
X16751015Y-12924293D02*
X16741491Y-12962388D01*
X16741491Y-12962388D02*
X16731968Y-12981436D01*
X16731968Y-12981436D02*
X16722444Y-12990960D01*
X16722444Y-12990960D02*
X16703396Y-13000484D01*
X16703396Y-13000484D02*
X16684348Y-13000484D01*
X16684348Y-13000484D02*
X16665301Y-12990960D01*
X16665301Y-12990960D02*
X16655777Y-12981436D01*
X16655777Y-12981436D02*
X16646253Y-12962388D01*
X16646253Y-12962388D02*
X16636729Y-12924293D01*
X16636729Y-12924293D02*
X16636729Y-12876674D01*
X16636729Y-12876674D02*
X16646253Y-12838579D01*
X16646253Y-12838579D02*
X16655777Y-12819531D01*
X16655777Y-12819531D02*
X16665301Y-12810008D01*
X16665301Y-12810008D02*
X16684348Y-12800484D01*
X16989111Y-13000484D02*
X16989111Y-12800484D01*
X17074825Y-13000484D02*
X17074825Y-12895722D01*
X17074825Y-12895722D02*
X17065301Y-12876674D01*
X17065301Y-12876674D02*
X17046253Y-12867150D01*
X17046253Y-12867150D02*
X17017682Y-12867150D01*
X17017682Y-12867150D02*
X16998634Y-12876674D01*
X16998634Y-12876674D02*
X16989111Y-12886198D01*
X17198634Y-13000484D02*
X17179587Y-12990960D01*
X17179587Y-12990960D02*
X17170063Y-12981436D01*
X17170063Y-12981436D02*
X17160539Y-12962388D01*
X17160539Y-12962388D02*
X17160539Y-12905246D01*
X17160539Y-12905246D02*
X17170063Y-12886198D01*
X17170063Y-12886198D02*
X17179587Y-12876674D01*
X17179587Y-12876674D02*
X17198634Y-12867150D01*
X17198634Y-12867150D02*
X17227206Y-12867150D01*
X17227206Y-12867150D02*
X17246253Y-12876674D01*
X17246253Y-12876674D02*
X17255777Y-12886198D01*
X17255777Y-12886198D02*
X17265301Y-12905246D01*
X17265301Y-12905246D02*
X17265301Y-12962388D01*
X17265301Y-12962388D02*
X17255777Y-12981436D01*
X17255777Y-12981436D02*
X17246253Y-12990960D01*
X17246253Y-12990960D02*
X17227206Y-13000484D01*
X17227206Y-13000484D02*
X17198634Y-13000484D01*
X17379587Y-13000484D02*
X17360539Y-12990960D01*
X17360539Y-12990960D02*
X17351015Y-12971912D01*
X17351015Y-12971912D02*
X17351015Y-12800484D01*
X17531968Y-12990960D02*
X17512920Y-13000484D01*
X17512920Y-13000484D02*
X17474825Y-13000484D01*
X17474825Y-13000484D02*
X17455777Y-12990960D01*
X17455777Y-12990960D02*
X17446253Y-12971912D01*
X17446253Y-12971912D02*
X17446253Y-12895722D01*
X17446253Y-12895722D02*
X17455777Y-12876674D01*
X17455777Y-12876674D02*
X17474825Y-12867150D01*
X17474825Y-12867150D02*
X17512920Y-12867150D01*
X17512920Y-12867150D02*
X17531968Y-12876674D01*
X17531968Y-12876674D02*
X17541492Y-12895722D01*
X17541492Y-12895722D02*
X17541492Y-12914769D01*
X17541492Y-12914769D02*
X17446253Y-12933817D01*
X17617682Y-12990960D02*
X17636730Y-13000484D01*
X17636730Y-13000484D02*
X17674825Y-13000484D01*
X17674825Y-13000484D02*
X17693873Y-12990960D01*
X17693873Y-12990960D02*
X17703396Y-12971912D01*
X17703396Y-12971912D02*
X17703396Y-12962388D01*
X17703396Y-12962388D02*
X17693873Y-12943341D01*
X17693873Y-12943341D02*
X17674825Y-12933817D01*
X17674825Y-12933817D02*
X17646253Y-12933817D01*
X17646253Y-12933817D02*
X17627206Y-12924293D01*
X17627206Y-12924293D02*
X17617682Y-12905246D01*
X17617682Y-12905246D02*
X17617682Y-12895722D01*
X17617682Y-12895722D02*
X17627206Y-12876674D01*
X17627206Y-12876674D02*
X17646253Y-12867150D01*
X17646253Y-12867150D02*
X17674825Y-12867150D01*
X17674825Y-12867150D02*
X17693873Y-12876674D01*
X17941492Y-12924293D02*
X18093873Y-12924293D01*
X18017682Y-13000484D02*
X18017682Y-12848103D01*
X18427206Y-12867150D02*
X18427206Y-13000484D01*
X18379587Y-12790960D02*
X18331968Y-12933817D01*
X18331968Y-12933817D02*
X18455777Y-12933817D01*
X18674825Y-12990960D02*
X18693873Y-13000484D01*
X18693873Y-13000484D02*
X18731968Y-13000484D01*
X18731968Y-13000484D02*
X18751016Y-12990960D01*
X18751016Y-12990960D02*
X18760539Y-12971912D01*
X18760539Y-12971912D02*
X18760539Y-12962388D01*
X18760539Y-12962388D02*
X18751016Y-12943341D01*
X18751016Y-12943341D02*
X18731968Y-12933817D01*
X18731968Y-12933817D02*
X18703396Y-12933817D01*
X18703396Y-12933817D02*
X18684349Y-12924293D01*
X18684349Y-12924293D02*
X18674825Y-12905246D01*
X18674825Y-12905246D02*
X18674825Y-12895722D01*
X18674825Y-12895722D02*
X18684349Y-12876674D01*
X18684349Y-12876674D02*
X18703396Y-12867150D01*
X18703396Y-12867150D02*
X18731968Y-12867150D01*
X18731968Y-12867150D02*
X18751016Y-12876674D01*
X18874825Y-13000484D02*
X18855777Y-12990960D01*
X18855777Y-12990960D02*
X18846254Y-12971912D01*
X18846254Y-12971912D02*
X18846254Y-12800484D01*
X18979587Y-13000484D02*
X18960539Y-12990960D01*
X18960539Y-12990960D02*
X18951016Y-12981436D01*
X18951016Y-12981436D02*
X18941492Y-12962388D01*
X18941492Y-12962388D02*
X18941492Y-12905246D01*
X18941492Y-12905246D02*
X18951016Y-12886198D01*
X18951016Y-12886198D02*
X18960539Y-12876674D01*
X18960539Y-12876674D02*
X18979587Y-12867150D01*
X18979587Y-12867150D02*
X19008158Y-12867150D01*
X19008158Y-12867150D02*
X19027206Y-12876674D01*
X19027206Y-12876674D02*
X19036730Y-12886198D01*
X19036730Y-12886198D02*
X19046254Y-12905246D01*
X19046254Y-12905246D02*
X19046254Y-12962388D01*
X19046254Y-12962388D02*
X19036730Y-12981436D01*
X19036730Y-12981436D02*
X19027206Y-12990960D01*
X19027206Y-12990960D02*
X19008158Y-13000484D01*
X19008158Y-13000484D02*
X18979587Y-13000484D01*
X19103397Y-12867150D02*
X19179587Y-12867150D01*
X19131968Y-12800484D02*
X19131968Y-12971912D01*
X19131968Y-12971912D02*
X19141492Y-12990960D01*
X19141492Y-12990960D02*
X19160539Y-13000484D01*
X19160539Y-13000484D02*
X19179587Y-13000484D01*
X19236730Y-12990960D02*
X19255777Y-13000484D01*
X19255777Y-13000484D02*
X19293873Y-13000484D01*
X19293873Y-13000484D02*
X19312920Y-12990960D01*
X19312920Y-12990960D02*
X19322444Y-12971912D01*
X19322444Y-12971912D02*
X19322444Y-12962388D01*
X19322444Y-12962388D02*
X19312920Y-12943341D01*
X19312920Y-12943341D02*
X19293873Y-12933817D01*
X19293873Y-12933817D02*
X19265301Y-12933817D01*
X19265301Y-12933817D02*
X19246254Y-12924293D01*
X19246254Y-12924293D02*
X19236730Y-12905246D01*
X19236730Y-12905246D02*
X19236730Y-12895722D01*
X19236730Y-12895722D02*
X19246254Y-12876674D01*
X19246254Y-12876674D02*
X19265301Y-12867150D01*
X19265301Y-12867150D02*
X19293873Y-12867150D01*
X19293873Y-12867150D02*
X19312920Y-12876674D01*
X19389111Y-13076674D02*
X19398635Y-13067150D01*
X19398635Y-13067150D02*
X19417682Y-13038579D01*
X19417682Y-13038579D02*
X19427206Y-13019531D01*
X19427206Y-13019531D02*
X19436730Y-12990960D01*
X19436730Y-12990960D02*
X19446254Y-12943341D01*
X19446254Y-12943341D02*
X19446254Y-12905246D01*
X19446254Y-12905246D02*
X19436730Y-12857627D01*
X19436730Y-12857627D02*
X19427206Y-12829055D01*
X19427206Y-12829055D02*
X19417682Y-12810008D01*
X19417682Y-12810008D02*
X19398635Y-12781436D01*
X19398635Y-12781436D02*
X19389111Y-12771912D01*
D10*
X12960000Y-13138000D02*
X12960000Y-13208000D01*
X12925000Y-13173000D02*
X12995000Y-13173000D01*
D11*
X13293872Y-13064484D02*
X13312920Y-13064484D01*
X13312920Y-13064484D02*
X13331967Y-13074008D01*
X13331967Y-13074008D02*
X13341491Y-13083531D01*
X13341491Y-13083531D02*
X13351015Y-13102579D01*
X13351015Y-13102579D02*
X13360539Y-13140674D01*
X13360539Y-13140674D02*
X13360539Y-13188293D01*
X13360539Y-13188293D02*
X13351015Y-13226388D01*
X13351015Y-13226388D02*
X13341491Y-13245436D01*
X13341491Y-13245436D02*
X13331967Y-13254960D01*
X13331967Y-13254960D02*
X13312920Y-13264484D01*
X13312920Y-13264484D02*
X13293872Y-13264484D01*
X13293872Y-13264484D02*
X13274824Y-13254960D01*
X13274824Y-13254960D02*
X13265301Y-13245436D01*
X13265301Y-13245436D02*
X13255777Y-13226388D01*
X13255777Y-13226388D02*
X13246253Y-13188293D01*
X13246253Y-13188293D02*
X13246253Y-13140674D01*
X13246253Y-13140674D02*
X13255777Y-13102579D01*
X13255777Y-13102579D02*
X13265301Y-13083531D01*
X13265301Y-13083531D02*
X13274824Y-13074008D01*
X13274824Y-13074008D02*
X13293872Y-13064484D01*
X13446253Y-13245436D02*
X13455777Y-13254960D01*
X13455777Y-13254960D02*
X13446253Y-13264484D01*
X13446253Y-13264484D02*
X13436729Y-13254960D01*
X13436729Y-13254960D02*
X13446253Y-13245436D01*
X13446253Y-13245436D02*
X13446253Y-13264484D01*
X13522443Y-13064484D02*
X13655777Y-13064484D01*
X13655777Y-13064484D02*
X13570062Y-13264484D01*
X13770062Y-13064484D02*
X13789110Y-13064484D01*
X13789110Y-13064484D02*
X13808158Y-13074008D01*
X13808158Y-13074008D02*
X13817682Y-13083531D01*
X13817682Y-13083531D02*
X13827205Y-13102579D01*
X13827205Y-13102579D02*
X13836729Y-13140674D01*
X13836729Y-13140674D02*
X13836729Y-13188293D01*
X13836729Y-13188293D02*
X13827205Y-13226388D01*
X13827205Y-13226388D02*
X13817682Y-13245436D01*
X13817682Y-13245436D02*
X13808158Y-13254960D01*
X13808158Y-13254960D02*
X13789110Y-13264484D01*
X13789110Y-13264484D02*
X13770062Y-13264484D01*
X13770062Y-13264484D02*
X13751015Y-13254960D01*
X13751015Y-13254960D02*
X13741491Y-13245436D01*
X13741491Y-13245436D02*
X13731967Y-13226388D01*
X13731967Y-13226388D02*
X13722443Y-13188293D01*
X13722443Y-13188293D02*
X13722443Y-13140674D01*
X13722443Y-13140674D02*
X13731967Y-13102579D01*
X13731967Y-13102579D02*
X13741491Y-13083531D01*
X13741491Y-13083531D02*
X13751015Y-13074008D01*
X13751015Y-13074008D02*
X13770062Y-13064484D01*
X13960539Y-13064484D02*
X13979586Y-13064484D01*
X13979586Y-13064484D02*
X13998634Y-13074008D01*
X13998634Y-13074008D02*
X14008158Y-13083531D01*
X14008158Y-13083531D02*
X14017682Y-13102579D01*
X14017682Y-13102579D02*
X14027205Y-13140674D01*
X14027205Y-13140674D02*
X14027205Y-13188293D01*
X14027205Y-13188293D02*
X14017682Y-13226388D01*
X14017682Y-13226388D02*
X14008158Y-13245436D01*
X14008158Y-13245436D02*
X13998634Y-13254960D01*
X13998634Y-13254960D02*
X13979586Y-13264484D01*
X13979586Y-13264484D02*
X13960539Y-13264484D01*
X13960539Y-13264484D02*
X13941491Y-13254960D01*
X13941491Y-13254960D02*
X13931967Y-13245436D01*
X13931967Y-13245436D02*
X13922443Y-13226388D01*
X13922443Y-13226388D02*
X13912920Y-13188293D01*
X13912920Y-13188293D02*
X13912920Y-13140674D01*
X13912920Y-13140674D02*
X13922443Y-13102579D01*
X13922443Y-13102579D02*
X13931967Y-13083531D01*
X13931967Y-13083531D02*
X13941491Y-13074008D01*
X13941491Y-13074008D02*
X13960539Y-13064484D01*
X14112920Y-13264484D02*
X14112920Y-13131150D01*
X14112920Y-13150198D02*
X14122443Y-13140674D01*
X14122443Y-13140674D02*
X14141491Y-13131150D01*
X14141491Y-13131150D02*
X14170063Y-13131150D01*
X14170063Y-13131150D02*
X14189110Y-13140674D01*
X14189110Y-13140674D02*
X14198634Y-13159722D01*
X14198634Y-13159722D02*
X14198634Y-13264484D01*
X14198634Y-13159722D02*
X14208158Y-13140674D01*
X14208158Y-13140674D02*
X14227205Y-13131150D01*
X14227205Y-13131150D02*
X14255777Y-13131150D01*
X14255777Y-13131150D02*
X14274824Y-13140674D01*
X14274824Y-13140674D02*
X14284348Y-13159722D01*
X14284348Y-13159722D02*
X14284348Y-13264484D01*
X14379586Y-13264484D02*
X14379586Y-13131150D01*
X14379586Y-13150198D02*
X14389110Y-13140674D01*
X14389110Y-13140674D02*
X14408158Y-13131150D01*
X14408158Y-13131150D02*
X14436729Y-13131150D01*
X14436729Y-13131150D02*
X14455777Y-13140674D01*
X14455777Y-13140674D02*
X14465301Y-13159722D01*
X14465301Y-13159722D02*
X14465301Y-13264484D01*
X14465301Y-13159722D02*
X14474824Y-13140674D01*
X14474824Y-13140674D02*
X14493872Y-13131150D01*
X14493872Y-13131150D02*
X14522443Y-13131150D01*
X14522443Y-13131150D02*
X14541491Y-13140674D01*
X14541491Y-13140674D02*
X14551015Y-13159722D01*
X14551015Y-13159722D02*
X14551015Y-13264484D01*
X14941491Y-13054960D02*
X14770063Y-13312103D01*
X15198634Y-13064484D02*
X15217682Y-13064484D01*
X15217682Y-13064484D02*
X15236729Y-13074008D01*
X15236729Y-13074008D02*
X15246253Y-13083531D01*
X15246253Y-13083531D02*
X15255777Y-13102579D01*
X15255777Y-13102579D02*
X15265301Y-13140674D01*
X15265301Y-13140674D02*
X15265301Y-13188293D01*
X15265301Y-13188293D02*
X15255777Y-13226388D01*
X15255777Y-13226388D02*
X15246253Y-13245436D01*
X15246253Y-13245436D02*
X15236729Y-13254960D01*
X15236729Y-13254960D02*
X15217682Y-13264484D01*
X15217682Y-13264484D02*
X15198634Y-13264484D01*
X15198634Y-13264484D02*
X15179586Y-13254960D01*
X15179586Y-13254960D02*
X15170063Y-13245436D01*
X15170063Y-13245436D02*
X15160539Y-13226388D01*
X15160539Y-13226388D02*
X15151015Y-13188293D01*
X15151015Y-13188293D02*
X15151015Y-13140674D01*
X15151015Y-13140674D02*
X15160539Y-13102579D01*
X15160539Y-13102579D02*
X15170063Y-13083531D01*
X15170063Y-13083531D02*
X15179586Y-13074008D01*
X15179586Y-13074008D02*
X15198634Y-13064484D01*
X15351015Y-13245436D02*
X15360539Y-13254960D01*
X15360539Y-13254960D02*
X15351015Y-13264484D01*
X15351015Y-13264484D02*
X15341491Y-13254960D01*
X15341491Y-13254960D02*
X15351015Y-13245436D01*
X15351015Y-13245436D02*
X15351015Y-13264484D01*
X15484348Y-13064484D02*
X15503396Y-13064484D01*
X15503396Y-13064484D02*
X15522444Y-13074008D01*
X15522444Y-13074008D02*
X15531967Y-13083531D01*
X15531967Y-13083531D02*
X15541491Y-13102579D01*
X15541491Y-13102579D02*
X15551015Y-13140674D01*
X15551015Y-13140674D02*
X15551015Y-13188293D01*
X15551015Y-13188293D02*
X15541491Y-13226388D01*
X15541491Y-13226388D02*
X15531967Y-13245436D01*
X15531967Y-13245436D02*
X15522444Y-13254960D01*
X15522444Y-13254960D02*
X15503396Y-13264484D01*
X15503396Y-13264484D02*
X15484348Y-13264484D01*
X15484348Y-13264484D02*
X15465301Y-13254960D01*
X15465301Y-13254960D02*
X15455777Y-13245436D01*
X15455777Y-13245436D02*
X15446253Y-13226388D01*
X15446253Y-13226388D02*
X15436729Y-13188293D01*
X15436729Y-13188293D02*
X15436729Y-13140674D01*
X15436729Y-13140674D02*
X15446253Y-13102579D01*
X15446253Y-13102579D02*
X15455777Y-13083531D01*
X15455777Y-13083531D02*
X15465301Y-13074008D01*
X15465301Y-13074008D02*
X15484348Y-13064484D01*
X15627206Y-13083531D02*
X15636729Y-13074008D01*
X15636729Y-13074008D02*
X15655777Y-13064484D01*
X15655777Y-13064484D02*
X15703396Y-13064484D01*
X15703396Y-13064484D02*
X15722444Y-13074008D01*
X15722444Y-13074008D02*
X15731967Y-13083531D01*
X15731967Y-13083531D02*
X15741491Y-13102579D01*
X15741491Y-13102579D02*
X15741491Y-13121627D01*
X15741491Y-13121627D02*
X15731967Y-13150198D01*
X15731967Y-13150198D02*
X15617682Y-13264484D01*
X15617682Y-13264484D02*
X15741491Y-13264484D01*
X15808158Y-13064484D02*
X15941491Y-13064484D01*
X15941491Y-13064484D02*
X15855777Y-13264484D01*
X16103396Y-13064484D02*
X16065301Y-13064484D01*
X16065301Y-13064484D02*
X16046253Y-13074008D01*
X16046253Y-13074008D02*
X16036729Y-13083531D01*
X16036729Y-13083531D02*
X16017682Y-13112103D01*
X16017682Y-13112103D02*
X16008158Y-13150198D01*
X16008158Y-13150198D02*
X16008158Y-13226388D01*
X16008158Y-13226388D02*
X16017682Y-13245436D01*
X16017682Y-13245436D02*
X16027206Y-13254960D01*
X16027206Y-13254960D02*
X16046253Y-13264484D01*
X16046253Y-13264484D02*
X16084348Y-13264484D01*
X16084348Y-13264484D02*
X16103396Y-13254960D01*
X16103396Y-13254960D02*
X16112920Y-13245436D01*
X16112920Y-13245436D02*
X16122444Y-13226388D01*
X16122444Y-13226388D02*
X16122444Y-13178769D01*
X16122444Y-13178769D02*
X16112920Y-13159722D01*
X16112920Y-13159722D02*
X16103396Y-13150198D01*
X16103396Y-13150198D02*
X16084348Y-13140674D01*
X16084348Y-13140674D02*
X16046253Y-13140674D01*
X16046253Y-13140674D02*
X16027206Y-13150198D01*
X16027206Y-13150198D02*
X16017682Y-13159722D01*
X16017682Y-13159722D02*
X16008158Y-13178769D01*
X16198634Y-13064484D02*
X16198634Y-13102579D01*
X16274825Y-13064484D02*
X16274825Y-13102579D01*
X16570063Y-13340674D02*
X16560539Y-13331150D01*
X16560539Y-13331150D02*
X16541491Y-13302579D01*
X16541491Y-13302579D02*
X16531968Y-13283531D01*
X16531968Y-13283531D02*
X16522444Y-13254960D01*
X16522444Y-13254960D02*
X16512920Y-13207341D01*
X16512920Y-13207341D02*
X16512920Y-13169246D01*
X16512920Y-13169246D02*
X16522444Y-13121627D01*
X16522444Y-13121627D02*
X16531968Y-13093055D01*
X16531968Y-13093055D02*
X16541491Y-13074008D01*
X16541491Y-13074008D02*
X16560539Y-13045436D01*
X16560539Y-13045436D02*
X16570063Y-13035912D01*
X16751015Y-13264484D02*
X16636729Y-13264484D01*
X16693872Y-13264484D02*
X16693872Y-13064484D01*
X16693872Y-13064484D02*
X16674825Y-13093055D01*
X16674825Y-13093055D02*
X16655777Y-13112103D01*
X16655777Y-13112103D02*
X16636729Y-13121627D01*
X16989111Y-13264484D02*
X16989111Y-13064484D01*
X17074825Y-13264484D02*
X17074825Y-13159722D01*
X17074825Y-13159722D02*
X17065301Y-13140674D01*
X17065301Y-13140674D02*
X17046253Y-13131150D01*
X17046253Y-13131150D02*
X17017682Y-13131150D01*
X17017682Y-13131150D02*
X16998634Y-13140674D01*
X16998634Y-13140674D02*
X16989111Y-13150198D01*
X17198634Y-13264484D02*
X17179587Y-13254960D01*
X17179587Y-13254960D02*
X17170063Y-13245436D01*
X17170063Y-13245436D02*
X17160539Y-13226388D01*
X17160539Y-13226388D02*
X17160539Y-13169246D01*
X17160539Y-13169246D02*
X17170063Y-13150198D01*
X17170063Y-13150198D02*
X17179587Y-13140674D01*
X17179587Y-13140674D02*
X17198634Y-13131150D01*
X17198634Y-13131150D02*
X17227206Y-13131150D01*
X17227206Y-13131150D02*
X17246253Y-13140674D01*
X17246253Y-13140674D02*
X17255777Y-13150198D01*
X17255777Y-13150198D02*
X17265301Y-13169246D01*
X17265301Y-13169246D02*
X17265301Y-13226388D01*
X17265301Y-13226388D02*
X17255777Y-13245436D01*
X17255777Y-13245436D02*
X17246253Y-13254960D01*
X17246253Y-13254960D02*
X17227206Y-13264484D01*
X17227206Y-13264484D02*
X17198634Y-13264484D01*
X17379587Y-13264484D02*
X17360539Y-13254960D01*
X17360539Y-13254960D02*
X17351015Y-13235912D01*
X17351015Y-13235912D02*
X17351015Y-13064484D01*
X17531968Y-13254960D02*
X17512920Y-13264484D01*
X17512920Y-13264484D02*
X17474825Y-13264484D01*
X17474825Y-13264484D02*
X17455777Y-13254960D01*
X17455777Y-13254960D02*
X17446253Y-13235912D01*
X17446253Y-13235912D02*
X17446253Y-13159722D01*
X17446253Y-13159722D02*
X17455777Y-13140674D01*
X17455777Y-13140674D02*
X17474825Y-13131150D01*
X17474825Y-13131150D02*
X17512920Y-13131150D01*
X17512920Y-13131150D02*
X17531968Y-13140674D01*
X17531968Y-13140674D02*
X17541492Y-13159722D01*
X17541492Y-13159722D02*
X17541492Y-13178769D01*
X17541492Y-13178769D02*
X17446253Y-13197817D01*
X17608158Y-13340674D02*
X17617682Y-13331150D01*
X17617682Y-13331150D02*
X17636730Y-13302579D01*
X17636730Y-13302579D02*
X17646253Y-13283531D01*
X17646253Y-13283531D02*
X17655777Y-13254960D01*
X17655777Y-13254960D02*
X17665301Y-13207341D01*
X17665301Y-13207341D02*
X17665301Y-13169246D01*
X17665301Y-13169246D02*
X17655777Y-13121627D01*
X17655777Y-13121627D02*
X17646253Y-13093055D01*
X17646253Y-13093055D02*
X17636730Y-13074008D01*
X17636730Y-13074008D02*
X17617682Y-13045436D01*
X17617682Y-13045436D02*
X17608158Y-13035912D01*
D10*
X12980356Y-13472356D02*
X12980356Y-13401644D01*
X12909644Y-13401644D01*
X12909644Y-13472356D01*
X12980356Y-13472356D01*
D11*
X13360539Y-13528484D02*
X13246253Y-13528484D01*
X13303396Y-13528484D02*
X13303396Y-13328484D01*
X13303396Y-13328484D02*
X13284348Y-13357055D01*
X13284348Y-13357055D02*
X13265301Y-13376103D01*
X13265301Y-13376103D02*
X13246253Y-13385627D01*
X13446253Y-13509436D02*
X13455777Y-13518960D01*
X13455777Y-13518960D02*
X13446253Y-13528484D01*
X13446253Y-13528484D02*
X13436729Y-13518960D01*
X13436729Y-13518960D02*
X13446253Y-13509436D01*
X13446253Y-13509436D02*
X13446253Y-13528484D01*
X13579586Y-13328484D02*
X13598634Y-13328484D01*
X13598634Y-13328484D02*
X13617682Y-13338008D01*
X13617682Y-13338008D02*
X13627205Y-13347531D01*
X13627205Y-13347531D02*
X13636729Y-13366579D01*
X13636729Y-13366579D02*
X13646253Y-13404674D01*
X13646253Y-13404674D02*
X13646253Y-13452293D01*
X13646253Y-13452293D02*
X13636729Y-13490388D01*
X13636729Y-13490388D02*
X13627205Y-13509436D01*
X13627205Y-13509436D02*
X13617682Y-13518960D01*
X13617682Y-13518960D02*
X13598634Y-13528484D01*
X13598634Y-13528484D02*
X13579586Y-13528484D01*
X13579586Y-13528484D02*
X13560539Y-13518960D01*
X13560539Y-13518960D02*
X13551015Y-13509436D01*
X13551015Y-13509436D02*
X13541491Y-13490388D01*
X13541491Y-13490388D02*
X13531967Y-13452293D01*
X13531967Y-13452293D02*
X13531967Y-13404674D01*
X13531967Y-13404674D02*
X13541491Y-13366579D01*
X13541491Y-13366579D02*
X13551015Y-13347531D01*
X13551015Y-13347531D02*
X13560539Y-13338008D01*
X13560539Y-13338008D02*
X13579586Y-13328484D01*
X13770062Y-13328484D02*
X13789110Y-13328484D01*
X13789110Y-13328484D02*
X13808158Y-13338008D01*
X13808158Y-13338008D02*
X13817682Y-13347531D01*
X13817682Y-13347531D02*
X13827205Y-13366579D01*
X13827205Y-13366579D02*
X13836729Y-13404674D01*
X13836729Y-13404674D02*
X13836729Y-13452293D01*
X13836729Y-13452293D02*
X13827205Y-13490388D01*
X13827205Y-13490388D02*
X13817682Y-13509436D01*
X13817682Y-13509436D02*
X13808158Y-13518960D01*
X13808158Y-13518960D02*
X13789110Y-13528484D01*
X13789110Y-13528484D02*
X13770062Y-13528484D01*
X13770062Y-13528484D02*
X13751015Y-13518960D01*
X13751015Y-13518960D02*
X13741491Y-13509436D01*
X13741491Y-13509436D02*
X13731967Y-13490388D01*
X13731967Y-13490388D02*
X13722443Y-13452293D01*
X13722443Y-13452293D02*
X13722443Y-13404674D01*
X13722443Y-13404674D02*
X13731967Y-13366579D01*
X13731967Y-13366579D02*
X13741491Y-13347531D01*
X13741491Y-13347531D02*
X13751015Y-13338008D01*
X13751015Y-13338008D02*
X13770062Y-13328484D01*
X13960539Y-13328484D02*
X13979586Y-13328484D01*
X13979586Y-13328484D02*
X13998634Y-13338008D01*
X13998634Y-13338008D02*
X14008158Y-13347531D01*
X14008158Y-13347531D02*
X14017682Y-13366579D01*
X14017682Y-13366579D02*
X14027205Y-13404674D01*
X14027205Y-13404674D02*
X14027205Y-13452293D01*
X14027205Y-13452293D02*
X14017682Y-13490388D01*
X14017682Y-13490388D02*
X14008158Y-13509436D01*
X14008158Y-13509436D02*
X13998634Y-13518960D01*
X13998634Y-13518960D02*
X13979586Y-13528484D01*
X13979586Y-13528484D02*
X13960539Y-13528484D01*
X13960539Y-13528484D02*
X13941491Y-13518960D01*
X13941491Y-13518960D02*
X13931967Y-13509436D01*
X13931967Y-13509436D02*
X13922443Y-13490388D01*
X13922443Y-13490388D02*
X13912920Y-13452293D01*
X13912920Y-13452293D02*
X13912920Y-13404674D01*
X13912920Y-13404674D02*
X13922443Y-13366579D01*
X13922443Y-13366579D02*
X13931967Y-13347531D01*
X13931967Y-13347531D02*
X13941491Y-13338008D01*
X13941491Y-13338008D02*
X13960539Y-13328484D01*
X14112920Y-13528484D02*
X14112920Y-13395150D01*
X14112920Y-13414198D02*
X14122443Y-13404674D01*
X14122443Y-13404674D02*
X14141491Y-13395150D01*
X14141491Y-13395150D02*
X14170063Y-13395150D01*
X14170063Y-13395150D02*
X14189110Y-13404674D01*
X14189110Y-13404674D02*
X14198634Y-13423722D01*
X14198634Y-13423722D02*
X14198634Y-13528484D01*
X14198634Y-13423722D02*
X14208158Y-13404674D01*
X14208158Y-13404674D02*
X14227205Y-13395150D01*
X14227205Y-13395150D02*
X14255777Y-13395150D01*
X14255777Y-13395150D02*
X14274824Y-13404674D01*
X14274824Y-13404674D02*
X14284348Y-13423722D01*
X14284348Y-13423722D02*
X14284348Y-13528484D01*
X14379586Y-13528484D02*
X14379586Y-13395150D01*
X14379586Y-13414198D02*
X14389110Y-13404674D01*
X14389110Y-13404674D02*
X14408158Y-13395150D01*
X14408158Y-13395150D02*
X14436729Y-13395150D01*
X14436729Y-13395150D02*
X14455777Y-13404674D01*
X14455777Y-13404674D02*
X14465301Y-13423722D01*
X14465301Y-13423722D02*
X14465301Y-13528484D01*
X14465301Y-13423722D02*
X14474824Y-13404674D01*
X14474824Y-13404674D02*
X14493872Y-13395150D01*
X14493872Y-13395150D02*
X14522443Y-13395150D01*
X14522443Y-13395150D02*
X14541491Y-13404674D01*
X14541491Y-13404674D02*
X14551015Y-13423722D01*
X14551015Y-13423722D02*
X14551015Y-13528484D01*
X14941491Y-13318960D02*
X14770063Y-13576103D01*
X15198634Y-13328484D02*
X15217682Y-13328484D01*
X15217682Y-13328484D02*
X15236729Y-13338008D01*
X15236729Y-13338008D02*
X15246253Y-13347531D01*
X15246253Y-13347531D02*
X15255777Y-13366579D01*
X15255777Y-13366579D02*
X15265301Y-13404674D01*
X15265301Y-13404674D02*
X15265301Y-13452293D01*
X15265301Y-13452293D02*
X15255777Y-13490388D01*
X15255777Y-13490388D02*
X15246253Y-13509436D01*
X15246253Y-13509436D02*
X15236729Y-13518960D01*
X15236729Y-13518960D02*
X15217682Y-13528484D01*
X15217682Y-13528484D02*
X15198634Y-13528484D01*
X15198634Y-13528484D02*
X15179586Y-13518960D01*
X15179586Y-13518960D02*
X15170063Y-13509436D01*
X15170063Y-13509436D02*
X15160539Y-13490388D01*
X15160539Y-13490388D02*
X15151015Y-13452293D01*
X15151015Y-13452293D02*
X15151015Y-13404674D01*
X15151015Y-13404674D02*
X15160539Y-13366579D01*
X15160539Y-13366579D02*
X15170063Y-13347531D01*
X15170063Y-13347531D02*
X15179586Y-13338008D01*
X15179586Y-13338008D02*
X15198634Y-13328484D01*
X15351015Y-13509436D02*
X15360539Y-13518960D01*
X15360539Y-13518960D02*
X15351015Y-13528484D01*
X15351015Y-13528484D02*
X15341491Y-13518960D01*
X15341491Y-13518960D02*
X15351015Y-13509436D01*
X15351015Y-13509436D02*
X15351015Y-13528484D01*
X15484348Y-13328484D02*
X15503396Y-13328484D01*
X15503396Y-13328484D02*
X15522444Y-13338008D01*
X15522444Y-13338008D02*
X15531967Y-13347531D01*
X15531967Y-13347531D02*
X15541491Y-13366579D01*
X15541491Y-13366579D02*
X15551015Y-13404674D01*
X15551015Y-13404674D02*
X15551015Y-13452293D01*
X15551015Y-13452293D02*
X15541491Y-13490388D01*
X15541491Y-13490388D02*
X15531967Y-13509436D01*
X15531967Y-13509436D02*
X15522444Y-13518960D01*
X15522444Y-13518960D02*
X15503396Y-13528484D01*
X15503396Y-13528484D02*
X15484348Y-13528484D01*
X15484348Y-13528484D02*
X15465301Y-13518960D01*
X15465301Y-13518960D02*
X15455777Y-13509436D01*
X15455777Y-13509436D02*
X15446253Y-13490388D01*
X15446253Y-13490388D02*
X15436729Y-13452293D01*
X15436729Y-13452293D02*
X15436729Y-13404674D01*
X15436729Y-13404674D02*
X15446253Y-13366579D01*
X15446253Y-13366579D02*
X15455777Y-13347531D01*
X15455777Y-13347531D02*
X15465301Y-13338008D01*
X15465301Y-13338008D02*
X15484348Y-13328484D01*
X15617682Y-13328484D02*
X15741491Y-13328484D01*
X15741491Y-13328484D02*
X15674825Y-13404674D01*
X15674825Y-13404674D02*
X15703396Y-13404674D01*
X15703396Y-13404674D02*
X15722444Y-13414198D01*
X15722444Y-13414198D02*
X15731967Y-13423722D01*
X15731967Y-13423722D02*
X15741491Y-13442769D01*
X15741491Y-13442769D02*
X15741491Y-13490388D01*
X15741491Y-13490388D02*
X15731967Y-13509436D01*
X15731967Y-13509436D02*
X15722444Y-13518960D01*
X15722444Y-13518960D02*
X15703396Y-13528484D01*
X15703396Y-13528484D02*
X15646253Y-13528484D01*
X15646253Y-13528484D02*
X15627206Y-13518960D01*
X15627206Y-13518960D02*
X15617682Y-13509436D01*
X15836729Y-13528484D02*
X15874825Y-13528484D01*
X15874825Y-13528484D02*
X15893872Y-13518960D01*
X15893872Y-13518960D02*
X15903396Y-13509436D01*
X15903396Y-13509436D02*
X15922444Y-13480865D01*
X15922444Y-13480865D02*
X15931967Y-13442769D01*
X15931967Y-13442769D02*
X15931967Y-13366579D01*
X15931967Y-13366579D02*
X15922444Y-13347531D01*
X15922444Y-13347531D02*
X15912920Y-13338008D01*
X15912920Y-13338008D02*
X15893872Y-13328484D01*
X15893872Y-13328484D02*
X15855777Y-13328484D01*
X15855777Y-13328484D02*
X15836729Y-13338008D01*
X15836729Y-13338008D02*
X15827206Y-13347531D01*
X15827206Y-13347531D02*
X15817682Y-13366579D01*
X15817682Y-13366579D02*
X15817682Y-13414198D01*
X15817682Y-13414198D02*
X15827206Y-13433246D01*
X15827206Y-13433246D02*
X15836729Y-13442769D01*
X15836729Y-13442769D02*
X15855777Y-13452293D01*
X15855777Y-13452293D02*
X15893872Y-13452293D01*
X15893872Y-13452293D02*
X15912920Y-13442769D01*
X15912920Y-13442769D02*
X15922444Y-13433246D01*
X15922444Y-13433246D02*
X15931967Y-13414198D01*
X16103396Y-13395150D02*
X16103396Y-13528484D01*
X16055777Y-13318960D02*
X16008158Y-13461817D01*
X16008158Y-13461817D02*
X16131967Y-13461817D01*
X16198634Y-13328484D02*
X16198634Y-13366579D01*
X16274825Y-13328484D02*
X16274825Y-13366579D01*
X16570063Y-13604674D02*
X16560539Y-13595150D01*
X16560539Y-13595150D02*
X16541491Y-13566579D01*
X16541491Y-13566579D02*
X16531968Y-13547531D01*
X16531968Y-13547531D02*
X16522444Y-13518960D01*
X16522444Y-13518960D02*
X16512920Y-13471341D01*
X16512920Y-13471341D02*
X16512920Y-13433246D01*
X16512920Y-13433246D02*
X16522444Y-13385627D01*
X16522444Y-13385627D02*
X16531968Y-13357055D01*
X16531968Y-13357055D02*
X16541491Y-13338008D01*
X16541491Y-13338008D02*
X16560539Y-13309436D01*
X16560539Y-13309436D02*
X16570063Y-13299912D01*
X16741491Y-13328484D02*
X16646253Y-13328484D01*
X16646253Y-13328484D02*
X16636729Y-13423722D01*
X16636729Y-13423722D02*
X16646253Y-13414198D01*
X16646253Y-13414198D02*
X16665301Y-13404674D01*
X16665301Y-13404674D02*
X16712920Y-13404674D01*
X16712920Y-13404674D02*
X16731968Y-13414198D01*
X16731968Y-13414198D02*
X16741491Y-13423722D01*
X16741491Y-13423722D02*
X16751015Y-13442769D01*
X16751015Y-13442769D02*
X16751015Y-13490388D01*
X16751015Y-13490388D02*
X16741491Y-13509436D01*
X16741491Y-13509436D02*
X16731968Y-13518960D01*
X16731968Y-13518960D02*
X16712920Y-13528484D01*
X16712920Y-13528484D02*
X16665301Y-13528484D01*
X16665301Y-13528484D02*
X16646253Y-13518960D01*
X16646253Y-13518960D02*
X16636729Y-13509436D01*
X16989111Y-13528484D02*
X16989111Y-13328484D01*
X17074825Y-13528484D02*
X17074825Y-13423722D01*
X17074825Y-13423722D02*
X17065301Y-13404674D01*
X17065301Y-13404674D02*
X17046253Y-13395150D01*
X17046253Y-13395150D02*
X17017682Y-13395150D01*
X17017682Y-13395150D02*
X16998634Y-13404674D01*
X16998634Y-13404674D02*
X16989111Y-13414198D01*
X17198634Y-13528484D02*
X17179587Y-13518960D01*
X17179587Y-13518960D02*
X17170063Y-13509436D01*
X17170063Y-13509436D02*
X17160539Y-13490388D01*
X17160539Y-13490388D02*
X17160539Y-13433246D01*
X17160539Y-13433246D02*
X17170063Y-13414198D01*
X17170063Y-13414198D02*
X17179587Y-13404674D01*
X17179587Y-13404674D02*
X17198634Y-13395150D01*
X17198634Y-13395150D02*
X17227206Y-13395150D01*
X17227206Y-13395150D02*
X17246253Y-13404674D01*
X17246253Y-13404674D02*
X17255777Y-13414198D01*
X17255777Y-13414198D02*
X17265301Y-13433246D01*
X17265301Y-13433246D02*
X17265301Y-13490388D01*
X17265301Y-13490388D02*
X17255777Y-13509436D01*
X17255777Y-13509436D02*
X17246253Y-13518960D01*
X17246253Y-13518960D02*
X17227206Y-13528484D01*
X17227206Y-13528484D02*
X17198634Y-13528484D01*
X17379587Y-13528484D02*
X17360539Y-13518960D01*
X17360539Y-13518960D02*
X17351015Y-13499912D01*
X17351015Y-13499912D02*
X17351015Y-13328484D01*
X17531968Y-13518960D02*
X17512920Y-13528484D01*
X17512920Y-13528484D02*
X17474825Y-13528484D01*
X17474825Y-13528484D02*
X17455777Y-13518960D01*
X17455777Y-13518960D02*
X17446253Y-13499912D01*
X17446253Y-13499912D02*
X17446253Y-13423722D01*
X17446253Y-13423722D02*
X17455777Y-13404674D01*
X17455777Y-13404674D02*
X17474825Y-13395150D01*
X17474825Y-13395150D02*
X17512920Y-13395150D01*
X17512920Y-13395150D02*
X17531968Y-13404674D01*
X17531968Y-13404674D02*
X17541492Y-13423722D01*
X17541492Y-13423722D02*
X17541492Y-13442769D01*
X17541492Y-13442769D02*
X17446253Y-13461817D01*
X17617682Y-13518960D02*
X17636730Y-13528484D01*
X17636730Y-13528484D02*
X17674825Y-13528484D01*
X17674825Y-13528484D02*
X17693873Y-13518960D01*
X17693873Y-13518960D02*
X17703396Y-13499912D01*
X17703396Y-13499912D02*
X17703396Y-13490388D01*
X17703396Y-13490388D02*
X17693873Y-13471341D01*
X17693873Y-13471341D02*
X17674825Y-13461817D01*
X17674825Y-13461817D02*
X17646253Y-13461817D01*
X17646253Y-13461817D02*
X17627206Y-13452293D01*
X17627206Y-13452293D02*
X17617682Y-13433246D01*
X17617682Y-13433246D02*
X17617682Y-13423722D01*
X17617682Y-13423722D02*
X17627206Y-13404674D01*
X17627206Y-13404674D02*
X17646253Y-13395150D01*
X17646253Y-13395150D02*
X17674825Y-13395150D01*
X17674825Y-13395150D02*
X17693873Y-13404674D01*
X17770063Y-13604674D02*
X17779587Y-13595150D01*
X17779587Y-13595150D02*
X17798634Y-13566579D01*
X17798634Y-13566579D02*
X17808158Y-13547531D01*
X17808158Y-13547531D02*
X17817682Y-13518960D01*
X17817682Y-13518960D02*
X17827206Y-13471341D01*
X17827206Y-13471341D02*
X17827206Y-13433246D01*
X17827206Y-13433246D02*
X17817682Y-13385627D01*
X17817682Y-13385627D02*
X17808158Y-13357055D01*
X17808158Y-13357055D02*
X17798634Y-13338008D01*
X17798634Y-13338008D02*
X17779587Y-13309436D01*
X17779587Y-13309436D02*
X17770063Y-13299912D01*
M02*
