M48
; DRILL file {KiCad 7.0.9} date Sat Apr  6 01:04:01 2024
; FORMAT={-:-/ absolute / metric / decimal}
; #@! TF.CreationDate,2024-04-06T01:04:01+02:00
; #@! TF.GenerationSoftware,Kicad,Pcbnew,7.0.9
; #@! TF.FileFunction,Plated,1,2,PTH
FMAT,2
METRIC
; #@! TA.AperFunction,Plated,PTH,ViaDrill
T1C0.400
; #@! TA.AperFunction,Plated,PTH,ComponentDrill
T2C0.600
; #@! TA.AperFunction,Plated,PTH,ComponentDrill
T3C0.700
; #@! TA.AperFunction,Plated,PTH,ComponentDrill
T4C1.000
%
G90
G05
T1
X132.7Y-85.0
X132.7Y-115.0
X132.85Y-75.0
X132.9Y-105.0
X139.0Y-93.0
X142.8Y-75.0
X142.8Y-85.0
X142.8Y-115.0
X142.9Y-105.0
X150.1Y-87.8
X151.3Y-87.05
X151.6Y-83.4
X152.5Y-87.8
X152.8Y-115.0
X152.85Y-75.0
X152.9Y-105.0
X154.6Y-81.4
X155.7Y-83.4
X155.8Y-89.7
X162.8Y-85.0
X162.8Y-115.0
X162.85Y-75.0
X162.9Y-105.0
X163.0Y-95.0
X172.8Y-105.0
X172.8Y-115.0
X172.9Y-75.0
X172.9Y-84.9
X172.9Y-95.0
T3
X159.3Y-89.5
T4
X154.36Y-102.8
X156.9Y-102.8
X159.44Y-102.8
X161.98Y-102.8
X164.52Y-102.8
T2
X132.3Y-91.76G85X132.9Y-91.76
G05
X132.3Y-100.4G85X132.9Y-100.4
G05
X136.1Y-91.76G85X136.7Y-91.76
G05
X136.1Y-100.4G85X136.7Y-100.4
G05
T0
M30
