G04 #@! TF.GenerationSoftware,KiCad,Pcbnew,7.0.9*
G04 #@! TF.CreationDate,2023-11-26T00:11:53+01:00*
G04 #@! TF.ProjectId,v1,76312e6b-6963-4616-945f-706362585858,rev?*
G04 #@! TF.SameCoordinates,Original*
G04 #@! TF.FileFunction,Soldermask,Bot*
G04 #@! TF.FilePolarity,Negative*
%FSLAX46Y46*%
G04 Gerber Fmt 4.6, Leading zero omitted, Abs format (unit mm)*
G04 Created by KiCad (PCBNEW 7.0.9) date 2023-11-26 00:11:53*
%MOMM*%
%LPD*%
G01*
G04 APERTURE LIST*
G04 Aperture macros list*
%AMRoundRect*
0 Rectangle with rounded corners*
0 $1 Rounding radius*
0 $2 $3 $4 $5 $6 $7 $8 $9 X,Y pos of 4 corners*
0 Add a 4 corners polygon primitive as box body*
4,1,4,$2,$3,$4,$5,$6,$7,$8,$9,$2,$3,0*
0 Add four circle primitives for the rounded corners*
1,1,$1+$1,$2,$3*
1,1,$1+$1,$4,$5*
1,1,$1+$1,$6,$7*
1,1,$1+$1,$8,$9*
0 Add four rect primitives between the rounded corners*
20,1,$1+$1,$2,$3,$4,$5,0*
20,1,$1+$1,$4,$5,$6,$7,0*
20,1,$1+$1,$6,$7,$8,$9,0*
20,1,$1+$1,$8,$9,$2,$3,0*%
G04 Aperture macros list end*
%ADD10R,0.850000X0.850000*%
%ADD11O,0.850000X0.850000*%
%ADD12R,1.000000X1.400000*%
%ADD13RoundRect,0.250000X-0.650000X0.412500X-0.650000X-0.412500X0.650000X-0.412500X0.650000X0.412500X0*%
%ADD14RoundRect,0.237500X-0.237500X0.250000X-0.237500X-0.250000X0.237500X-0.250000X0.237500X0.250000X0*%
%ADD15RoundRect,0.250000X-0.412500X-0.650000X0.412500X-0.650000X0.412500X0.650000X-0.412500X0.650000X0*%
%ADD16RoundRect,0.237500X-0.250000X-0.237500X0.250000X-0.237500X0.250000X0.237500X-0.250000X0.237500X0*%
%ADD17R,1.500000X2.000000*%
%ADD18R,3.800000X2.000000*%
%ADD19RoundRect,0.250000X-1.450000X0.400000X-1.450000X-0.400000X1.450000X-0.400000X1.450000X0.400000X0*%
%ADD20RoundRect,0.237500X0.237500X-0.250000X0.237500X0.250000X-0.237500X0.250000X-0.237500X-0.250000X0*%
%ADD21RoundRect,0.250000X0.250000X0.750000X-0.250000X0.750000X-0.250000X-0.750000X0.250000X-0.750000X0*%
%ADD22RoundRect,0.250000X0.650000X-0.412500X0.650000X0.412500X-0.650000X0.412500X-0.650000X-0.412500X0*%
%ADD23RoundRect,0.100000X0.100000X-0.217500X0.100000X0.217500X-0.100000X0.217500X-0.100000X-0.217500X0*%
%ADD24RoundRect,0.237500X0.250000X0.237500X-0.250000X0.237500X-0.250000X-0.237500X0.250000X-0.237500X0*%
%ADD25R,1.700000X0.650000*%
%ADD26C,0.650000*%
%ADD27O,0.650000X0.950000*%
%ADD28R,0.700000X0.300000*%
%ADD29O,1.400000X0.800000*%
G04 APERTURE END LIST*
D10*
X153320000Y-115400000D03*
D11*
X154320000Y-115400000D03*
X155320000Y-115400000D03*
X156320000Y-115400000D03*
X157320000Y-115400000D03*
D12*
X156820000Y-105800000D03*
X158720000Y-105800000D03*
X157770000Y-108000000D03*
D13*
X143820000Y-108200000D03*
X143820000Y-111325000D03*
D14*
X131459600Y-96430600D03*
X131459600Y-98255600D03*
D15*
X135320000Y-89350000D03*
X138445000Y-89350000D03*
D16*
X164745000Y-94600000D03*
X166570000Y-94600000D03*
X164720000Y-104700000D03*
X166545000Y-104700000D03*
X164745000Y-100810000D03*
X166570000Y-100810000D03*
D17*
X136120000Y-104700000D03*
X138420000Y-104700000D03*
D18*
X138420000Y-111000000D03*
D17*
X140720000Y-104700000D03*
D14*
X131459600Y-103955600D03*
X131459600Y-105780600D03*
D19*
X127420000Y-108050000D03*
X127420000Y-112500000D03*
D20*
X154320000Y-108900000D03*
X154320000Y-107075000D03*
D16*
X164745000Y-98710000D03*
X166570000Y-98710000D03*
D21*
X148420000Y-96500000D03*
D22*
X132920000Y-111362500D03*
X132920000Y-108237500D03*
D23*
X134620000Y-96475000D03*
X134620000Y-95660000D03*
D16*
X164745000Y-92600000D03*
X166570000Y-92600000D03*
X164720000Y-106700000D03*
X166545000Y-106700000D03*
X164745000Y-90600000D03*
X166570000Y-90600000D03*
X164720000Y-102800000D03*
X166545000Y-102800000D03*
D24*
X146445000Y-91800000D03*
X144620000Y-91800000D03*
D15*
X135320000Y-92100000D03*
X138445000Y-92100000D03*
D25*
X145820000Y-94490000D03*
X145820000Y-95760000D03*
X145820000Y-97030000D03*
X145820000Y-98300000D03*
X138520000Y-98300000D03*
X138520000Y-97030000D03*
X138520000Y-95760000D03*
X138520000Y-94490000D03*
D14*
X136120000Y-94190000D03*
X136120000Y-96015000D03*
D26*
X128620000Y-104910000D03*
D27*
X128620000Y-97710000D03*
D28*
X129280000Y-104060000D03*
X129280000Y-103560000D03*
X129280000Y-103060000D03*
X129280000Y-102560000D03*
X129280000Y-102060000D03*
X129280000Y-101560000D03*
X129280000Y-101060000D03*
X129280000Y-100560000D03*
X129280000Y-100060000D03*
X129280000Y-99560000D03*
X129280000Y-99060000D03*
X129280000Y-98560000D03*
X127580000Y-98810000D03*
X127580000Y-99310000D03*
X127580000Y-99810000D03*
X127580000Y-100310000D03*
X127580000Y-100810000D03*
X127580000Y-101310000D03*
X127580000Y-101810000D03*
X127580000Y-102310000D03*
X127580000Y-102810000D03*
X127580000Y-103310000D03*
X127580000Y-103810000D03*
X127580000Y-104310000D03*
D29*
X121420000Y-105800000D03*
X127370000Y-105440000D03*
X127370000Y-97180000D03*
X121420000Y-96820000D03*
D16*
X164745000Y-96700000D03*
X166570000Y-96700000D03*
M02*
