G04 #@! TF.GenerationSoftware,KiCad,Pcbnew,7.0.9*
G04 #@! TF.CreationDate,2023-11-26T00:11:53+01:00*
G04 #@! TF.ProjectId,v1,76312e6b-6963-4616-945f-706362585858,rev?*
G04 #@! TF.SameCoordinates,Original*
G04 #@! TF.FileFunction,Copper,L2,Bot*
G04 #@! TF.FilePolarity,Positive*
%FSLAX46Y46*%
G04 Gerber Fmt 4.6, Leading zero omitted, Abs format (unit mm)*
G04 Created by KiCad (PCBNEW 7.0.9) date 2023-11-26 00:11:53*
%MOMM*%
%LPD*%
G01*
G04 APERTURE LIST*
G04 Aperture macros list*
%AMRoundRect*
0 Rectangle with rounded corners*
0 $1 Rounding radius*
0 $2 $3 $4 $5 $6 $7 $8 $9 X,Y pos of 4 corners*
0 Add a 4 corners polygon primitive as box body*
4,1,4,$2,$3,$4,$5,$6,$7,$8,$9,$2,$3,0*
0 Add four circle primitives for the rounded corners*
1,1,$1+$1,$2,$3*
1,1,$1+$1,$4,$5*
1,1,$1+$1,$6,$7*
1,1,$1+$1,$8,$9*
0 Add four rect primitives between the rounded corners*
20,1,$1+$1,$2,$3,$4,$5,0*
20,1,$1+$1,$4,$5,$6,$7,0*
20,1,$1+$1,$6,$7,$8,$9,0*
20,1,$1+$1,$8,$9,$2,$3,0*%
G04 Aperture macros list end*
G04 #@! TA.AperFunction,ComponentPad*
%ADD10R,0.850000X0.850000*%
G04 #@! TD*
G04 #@! TA.AperFunction,ComponentPad*
%ADD11O,0.850000X0.850000*%
G04 #@! TD*
G04 #@! TA.AperFunction,SMDPad,CuDef*
%ADD12R,1.000000X1.400000*%
G04 #@! TD*
G04 #@! TA.AperFunction,SMDPad,CuDef*
%ADD13RoundRect,0.250000X-0.650000X0.412500X-0.650000X-0.412500X0.650000X-0.412500X0.650000X0.412500X0*%
G04 #@! TD*
G04 #@! TA.AperFunction,SMDPad,CuDef*
%ADD14RoundRect,0.237500X-0.237500X0.250000X-0.237500X-0.250000X0.237500X-0.250000X0.237500X0.250000X0*%
G04 #@! TD*
G04 #@! TA.AperFunction,SMDPad,CuDef*
%ADD15RoundRect,0.250000X-0.412500X-0.650000X0.412500X-0.650000X0.412500X0.650000X-0.412500X0.650000X0*%
G04 #@! TD*
G04 #@! TA.AperFunction,SMDPad,CuDef*
%ADD16RoundRect,0.237500X-0.250000X-0.237500X0.250000X-0.237500X0.250000X0.237500X-0.250000X0.237500X0*%
G04 #@! TD*
G04 #@! TA.AperFunction,SMDPad,CuDef*
%ADD17R,1.500000X2.000000*%
G04 #@! TD*
G04 #@! TA.AperFunction,SMDPad,CuDef*
%ADD18R,3.800000X2.000000*%
G04 #@! TD*
G04 #@! TA.AperFunction,SMDPad,CuDef*
%ADD19RoundRect,0.250000X-1.450000X0.400000X-1.450000X-0.400000X1.450000X-0.400000X1.450000X0.400000X0*%
G04 #@! TD*
G04 #@! TA.AperFunction,SMDPad,CuDef*
%ADD20RoundRect,0.237500X0.237500X-0.250000X0.237500X0.250000X-0.237500X0.250000X-0.237500X-0.250000X0*%
G04 #@! TD*
G04 #@! TA.AperFunction,SMDPad,CuDef*
%ADD21RoundRect,0.250000X0.250000X0.750000X-0.250000X0.750000X-0.250000X-0.750000X0.250000X-0.750000X0*%
G04 #@! TD*
G04 #@! TA.AperFunction,SMDPad,CuDef*
%ADD22RoundRect,0.250000X0.650000X-0.412500X0.650000X0.412500X-0.650000X0.412500X-0.650000X-0.412500X0*%
G04 #@! TD*
G04 #@! TA.AperFunction,SMDPad,CuDef*
%ADD23RoundRect,0.100000X0.100000X-0.217500X0.100000X0.217500X-0.100000X0.217500X-0.100000X-0.217500X0*%
G04 #@! TD*
G04 #@! TA.AperFunction,SMDPad,CuDef*
%ADD24RoundRect,0.237500X0.250000X0.237500X-0.250000X0.237500X-0.250000X-0.237500X0.250000X-0.237500X0*%
G04 #@! TD*
G04 #@! TA.AperFunction,SMDPad,CuDef*
%ADD25R,1.700000X0.650000*%
G04 #@! TD*
G04 #@! TA.AperFunction,SMDPad,CuDef*
%ADD26R,0.700000X0.300000*%
G04 #@! TD*
G04 #@! TA.AperFunction,ComponentPad*
%ADD27O,1.400000X0.800000*%
G04 #@! TD*
G04 #@! TA.AperFunction,ViaPad*
%ADD28C,0.800000*%
G04 #@! TD*
G04 #@! TA.AperFunction,Conductor*
%ADD29C,0.250000*%
G04 #@! TD*
G04 APERTURE END LIST*
D10*
X153320000Y-115400000D03*
D11*
X154320000Y-115400000D03*
X155320000Y-115400000D03*
X156320000Y-115400000D03*
X157320000Y-115400000D03*
D12*
X156820000Y-105800000D03*
X158720000Y-105800000D03*
X157770000Y-108000000D03*
D13*
X143820000Y-108200000D03*
X143820000Y-111325000D03*
D14*
X131459600Y-96430600D03*
X131459600Y-98255600D03*
D15*
X135320000Y-89350000D03*
X138445000Y-89350000D03*
D16*
X164745000Y-94600000D03*
X166570000Y-94600000D03*
X164720000Y-104700000D03*
X166545000Y-104700000D03*
X164745000Y-100810000D03*
X166570000Y-100810000D03*
D17*
X136120000Y-104700000D03*
X138420000Y-104700000D03*
D18*
X138420000Y-111000000D03*
D17*
X140720000Y-104700000D03*
D14*
X131459600Y-103955600D03*
X131459600Y-105780600D03*
D19*
X127420000Y-108050000D03*
X127420000Y-112500000D03*
D20*
X154320000Y-108900000D03*
X154320000Y-107075000D03*
D16*
X164745000Y-98710000D03*
X166570000Y-98710000D03*
D21*
X148420000Y-96500000D03*
D22*
X132920000Y-111362500D03*
X132920000Y-108237500D03*
D23*
X134620000Y-96475000D03*
X134620000Y-95660000D03*
D16*
X164745000Y-92600000D03*
X166570000Y-92600000D03*
X164720000Y-106700000D03*
X166545000Y-106700000D03*
X164745000Y-90600000D03*
X166570000Y-90600000D03*
X164720000Y-102800000D03*
X166545000Y-102800000D03*
D24*
X146445000Y-91800000D03*
X144620000Y-91800000D03*
D15*
X135320000Y-92100000D03*
X138445000Y-92100000D03*
D25*
X145820000Y-94490000D03*
X145820000Y-95760000D03*
X145820000Y-97030000D03*
X145820000Y-98300000D03*
X138520000Y-98300000D03*
X138520000Y-97030000D03*
X138520000Y-95760000D03*
X138520000Y-94490000D03*
D14*
X136120000Y-94190000D03*
X136120000Y-96015000D03*
D26*
X129280000Y-104060000D03*
X129280000Y-103560000D03*
X129280000Y-103060000D03*
X129280000Y-102560000D03*
X129280000Y-102060000D03*
X129280000Y-101560000D03*
X129280000Y-101060000D03*
X129280000Y-100560000D03*
X129280000Y-100060000D03*
X129280000Y-99560000D03*
X129280000Y-99060000D03*
X129280000Y-98560000D03*
X127580000Y-98810000D03*
X127580000Y-99310000D03*
X127580000Y-99810000D03*
X127580000Y-100310000D03*
X127580000Y-100810000D03*
X127580000Y-101310000D03*
X127580000Y-101810000D03*
X127580000Y-102310000D03*
X127580000Y-102810000D03*
X127580000Y-103310000D03*
X127580000Y-103810000D03*
X127580000Y-104310000D03*
D27*
X121420000Y-105800000D03*
X127370000Y-105440000D03*
X127370000Y-97180000D03*
X121420000Y-96820000D03*
D16*
X164745000Y-96700000D03*
X166570000Y-96700000D03*
D28*
X152520000Y-111400000D03*
X168720000Y-101800000D03*
X168820000Y-89500000D03*
X168820000Y-93600000D03*
X168720000Y-95600000D03*
X168720000Y-97700000D03*
X168720000Y-99800000D03*
X159620000Y-109500000D03*
X156120000Y-109400000D03*
X157820000Y-110100000D03*
X124920000Y-113900000D03*
X129920000Y-113800000D03*
X127420000Y-114500000D03*
X145020000Y-77700000D03*
X167220000Y-77700000D03*
X126020000Y-98100000D03*
X149920000Y-102700000D03*
X168120000Y-124100000D03*
X145120000Y-124400000D03*
X171520000Y-104900000D03*
X127420000Y-77600000D03*
X128120000Y-124400000D03*
X168720000Y-91600000D03*
X167520000Y-109000000D03*
X168620000Y-105700000D03*
X136120000Y-99700000D03*
X132920000Y-93000000D03*
X153020000Y-103400000D03*
D29*
X124520000Y-105150000D02*
X127420000Y-108050000D01*
X125690000Y-102830000D02*
X124520000Y-104000000D01*
X124520000Y-104000000D02*
X124520000Y-105150000D01*
X128120000Y-102830000D02*
X125690000Y-102830000D01*
X128520000Y-102580000D02*
X128370000Y-102580000D01*
X128370000Y-102580000D02*
X128120000Y-102830000D01*
X128820000Y-109700000D02*
X132920000Y-109700000D01*
X127420000Y-112500000D02*
X127420000Y-111100000D01*
X127420000Y-111100000D02*
X128820000Y-109700000D01*
X154320000Y-112075000D02*
X154320000Y-115400000D01*
X137120000Y-96600000D02*
X137890000Y-95830000D01*
X137120000Y-98900000D02*
X137120000Y-96600000D01*
X139420000Y-99500000D02*
X137720000Y-99500000D01*
X137890000Y-95830000D02*
X139345000Y-95830000D01*
X153320000Y-113400000D02*
X139420000Y-99500000D01*
X137720000Y-99500000D02*
X137120000Y-98900000D01*
X153320000Y-115400000D02*
X153320000Y-113400000D01*
X156820000Y-107000000D02*
X156820000Y-105800000D01*
X154920000Y-108900000D02*
X156820000Y-107000000D01*
X154320000Y-108900000D02*
X154920000Y-108900000D01*
X154320000Y-108900000D02*
X154320000Y-112075000D01*
X139345000Y-97100000D02*
X154320000Y-112075000D01*
X138820000Y-97100000D02*
X139345000Y-97100000D01*
X166545000Y-102800000D02*
X167720000Y-102800000D01*
X167720000Y-102800000D02*
X168720000Y-101800000D01*
X166570000Y-90600000D02*
X167720000Y-90600000D01*
X167720000Y-90600000D02*
X168820000Y-89500000D01*
X167820000Y-94600000D02*
X168820000Y-93600000D01*
X166570000Y-94600000D02*
X167820000Y-94600000D01*
X167620000Y-96700000D02*
X168720000Y-95600000D01*
X166570000Y-96700000D02*
X167620000Y-96700000D01*
X167710000Y-98710000D02*
X168720000Y-97700000D01*
X166570000Y-98710000D02*
X167710000Y-98710000D01*
X167710000Y-100810000D02*
X168720000Y-99800000D01*
X166570000Y-100810000D02*
X167710000Y-100810000D01*
X131459600Y-95039600D02*
X131459600Y-96430600D01*
X131820000Y-86000000D02*
X141720000Y-86000000D01*
X130120000Y-93700000D02*
X131459600Y-95039600D01*
X141720000Y-86000000D02*
X145520000Y-89800000D01*
X127520000Y-100830000D02*
X126750000Y-100830000D01*
X125320000Y-93700000D02*
X129720000Y-93700000D01*
X145520000Y-89800000D02*
X145520000Y-93000000D01*
X144320000Y-94200000D02*
X144320000Y-95400000D01*
X126750000Y-100830000D02*
X124220000Y-98300000D01*
X129720000Y-93700000D02*
X130120000Y-93700000D01*
X124220000Y-98300000D02*
X124220000Y-94800000D01*
X129720000Y-88100000D02*
X131820000Y-86000000D01*
X145520000Y-93000000D02*
X144320000Y-94200000D01*
X124220000Y-94800000D02*
X125320000Y-93700000D01*
X144750000Y-95830000D02*
X146120000Y-95830000D01*
X129720000Y-93700000D02*
X129720000Y-88100000D01*
X144320000Y-95400000D02*
X144750000Y-95830000D01*
X146150000Y-97070000D02*
X146120000Y-97100000D01*
X148420000Y-96500000D02*
X147820000Y-97100000D01*
X147820000Y-97100000D02*
X146120000Y-97100000D01*
X157770000Y-108000000D02*
X157770000Y-110050000D01*
X157520000Y-108000000D02*
X156120000Y-109400000D01*
X127420000Y-112500000D02*
X128720000Y-113800000D01*
X132920000Y-111362500D02*
X132920000Y-109700000D01*
X158120000Y-108000000D02*
X159620000Y-109500000D01*
X128720000Y-113800000D02*
X129920000Y-113800000D01*
X127420000Y-112500000D02*
X126320000Y-112500000D01*
X127420000Y-112500000D02*
X126020000Y-113900000D01*
X157770000Y-108000000D02*
X157520000Y-108000000D01*
X126020000Y-113900000D02*
X124920000Y-113900000D01*
X157770000Y-108000000D02*
X158120000Y-108000000D01*
X132920000Y-109700000D02*
X134420000Y-109700000D01*
X127420000Y-112500000D02*
X126420000Y-112500000D01*
X127420000Y-112500000D02*
X127420000Y-114500000D01*
X157770000Y-110050000D02*
X157820000Y-110100000D01*
X136120000Y-108000000D02*
X136120000Y-104700000D01*
X134420000Y-109700000D02*
X136120000Y-108000000D01*
X130100000Y-104080000D02*
X130120000Y-104100000D01*
X129280000Y-98560000D02*
X129720000Y-98120000D01*
X127635000Y-98715000D02*
X127770000Y-98580000D01*
X134620000Y-96475000D02*
X133845000Y-96475000D01*
X129220000Y-104080000D02*
X130100000Y-104080000D01*
X138420000Y-104700000D02*
X138420000Y-103800000D01*
X127310000Y-97200000D02*
X127310000Y-98390000D01*
X127520000Y-104330000D02*
X127520000Y-105250000D01*
X126750000Y-98830000D02*
X126020000Y-98100000D01*
X128024000Y-104330000D02*
X127520000Y-104330000D01*
X129720000Y-98120000D02*
X129720000Y-97500000D01*
X130140000Y-98580000D02*
X129220000Y-98580000D01*
X130140000Y-98580000D02*
X130220000Y-98500000D01*
X129280000Y-104060000D02*
X129280000Y-104660000D01*
X129220000Y-104080000D02*
X128274000Y-104080000D01*
X127770000Y-98580000D02*
X129220000Y-98580000D01*
X133845000Y-96475000D02*
X133820000Y-96500000D01*
X128274000Y-104080000D02*
X128024000Y-104330000D01*
X127520000Y-98830000D02*
X126750000Y-98830000D01*
X127310000Y-98390000D02*
X127635000Y-98715000D01*
X126090000Y-104330000D02*
X126020000Y-104400000D01*
X127520000Y-105250000D02*
X127310000Y-105460000D01*
X138420000Y-104700000D02*
X138420000Y-111000000D01*
X127520000Y-104330000D02*
X126090000Y-104330000D01*
X127520000Y-98830000D02*
X127635000Y-98715000D01*
X129280000Y-104660000D02*
X129620000Y-105000000D01*
X138445000Y-94415000D02*
X138520000Y-94490000D01*
X138445000Y-92100000D02*
X138445000Y-94415000D01*
X143290000Y-91800000D02*
X144620000Y-91800000D01*
X138445000Y-92100000D02*
X138445000Y-89350000D01*
X138820000Y-94560000D02*
X140530000Y-94560000D01*
X140530000Y-94560000D02*
X143290000Y-91800000D01*
X166570000Y-92600000D02*
X167720000Y-92600000D01*
X167720000Y-92600000D02*
X168720000Y-91600000D01*
X166545000Y-108025000D02*
X167520000Y-109000000D01*
X166545000Y-106700000D02*
X166545000Y-108025000D01*
X167620000Y-104700000D02*
X168620000Y-105700000D01*
X166545000Y-104700000D02*
X167620000Y-104700000D01*
X136120000Y-95700000D02*
X134680000Y-95700000D01*
X132920000Y-93000000D02*
X133820000Y-92100000D01*
X135320000Y-92100000D02*
X135320000Y-89350000D01*
X143820000Y-108200000D02*
X141520000Y-108200000D01*
X133820000Y-92100000D02*
X135320000Y-92100000D01*
X135320000Y-92100000D02*
X135320000Y-93390000D01*
X138820000Y-100400000D02*
X140720000Y-102300000D01*
X141520000Y-108200000D02*
X140720000Y-107400000D01*
X135320000Y-93390000D02*
X136120000Y-94190000D01*
X140720000Y-102300000D02*
X140720000Y-104700000D01*
X136820000Y-100400000D02*
X138820000Y-100400000D01*
X140720000Y-107400000D02*
X140720000Y-104700000D01*
X136120000Y-99700000D02*
X136820000Y-100400000D01*
X129220000Y-102580000D02*
X128520000Y-102580000D01*
X128520000Y-100080000D02*
X128274000Y-100080000D01*
X128520000Y-100080000D02*
X128520000Y-102580000D01*
X129220000Y-100080000D02*
X128520000Y-100080000D01*
X128024000Y-100330000D02*
X127520000Y-100330000D01*
X129220000Y-102580000D02*
X129200000Y-102600000D01*
X128274000Y-100080000D02*
X128024000Y-100330000D01*
X131459600Y-103955600D02*
X131459600Y-103039600D01*
X130500000Y-102080000D02*
X129220000Y-102080000D01*
X131459600Y-103039600D02*
X130500000Y-102080000D01*
X131459600Y-101860400D02*
X135420000Y-97900000D01*
X135420000Y-97900000D02*
X137120000Y-97900000D01*
X131464400Y-103955600D02*
X131459600Y-103955600D01*
X131459600Y-103955600D02*
X131459600Y-101860400D01*
X139490000Y-98370000D02*
X152520000Y-111400000D01*
X138820000Y-98370000D02*
X139490000Y-98370000D01*
X153020000Y-97300000D02*
X153020000Y-103400000D01*
X150280000Y-94560000D02*
X153020000Y-97300000D01*
X145820000Y-94490000D02*
X146445000Y-93865000D01*
X146445000Y-93865000D02*
X146445000Y-91800000D01*
X146120000Y-94560000D02*
X150280000Y-94560000D01*
G04 #@! TA.AperFunction,Conductor*
G36*
X163815631Y-89826808D02*
G01*
X163861489Y-89879522D01*
X163871568Y-89948661D01*
X163854334Y-89996351D01*
X163822051Y-90048688D01*
X163822046Y-90048699D01*
X163767819Y-90212347D01*
X163757500Y-90313345D01*
X163757500Y-90350000D01*
X164871000Y-90350000D01*
X164938039Y-90369685D01*
X164983794Y-90422489D01*
X164995000Y-90474000D01*
X164995000Y-94726000D01*
X164975315Y-94793039D01*
X164922511Y-94838794D01*
X164871000Y-94850000D01*
X163757501Y-94850000D01*
X163757501Y-94886654D01*
X163767819Y-94987652D01*
X163822046Y-95151300D01*
X163822051Y-95151311D01*
X163912552Y-95298034D01*
X163912555Y-95298038D01*
X164034461Y-95419944D01*
X164034465Y-95419947D01*
X164181188Y-95510448D01*
X164181199Y-95510453D01*
X164247110Y-95532294D01*
X164304555Y-95572067D01*
X164331378Y-95636582D01*
X164319063Y-95705358D01*
X164271520Y-95756558D01*
X164247110Y-95767706D01*
X164181199Y-95789546D01*
X164181188Y-95789551D01*
X164034465Y-95880052D01*
X164034461Y-95880055D01*
X163912555Y-96001961D01*
X163912552Y-96001965D01*
X163822051Y-96148688D01*
X163822046Y-96148699D01*
X163767819Y-96312347D01*
X163757500Y-96413345D01*
X163757500Y-96450000D01*
X164871000Y-96450000D01*
X164938039Y-96469685D01*
X164983794Y-96522489D01*
X164995000Y-96574000D01*
X164995000Y-98836000D01*
X164975315Y-98903039D01*
X164922511Y-98948794D01*
X164871000Y-98960000D01*
X163757501Y-98960000D01*
X163757501Y-98996654D01*
X163767819Y-99097652D01*
X163822046Y-99261300D01*
X163822051Y-99261311D01*
X163912552Y-99408034D01*
X163912555Y-99408038D01*
X164034461Y-99529944D01*
X164034465Y-99529947D01*
X164181188Y-99620448D01*
X164181199Y-99620453D01*
X164247110Y-99642294D01*
X164304555Y-99682067D01*
X164331378Y-99746582D01*
X164319063Y-99815358D01*
X164271520Y-99866558D01*
X164247110Y-99877706D01*
X164181199Y-99899546D01*
X164181188Y-99899551D01*
X164034465Y-99990052D01*
X164034461Y-99990055D01*
X163912555Y-100111961D01*
X163912552Y-100111965D01*
X163822051Y-100258688D01*
X163822046Y-100258699D01*
X163767819Y-100422347D01*
X163757500Y-100523345D01*
X163757500Y-100560000D01*
X164871000Y-100560000D01*
X164938039Y-100579685D01*
X164983794Y-100632489D01*
X164995000Y-100684000D01*
X164995000Y-101748638D01*
X164975315Y-101815677D01*
X164970000Y-101822272D01*
X164970000Y-106826000D01*
X164950315Y-106893039D01*
X164897511Y-106938794D01*
X164846000Y-106950000D01*
X163732501Y-106950000D01*
X163732501Y-106986654D01*
X163742819Y-107087652D01*
X163797046Y-107251300D01*
X163797051Y-107251311D01*
X163887552Y-107398034D01*
X163887555Y-107398038D01*
X163987836Y-107498319D01*
X164021321Y-107559642D01*
X164016337Y-107629334D01*
X163974465Y-107685267D01*
X163909001Y-107709684D01*
X163900155Y-107710000D01*
X158894499Y-107710000D01*
X158827460Y-107690315D01*
X158781705Y-107637511D01*
X158770499Y-107586000D01*
X158770499Y-107252129D01*
X158770498Y-107252123D01*
X158764091Y-107192518D01*
X158754698Y-107167334D01*
X158749714Y-107097642D01*
X158783199Y-107036319D01*
X158844522Y-107002834D01*
X158870880Y-107000000D01*
X159267828Y-107000000D01*
X159267844Y-106999999D01*
X159327372Y-106993598D01*
X159327379Y-106993596D01*
X159462086Y-106943354D01*
X159462093Y-106943350D01*
X159577187Y-106857190D01*
X159577190Y-106857187D01*
X159663350Y-106742093D01*
X159663354Y-106742086D01*
X159713596Y-106607379D01*
X159713598Y-106607372D01*
X159719999Y-106547844D01*
X159720000Y-106547827D01*
X159720000Y-106450000D01*
X163732500Y-106450000D01*
X164470000Y-106450000D01*
X164470000Y-104950000D01*
X163732501Y-104950000D01*
X163732501Y-104986654D01*
X163742819Y-105087652D01*
X163797046Y-105251300D01*
X163797051Y-105251311D01*
X163887552Y-105398034D01*
X163887555Y-105398038D01*
X164009461Y-105519944D01*
X164009465Y-105519947D01*
X164130271Y-105594462D01*
X164176996Y-105646410D01*
X164188217Y-105715372D01*
X164160374Y-105779454D01*
X164130271Y-105805538D01*
X164009465Y-105880052D01*
X164009461Y-105880055D01*
X163887555Y-106001961D01*
X163887552Y-106001965D01*
X163797051Y-106148688D01*
X163797046Y-106148699D01*
X163742819Y-106312347D01*
X163732500Y-106413345D01*
X163732500Y-106450000D01*
X159720000Y-106450000D01*
X159720000Y-106050000D01*
X158594000Y-106050000D01*
X158526961Y-106030315D01*
X158481206Y-105977511D01*
X158470000Y-105926000D01*
X158470000Y-104600000D01*
X158970000Y-104600000D01*
X158970000Y-105550000D01*
X159720000Y-105550000D01*
X159720000Y-105052172D01*
X159719999Y-105052155D01*
X159713598Y-104992627D01*
X159713596Y-104992620D01*
X159663354Y-104857913D01*
X159663350Y-104857906D01*
X159577190Y-104742812D01*
X159577187Y-104742809D01*
X159462093Y-104656649D01*
X159462086Y-104656645D01*
X159327379Y-104606403D01*
X159327372Y-104606401D01*
X159267844Y-104600000D01*
X158970000Y-104600000D01*
X158470000Y-104600000D01*
X158172155Y-104600000D01*
X158112627Y-104606401D01*
X158112620Y-104606403D01*
X157977913Y-104656645D01*
X157977906Y-104656649D01*
X157862812Y-104742809D01*
X157858038Y-104747584D01*
X157796715Y-104781069D01*
X157727023Y-104776085D01*
X157682676Y-104747584D01*
X157677547Y-104742455D01*
X157594695Y-104680431D01*
X157552825Y-104624497D01*
X157545007Y-104581165D01*
X157545007Y-104450000D01*
X163732500Y-104450000D01*
X164470000Y-104450000D01*
X164470000Y-103050000D01*
X163732501Y-103050000D01*
X163732501Y-103086654D01*
X163742819Y-103187652D01*
X163797046Y-103351300D01*
X163797051Y-103351311D01*
X163887552Y-103498034D01*
X163887555Y-103498038D01*
X164009461Y-103619944D01*
X164009465Y-103619947D01*
X164049209Y-103644462D01*
X164095934Y-103696410D01*
X164107155Y-103765372D01*
X164079312Y-103829454D01*
X164049209Y-103855538D01*
X164009465Y-103880052D01*
X164009461Y-103880055D01*
X163887555Y-104001961D01*
X163887552Y-104001965D01*
X163797051Y-104148688D01*
X163797046Y-104148699D01*
X163742819Y-104312347D01*
X163732500Y-104413345D01*
X163732500Y-104450000D01*
X157545007Y-104450000D01*
X157545007Y-102550000D01*
X163732500Y-102550000D01*
X164470000Y-102550000D01*
X164470000Y-101861361D01*
X164489685Y-101794322D01*
X164495000Y-101787726D01*
X164495000Y-101060000D01*
X163757501Y-101060000D01*
X163757501Y-101096654D01*
X163767819Y-101197652D01*
X163822046Y-101361300D01*
X163822051Y-101361311D01*
X163912552Y-101508034D01*
X163912555Y-101508038D01*
X164034461Y-101629944D01*
X164034465Y-101629947D01*
X164134664Y-101691751D01*
X164181389Y-101743699D01*
X164192610Y-101812661D01*
X164164767Y-101876743D01*
X164134665Y-101902827D01*
X164009462Y-101980054D01*
X163887555Y-102101961D01*
X163887552Y-102101965D01*
X163797051Y-102248688D01*
X163797046Y-102248699D01*
X163742819Y-102412347D01*
X163732500Y-102513345D01*
X163732500Y-102550000D01*
X157545007Y-102550000D01*
X157545007Y-98460000D01*
X163757500Y-98460000D01*
X164495000Y-98460000D01*
X164495000Y-96950000D01*
X163757501Y-96950000D01*
X163757501Y-96986654D01*
X163767819Y-97087652D01*
X163822046Y-97251300D01*
X163822051Y-97251311D01*
X163912552Y-97398034D01*
X163912555Y-97398038D01*
X164034461Y-97519944D01*
X164034465Y-97519947D01*
X164163377Y-97599462D01*
X164210102Y-97651410D01*
X164221323Y-97720372D01*
X164193480Y-97784454D01*
X164163377Y-97810538D01*
X164034465Y-97890052D01*
X164034461Y-97890055D01*
X163912555Y-98011961D01*
X163912552Y-98011965D01*
X163822051Y-98158688D01*
X163822046Y-98158699D01*
X163767819Y-98322347D01*
X163757500Y-98423345D01*
X163757500Y-98460000D01*
X157545007Y-98460000D01*
X157545007Y-94350000D01*
X163757500Y-94350000D01*
X164495000Y-94350000D01*
X164495000Y-92850000D01*
X163757501Y-92850000D01*
X163757501Y-92886654D01*
X163767819Y-92987652D01*
X163822046Y-93151300D01*
X163822051Y-93151311D01*
X163912552Y-93298034D01*
X163912555Y-93298038D01*
X164034461Y-93419944D01*
X164034465Y-93419947D01*
X164155271Y-93494462D01*
X164201996Y-93546410D01*
X164213217Y-93615372D01*
X164185374Y-93679454D01*
X164155271Y-93705538D01*
X164034465Y-93780052D01*
X164034461Y-93780055D01*
X163912555Y-93901961D01*
X163912552Y-93901965D01*
X163822051Y-94048688D01*
X163822046Y-94048699D01*
X163767819Y-94212347D01*
X163757500Y-94313345D01*
X163757500Y-94350000D01*
X157545007Y-94350000D01*
X157545007Y-92350000D01*
X163757500Y-92350000D01*
X164495000Y-92350000D01*
X164495000Y-90850000D01*
X163757501Y-90850000D01*
X163757501Y-90886654D01*
X163767819Y-90987652D01*
X163822046Y-91151300D01*
X163822051Y-91151311D01*
X163912552Y-91298034D01*
X163912555Y-91298038D01*
X164034461Y-91419944D01*
X164034465Y-91419947D01*
X164155271Y-91494462D01*
X164201996Y-91546410D01*
X164213217Y-91615372D01*
X164185374Y-91679454D01*
X164155271Y-91705538D01*
X164034465Y-91780052D01*
X164034461Y-91780055D01*
X163912555Y-91901961D01*
X163912552Y-91901965D01*
X163822051Y-92048688D01*
X163822046Y-92048699D01*
X163767819Y-92212347D01*
X163757500Y-92313345D01*
X163757500Y-92350000D01*
X157545007Y-92350000D01*
X157545007Y-89937521D01*
X157564692Y-89870482D01*
X157617496Y-89824727D01*
X157669007Y-89813521D01*
X160545007Y-89813521D01*
X163748556Y-89807254D01*
X163815631Y-89826808D01*
G37*
G04 #@! TD.AperFunction*
G04 #@! TA.AperFunction,Conductor*
G36*
X126675332Y-103475185D02*
G01*
X126721087Y-103527989D01*
X126731582Y-103592756D01*
X126729500Y-103612111D01*
X126729500Y-104007869D01*
X126729501Y-104007880D01*
X126733931Y-104049093D01*
X126733931Y-104075596D01*
X126730000Y-104112165D01*
X126730000Y-104160000D01*
X126745611Y-104175611D01*
X126759484Y-104179685D01*
X126791711Y-104209688D01*
X126803642Y-104225625D01*
X126830231Y-104261144D01*
X126830639Y-104261688D01*
X126855057Y-104327152D01*
X126840206Y-104395425D01*
X126790802Y-104444831D01*
X126731373Y-104460000D01*
X126730000Y-104460000D01*
X126730000Y-104507845D01*
X126730403Y-104511587D01*
X126717994Y-104580345D01*
X126670381Y-104631480D01*
X126669113Y-104632222D01*
X126538081Y-104707873D01*
X126397490Y-104834460D01*
X126397488Y-104834463D01*
X126286282Y-104987522D01*
X126209335Y-105160351D01*
X126203033Y-105190000D01*
X127045376Y-105190000D01*
X126972455Y-105204505D01*
X126889760Y-105259760D01*
X126834505Y-105342455D01*
X126815102Y-105440000D01*
X126834505Y-105537545D01*
X126889760Y-105620240D01*
X126972455Y-105675495D01*
X127045376Y-105690000D01*
X126203032Y-105690000D01*
X126174061Y-105725777D01*
X126116574Y-105765489D01*
X126046743Y-105767817D01*
X125990014Y-105735423D01*
X125181819Y-104927228D01*
X125148334Y-104865905D01*
X125145500Y-104839547D01*
X125145500Y-104310452D01*
X125165185Y-104243413D01*
X125181819Y-104222771D01*
X125912772Y-103491819D01*
X125974095Y-103458334D01*
X126000453Y-103455500D01*
X126608293Y-103455500D01*
X126675332Y-103475185D01*
G37*
G04 #@! TD.AperFunction*
G04 #@! TA.AperFunction,Conductor*
G36*
X141476587Y-86645185D02*
G01*
X141497229Y-86661819D01*
X144858181Y-90022771D01*
X144891666Y-90084094D01*
X144894500Y-90110452D01*
X144894500Y-90700500D01*
X144874815Y-90767539D01*
X144822011Y-90813294D01*
X144770500Y-90824500D01*
X144320830Y-90824500D01*
X144320812Y-90824501D01*
X144219747Y-90834825D01*
X144055984Y-90889092D01*
X144055981Y-90889093D01*
X143909148Y-90979661D01*
X143787160Y-91101649D01*
X143787159Y-91101651D01*
X143778558Y-91115596D01*
X143726610Y-91162321D01*
X143673019Y-91174500D01*
X143372737Y-91174500D01*
X143357120Y-91172776D01*
X143357093Y-91173062D01*
X143349331Y-91172327D01*
X143280203Y-91174500D01*
X143250650Y-91174500D01*
X143249929Y-91174590D01*
X143243757Y-91175369D01*
X143237945Y-91175826D01*
X143191372Y-91177290D01*
X143191369Y-91177291D01*
X143172126Y-91182881D01*
X143153083Y-91186825D01*
X143133204Y-91189336D01*
X143133203Y-91189337D01*
X143089878Y-91206490D01*
X143084352Y-91208382D01*
X143039608Y-91221383D01*
X143039604Y-91221385D01*
X143022365Y-91231580D01*
X143004898Y-91240137D01*
X142986269Y-91247512D01*
X142986267Y-91247513D01*
X142948564Y-91274906D01*
X142943682Y-91278112D01*
X142903580Y-91301828D01*
X142889408Y-91316000D01*
X142874623Y-91328628D01*
X142858412Y-91340407D01*
X142828709Y-91376310D01*
X142824777Y-91380631D01*
X140307228Y-93898181D01*
X140245905Y-93931666D01*
X140219547Y-93934500D01*
X139884722Y-93934500D01*
X139817683Y-93914815D01*
X139785455Y-93884811D01*
X139781153Y-93879064D01*
X139727546Y-93807454D01*
X139696413Y-93784148D01*
X139612335Y-93721206D01*
X139612328Y-93721202D01*
X139477482Y-93670908D01*
X139477483Y-93670908D01*
X139417883Y-93664501D01*
X139417881Y-93664500D01*
X139417873Y-93664500D01*
X139417865Y-93664500D01*
X139241692Y-93664500D01*
X139174653Y-93644815D01*
X139128898Y-93592011D01*
X139118954Y-93522853D01*
X139147979Y-93459297D01*
X139176595Y-93434961D01*
X139176832Y-93434814D01*
X139176834Y-93434814D01*
X139326156Y-93342712D01*
X139450212Y-93218656D01*
X139542314Y-93069334D01*
X139597499Y-92902797D01*
X139608000Y-92800009D01*
X139607999Y-91399992D01*
X139597499Y-91297203D01*
X139542314Y-91130666D01*
X139450212Y-90981344D01*
X139326156Y-90857288D01*
X139326155Y-90857287D01*
X139289737Y-90834825D01*
X139282787Y-90830538D01*
X139236063Y-90778592D01*
X139224840Y-90709630D01*
X139252683Y-90645547D01*
X139282786Y-90619462D01*
X139326156Y-90592712D01*
X139450212Y-90468656D01*
X139542314Y-90319334D01*
X139597499Y-90152797D01*
X139608000Y-90050009D01*
X139607999Y-88649992D01*
X139606861Y-88638856D01*
X139597499Y-88547203D01*
X139597498Y-88547200D01*
X139552184Y-88410452D01*
X139542314Y-88380666D01*
X139450212Y-88231344D01*
X139326156Y-88107288D01*
X139186231Y-88020982D01*
X139176836Y-88015187D01*
X139176831Y-88015185D01*
X139175362Y-88014698D01*
X139010297Y-87960001D01*
X139010295Y-87960000D01*
X138907510Y-87949500D01*
X137982498Y-87949500D01*
X137982480Y-87949501D01*
X137879703Y-87960000D01*
X137879700Y-87960001D01*
X137713168Y-88015185D01*
X137713163Y-88015187D01*
X137563842Y-88107289D01*
X137439789Y-88231342D01*
X137347687Y-88380663D01*
X137347686Y-88380666D01*
X137292501Y-88547203D01*
X137292501Y-88547204D01*
X137292500Y-88547204D01*
X137282000Y-88649983D01*
X137282000Y-90050001D01*
X137282001Y-90050018D01*
X137292500Y-90152796D01*
X137292501Y-90152799D01*
X137336026Y-90284148D01*
X137347686Y-90319334D01*
X137439788Y-90468656D01*
X137563844Y-90592712D01*
X137607212Y-90619461D01*
X137653936Y-90671409D01*
X137665159Y-90740372D01*
X137637315Y-90804454D01*
X137607213Y-90830537D01*
X137600263Y-90834825D01*
X137563842Y-90857289D01*
X137439789Y-90981342D01*
X137347687Y-91130663D01*
X137347685Y-91130668D01*
X137332721Y-91175826D01*
X137292501Y-91297203D01*
X137292501Y-91297204D01*
X137292500Y-91297204D01*
X137282000Y-91399983D01*
X137282000Y-92800001D01*
X137282001Y-92800018D01*
X137292500Y-92902796D01*
X137292501Y-92902799D01*
X137347685Y-93069331D01*
X137347687Y-93069336D01*
X137377468Y-93117619D01*
X137439788Y-93218656D01*
X137563844Y-93342712D01*
X137713166Y-93434814D01*
X137713167Y-93434814D01*
X137713405Y-93434961D01*
X137760130Y-93486909D01*
X137771353Y-93555871D01*
X137743510Y-93619953D01*
X137685441Y-93658810D01*
X137648313Y-93664500D01*
X137622131Y-93664500D01*
X137622123Y-93664501D01*
X137562516Y-93670908D01*
X137427671Y-93721202D01*
X137427664Y-93721206D01*
X137312455Y-93807452D01*
X137312453Y-93807454D01*
X137301265Y-93822400D01*
X137245331Y-93864270D01*
X137175639Y-93869253D01*
X137114317Y-93835766D01*
X137084294Y-93787091D01*
X137067466Y-93736307D01*
X137030908Y-93625984D01*
X136940340Y-93479150D01*
X136818350Y-93357160D01*
X136722636Y-93298123D01*
X136671518Y-93266593D01*
X136671513Y-93266591D01*
X136668900Y-93265725D01*
X136507753Y-93212326D01*
X136507751Y-93212325D01*
X136501327Y-93210197D01*
X136502216Y-93207511D01*
X136451717Y-93179275D01*
X136418849Y-93117619D01*
X136422567Y-93053479D01*
X136472499Y-92902797D01*
X136483000Y-92800009D01*
X136482999Y-91399992D01*
X136472499Y-91297203D01*
X136417314Y-91130666D01*
X136325212Y-90981344D01*
X136201156Y-90857288D01*
X136201155Y-90857287D01*
X136164737Y-90834825D01*
X136157787Y-90830538D01*
X136111063Y-90778592D01*
X136099840Y-90709630D01*
X136127683Y-90645547D01*
X136157786Y-90619462D01*
X136201156Y-90592712D01*
X136325212Y-90468656D01*
X136417314Y-90319334D01*
X136472499Y-90152797D01*
X136483000Y-90050009D01*
X136482999Y-88649992D01*
X136481861Y-88638856D01*
X136472499Y-88547203D01*
X136472498Y-88547200D01*
X136427184Y-88410452D01*
X136417314Y-88380666D01*
X136325212Y-88231344D01*
X136201156Y-88107288D01*
X136061231Y-88020982D01*
X136051836Y-88015187D01*
X136051831Y-88015185D01*
X136050362Y-88014698D01*
X135885297Y-87960001D01*
X135885295Y-87960000D01*
X135782510Y-87949500D01*
X134857498Y-87949500D01*
X134857480Y-87949501D01*
X134754703Y-87960000D01*
X134754700Y-87960001D01*
X134588168Y-88015185D01*
X134588163Y-88015187D01*
X134438842Y-88107289D01*
X134314789Y-88231342D01*
X134222687Y-88380663D01*
X134222686Y-88380666D01*
X134167501Y-88547203D01*
X134167501Y-88547204D01*
X134167500Y-88547204D01*
X134157000Y-88649983D01*
X134157000Y-90050001D01*
X134157001Y-90050018D01*
X134167500Y-90152796D01*
X134167501Y-90152799D01*
X134211026Y-90284148D01*
X134222686Y-90319334D01*
X134314788Y-90468656D01*
X134438844Y-90592712D01*
X134482212Y-90619461D01*
X134528936Y-90671409D01*
X134540159Y-90740372D01*
X134512315Y-90804454D01*
X134482213Y-90830537D01*
X134475263Y-90834825D01*
X134438842Y-90857289D01*
X134314789Y-90981342D01*
X134222687Y-91130663D01*
X134222685Y-91130668D01*
X134207721Y-91175826D01*
X134168327Y-91294712D01*
X134167501Y-91297204D01*
X134167500Y-91297205D01*
X134160768Y-91363103D01*
X134134371Y-91427795D01*
X134077190Y-91467946D01*
X134037410Y-91474500D01*
X133902737Y-91474500D01*
X133887120Y-91472776D01*
X133887093Y-91473062D01*
X133879331Y-91472327D01*
X133810203Y-91474500D01*
X133780650Y-91474500D01*
X133779929Y-91474590D01*
X133773757Y-91475369D01*
X133767945Y-91475826D01*
X133721373Y-91477290D01*
X133721372Y-91477290D01*
X133702129Y-91482881D01*
X133683079Y-91486825D01*
X133663211Y-91489334D01*
X133663209Y-91489335D01*
X133619884Y-91506488D01*
X133614357Y-91508380D01*
X133569610Y-91521381D01*
X133569609Y-91521382D01*
X133552367Y-91531579D01*
X133534899Y-91540137D01*
X133516269Y-91547513D01*
X133516267Y-91547514D01*
X133478576Y-91574898D01*
X133473694Y-91578105D01*
X133433579Y-91601830D01*
X133419408Y-91616000D01*
X133404623Y-91628628D01*
X133388412Y-91640407D01*
X133358709Y-91676310D01*
X133354776Y-91680631D01*
X133155981Y-91879428D01*
X132972228Y-92063181D01*
X132910905Y-92096666D01*
X132884547Y-92099500D01*
X132825354Y-92099500D01*
X132792897Y-92106398D01*
X132640197Y-92138855D01*
X132640192Y-92138857D01*
X132467270Y-92215848D01*
X132467265Y-92215851D01*
X132314129Y-92327111D01*
X132187466Y-92467785D01*
X132092821Y-92631715D01*
X132092818Y-92631722D01*
X132034327Y-92811740D01*
X132034326Y-92811744D01*
X132014540Y-93000000D01*
X132034326Y-93188256D01*
X132034327Y-93188259D01*
X132092818Y-93368277D01*
X132092821Y-93368284D01*
X132187467Y-93532216D01*
X132271898Y-93625986D01*
X132314129Y-93672888D01*
X132467265Y-93784148D01*
X132467270Y-93784151D01*
X132640192Y-93861142D01*
X132640197Y-93861144D01*
X132825354Y-93900500D01*
X132825355Y-93900500D01*
X133014644Y-93900500D01*
X133014646Y-93900500D01*
X133199803Y-93861144D01*
X133372730Y-93784151D01*
X133525871Y-93672888D01*
X133652533Y-93532216D01*
X133747179Y-93368284D01*
X133805674Y-93188256D01*
X133823321Y-93020344D01*
X133849904Y-92955734D01*
X133858950Y-92945639D01*
X133959442Y-92845148D01*
X134020762Y-92811665D01*
X134090454Y-92816649D01*
X134146387Y-92858521D01*
X134163833Y-92896879D01*
X134165371Y-92896370D01*
X134222685Y-93069331D01*
X134222687Y-93069336D01*
X134252468Y-93117619D01*
X134314788Y-93218656D01*
X134438844Y-93342712D01*
X134564697Y-93420338D01*
X134588168Y-93434815D01*
X134604038Y-93440073D01*
X134625644Y-93447232D01*
X134683089Y-93487003D01*
X134705539Y-93539706D01*
X134707394Y-93539230D01*
X134709335Y-93546790D01*
X134726490Y-93590119D01*
X134728382Y-93595647D01*
X134741381Y-93640388D01*
X134751580Y-93657634D01*
X134760138Y-93675103D01*
X134767514Y-93693732D01*
X134794898Y-93731423D01*
X134798106Y-93736307D01*
X134821827Y-93776416D01*
X134821833Y-93776424D01*
X134835990Y-93790580D01*
X134848627Y-93805375D01*
X134860406Y-93821587D01*
X134891096Y-93846976D01*
X134896309Y-93851288D01*
X134900620Y-93855210D01*
X135007493Y-93962083D01*
X135108181Y-94062771D01*
X135141666Y-94124094D01*
X135144500Y-94150452D01*
X135144500Y-94489168D01*
X135144501Y-94489187D01*
X135154825Y-94590252D01*
X135181294Y-94670127D01*
X135209092Y-94754016D01*
X135213039Y-94760415D01*
X135214346Y-94762534D01*
X135232784Y-94829927D01*
X135211859Y-94896590D01*
X135158216Y-94941358D01*
X135088885Y-94950018D01*
X135033318Y-94926003D01*
X135022842Y-94917964D01*
X134876762Y-94857456D01*
X134876760Y-94857455D01*
X134759361Y-94842000D01*
X134480636Y-94842000D01*
X134363246Y-94857453D01*
X134363237Y-94857456D01*
X134217160Y-94917963D01*
X134091718Y-95014218D01*
X133995463Y-95139660D01*
X133934956Y-95285737D01*
X133934955Y-95285739D01*
X133919500Y-95403138D01*
X133919500Y-95916863D01*
X133934954Y-96034256D01*
X133935525Y-96036386D01*
X133935525Y-96038591D01*
X133936016Y-96042321D01*
X133935525Y-96042385D01*
X133935526Y-96092684D01*
X133936505Y-96092813D01*
X133935526Y-96100241D01*
X133935527Y-96100560D01*
X133935444Y-96100868D01*
X133920000Y-96218169D01*
X133920000Y-96275000D01*
X134009574Y-96275000D01*
X134076613Y-96294685D01*
X134084878Y-96301345D01*
X134085271Y-96300834D01*
X134091716Y-96305779D01*
X134091718Y-96305782D01*
X134217159Y-96402036D01*
X134217160Y-96402036D01*
X134217161Y-96402037D01*
X134300215Y-96436439D01*
X134354619Y-96480280D01*
X134376684Y-96546574D01*
X134359405Y-96614273D01*
X134308268Y-96661884D01*
X134252763Y-96675000D01*
X133920001Y-96675000D01*
X133920001Y-96731824D01*
X133935442Y-96849128D01*
X133935444Y-96849133D01*
X133995899Y-96995085D01*
X134092075Y-97120424D01*
X134217414Y-97216600D01*
X134363366Y-97277055D01*
X134363372Y-97277057D01*
X134419998Y-97284511D01*
X134420000Y-97284510D01*
X134420000Y-96662795D01*
X134401195Y-96628357D01*
X134406179Y-96558665D01*
X134448051Y-96502732D01*
X134513515Y-96478315D01*
X134522337Y-96477999D01*
X134696000Y-96477999D01*
X134763039Y-96497684D01*
X134808794Y-96550488D01*
X134820000Y-96601999D01*
X134820000Y-97284510D01*
X134838899Y-97282023D01*
X134907934Y-97292789D01*
X134960189Y-97339169D01*
X134979074Y-97406438D01*
X134958593Y-97473239D01*
X134942764Y-97492643D01*
X131075808Y-101359599D01*
X131063551Y-101369420D01*
X131063734Y-101369641D01*
X131057723Y-101374613D01*
X131010372Y-101425036D01*
X130989489Y-101445919D01*
X130989477Y-101445932D01*
X130985221Y-101451417D01*
X130981437Y-101455847D01*
X130971822Y-101466087D01*
X130950474Y-101488822D01*
X130944201Y-101495502D01*
X130942800Y-101494187D01*
X130895565Y-101530602D01*
X130825951Y-101536573D01*
X130801342Y-101528847D01*
X130778169Y-101518819D01*
X130772923Y-101516249D01*
X130732093Y-101493803D01*
X130732092Y-101493802D01*
X130712693Y-101488822D01*
X130694281Y-101482518D01*
X130675898Y-101474562D01*
X130675892Y-101474560D01*
X130629874Y-101467272D01*
X130624152Y-101466087D01*
X130579021Y-101454500D01*
X130579019Y-101454500D01*
X130558984Y-101454500D01*
X130539586Y-101452973D01*
X130529761Y-101451417D01*
X130519805Y-101449840D01*
X130519804Y-101449840D01*
X130473416Y-101454225D01*
X130467578Y-101454500D01*
X130251814Y-101454500D01*
X130184775Y-101434815D01*
X130139020Y-101382011D01*
X130128525Y-101343759D01*
X130126320Y-101323256D01*
X130126320Y-101296747D01*
X130130500Y-101257873D01*
X130130499Y-100862128D01*
X130130498Y-100862111D01*
X130126320Y-100823253D01*
X130126320Y-100796747D01*
X130130500Y-100757873D01*
X130130499Y-100362128D01*
X130130498Y-100362111D01*
X130126320Y-100323253D01*
X130126320Y-100296747D01*
X130130500Y-100257873D01*
X130130499Y-99862128D01*
X130130498Y-99862111D01*
X130126320Y-99823253D01*
X130126320Y-99796747D01*
X130130500Y-99757873D01*
X130130499Y-99362128D01*
X130130498Y-99362111D01*
X130126320Y-99323253D01*
X130126320Y-99296747D01*
X130130500Y-99257873D01*
X130130499Y-98862128D01*
X130126067Y-98820898D01*
X130126068Y-98794393D01*
X130129999Y-98757833D01*
X130130000Y-98757819D01*
X130130000Y-98710000D01*
X130114388Y-98694388D01*
X130100516Y-98690315D01*
X130068289Y-98660312D01*
X130029361Y-98608312D01*
X130004943Y-98542848D01*
X130013045Y-98505600D01*
X130484601Y-98505600D01*
X130484601Y-98554754D01*
X130494919Y-98655752D01*
X130549146Y-98819400D01*
X130549151Y-98819411D01*
X130639652Y-98966134D01*
X130639655Y-98966138D01*
X130761561Y-99088044D01*
X130761565Y-99088047D01*
X130908288Y-99178548D01*
X130908299Y-99178553D01*
X131071947Y-99232780D01*
X131172952Y-99243099D01*
X131209600Y-99243099D01*
X131209600Y-98505600D01*
X131709600Y-98505600D01*
X131709600Y-99243099D01*
X131746240Y-99243099D01*
X131746254Y-99243098D01*
X131847252Y-99232780D01*
X132010900Y-99178553D01*
X132010911Y-99178548D01*
X132157634Y-99088047D01*
X132157638Y-99088044D01*
X132279544Y-98966138D01*
X132279547Y-98966134D01*
X132370048Y-98819411D01*
X132370053Y-98819400D01*
X132424280Y-98655752D01*
X132434599Y-98554754D01*
X132434600Y-98554741D01*
X132434600Y-98505600D01*
X131709600Y-98505600D01*
X131209600Y-98505600D01*
X130484601Y-98505600D01*
X130013045Y-98505600D01*
X130019794Y-98474575D01*
X130069198Y-98425169D01*
X130128627Y-98410000D01*
X130130000Y-98410000D01*
X130130000Y-98362172D01*
X130129999Y-98362155D01*
X130123598Y-98302627D01*
X130123596Y-98302620D01*
X130073354Y-98167913D01*
X130073350Y-98167906D01*
X129987190Y-98052812D01*
X129987187Y-98052809D01*
X129872093Y-97966649D01*
X129872086Y-97966645D01*
X129737379Y-97916403D01*
X129737372Y-97916401D01*
X129677844Y-97910000D01*
X129430000Y-97910000D01*
X129407181Y-97932819D01*
X129402994Y-97935105D01*
X129428519Y-97989282D01*
X129430000Y-98008388D01*
X129430000Y-98285500D01*
X129410315Y-98352539D01*
X129357511Y-98398294D01*
X129306000Y-98409500D01*
X129254000Y-98409500D01*
X129186961Y-98389815D01*
X129141206Y-98337011D01*
X129130000Y-98285500D01*
X129130000Y-98157269D01*
X129139439Y-98109816D01*
X129143257Y-98100599D01*
X129180687Y-98010236D01*
X129183061Y-97992201D01*
X129211328Y-97928306D01*
X129222352Y-97921034D01*
X129220233Y-97919448D01*
X129195816Y-97853984D01*
X129195500Y-97845138D01*
X129195500Y-97522286D01*
X129195499Y-97522272D01*
X129191598Y-97492643D01*
X129180687Y-97409764D01*
X129122698Y-97269767D01*
X129030451Y-97149549D01*
X128910233Y-97057302D01*
X128910229Y-97057300D01*
X128837346Y-97027111D01*
X128770236Y-96999313D01*
X128734559Y-96994616D01*
X128631117Y-96980997D01*
X128567221Y-96952730D01*
X128535412Y-96905353D01*
X128533308Y-96906290D01*
X128453714Y-96727520D01*
X128342512Y-96574464D01*
X128201918Y-96447872D01*
X128201915Y-96447870D01*
X128038084Y-96353283D01*
X128038072Y-96353278D01*
X127858154Y-96294819D01*
X127717159Y-96280000D01*
X127620000Y-96280000D01*
X127620000Y-96930000D01*
X127120000Y-96930000D01*
X127120000Y-96280000D01*
X127022841Y-96280000D01*
X126881845Y-96294819D01*
X126701927Y-96353278D01*
X126701915Y-96353283D01*
X126538084Y-96447870D01*
X126538081Y-96447872D01*
X126397490Y-96574460D01*
X126397488Y-96574463D01*
X126286282Y-96727522D01*
X126209335Y-96900351D01*
X126203033Y-96930000D01*
X127045376Y-96930000D01*
X126972455Y-96944505D01*
X126889760Y-96999760D01*
X126834505Y-97082455D01*
X126815102Y-97180000D01*
X126834505Y-97277545D01*
X126889760Y-97360240D01*
X126972455Y-97415495D01*
X127045376Y-97430000D01*
X126203033Y-97430000D01*
X126209334Y-97459645D01*
X126286286Y-97632481D01*
X126397487Y-97785535D01*
X126538081Y-97912127D01*
X126538084Y-97912129D01*
X126701915Y-98006716D01*
X126701926Y-98006721D01*
X126869479Y-98061162D01*
X126927154Y-98100599D01*
X126954353Y-98164958D01*
X126942438Y-98233804D01*
X126905475Y-98278358D01*
X126872809Y-98302813D01*
X126786649Y-98417906D01*
X126786645Y-98417913D01*
X126736403Y-98552620D01*
X126736401Y-98552627D01*
X126730000Y-98612155D01*
X126730000Y-98660000D01*
X126731373Y-98660000D01*
X126798412Y-98679685D01*
X126844167Y-98732489D01*
X126854111Y-98801647D01*
X126830639Y-98858311D01*
X126824065Y-98867093D01*
X126791711Y-98910312D01*
X126743894Y-98946105D01*
X126730000Y-98960000D01*
X126730000Y-99007832D01*
X126733931Y-99044399D01*
X126733931Y-99070905D01*
X126729500Y-99112122D01*
X126729500Y-99507869D01*
X126729501Y-99507878D01*
X126733679Y-99546745D01*
X126733679Y-99573251D01*
X126729500Y-99612123D01*
X126729500Y-99625547D01*
X126709815Y-99692586D01*
X126657011Y-99738341D01*
X126587853Y-99748285D01*
X126524297Y-99719260D01*
X126517819Y-99713228D01*
X124881819Y-98077228D01*
X124848334Y-98015905D01*
X124845500Y-97989547D01*
X124845500Y-95110452D01*
X124865185Y-95043413D01*
X124881819Y-95022771D01*
X125542772Y-94361819D01*
X125604095Y-94328334D01*
X125630453Y-94325500D01*
X129640981Y-94325500D01*
X129649153Y-94325500D01*
X129672385Y-94327696D01*
X129673989Y-94328001D01*
X129680412Y-94329227D01*
X129737724Y-94325621D01*
X129741597Y-94325500D01*
X129809548Y-94325500D01*
X129876587Y-94345185D01*
X129897229Y-94361819D01*
X130797781Y-95262371D01*
X130831266Y-95323694D01*
X130834100Y-95350052D01*
X130834100Y-95483618D01*
X130814415Y-95550657D01*
X130775200Y-95589155D01*
X130761250Y-95597760D01*
X130761249Y-95597760D01*
X130639261Y-95719748D01*
X130548693Y-95866581D01*
X130548691Y-95866586D01*
X130527867Y-95929428D01*
X130494426Y-96030347D01*
X130494426Y-96030348D01*
X130494425Y-96030348D01*
X130484100Y-96131415D01*
X130484100Y-96729769D01*
X130484101Y-96729787D01*
X130494425Y-96830852D01*
X130527280Y-96930000D01*
X130548048Y-96992674D01*
X130548692Y-96994615D01*
X130548693Y-96994618D01*
X130576921Y-97040383D01*
X130613476Y-97099648D01*
X130639261Y-97141451D01*
X130753582Y-97255772D01*
X130787067Y-97317095D01*
X130782083Y-97386787D01*
X130753583Y-97431134D01*
X130639652Y-97545065D01*
X130549151Y-97691788D01*
X130549146Y-97691799D01*
X130494919Y-97855447D01*
X130484600Y-97956445D01*
X130484600Y-98005600D01*
X132434599Y-98005600D01*
X132434599Y-97956460D01*
X132434598Y-97956445D01*
X132424280Y-97855447D01*
X132370053Y-97691799D01*
X132370048Y-97691788D01*
X132279547Y-97545065D01*
X132279544Y-97545061D01*
X132165617Y-97431134D01*
X132132132Y-97369811D01*
X132137116Y-97300119D01*
X132165613Y-97255776D01*
X132279940Y-97141450D01*
X132370508Y-96994616D01*
X132424774Y-96830853D01*
X132435100Y-96729777D01*
X132435099Y-96131424D01*
X132424774Y-96030347D01*
X132370508Y-95866584D01*
X132279940Y-95719750D01*
X132157950Y-95597760D01*
X132152895Y-95594642D01*
X132144000Y-95589155D01*
X132097277Y-95537205D01*
X132085100Y-95483618D01*
X132085100Y-95122337D01*
X132086824Y-95106723D01*
X132086538Y-95106696D01*
X132087272Y-95098933D01*
X132085100Y-95029802D01*
X132085100Y-95000251D01*
X132085100Y-95000250D01*
X132084229Y-94993359D01*
X132083772Y-94987545D01*
X132082309Y-94940974D01*
X132082309Y-94940972D01*
X132076720Y-94921737D01*
X132072774Y-94902684D01*
X132070264Y-94882808D01*
X132053101Y-94839459D01*
X132051214Y-94833946D01*
X132050046Y-94829927D01*
X132038217Y-94789210D01*
X132032886Y-94780196D01*
X132028021Y-94771969D01*
X132019460Y-94754493D01*
X132012086Y-94735869D01*
X132012086Y-94735867D01*
X132001263Y-94720972D01*
X131984683Y-94698150D01*
X131981500Y-94693305D01*
X131957770Y-94653179D01*
X131957765Y-94653173D01*
X131943605Y-94639013D01*
X131930970Y-94624220D01*
X131919193Y-94608012D01*
X131883293Y-94578313D01*
X131878981Y-94574390D01*
X130620803Y-93316212D01*
X130610980Y-93303950D01*
X130610759Y-93304134D01*
X130605786Y-93298123D01*
X130587159Y-93280631D01*
X130555364Y-93250773D01*
X130542270Y-93237679D01*
X130534475Y-93229883D01*
X130528986Y-93225625D01*
X130524561Y-93221847D01*
X130490582Y-93189938D01*
X130490580Y-93189936D01*
X130490577Y-93189935D01*
X130473029Y-93180288D01*
X130456763Y-93169604D01*
X130440935Y-93157326D01*
X130420249Y-93148374D01*
X130366543Y-93103681D01*
X130345525Y-93037048D01*
X130345500Y-93034574D01*
X130345500Y-88410452D01*
X130365185Y-88343413D01*
X130381819Y-88322771D01*
X132042772Y-86661819D01*
X132104095Y-86628334D01*
X132130453Y-86625500D01*
X141409548Y-86625500D01*
X141476587Y-86645185D01*
G37*
G04 #@! TD.AperFunction*
G04 #@! TA.AperFunction,Conductor*
G36*
X156338164Y-76220185D02*
G01*
X156383919Y-76272989D01*
X156393863Y-76342147D01*
X156364838Y-76405703D01*
X156312901Y-76441250D01*
X156276664Y-76454216D01*
X156241267Y-76466881D01*
X156241265Y-76466882D01*
X155886409Y-76634716D01*
X155549721Y-76836520D01*
X155234421Y-77070362D01*
X154943572Y-77333972D01*
X154679962Y-77624821D01*
X154446120Y-77940121D01*
X154244316Y-78276809D01*
X154076482Y-78631665D01*
X154076474Y-78631685D01*
X153944242Y-79001250D01*
X153848860Y-79382032D01*
X153848859Y-79382039D01*
X153791261Y-79770331D01*
X153772000Y-80162400D01*
X153791261Y-80554469D01*
X153791261Y-80554474D01*
X153791262Y-80554478D01*
X153848860Y-80942767D01*
X153944242Y-81323549D01*
X154076474Y-81693114D01*
X154076482Y-81693134D01*
X154244316Y-82047990D01*
X154446120Y-82384678D01*
X154679962Y-82699978D01*
X154943572Y-82990827D01*
X155234421Y-83254437D01*
X155234427Y-83254442D01*
X155549719Y-83488278D01*
X155549721Y-83488279D01*
X155886409Y-83690083D01*
X155886412Y-83690084D01*
X155886413Y-83690085D01*
X156241266Y-83857918D01*
X156241280Y-83857923D01*
X156241285Y-83857925D01*
X156521681Y-83958252D01*
X156610861Y-83990161D01*
X156991639Y-84085541D01*
X157379931Y-84143139D01*
X157772000Y-84162400D01*
X158164069Y-84143139D01*
X158552361Y-84085541D01*
X158933139Y-83990161D01*
X159302734Y-83857918D01*
X159657587Y-83690085D01*
X159994281Y-83488278D01*
X160309573Y-83254442D01*
X160600427Y-82990827D01*
X160864042Y-82699973D01*
X161097878Y-82384681D01*
X161299685Y-82047987D01*
X161467518Y-81693134D01*
X161599761Y-81323539D01*
X161695141Y-80942761D01*
X161752739Y-80554469D01*
X161772000Y-80162400D01*
X161752739Y-79770331D01*
X161695141Y-79382039D01*
X161599761Y-79001261D01*
X161467518Y-78631666D01*
X161299685Y-78276813D01*
X161097878Y-77940119D01*
X160864042Y-77624827D01*
X160864037Y-77624821D01*
X160600427Y-77333972D01*
X160309578Y-77070362D01*
X159994278Y-76836520D01*
X159657590Y-76634716D01*
X159302734Y-76466882D01*
X159302732Y-76466881D01*
X159281101Y-76459141D01*
X159231099Y-76441250D01*
X159174612Y-76400133D01*
X159149320Y-76335001D01*
X159163257Y-76266536D01*
X159211996Y-76216473D01*
X159272875Y-76200500D01*
X172582700Y-76200500D01*
X172649739Y-76220185D01*
X172695494Y-76272989D01*
X172706700Y-76324500D01*
X172706700Y-126062700D01*
X172687015Y-126129739D01*
X172634211Y-126175494D01*
X172582700Y-126186700D01*
X139156075Y-126186700D01*
X139089036Y-126167015D01*
X139043281Y-126114211D01*
X139033337Y-126045053D01*
X139062362Y-125981497D01*
X139114298Y-125945949D01*
X139185934Y-125920318D01*
X139540787Y-125752485D01*
X139877481Y-125550678D01*
X140192773Y-125316842D01*
X140483627Y-125053227D01*
X140747242Y-124762373D01*
X140981078Y-124447081D01*
X141182885Y-124110387D01*
X141350718Y-123755534D01*
X141482961Y-123385939D01*
X141578341Y-123005161D01*
X141635939Y-122616869D01*
X141655200Y-122224800D01*
X141635939Y-121832731D01*
X141578341Y-121444439D01*
X141482961Y-121063661D01*
X141350718Y-120694066D01*
X141182885Y-120339213D01*
X140981078Y-120002519D01*
X140747242Y-119687227D01*
X140747237Y-119687221D01*
X140483627Y-119396372D01*
X140192778Y-119132762D01*
X139877478Y-118898920D01*
X139540790Y-118697116D01*
X139185934Y-118529282D01*
X139185914Y-118529274D01*
X138816349Y-118397042D01*
X138816343Y-118397040D01*
X138816339Y-118397039D01*
X138627444Y-118349723D01*
X138435567Y-118301660D01*
X138435562Y-118301659D01*
X138435561Y-118301659D01*
X138339605Y-118287425D01*
X138047278Y-118244062D01*
X138047274Y-118244061D01*
X138047269Y-118244061D01*
X137655200Y-118224800D01*
X137263131Y-118244061D01*
X137263125Y-118244061D01*
X137263121Y-118244062D01*
X136874832Y-118301660D01*
X136587386Y-118373662D01*
X136494061Y-118397039D01*
X136494058Y-118397039D01*
X136494050Y-118397042D01*
X136124485Y-118529274D01*
X136124465Y-118529282D01*
X135769609Y-118697116D01*
X135432921Y-118898920D01*
X135117621Y-119132762D01*
X134826772Y-119396372D01*
X134563162Y-119687221D01*
X134329320Y-120002521D01*
X134127516Y-120339209D01*
X133959682Y-120694065D01*
X133959674Y-120694085D01*
X133827442Y-121063650D01*
X133732060Y-121444432D01*
X133732059Y-121444439D01*
X133674461Y-121832731D01*
X133655200Y-122224800D01*
X133674461Y-122616869D01*
X133674461Y-122616874D01*
X133674462Y-122616878D01*
X133732060Y-123005167D01*
X133827442Y-123385949D01*
X133959674Y-123755514D01*
X133959682Y-123755534D01*
X134127516Y-124110390D01*
X134329320Y-124447078D01*
X134563162Y-124762378D01*
X134826772Y-125053227D01*
X135117621Y-125316837D01*
X135117627Y-125316842D01*
X135432919Y-125550678D01*
X135432921Y-125550679D01*
X135769609Y-125752483D01*
X135769612Y-125752484D01*
X135769613Y-125752485D01*
X136124466Y-125920318D01*
X136196100Y-125945949D01*
X136252588Y-125987067D01*
X136277880Y-126052199D01*
X136263943Y-126120664D01*
X136215204Y-126170727D01*
X136154325Y-126186700D01*
X122844500Y-126186700D01*
X122777461Y-126167015D01*
X122731706Y-126114211D01*
X122720500Y-126062700D01*
X122720500Y-107424759D01*
X122720528Y-107424616D01*
X122720524Y-107424616D01*
X122720539Y-107400002D01*
X122720541Y-107400000D01*
X122720462Y-107399808D01*
X122720384Y-107399618D01*
X122720382Y-107399616D01*
X122720099Y-107399500D01*
X122720000Y-107399459D01*
X122695446Y-107399459D01*
X122695240Y-107399500D01*
X120144294Y-107399500D01*
X120077255Y-107379815D01*
X120031500Y-107327011D01*
X120020294Y-107275705D01*
X120020283Y-107269200D01*
X120018386Y-106121192D01*
X120037960Y-106054121D01*
X120090688Y-106008279D01*
X120159830Y-105998221D01*
X120223434Y-106027141D01*
X120254895Y-106074509D01*
X120256692Y-106073710D01*
X120336286Y-106252481D01*
X120447487Y-106405535D01*
X120588081Y-106532127D01*
X120588084Y-106532129D01*
X120751915Y-106626716D01*
X120751927Y-106626721D01*
X120931845Y-106685180D01*
X121072841Y-106700000D01*
X121170000Y-106700000D01*
X121170000Y-106050000D01*
X121670000Y-106050000D01*
X121670000Y-106700000D01*
X121767159Y-106700000D01*
X121908154Y-106685180D01*
X122088072Y-106626721D01*
X122088084Y-106626716D01*
X122251915Y-106532129D01*
X122251918Y-106532127D01*
X122392509Y-106405539D01*
X122392511Y-106405536D01*
X122503717Y-106252477D01*
X122580664Y-106079648D01*
X122586967Y-106050000D01*
X121744624Y-106050000D01*
X121817545Y-106035495D01*
X121900240Y-105980240D01*
X121955495Y-105897545D01*
X121974898Y-105800000D01*
X121955495Y-105702455D01*
X121900240Y-105619760D01*
X121817545Y-105564505D01*
X121744624Y-105550000D01*
X122586967Y-105550000D01*
X122580665Y-105520354D01*
X122503713Y-105347518D01*
X122392512Y-105194464D01*
X122251918Y-105067872D01*
X122251915Y-105067870D01*
X122088084Y-104973283D01*
X122088072Y-104973278D01*
X121908154Y-104914819D01*
X121767159Y-104900000D01*
X121670000Y-104900000D01*
X121670000Y-105550000D01*
X121170000Y-105550000D01*
X121170000Y-104900000D01*
X121072841Y-104900000D01*
X120931845Y-104914819D01*
X120751927Y-104973278D01*
X120751915Y-104973283D01*
X120588084Y-105067870D01*
X120588081Y-105067872D01*
X120447490Y-105194460D01*
X120447488Y-105194463D01*
X120336282Y-105347522D01*
X120259333Y-105520357D01*
X120259258Y-105520589D01*
X120259178Y-105520705D01*
X120256692Y-105526290D01*
X120255670Y-105525835D01*
X120219816Y-105578261D01*
X120155455Y-105605454D01*
X120086610Y-105593534D01*
X120035138Y-105546286D01*
X120017330Y-105482466D01*
X120017328Y-105481460D01*
X120003435Y-97075718D01*
X120023009Y-97008647D01*
X120075737Y-96962805D01*
X120144879Y-96952747D01*
X120208483Y-96981667D01*
X120246354Y-97040383D01*
X120248725Y-97049732D01*
X120259334Y-97099645D01*
X120336286Y-97272481D01*
X120447487Y-97425535D01*
X120588081Y-97552127D01*
X120588084Y-97552129D01*
X120751915Y-97646716D01*
X120751927Y-97646721D01*
X120931845Y-97705180D01*
X121072841Y-97720000D01*
X121170000Y-97720000D01*
X121170000Y-97070000D01*
X121670000Y-97070000D01*
X121670000Y-97720000D01*
X121767159Y-97720000D01*
X121908154Y-97705180D01*
X122088072Y-97646721D01*
X122088084Y-97646716D01*
X122251915Y-97552129D01*
X122251918Y-97552127D01*
X122392509Y-97425539D01*
X122392511Y-97425536D01*
X122503717Y-97272477D01*
X122580664Y-97099648D01*
X122586967Y-97070000D01*
X121744624Y-97070000D01*
X121817545Y-97055495D01*
X121900240Y-97000240D01*
X121955495Y-96917545D01*
X121974898Y-96820000D01*
X121955495Y-96722455D01*
X121900240Y-96639760D01*
X121817545Y-96584505D01*
X121744624Y-96570000D01*
X122586967Y-96570000D01*
X122580665Y-96540354D01*
X122503713Y-96367518D01*
X122392512Y-96214464D01*
X122251918Y-96087872D01*
X122251915Y-96087870D01*
X122088084Y-95993283D01*
X122088072Y-95993278D01*
X121908154Y-95934819D01*
X121767159Y-95920000D01*
X121670000Y-95920000D01*
X121670000Y-96570000D01*
X121170000Y-96570000D01*
X121170000Y-95920000D01*
X121072841Y-95920000D01*
X120931845Y-95934819D01*
X120751927Y-95993278D01*
X120751915Y-95993283D01*
X120588084Y-96087870D01*
X120588081Y-96087872D01*
X120447490Y-96214460D01*
X120447488Y-96214463D01*
X120336282Y-96367522D01*
X120259334Y-96540354D01*
X120247887Y-96594210D01*
X120214694Y-96655691D01*
X120153531Y-96689468D01*
X120083816Y-96684814D01*
X120027684Y-96643210D01*
X120002956Y-96577862D01*
X120002597Y-96568633D01*
X120002397Y-96447870D01*
X120000706Y-95424703D01*
X120020280Y-95357633D01*
X120073008Y-95311791D01*
X120124706Y-95300500D01*
X122695240Y-95300500D01*
X122695383Y-95300528D01*
X122695384Y-95300524D01*
X122719997Y-95300539D01*
X122720000Y-95300541D01*
X122720383Y-95300383D01*
X122720500Y-95300099D01*
X122720541Y-95300000D01*
X122720540Y-95299997D01*
X122720583Y-95275889D01*
X122720500Y-95275467D01*
X122720500Y-94780195D01*
X123589840Y-94780195D01*
X123594225Y-94826583D01*
X123594500Y-94832421D01*
X123594500Y-98217255D01*
X123592775Y-98232872D01*
X123593061Y-98232899D01*
X123592326Y-98240665D01*
X123594500Y-98309814D01*
X123594500Y-98339343D01*
X123594501Y-98339360D01*
X123595368Y-98346231D01*
X123595826Y-98352050D01*
X123597290Y-98398624D01*
X123597291Y-98398627D01*
X123602880Y-98417867D01*
X123606824Y-98436911D01*
X123609336Y-98456792D01*
X123625788Y-98498347D01*
X123626490Y-98500119D01*
X123628382Y-98505647D01*
X123641268Y-98550000D01*
X123641382Y-98550390D01*
X123648140Y-98561818D01*
X123651580Y-98567634D01*
X123660138Y-98585103D01*
X123667514Y-98603732D01*
X123694898Y-98641423D01*
X123698106Y-98646307D01*
X123721827Y-98686416D01*
X123721833Y-98686424D01*
X123735990Y-98700580D01*
X123748627Y-98715375D01*
X123760406Y-98731587D01*
X123792132Y-98757833D01*
X123796309Y-98761288D01*
X123800620Y-98765210D01*
X125655594Y-100620185D01*
X126249197Y-101213788D01*
X126259022Y-101226051D01*
X126259243Y-101225869D01*
X126264214Y-101231878D01*
X126290217Y-101256295D01*
X126314635Y-101279226D01*
X126335529Y-101300120D01*
X126341011Y-101304373D01*
X126345443Y-101308157D01*
X126379418Y-101340062D01*
X126396976Y-101349714D01*
X126413235Y-101360395D01*
X126429064Y-101372673D01*
X126471838Y-101391182D01*
X126477056Y-101393738D01*
X126517908Y-101416197D01*
X126537316Y-101421180D01*
X126555717Y-101427480D01*
X126574104Y-101435437D01*
X126617488Y-101442308D01*
X126620119Y-101442725D01*
X126625839Y-101443909D01*
X126640393Y-101447646D01*
X126700431Y-101483384D01*
X126731616Y-101545908D01*
X126732845Y-101581001D01*
X126729500Y-101612117D01*
X126729500Y-102007869D01*
X126729501Y-102007878D01*
X126733679Y-102046745D01*
X126733679Y-102073250D01*
X126731475Y-102093753D01*
X126704738Y-102158305D01*
X126647346Y-102198154D01*
X126608185Y-102204500D01*
X125772743Y-102204500D01*
X125757122Y-102202775D01*
X125757096Y-102203061D01*
X125749334Y-102202327D01*
X125749333Y-102202327D01*
X125680186Y-102204500D01*
X125650649Y-102204500D01*
X125643766Y-102205369D01*
X125637949Y-102205826D01*
X125591373Y-102207290D01*
X125572129Y-102212881D01*
X125553079Y-102216825D01*
X125533211Y-102219334D01*
X125489884Y-102236488D01*
X125484358Y-102238379D01*
X125439614Y-102251379D01*
X125439610Y-102251381D01*
X125422366Y-102261579D01*
X125404905Y-102270133D01*
X125386274Y-102277510D01*
X125386262Y-102277517D01*
X125348570Y-102304902D01*
X125343687Y-102308109D01*
X125303580Y-102331829D01*
X125289414Y-102345995D01*
X125274624Y-102358627D01*
X125258414Y-102370404D01*
X125258411Y-102370407D01*
X125228710Y-102406309D01*
X125224777Y-102410631D01*
X124136208Y-103499199D01*
X124123951Y-103509020D01*
X124124134Y-103509241D01*
X124118123Y-103514213D01*
X124070772Y-103564636D01*
X124049889Y-103585519D01*
X124049877Y-103585532D01*
X124045621Y-103591017D01*
X124041837Y-103595447D01*
X124009937Y-103629418D01*
X124009936Y-103629420D01*
X124000284Y-103646976D01*
X123989610Y-103663226D01*
X123977329Y-103679061D01*
X123977324Y-103679068D01*
X123958815Y-103721838D01*
X123956245Y-103727084D01*
X123933803Y-103767906D01*
X123928822Y-103787307D01*
X123922521Y-103805710D01*
X123914562Y-103824102D01*
X123914561Y-103824105D01*
X123907271Y-103870127D01*
X123906087Y-103875846D01*
X123894501Y-103920972D01*
X123894500Y-103920982D01*
X123894500Y-103941016D01*
X123892973Y-103960415D01*
X123889840Y-103980194D01*
X123889840Y-103980195D01*
X123894225Y-104026583D01*
X123894500Y-104032421D01*
X123894500Y-105067255D01*
X123892775Y-105082872D01*
X123893061Y-105082899D01*
X123892326Y-105090665D01*
X123894500Y-105159814D01*
X123894500Y-105189343D01*
X123894501Y-105189360D01*
X123895368Y-105196231D01*
X123895826Y-105202050D01*
X123897290Y-105248624D01*
X123897291Y-105248627D01*
X123902880Y-105267867D01*
X123906824Y-105286911D01*
X123909336Y-105306792D01*
X123919204Y-105331716D01*
X123926490Y-105350119D01*
X123928382Y-105355647D01*
X123935587Y-105380447D01*
X123941382Y-105400390D01*
X123948661Y-105412699D01*
X123951580Y-105417634D01*
X123960138Y-105435103D01*
X123967514Y-105453732D01*
X123994898Y-105491423D01*
X123998106Y-105496307D01*
X124021827Y-105536416D01*
X124021833Y-105536424D01*
X124035990Y-105550580D01*
X124048627Y-105565375D01*
X124060406Y-105581587D01*
X124095849Y-105610908D01*
X124096309Y-105611288D01*
X124100620Y-105615210D01*
X124797657Y-106312247D01*
X125434339Y-106948929D01*
X125467824Y-107010252D01*
X125462840Y-107079944D01*
X125434341Y-107124290D01*
X125377288Y-107181344D01*
X125285187Y-107330663D01*
X125285185Y-107330668D01*
X125262244Y-107399901D01*
X125230001Y-107497203D01*
X125230001Y-107497204D01*
X125230000Y-107497204D01*
X125219500Y-107599983D01*
X125219500Y-108500001D01*
X125219501Y-108500019D01*
X125230000Y-108602796D01*
X125230001Y-108602799D01*
X125285185Y-108769331D01*
X125285187Y-108769336D01*
X125311950Y-108812725D01*
X125377288Y-108918656D01*
X125501344Y-109042712D01*
X125650666Y-109134814D01*
X125817203Y-109189999D01*
X125919991Y-109200500D01*
X128135547Y-109200499D01*
X128202586Y-109220184D01*
X128248341Y-109272987D01*
X128258285Y-109342146D01*
X128229260Y-109405702D01*
X128223228Y-109412180D01*
X127036208Y-110599199D01*
X127023951Y-110609020D01*
X127024134Y-110609241D01*
X127018123Y-110614213D01*
X126970772Y-110664636D01*
X126949889Y-110685519D01*
X126949877Y-110685532D01*
X126945621Y-110691017D01*
X126941837Y-110695447D01*
X126909937Y-110729418D01*
X126909936Y-110729420D01*
X126900284Y-110746976D01*
X126889610Y-110763226D01*
X126877329Y-110779061D01*
X126877324Y-110779068D01*
X126858815Y-110821838D01*
X126856245Y-110827084D01*
X126833803Y-110867906D01*
X126828822Y-110887307D01*
X126822521Y-110905710D01*
X126814562Y-110924102D01*
X126814561Y-110924105D01*
X126807271Y-110970127D01*
X126806087Y-110975846D01*
X126794501Y-111020972D01*
X126794500Y-111020982D01*
X126794500Y-111041016D01*
X126792973Y-111060415D01*
X126789840Y-111080194D01*
X126789840Y-111080195D01*
X126794225Y-111126583D01*
X126794500Y-111132421D01*
X126794500Y-111225500D01*
X126774815Y-111292539D01*
X126722011Y-111338294D01*
X126670500Y-111349500D01*
X125919998Y-111349500D01*
X125919980Y-111349501D01*
X125817203Y-111360000D01*
X125817200Y-111360001D01*
X125650668Y-111415185D01*
X125650663Y-111415187D01*
X125501342Y-111507289D01*
X125377289Y-111631342D01*
X125285187Y-111780663D01*
X125285186Y-111780666D01*
X125230001Y-111947203D01*
X125230001Y-111947204D01*
X125230000Y-111947204D01*
X125219500Y-112049983D01*
X125219500Y-112889916D01*
X125199815Y-112956955D01*
X125147011Y-113002710D01*
X125077853Y-113012654D01*
X125069720Y-113011206D01*
X125014646Y-112999500D01*
X124825354Y-112999500D01*
X124792897Y-113006398D01*
X124640197Y-113038855D01*
X124640192Y-113038857D01*
X124467270Y-113115848D01*
X124467265Y-113115851D01*
X124314129Y-113227111D01*
X124187466Y-113367785D01*
X124092821Y-113531715D01*
X124092818Y-113531722D01*
X124034327Y-113711740D01*
X124034326Y-113711744D01*
X124014540Y-113900000D01*
X124034326Y-114088256D01*
X124034327Y-114088259D01*
X124092818Y-114268277D01*
X124092821Y-114268284D01*
X124187467Y-114432216D01*
X124281892Y-114537085D01*
X124314129Y-114572888D01*
X124467265Y-114684148D01*
X124467270Y-114684151D01*
X124640192Y-114761142D01*
X124640197Y-114761144D01*
X124825354Y-114800500D01*
X124825355Y-114800500D01*
X125014644Y-114800500D01*
X125014646Y-114800500D01*
X125199803Y-114761144D01*
X125372730Y-114684151D01*
X125525871Y-114572888D01*
X125528788Y-114569647D01*
X125531600Y-114566526D01*
X125591087Y-114529879D01*
X125623748Y-114525500D01*
X125937257Y-114525500D01*
X125952877Y-114527224D01*
X125952904Y-114526939D01*
X125960660Y-114527671D01*
X125960667Y-114527673D01*
X126029814Y-114525500D01*
X126059350Y-114525500D01*
X126066228Y-114524630D01*
X126072041Y-114524172D01*
X126118627Y-114522709D01*
X126137869Y-114517117D01*
X126156912Y-114513174D01*
X126176792Y-114510664D01*
X126220122Y-114493507D01*
X126225646Y-114491617D01*
X126229396Y-114490527D01*
X126270390Y-114478618D01*
X126287629Y-114468422D01*
X126305103Y-114459862D01*
X126323729Y-114452487D01*
X126323727Y-114452487D01*
X126323732Y-114452486D01*
X126323735Y-114452483D01*
X126330566Y-114448729D01*
X126331364Y-114450181D01*
X126388399Y-114429824D01*
X126456455Y-114445642D01*
X126505155Y-114495742D01*
X126518813Y-114540659D01*
X126534326Y-114688256D01*
X126534327Y-114688259D01*
X126592818Y-114868277D01*
X126592821Y-114868284D01*
X126687467Y-115032216D01*
X126806581Y-115164505D01*
X126814129Y-115172888D01*
X126967265Y-115284148D01*
X126967270Y-115284151D01*
X127140192Y-115361142D01*
X127140197Y-115361144D01*
X127325354Y-115400500D01*
X127325355Y-115400500D01*
X127514644Y-115400500D01*
X127514646Y-115400500D01*
X127699803Y-115361144D01*
X127872730Y-115284151D01*
X128025871Y-115172888D01*
X128152533Y-115032216D01*
X128247179Y-114868284D01*
X128305674Y-114688256D01*
X128325460Y-114500000D01*
X128325459Y-114499998D01*
X128326139Y-114493537D01*
X128328557Y-114493791D01*
X128345145Y-114437300D01*
X128397949Y-114391545D01*
X128467107Y-114381601D01*
X128480124Y-114385131D01*
X128480349Y-114384256D01*
X128487906Y-114386196D01*
X128487908Y-114386197D01*
X128507312Y-114391179D01*
X128525710Y-114397478D01*
X128544105Y-114405438D01*
X128590129Y-114412726D01*
X128595832Y-114413907D01*
X128640981Y-114425500D01*
X128661016Y-114425500D01*
X128680413Y-114427026D01*
X128700196Y-114430160D01*
X128746584Y-114425775D01*
X128752422Y-114425500D01*
X129216252Y-114425500D01*
X129283291Y-114445185D01*
X129308400Y-114466526D01*
X129314126Y-114472885D01*
X129314130Y-114472889D01*
X129467265Y-114584148D01*
X129467270Y-114584151D01*
X129640192Y-114661142D01*
X129640197Y-114661144D01*
X129825354Y-114700500D01*
X129825355Y-114700500D01*
X130014644Y-114700500D01*
X130014646Y-114700500D01*
X130199803Y-114661144D01*
X130372730Y-114584151D01*
X130525871Y-114472888D01*
X130652533Y-114332216D01*
X130747179Y-114168284D01*
X130805674Y-113988256D01*
X130825460Y-113800000D01*
X130805674Y-113611744D01*
X130747179Y-113431716D01*
X130652533Y-113267784D01*
X130525871Y-113127112D01*
X130510369Y-113115849D01*
X130372734Y-113015851D01*
X130372729Y-113015848D01*
X130199807Y-112938857D01*
X130199802Y-112938855D01*
X130044709Y-112905890D01*
X130014646Y-112899500D01*
X129825354Y-112899500D01*
X129770277Y-112911206D01*
X129700612Y-112905890D01*
X129644879Y-112863752D01*
X129620774Y-112798172D01*
X129620499Y-112789916D01*
X129620499Y-112049998D01*
X129620498Y-112049981D01*
X129609999Y-111947203D01*
X129609998Y-111947200D01*
X129591109Y-111890197D01*
X129554814Y-111780666D01*
X129462712Y-111631344D01*
X129338656Y-111507288D01*
X129189334Y-111415186D01*
X129022797Y-111360001D01*
X129022795Y-111360000D01*
X128920016Y-111349500D01*
X128920009Y-111349500D01*
X128354451Y-111349500D01*
X128287412Y-111329815D01*
X128241657Y-111277011D01*
X128231713Y-111207853D01*
X128260738Y-111144297D01*
X128266770Y-111137819D01*
X128324394Y-111080196D01*
X129042772Y-110361819D01*
X129104095Y-110328334D01*
X129130453Y-110325500D01*
X131551239Y-110325500D01*
X131618278Y-110345185D01*
X131664033Y-110397989D01*
X131673977Y-110467147D01*
X131656778Y-110514597D01*
X131585187Y-110630663D01*
X131585186Y-110630666D01*
X131530001Y-110797203D01*
X131530001Y-110797204D01*
X131530000Y-110797204D01*
X131519500Y-110899983D01*
X131519500Y-111825001D01*
X131519501Y-111825019D01*
X131530000Y-111927796D01*
X131530001Y-111927799D01*
X131570492Y-112049991D01*
X131585186Y-112094334D01*
X131677288Y-112243656D01*
X131801344Y-112367712D01*
X131950666Y-112459814D01*
X132117203Y-112514999D01*
X132219991Y-112525500D01*
X133620008Y-112525499D01*
X133722797Y-112514999D01*
X133889334Y-112459814D01*
X134038656Y-112367712D01*
X134162712Y-112243656D01*
X134254814Y-112094334D01*
X134309999Y-111927797D01*
X134320500Y-111825009D01*
X134320499Y-111250000D01*
X136020000Y-111250000D01*
X136020000Y-112047844D01*
X136026401Y-112107372D01*
X136026403Y-112107379D01*
X136076645Y-112242086D01*
X136076649Y-112242093D01*
X136162809Y-112357187D01*
X136162812Y-112357190D01*
X136277906Y-112443350D01*
X136277913Y-112443354D01*
X136412620Y-112493596D01*
X136412627Y-112493598D01*
X136472155Y-112499999D01*
X136472172Y-112500000D01*
X138170000Y-112500000D01*
X138170000Y-111250000D01*
X138670000Y-111250000D01*
X138670000Y-112500000D01*
X140367828Y-112500000D01*
X140367844Y-112499999D01*
X140427372Y-112493598D01*
X140427379Y-112493596D01*
X140562086Y-112443354D01*
X140562093Y-112443350D01*
X140677187Y-112357190D01*
X140677190Y-112357187D01*
X140763350Y-112242093D01*
X140763354Y-112242086D01*
X140813596Y-112107379D01*
X140813598Y-112107372D01*
X140819999Y-112047844D01*
X140820000Y-112047827D01*
X140820000Y-111575000D01*
X142420001Y-111575000D01*
X142420001Y-111787486D01*
X142430494Y-111890197D01*
X142485641Y-112056619D01*
X142485643Y-112056624D01*
X142577684Y-112205845D01*
X142701654Y-112329815D01*
X142850875Y-112421856D01*
X142850880Y-112421858D01*
X143017302Y-112477005D01*
X143017309Y-112477006D01*
X143120019Y-112487499D01*
X143569999Y-112487499D01*
X143570000Y-112487498D01*
X143570000Y-111575000D01*
X144070000Y-111575000D01*
X144070000Y-112487499D01*
X144519972Y-112487499D01*
X144519986Y-112487498D01*
X144622697Y-112477005D01*
X144789119Y-112421858D01*
X144789124Y-112421856D01*
X144938345Y-112329815D01*
X145062315Y-112205845D01*
X145154356Y-112056624D01*
X145154358Y-112056619D01*
X145209505Y-111890197D01*
X145209506Y-111890190D01*
X145219999Y-111787486D01*
X145220000Y-111787473D01*
X145220000Y-111575000D01*
X144070000Y-111575000D01*
X143570000Y-111575000D01*
X142420001Y-111575000D01*
X140820000Y-111575000D01*
X140820000Y-111250000D01*
X138670000Y-111250000D01*
X138170000Y-111250000D01*
X136020000Y-111250000D01*
X134320499Y-111250000D01*
X134320499Y-111075000D01*
X142420000Y-111075000D01*
X143570000Y-111075000D01*
X143570000Y-110162500D01*
X144070000Y-110162500D01*
X144070000Y-111075000D01*
X145219999Y-111075000D01*
X145219999Y-110862528D01*
X145219998Y-110862513D01*
X145209505Y-110759802D01*
X145154358Y-110593380D01*
X145154356Y-110593375D01*
X145062315Y-110444154D01*
X144938345Y-110320184D01*
X144789124Y-110228143D01*
X144789119Y-110228141D01*
X144622697Y-110172994D01*
X144622690Y-110172993D01*
X144519986Y-110162500D01*
X144070000Y-110162500D01*
X143570000Y-110162500D01*
X143120028Y-110162500D01*
X143120012Y-110162501D01*
X143017302Y-110172994D01*
X142850880Y-110228141D01*
X142850875Y-110228143D01*
X142701654Y-110320184D01*
X142577684Y-110444154D01*
X142485643Y-110593375D01*
X142485641Y-110593380D01*
X142430494Y-110759802D01*
X142430493Y-110759809D01*
X142420000Y-110862513D01*
X142420000Y-111075000D01*
X134320499Y-111075000D01*
X134320499Y-110899992D01*
X134317221Y-110867906D01*
X134309999Y-110797203D01*
X134309998Y-110797200D01*
X134297608Y-110759809D01*
X134294358Y-110750000D01*
X136020000Y-110750000D01*
X138170000Y-110750000D01*
X138170000Y-109500000D01*
X138670000Y-109500000D01*
X138670000Y-110750000D01*
X140820000Y-110750000D01*
X140820000Y-109952172D01*
X140819999Y-109952155D01*
X140813598Y-109892627D01*
X140813596Y-109892620D01*
X140763354Y-109757913D01*
X140763350Y-109757906D01*
X140677190Y-109642812D01*
X140677187Y-109642809D01*
X140562093Y-109556649D01*
X140562086Y-109556645D01*
X140427379Y-109506403D01*
X140427372Y-109506401D01*
X140367844Y-109500000D01*
X138670000Y-109500000D01*
X138170000Y-109500000D01*
X136472155Y-109500000D01*
X136412627Y-109506401D01*
X136412620Y-109506403D01*
X136277913Y-109556645D01*
X136277906Y-109556649D01*
X136162812Y-109642809D01*
X136162809Y-109642812D01*
X136076649Y-109757906D01*
X136076645Y-109757913D01*
X136026403Y-109892620D01*
X136026401Y-109892627D01*
X136020000Y-109952155D01*
X136020000Y-110750000D01*
X134294358Y-110750000D01*
X134254814Y-110630666D01*
X134183221Y-110514595D01*
X134164782Y-110447204D01*
X134185705Y-110380541D01*
X134239347Y-110335771D01*
X134288761Y-110325500D01*
X134337257Y-110325500D01*
X134352877Y-110327224D01*
X134352904Y-110326939D01*
X134360660Y-110327671D01*
X134360667Y-110327673D01*
X134429814Y-110325500D01*
X134459350Y-110325500D01*
X134466228Y-110324630D01*
X134472041Y-110324172D01*
X134518627Y-110322709D01*
X134537869Y-110317117D01*
X134556912Y-110313174D01*
X134576792Y-110310664D01*
X134620122Y-110293507D01*
X134625646Y-110291617D01*
X134637204Y-110288259D01*
X134670390Y-110278618D01*
X134687629Y-110268422D01*
X134705103Y-110259862D01*
X134723727Y-110252488D01*
X134723727Y-110252487D01*
X134723732Y-110252486D01*
X134761449Y-110225082D01*
X134766305Y-110221892D01*
X134806420Y-110198170D01*
X134820589Y-110183999D01*
X134835379Y-110171368D01*
X134851587Y-110159594D01*
X134881299Y-110123676D01*
X134885212Y-110119376D01*
X136503787Y-108500801D01*
X136516042Y-108490986D01*
X136515859Y-108490764D01*
X136521866Y-108485792D01*
X136521877Y-108485786D01*
X136552775Y-108452882D01*
X136569227Y-108435364D01*
X136579671Y-108424918D01*
X136590120Y-108414471D01*
X136594379Y-108408978D01*
X136598152Y-108404561D01*
X136630062Y-108370582D01*
X136639715Y-108353020D01*
X136650389Y-108336770D01*
X136662673Y-108320936D01*
X136681180Y-108278167D01*
X136683749Y-108272924D01*
X136706196Y-108232093D01*
X136706197Y-108232092D01*
X136711177Y-108212691D01*
X136717478Y-108194288D01*
X136725438Y-108175896D01*
X136732730Y-108129849D01*
X136733911Y-108124152D01*
X136734047Y-108123624D01*
X136745500Y-108079019D01*
X136745500Y-108058983D01*
X136747027Y-108039582D01*
X136750160Y-108019804D01*
X136745775Y-107973415D01*
X136745500Y-107967577D01*
X136745500Y-106324499D01*
X136765185Y-106257460D01*
X136817989Y-106211705D01*
X136869500Y-106200499D01*
X136917871Y-106200499D01*
X136917872Y-106200499D01*
X136977483Y-106194091D01*
X137112331Y-106143796D01*
X137196105Y-106081082D01*
X137261569Y-106056665D01*
X137329842Y-106071516D01*
X137344727Y-106081082D01*
X137427910Y-106143352D01*
X137427913Y-106143354D01*
X137562620Y-106193596D01*
X137562627Y-106193598D01*
X137622155Y-106199999D01*
X137622172Y-106200000D01*
X138170000Y-106200000D01*
X138170000Y-103200000D01*
X137622155Y-103200000D01*
X137562627Y-103206401D01*
X137562620Y-103206403D01*
X137427913Y-103256645D01*
X137427910Y-103256647D01*
X137344727Y-103318918D01*
X137279262Y-103343335D01*
X137210989Y-103328483D01*
X137196106Y-103318918D01*
X137112331Y-103256204D01*
X137112328Y-103256202D01*
X136977482Y-103205908D01*
X136977483Y-103205908D01*
X136917883Y-103199501D01*
X136917881Y-103199500D01*
X136917873Y-103199500D01*
X136917864Y-103199500D01*
X135322129Y-103199500D01*
X135322123Y-103199501D01*
X135262516Y-103205908D01*
X135127671Y-103256202D01*
X135127664Y-103256206D01*
X135012455Y-103342452D01*
X135012452Y-103342455D01*
X134926206Y-103457664D01*
X134926202Y-103457671D01*
X134875908Y-103592517D01*
X134871941Y-103629420D01*
X134869501Y-103652123D01*
X134869500Y-103652135D01*
X134869500Y-105747870D01*
X134869501Y-105747876D01*
X134875908Y-105807483D01*
X134926202Y-105942328D01*
X134926206Y-105942335D01*
X135012452Y-106057544D01*
X135012455Y-106057547D01*
X135127664Y-106143793D01*
X135127671Y-106143797D01*
X135172618Y-106160561D01*
X135262517Y-106194091D01*
X135322127Y-106200500D01*
X135370500Y-106200499D01*
X135437537Y-106220182D01*
X135483293Y-106272985D01*
X135494500Y-106324499D01*
X135494500Y-107689546D01*
X135474815Y-107756585D01*
X135458181Y-107777227D01*
X134531681Y-108703727D01*
X134470358Y-108737212D01*
X134400666Y-108732228D01*
X134344733Y-108690356D01*
X134320316Y-108624892D01*
X134320000Y-108616046D01*
X134320000Y-108487500D01*
X131520001Y-108487500D01*
X131520001Y-108699986D01*
X131530494Y-108802697D01*
X131566547Y-108911496D01*
X131568949Y-108981324D01*
X131533217Y-109041366D01*
X131470697Y-109072559D01*
X131448841Y-109074500D01*
X129588761Y-109074500D01*
X129521722Y-109054815D01*
X129475967Y-109002011D01*
X129466023Y-108932853D01*
X129483222Y-108885403D01*
X129554814Y-108769334D01*
X129609999Y-108602797D01*
X129620500Y-108500009D01*
X129620499Y-107987500D01*
X131520000Y-107987500D01*
X132670000Y-107987500D01*
X132670000Y-107075000D01*
X133170000Y-107075000D01*
X133170000Y-107987500D01*
X134319999Y-107987500D01*
X134319999Y-107775028D01*
X134319998Y-107775013D01*
X134309505Y-107672302D01*
X134254358Y-107505880D01*
X134254356Y-107505875D01*
X134162315Y-107356654D01*
X134038345Y-107232684D01*
X133889124Y-107140643D01*
X133889119Y-107140641D01*
X133722697Y-107085494D01*
X133722690Y-107085493D01*
X133619986Y-107075000D01*
X133170000Y-107075000D01*
X132670000Y-107075000D01*
X132220028Y-107075000D01*
X132220012Y-107075001D01*
X132117302Y-107085494D01*
X131950880Y-107140641D01*
X131950875Y-107140643D01*
X131801654Y-107232684D01*
X131677684Y-107356654D01*
X131585643Y-107505875D01*
X131585641Y-107505880D01*
X131530494Y-107672302D01*
X131530493Y-107672309D01*
X131520000Y-107775013D01*
X131520000Y-107987500D01*
X129620499Y-107987500D01*
X129620499Y-107599992D01*
X129612362Y-107520340D01*
X129609999Y-107497203D01*
X129609998Y-107497200D01*
X129594069Y-107449130D01*
X129554814Y-107330666D01*
X129462712Y-107181344D01*
X129338656Y-107057288D01*
X129189334Y-106965186D01*
X129022797Y-106910001D01*
X129022795Y-106910000D01*
X128920016Y-106899500D01*
X128920009Y-106899500D01*
X127205453Y-106899500D01*
X127138414Y-106879815D01*
X127117772Y-106863181D01*
X126791897Y-106537306D01*
X126758412Y-106475983D01*
X126763396Y-106406291D01*
X126805268Y-106350358D01*
X126870732Y-106325941D01*
X126892540Y-106326304D01*
X127022841Y-106340000D01*
X127120000Y-106340000D01*
X127120000Y-105690000D01*
X127620000Y-105690000D01*
X127620000Y-106340000D01*
X127717159Y-106340000D01*
X127858154Y-106325180D01*
X128038072Y-106266721D01*
X128038084Y-106266716D01*
X128201915Y-106172129D01*
X128201918Y-106172127D01*
X128342509Y-106045539D01*
X128342511Y-106045536D01*
X128353363Y-106030600D01*
X130484601Y-106030600D01*
X130484601Y-106079754D01*
X130494919Y-106180752D01*
X130549146Y-106344400D01*
X130549151Y-106344411D01*
X130639652Y-106491134D01*
X130639655Y-106491138D01*
X130761561Y-106613044D01*
X130761565Y-106613047D01*
X130908288Y-106703548D01*
X130908299Y-106703553D01*
X131071947Y-106757780D01*
X131172952Y-106768099D01*
X131209600Y-106768099D01*
X131209600Y-106030600D01*
X131709600Y-106030600D01*
X131709600Y-106768099D01*
X131746240Y-106768099D01*
X131746254Y-106768098D01*
X131847252Y-106757780D01*
X132010900Y-106703553D01*
X132010911Y-106703548D01*
X132157634Y-106613047D01*
X132157638Y-106613044D01*
X132279544Y-106491138D01*
X132279547Y-106491134D01*
X132370048Y-106344411D01*
X132370053Y-106344400D01*
X132424280Y-106180752D01*
X132434599Y-106079754D01*
X132434600Y-106079741D01*
X132434600Y-106030600D01*
X131709600Y-106030600D01*
X131209600Y-106030600D01*
X130484601Y-106030600D01*
X128353363Y-106030600D01*
X128453717Y-105892477D01*
X128530665Y-105719644D01*
X128559989Y-105581687D01*
X128593181Y-105520205D01*
X128654344Y-105486429D01*
X128665089Y-105484529D01*
X128770236Y-105470687D01*
X128910233Y-105412698D01*
X129030451Y-105320451D01*
X129122698Y-105200233D01*
X129180687Y-105060236D01*
X129200466Y-104910000D01*
X129199149Y-104900000D01*
X129180687Y-104759765D01*
X129180685Y-104759760D01*
X129139439Y-104660181D01*
X129130000Y-104612729D01*
X129130000Y-104334499D01*
X129149685Y-104267460D01*
X129202489Y-104221705D01*
X129253997Y-104210499D01*
X129306001Y-104210499D01*
X129373039Y-104230184D01*
X129418794Y-104282988D01*
X129430000Y-104334499D01*
X129430000Y-104710000D01*
X129677828Y-104710000D01*
X129677844Y-104709999D01*
X129737372Y-104703598D01*
X129737379Y-104703596D01*
X129872086Y-104653354D01*
X129872093Y-104653350D01*
X129987187Y-104567190D01*
X129987190Y-104567187D01*
X130073350Y-104452093D01*
X130073354Y-104452086D01*
X130123596Y-104317379D01*
X130123598Y-104317372D01*
X130129999Y-104257844D01*
X130130000Y-104257827D01*
X130130000Y-104210000D01*
X130128627Y-104210000D01*
X130061588Y-104190315D01*
X130015833Y-104137511D01*
X130005889Y-104068353D01*
X130029361Y-104011688D01*
X130036877Y-104001649D01*
X130052938Y-103980194D01*
X130068289Y-103959688D01*
X130116105Y-103923894D01*
X130130000Y-103910000D01*
X130130000Y-103862182D01*
X130129999Y-103862164D01*
X130126068Y-103825602D01*
X130126068Y-103799094D01*
X130130500Y-103757873D01*
X130130499Y-103362128D01*
X130130498Y-103362111D01*
X130126320Y-103323253D01*
X130126320Y-103296747D01*
X130130500Y-103257873D01*
X130130499Y-102894450D01*
X130150183Y-102827412D01*
X130202987Y-102781657D01*
X130272146Y-102771713D01*
X130335701Y-102800738D01*
X130342180Y-102806770D01*
X130623683Y-103088274D01*
X130657168Y-103149597D01*
X130652184Y-103219289D01*
X130641541Y-103241052D01*
X130548693Y-103391581D01*
X130548691Y-103391586D01*
X130527512Y-103455500D01*
X130494426Y-103555347D01*
X130494426Y-103555348D01*
X130494425Y-103555348D01*
X130484100Y-103656415D01*
X130484100Y-104254769D01*
X130484101Y-104254787D01*
X130494425Y-104355852D01*
X130526315Y-104452086D01*
X130548692Y-104519616D01*
X130635393Y-104660181D01*
X130639261Y-104666451D01*
X130753582Y-104780772D01*
X130787067Y-104842095D01*
X130782083Y-104911787D01*
X130753583Y-104956134D01*
X130639652Y-105070065D01*
X130549151Y-105216788D01*
X130549146Y-105216799D01*
X130494919Y-105380447D01*
X130484600Y-105481445D01*
X130484600Y-105530600D01*
X132434599Y-105530600D01*
X132434599Y-105481460D01*
X132434598Y-105481445D01*
X132424280Y-105380447D01*
X132370053Y-105216799D01*
X132370048Y-105216788D01*
X132279547Y-105070065D01*
X132279544Y-105070061D01*
X132165617Y-104956134D01*
X132132132Y-104894811D01*
X132137116Y-104825119D01*
X132165613Y-104780776D01*
X132279940Y-104666450D01*
X132370508Y-104519616D01*
X132424774Y-104355853D01*
X132435100Y-104254777D01*
X132435099Y-103656424D01*
X132432340Y-103629418D01*
X132424774Y-103555347D01*
X132409496Y-103509241D01*
X132370508Y-103391584D01*
X132279940Y-103244750D01*
X132157950Y-103122760D01*
X132144000Y-103114155D01*
X132097277Y-103062205D01*
X132085100Y-103008618D01*
X132085100Y-102170852D01*
X132104785Y-102103813D01*
X132121419Y-102083171D01*
X133643448Y-100561142D01*
X135209232Y-98995358D01*
X135270551Y-98961876D01*
X135340243Y-98966860D01*
X135396176Y-99008732D01*
X135420593Y-99074196D01*
X135405741Y-99142469D01*
X135389071Y-99166001D01*
X135387469Y-99167779D01*
X135387466Y-99167784D01*
X135292821Y-99331715D01*
X135292818Y-99331722D01*
X135248204Y-99469031D01*
X135234326Y-99511744D01*
X135214540Y-99700000D01*
X135234326Y-99888256D01*
X135234327Y-99888259D01*
X135292818Y-100068277D01*
X135292821Y-100068284D01*
X135387467Y-100232216D01*
X135504425Y-100362111D01*
X135514129Y-100372888D01*
X135667265Y-100484148D01*
X135667270Y-100484151D01*
X135840192Y-100561142D01*
X135840197Y-100561144D01*
X136025354Y-100600500D01*
X136084547Y-100600500D01*
X136151586Y-100620185D01*
X136172228Y-100636819D01*
X136319197Y-100783788D01*
X136329022Y-100796051D01*
X136329243Y-100795869D01*
X136334214Y-100801878D01*
X136356977Y-100823253D01*
X136384635Y-100849226D01*
X136405529Y-100870120D01*
X136411011Y-100874373D01*
X136415443Y-100878157D01*
X136449418Y-100910062D01*
X136466976Y-100919714D01*
X136483235Y-100930395D01*
X136499064Y-100942673D01*
X136541838Y-100961182D01*
X136547056Y-100963738D01*
X136587908Y-100986197D01*
X136607316Y-100991180D01*
X136625717Y-100997480D01*
X136644104Y-101005437D01*
X136687488Y-101012308D01*
X136690119Y-101012725D01*
X136695839Y-101013909D01*
X136740981Y-101025500D01*
X136761016Y-101025500D01*
X136780415Y-101027027D01*
X136800196Y-101030160D01*
X136840434Y-101026356D01*
X136846582Y-101025775D01*
X136852420Y-101025500D01*
X138509548Y-101025500D01*
X138576587Y-101045185D01*
X138597229Y-101061819D01*
X140058181Y-102522771D01*
X140091666Y-102584094D01*
X140094500Y-102610452D01*
X140094500Y-103075500D01*
X140074815Y-103142539D01*
X140022011Y-103188294D01*
X139970502Y-103199500D01*
X139922131Y-103199500D01*
X139922123Y-103199501D01*
X139862516Y-103205908D01*
X139727671Y-103256202D01*
X139727669Y-103256204D01*
X139643894Y-103318918D01*
X139578430Y-103343335D01*
X139510157Y-103328484D01*
X139495272Y-103318918D01*
X139412088Y-103256646D01*
X139412086Y-103256645D01*
X139277379Y-103206403D01*
X139277372Y-103206401D01*
X139217844Y-103200000D01*
X138670000Y-103200000D01*
X138670000Y-106200000D01*
X139217828Y-106200000D01*
X139217844Y-106199999D01*
X139277372Y-106193598D01*
X139277379Y-106193596D01*
X139412086Y-106143354D01*
X139412089Y-106143352D01*
X139495271Y-106081082D01*
X139560735Y-106056664D01*
X139629008Y-106071515D01*
X139643887Y-106081077D01*
X139727076Y-106143352D01*
X139727668Y-106143795D01*
X139727671Y-106143797D01*
X139772618Y-106160561D01*
X139862517Y-106194091D01*
X139922127Y-106200500D01*
X139970500Y-106200499D01*
X140037537Y-106220182D01*
X140083293Y-106272985D01*
X140094500Y-106324499D01*
X140094500Y-107317255D01*
X140092775Y-107332872D01*
X140093061Y-107332899D01*
X140092326Y-107340665D01*
X140094500Y-107409814D01*
X140094500Y-107439343D01*
X140094501Y-107439360D01*
X140095368Y-107446231D01*
X140095826Y-107452050D01*
X140097290Y-107498624D01*
X140097291Y-107498627D01*
X140102880Y-107517867D01*
X140106824Y-107536911D01*
X140109336Y-107556792D01*
X140126435Y-107599980D01*
X140126490Y-107600119D01*
X140128382Y-107605647D01*
X140141381Y-107650388D01*
X140151580Y-107667634D01*
X140160136Y-107685100D01*
X140167514Y-107703732D01*
X140194524Y-107740909D01*
X140194898Y-107741423D01*
X140198106Y-107746307D01*
X140221827Y-107786416D01*
X140221833Y-107786424D01*
X140235990Y-107800580D01*
X140248628Y-107815376D01*
X140260405Y-107831586D01*
X140260406Y-107831587D01*
X140296309Y-107861288D01*
X140300620Y-107865210D01*
X140839957Y-108404548D01*
X141019197Y-108583788D01*
X141029022Y-108596051D01*
X141029243Y-108595869D01*
X141034214Y-108601878D01*
X141049302Y-108616046D01*
X141084635Y-108649226D01*
X141105529Y-108670120D01*
X141111011Y-108674373D01*
X141115443Y-108678157D01*
X141149418Y-108710062D01*
X141166976Y-108719714D01*
X141183233Y-108730393D01*
X141199064Y-108742673D01*
X141218737Y-108751186D01*
X141241833Y-108761182D01*
X141247077Y-108763750D01*
X141287908Y-108786197D01*
X141300523Y-108789435D01*
X141307305Y-108791177D01*
X141325719Y-108797481D01*
X141344104Y-108805438D01*
X141390157Y-108812732D01*
X141395826Y-108813906D01*
X141440981Y-108825500D01*
X141461016Y-108825500D01*
X141480413Y-108827026D01*
X141500196Y-108830160D01*
X141546584Y-108825775D01*
X141552422Y-108825500D01*
X142360409Y-108825500D01*
X142427448Y-108845185D01*
X142473203Y-108897989D01*
X142478114Y-108910494D01*
X142485184Y-108931831D01*
X142493695Y-108945629D01*
X142577288Y-109081156D01*
X142701344Y-109205212D01*
X142850666Y-109297314D01*
X143017203Y-109352499D01*
X143119991Y-109363000D01*
X144520008Y-109362999D01*
X144622797Y-109352499D01*
X144789334Y-109297314D01*
X144938656Y-109205212D01*
X145062712Y-109081156D01*
X145154814Y-108931834D01*
X145209999Y-108765297D01*
X145220500Y-108662509D01*
X145220499Y-107737492D01*
X145217876Y-107711819D01*
X145209999Y-107634703D01*
X145209998Y-107634700D01*
X145198497Y-107599992D01*
X145154814Y-107468166D01*
X145062712Y-107318844D01*
X144938656Y-107194788D01*
X144789334Y-107102686D01*
X144622797Y-107047501D01*
X144622795Y-107047500D01*
X144520010Y-107037000D01*
X143119998Y-107037000D01*
X143119981Y-107037001D01*
X143017203Y-107047500D01*
X143017200Y-107047501D01*
X142850668Y-107102685D01*
X142850663Y-107102687D01*
X142701342Y-107194789D01*
X142577289Y-107318842D01*
X142485184Y-107468168D01*
X142478114Y-107489506D01*
X142438341Y-107546950D01*
X142373825Y-107573772D01*
X142360409Y-107574500D01*
X141830452Y-107574500D01*
X141763413Y-107554815D01*
X141742771Y-107538181D01*
X141381819Y-107177228D01*
X141348334Y-107115905D01*
X141345500Y-107089547D01*
X141345500Y-106324499D01*
X141365185Y-106257460D01*
X141417989Y-106211705D01*
X141469500Y-106200499D01*
X141517871Y-106200499D01*
X141517872Y-106200499D01*
X141577483Y-106194091D01*
X141712331Y-106143796D01*
X141827546Y-106057546D01*
X141913796Y-105942331D01*
X141964091Y-105807483D01*
X141970500Y-105747873D01*
X141970499Y-103652128D01*
X141964091Y-103592517D01*
X141935988Y-103517170D01*
X141913797Y-103457671D01*
X141913793Y-103457664D01*
X141827547Y-103342455D01*
X141827544Y-103342452D01*
X141712335Y-103256206D01*
X141712328Y-103256202D01*
X141577482Y-103205908D01*
X141577483Y-103205908D01*
X141517883Y-103199501D01*
X141517881Y-103199500D01*
X141517873Y-103199500D01*
X141517865Y-103199500D01*
X141469500Y-103199500D01*
X141402461Y-103179815D01*
X141356706Y-103127011D01*
X141345500Y-103075500D01*
X141345500Y-102609452D01*
X141365185Y-102542413D01*
X141417989Y-102496658D01*
X141487147Y-102486714D01*
X141550703Y-102515739D01*
X141557181Y-102521771D01*
X152658181Y-113622771D01*
X152691666Y-113684094D01*
X152694500Y-113710452D01*
X152694500Y-114437819D01*
X152674815Y-114504858D01*
X152644812Y-114537085D01*
X152537452Y-114617455D01*
X152451206Y-114732664D01*
X152451202Y-114732671D01*
X152400908Y-114867517D01*
X152394501Y-114927116D01*
X152394500Y-114927135D01*
X152394500Y-115872870D01*
X152394501Y-115872876D01*
X152400908Y-115932483D01*
X152451202Y-116067328D01*
X152451206Y-116067335D01*
X152537452Y-116182544D01*
X152537455Y-116182547D01*
X152652664Y-116268793D01*
X152652671Y-116268797D01*
X152787517Y-116319091D01*
X152787516Y-116319091D01*
X152794444Y-116319835D01*
X152847127Y-116325500D01*
X153792872Y-116325499D01*
X153852483Y-116319091D01*
X153944530Y-116284759D01*
X154014218Y-116279776D01*
X154026039Y-116283678D01*
X154026246Y-116283042D01*
X154032426Y-116285049D01*
X154032429Y-116285051D01*
X154222726Y-116325500D01*
X154417274Y-116325500D01*
X154607566Y-116285052D01*
X154607565Y-116285052D01*
X154607571Y-116285051D01*
X154769569Y-116212925D01*
X154838815Y-116203642D01*
X154870425Y-116212922D01*
X155032429Y-116285051D01*
X155032432Y-116285051D01*
X155032433Y-116285052D01*
X155222726Y-116325500D01*
X155417274Y-116325500D01*
X155607566Y-116285052D01*
X155607565Y-116285052D01*
X155607571Y-116285051D01*
X155769569Y-116212925D01*
X155838815Y-116203642D01*
X155870425Y-116212922D01*
X156032429Y-116285051D01*
X156032432Y-116285051D01*
X156032433Y-116285052D01*
X156222726Y-116325500D01*
X156417274Y-116325500D01*
X156607566Y-116285052D01*
X156607565Y-116285052D01*
X156607571Y-116285051D01*
X156770184Y-116212651D01*
X156839429Y-116203368D01*
X156871051Y-116212653D01*
X157032585Y-116284573D01*
X157069999Y-116292524D01*
X157070000Y-116292524D01*
X157070000Y-115985189D01*
X157086613Y-115923189D01*
X157170142Y-115778511D01*
X157170143Y-115778510D01*
X157170209Y-115778307D01*
X157217653Y-115632286D01*
X157222455Y-115635495D01*
X157295376Y-115650000D01*
X157344624Y-115650000D01*
X157570000Y-115650000D01*
X157570000Y-116292524D01*
X157607412Y-116284573D01*
X157785049Y-116205484D01*
X157942357Y-116091192D01*
X157942360Y-116091190D01*
X158072463Y-115946694D01*
X158169682Y-115778307D01*
X158169683Y-115778306D01*
X158211372Y-115650000D01*
X157570000Y-115650000D01*
X157344624Y-115650000D01*
X157417545Y-115635495D01*
X157500240Y-115580240D01*
X157555495Y-115497545D01*
X157574898Y-115400000D01*
X157555495Y-115302455D01*
X157500240Y-115219760D01*
X157417545Y-115164505D01*
X157344624Y-115150000D01*
X157295376Y-115150000D01*
X157222455Y-115164505D01*
X157217653Y-115167713D01*
X157170144Y-115021492D01*
X157170143Y-115021491D01*
X157170143Y-115021489D01*
X157170142Y-115021488D01*
X157086613Y-114876811D01*
X157070000Y-114814811D01*
X157070000Y-114507473D01*
X157570000Y-114507473D01*
X157570000Y-115150000D01*
X158211372Y-115150000D01*
X158211371Y-115149999D01*
X158169683Y-115021693D01*
X158169682Y-115021692D01*
X158072463Y-114853305D01*
X158072464Y-114853305D01*
X157942360Y-114708809D01*
X157942357Y-114708807D01*
X157785051Y-114594516D01*
X157607412Y-114515426D01*
X157570000Y-114507473D01*
X157070000Y-114507473D01*
X157032585Y-114515426D01*
X157032580Y-114515428D01*
X156871052Y-114587346D01*
X156801802Y-114596631D01*
X156770181Y-114587347D01*
X156665317Y-114540659D01*
X156607571Y-114514949D01*
X156607569Y-114514948D01*
X156417274Y-114474500D01*
X156222726Y-114474500D01*
X156032430Y-114514948D01*
X156032427Y-114514949D01*
X155870434Y-114587072D01*
X155801184Y-114596356D01*
X155769566Y-114587072D01*
X155607572Y-114514949D01*
X155607569Y-114514948D01*
X155417274Y-114474500D01*
X155222726Y-114474500D01*
X155095281Y-114501589D01*
X155025614Y-114496273D01*
X154969880Y-114454136D01*
X154945775Y-114388556D01*
X154945500Y-114380299D01*
X154945500Y-112157738D01*
X154947224Y-112142124D01*
X154946938Y-112142097D01*
X154947672Y-112134334D01*
X154945500Y-112065203D01*
X154945500Y-109846981D01*
X154965185Y-109779942D01*
X155004404Y-109741442D01*
X155005160Y-109740975D01*
X155018350Y-109732840D01*
X155073738Y-109677451D01*
X155135057Y-109643969D01*
X155204749Y-109648953D01*
X155260682Y-109690824D01*
X155279347Y-109726816D01*
X155292819Y-109768280D01*
X155292821Y-109768284D01*
X155387467Y-109932216D01*
X155494028Y-110050564D01*
X155514129Y-110072888D01*
X155667265Y-110184148D01*
X155667270Y-110184151D01*
X155840192Y-110261142D01*
X155840197Y-110261144D01*
X156025354Y-110300500D01*
X156025355Y-110300500D01*
X156214644Y-110300500D01*
X156214646Y-110300500D01*
X156399803Y-110261144D01*
X156572730Y-110184151D01*
X156724753Y-110073699D01*
X156790557Y-110050221D01*
X156858611Y-110066046D01*
X156907305Y-110116152D01*
X156920957Y-110161057D01*
X156922201Y-110172888D01*
X156934326Y-110288256D01*
X156934327Y-110288259D01*
X156992818Y-110468277D01*
X156992821Y-110468284D01*
X157087467Y-110632216D01*
X157198495Y-110755525D01*
X157214129Y-110772888D01*
X157367265Y-110884148D01*
X157367270Y-110884151D01*
X157540192Y-110961142D01*
X157540197Y-110961144D01*
X157725354Y-111000500D01*
X157725355Y-111000500D01*
X157914644Y-111000500D01*
X157914646Y-111000500D01*
X158099803Y-110961144D01*
X158272730Y-110884151D01*
X158425871Y-110772888D01*
X158552533Y-110632216D01*
X158647179Y-110468284D01*
X158705674Y-110288256D01*
X158719662Y-110155160D01*
X158746245Y-110090549D01*
X158803542Y-110050564D01*
X158873361Y-110047904D01*
X158933535Y-110083413D01*
X158935122Y-110085142D01*
X158948500Y-110100000D01*
X159014129Y-110172888D01*
X159167265Y-110284148D01*
X159167270Y-110284151D01*
X159340192Y-110361142D01*
X159340197Y-110361144D01*
X159525354Y-110400500D01*
X159525355Y-110400500D01*
X159714644Y-110400500D01*
X159714646Y-110400500D01*
X159899803Y-110361144D01*
X160072730Y-110284151D01*
X160225871Y-110172888D01*
X160352533Y-110032216D01*
X160447179Y-109868284D01*
X160505674Y-109688256D01*
X160525460Y-109500000D01*
X160505674Y-109311744D01*
X160447179Y-109131716D01*
X160352533Y-108967784D01*
X160225871Y-108827112D01*
X160224031Y-108825775D01*
X160072734Y-108715851D01*
X160072729Y-108715848D01*
X159899807Y-108638857D01*
X159899802Y-108638855D01*
X159754001Y-108607865D01*
X159714646Y-108599500D01*
X159714645Y-108599500D01*
X159655453Y-108599500D01*
X159588414Y-108579815D01*
X159567772Y-108563181D01*
X159431772Y-108427181D01*
X159398287Y-108365858D01*
X159403271Y-108296166D01*
X159445143Y-108240233D01*
X159510607Y-108215816D01*
X159519453Y-108215500D01*
X163909179Y-108215500D01*
X163909181Y-108215500D01*
X163927047Y-108214862D01*
X163945064Y-108213896D01*
X164085656Y-108183312D01*
X164151120Y-108158895D01*
X164277395Y-108089944D01*
X164379135Y-107988207D01*
X164403287Y-107955945D01*
X164421004Y-107932279D01*
X164421006Y-107932275D01*
X164421007Y-107932274D01*
X164421013Y-107932266D01*
X164489966Y-107805985D01*
X164497110Y-107773140D01*
X164530593Y-107711819D01*
X164591916Y-107678333D01*
X164618276Y-107675499D01*
X165019170Y-107675499D01*
X165019176Y-107675499D01*
X165120253Y-107665174D01*
X165284016Y-107610908D01*
X165430850Y-107520340D01*
X165544819Y-107406371D01*
X165606142Y-107372886D01*
X165675834Y-107377870D01*
X165720181Y-107406371D01*
X165834150Y-107520340D01*
X165860596Y-107536652D01*
X165907321Y-107588600D01*
X165919500Y-107642191D01*
X165919500Y-107942255D01*
X165917775Y-107957872D01*
X165918061Y-107957899D01*
X165917326Y-107965665D01*
X165919500Y-108034814D01*
X165919500Y-108064343D01*
X165919501Y-108064360D01*
X165920368Y-108071231D01*
X165920826Y-108077050D01*
X165922290Y-108123624D01*
X165923105Y-108126431D01*
X165927880Y-108142867D01*
X165931824Y-108161911D01*
X165934336Y-108181792D01*
X165947820Y-108215849D01*
X165951490Y-108225119D01*
X165953382Y-108230647D01*
X165965665Y-108272924D01*
X165966382Y-108275390D01*
X165968028Y-108278174D01*
X165976580Y-108292634D01*
X165985136Y-108310100D01*
X165992514Y-108328732D01*
X166019487Y-108365858D01*
X166019898Y-108366423D01*
X166023106Y-108371307D01*
X166046827Y-108411416D01*
X166046833Y-108411424D01*
X166060990Y-108425580D01*
X166073628Y-108440376D01*
X166085405Y-108456586D01*
X166085406Y-108456587D01*
X166121309Y-108486288D01*
X166125620Y-108490210D01*
X166480594Y-108845185D01*
X166581038Y-108945629D01*
X166614523Y-109006952D01*
X166616678Y-109020348D01*
X166623070Y-109081157D01*
X166634326Y-109188256D01*
X166634327Y-109188259D01*
X166692818Y-109368277D01*
X166692821Y-109368284D01*
X166787467Y-109532216D01*
X166888090Y-109643969D01*
X166914129Y-109672888D01*
X167067265Y-109784148D01*
X167067270Y-109784151D01*
X167240192Y-109861142D01*
X167240197Y-109861144D01*
X167425354Y-109900500D01*
X167425355Y-109900500D01*
X167614644Y-109900500D01*
X167614646Y-109900500D01*
X167799803Y-109861144D01*
X167972730Y-109784151D01*
X168125871Y-109672888D01*
X168252533Y-109532216D01*
X168347179Y-109368284D01*
X168405674Y-109188256D01*
X168425460Y-109000000D01*
X168405674Y-108811744D01*
X168347179Y-108631716D01*
X168252533Y-108467784D01*
X168125871Y-108327112D01*
X168125870Y-108327111D01*
X167972734Y-108215851D01*
X167972729Y-108215848D01*
X167799807Y-108138857D01*
X167799802Y-108138855D01*
X167654001Y-108107865D01*
X167614646Y-108099500D01*
X167614645Y-108099500D01*
X167555453Y-108099500D01*
X167488414Y-108079815D01*
X167467772Y-108063181D01*
X167206819Y-107802228D01*
X167173334Y-107740905D01*
X167170500Y-107714547D01*
X167170500Y-107642191D01*
X167190185Y-107575152D01*
X167229404Y-107536652D01*
X167232099Y-107534989D01*
X167255850Y-107520340D01*
X167377840Y-107398350D01*
X167468408Y-107251516D01*
X167522674Y-107087753D01*
X167533000Y-106986677D01*
X167532999Y-106413324D01*
X167532203Y-106405536D01*
X167522674Y-106312247D01*
X167496154Y-106232216D01*
X167468408Y-106148484D01*
X167377840Y-106001650D01*
X167255850Y-105879660D01*
X167135678Y-105805537D01*
X167088956Y-105753591D01*
X167077733Y-105684628D01*
X167105577Y-105620546D01*
X167135677Y-105594462D01*
X167255850Y-105520340D01*
X167318119Y-105458071D01*
X167379442Y-105424586D01*
X167449134Y-105429570D01*
X167493481Y-105458071D01*
X167681038Y-105645628D01*
X167714523Y-105706951D01*
X167716678Y-105720347D01*
X167720172Y-105753591D01*
X167734326Y-105888256D01*
X167736292Y-105894309D01*
X167792818Y-106068277D01*
X167792821Y-106068284D01*
X167887467Y-106232216D01*
X167988478Y-106344400D01*
X168014129Y-106372888D01*
X168167265Y-106484148D01*
X168167270Y-106484151D01*
X168340192Y-106561142D01*
X168340197Y-106561144D01*
X168525354Y-106600500D01*
X168525355Y-106600500D01*
X168714644Y-106600500D01*
X168714646Y-106600500D01*
X168899803Y-106561144D01*
X169072730Y-106484151D01*
X169225871Y-106372888D01*
X169352533Y-106232216D01*
X169447179Y-106068284D01*
X169505674Y-105888256D01*
X169525460Y-105700000D01*
X169505674Y-105511744D01*
X169447179Y-105331716D01*
X169352533Y-105167784D01*
X169225871Y-105027112D01*
X169225870Y-105027111D01*
X169072734Y-104915851D01*
X169072729Y-104915848D01*
X168899807Y-104838857D01*
X168899802Y-104838855D01*
X168754001Y-104807865D01*
X168714646Y-104799500D01*
X168714645Y-104799500D01*
X168655452Y-104799500D01*
X168588413Y-104779815D01*
X168567771Y-104763181D01*
X168347129Y-104542539D01*
X168120803Y-104316212D01*
X168110980Y-104303950D01*
X168110759Y-104304134D01*
X168105786Y-104298123D01*
X168089669Y-104282988D01*
X168055364Y-104250773D01*
X168044919Y-104240328D01*
X168034475Y-104229883D01*
X168028986Y-104225625D01*
X168024561Y-104221847D01*
X167992853Y-104192070D01*
X167990580Y-104189936D01*
X167990577Y-104189935D01*
X167973029Y-104180288D01*
X167956763Y-104169604D01*
X167940933Y-104157325D01*
X167898168Y-104138818D01*
X167892922Y-104136248D01*
X167852093Y-104113803D01*
X167852092Y-104113802D01*
X167832693Y-104108822D01*
X167814281Y-104102518D01*
X167795898Y-104094562D01*
X167795892Y-104094560D01*
X167749874Y-104087272D01*
X167744152Y-104086087D01*
X167699021Y-104074500D01*
X167699019Y-104074500D01*
X167678984Y-104074500D01*
X167659586Y-104072973D01*
X167652162Y-104071797D01*
X167639805Y-104069840D01*
X167639804Y-104069840D01*
X167593416Y-104074225D01*
X167587578Y-104074500D01*
X167491981Y-104074500D01*
X167424942Y-104054815D01*
X167386442Y-104015596D01*
X167384031Y-104011688D01*
X167377840Y-104001650D01*
X167255850Y-103879660D01*
X167255849Y-103879659D01*
X167236901Y-103867972D01*
X167216742Y-103855538D01*
X167170018Y-103803592D01*
X167158795Y-103734629D01*
X167186638Y-103670547D01*
X167216741Y-103644462D01*
X167255850Y-103620340D01*
X167377840Y-103498350D01*
X167386442Y-103484404D01*
X167438390Y-103437679D01*
X167491981Y-103425500D01*
X167637257Y-103425500D01*
X167652877Y-103427224D01*
X167652904Y-103426939D01*
X167660660Y-103427671D01*
X167660667Y-103427673D01*
X167729814Y-103425500D01*
X167759350Y-103425500D01*
X167766228Y-103424630D01*
X167772041Y-103424172D01*
X167818627Y-103422709D01*
X167837869Y-103417117D01*
X167856912Y-103413174D01*
X167876792Y-103410664D01*
X167920122Y-103393507D01*
X167925646Y-103391617D01*
X167929396Y-103390527D01*
X167970390Y-103378618D01*
X167987629Y-103368422D01*
X168005103Y-103359862D01*
X168023727Y-103352488D01*
X168023727Y-103352487D01*
X168023732Y-103352486D01*
X168061449Y-103325082D01*
X168066305Y-103321892D01*
X168106420Y-103298170D01*
X168120589Y-103283999D01*
X168135379Y-103271368D01*
X168151587Y-103259594D01*
X168181299Y-103223676D01*
X168185212Y-103219376D01*
X168667771Y-102736819D01*
X168729094Y-102703334D01*
X168755452Y-102700500D01*
X168814644Y-102700500D01*
X168814646Y-102700500D01*
X168999803Y-102661144D01*
X169172730Y-102584151D01*
X169325871Y-102472888D01*
X169452533Y-102332216D01*
X169547179Y-102168284D01*
X169605674Y-101988256D01*
X169625460Y-101800000D01*
X169605674Y-101611744D01*
X169547179Y-101431716D01*
X169452533Y-101267784D01*
X169325871Y-101127112D01*
X169236003Y-101061819D01*
X169172734Y-101015851D01*
X169172729Y-101015848D01*
X168999807Y-100938857D01*
X168999800Y-100938855D01*
X168917161Y-100921290D01*
X168855679Y-100888098D01*
X168821902Y-100826935D01*
X168826554Y-100757221D01*
X168868158Y-100701088D01*
X168917161Y-100678710D01*
X168923201Y-100677426D01*
X168999803Y-100661144D01*
X169172730Y-100584151D01*
X169325871Y-100472888D01*
X169452533Y-100332216D01*
X169547179Y-100168284D01*
X169605674Y-99988256D01*
X169625460Y-99800000D01*
X169605674Y-99611744D01*
X169547179Y-99431716D01*
X169452533Y-99267784D01*
X169325871Y-99127112D01*
X169322963Y-99124999D01*
X169172734Y-99015851D01*
X169172729Y-99015848D01*
X168999807Y-98938857D01*
X168999802Y-98938855D01*
X168854001Y-98907865D01*
X168814646Y-98899500D01*
X168704452Y-98899500D01*
X168637413Y-98879815D01*
X168591658Y-98827011D01*
X168581714Y-98757853D01*
X168610739Y-98694297D01*
X168616771Y-98687819D01*
X168667771Y-98636819D01*
X168729094Y-98603334D01*
X168755452Y-98600500D01*
X168814644Y-98600500D01*
X168814646Y-98600500D01*
X168999803Y-98561144D01*
X169172730Y-98484151D01*
X169325871Y-98372888D01*
X169452533Y-98232216D01*
X169547179Y-98068284D01*
X169605674Y-97888256D01*
X169625460Y-97700000D01*
X169605674Y-97511744D01*
X169547179Y-97331716D01*
X169452533Y-97167784D01*
X169325871Y-97027112D01*
X169325870Y-97027111D01*
X169172734Y-96915851D01*
X169172729Y-96915848D01*
X168999807Y-96838857D01*
X168999802Y-96838855D01*
X168854001Y-96807865D01*
X168814646Y-96799500D01*
X168704453Y-96799500D01*
X168637414Y-96779815D01*
X168591659Y-96727011D01*
X168581715Y-96657853D01*
X168610740Y-96594297D01*
X168616772Y-96587819D01*
X168667772Y-96536819D01*
X168729095Y-96503334D01*
X168755453Y-96500500D01*
X168814644Y-96500500D01*
X168814646Y-96500500D01*
X168999803Y-96461144D01*
X169172730Y-96384151D01*
X169325871Y-96272888D01*
X169452533Y-96132216D01*
X169547179Y-95968284D01*
X169605674Y-95788256D01*
X169625460Y-95600000D01*
X169605674Y-95411744D01*
X169547179Y-95231716D01*
X169452533Y-95067784D01*
X169325871Y-94927112D01*
X169319500Y-94922483D01*
X169172734Y-94815851D01*
X169172729Y-94815848D01*
X168999807Y-94738857D01*
X168999803Y-94738856D01*
X168967159Y-94731917D01*
X168905677Y-94698724D01*
X168871901Y-94637561D01*
X168876555Y-94567846D01*
X168918160Y-94511714D01*
X168967154Y-94489339D01*
X169099803Y-94461144D01*
X169099807Y-94461142D01*
X169099808Y-94461142D01*
X169171060Y-94429418D01*
X169272730Y-94384151D01*
X169425871Y-94272888D01*
X169552533Y-94132216D01*
X169647179Y-93968284D01*
X169705674Y-93788256D01*
X169725460Y-93600000D01*
X169705674Y-93411744D01*
X169647179Y-93231716D01*
X169552533Y-93067784D01*
X169425871Y-92927112D01*
X169392407Y-92902799D01*
X169272734Y-92815851D01*
X169272729Y-92815848D01*
X169099807Y-92738857D01*
X169099802Y-92738855D01*
X168967160Y-92710662D01*
X168905678Y-92677470D01*
X168871902Y-92616307D01*
X168876554Y-92546592D01*
X168918159Y-92490460D01*
X168967157Y-92468082D01*
X168999803Y-92461144D01*
X169172730Y-92384151D01*
X169325871Y-92272888D01*
X169452533Y-92132216D01*
X169547179Y-91968284D01*
X169605674Y-91788256D01*
X169625460Y-91600000D01*
X169605674Y-91411744D01*
X169547179Y-91231716D01*
X169452533Y-91067784D01*
X169325871Y-90927112D01*
X169325870Y-90927111D01*
X169172734Y-90815851D01*
X169172729Y-90815848D01*
X168999807Y-90738857D01*
X168999802Y-90738855D01*
X168854001Y-90707865D01*
X168814646Y-90699500D01*
X168804453Y-90699500D01*
X168737414Y-90679815D01*
X168691659Y-90627011D01*
X168681715Y-90557853D01*
X168710740Y-90494297D01*
X168716773Y-90487818D01*
X168767774Y-90436818D01*
X168829097Y-90403334D01*
X168855454Y-90400500D01*
X168914644Y-90400500D01*
X168914646Y-90400500D01*
X169099803Y-90361144D01*
X169272730Y-90284151D01*
X169425871Y-90172888D01*
X169552533Y-90032216D01*
X169647179Y-89868284D01*
X169705674Y-89688256D01*
X169725460Y-89500000D01*
X169705674Y-89311744D01*
X169647179Y-89131716D01*
X169552533Y-88967784D01*
X169425871Y-88827112D01*
X169425870Y-88827111D01*
X169272734Y-88715851D01*
X169272729Y-88715848D01*
X169099807Y-88638857D01*
X169099802Y-88638855D01*
X168954001Y-88607865D01*
X168914646Y-88599500D01*
X168725354Y-88599500D01*
X168692897Y-88606398D01*
X168540197Y-88638855D01*
X168540192Y-88638857D01*
X168367270Y-88715848D01*
X168367265Y-88715851D01*
X168214129Y-88827111D01*
X168087466Y-88967785D01*
X167992821Y-89131715D01*
X167992818Y-89131722D01*
X167935535Y-89308022D01*
X167934326Y-89311744D01*
X167919408Y-89453686D01*
X167916679Y-89479650D01*
X167890094Y-89544264D01*
X167881039Y-89554369D01*
X167555980Y-89879428D01*
X167494657Y-89912913D01*
X167424965Y-89907929D01*
X167380618Y-89879428D01*
X167280851Y-89779661D01*
X167280850Y-89779660D01*
X167134016Y-89689092D01*
X166970253Y-89634826D01*
X166970251Y-89634825D01*
X166869178Y-89624500D01*
X166270830Y-89624500D01*
X166270812Y-89624501D01*
X166169747Y-89634825D01*
X166005984Y-89689092D01*
X166005981Y-89689093D01*
X165859148Y-89779661D01*
X165745181Y-89893629D01*
X165683858Y-89927114D01*
X165614166Y-89922130D01*
X165569819Y-89893629D01*
X165455851Y-89779661D01*
X165455850Y-89779660D01*
X165309016Y-89689092D01*
X165145253Y-89634826D01*
X165145251Y-89634825D01*
X165044178Y-89624500D01*
X164445830Y-89624500D01*
X164445809Y-89624502D01*
X164377485Y-89631481D01*
X164308793Y-89618711D01*
X164260702Y-89575367D01*
X164242875Y-89547747D01*
X164198093Y-89496270D01*
X164197013Y-89495028D01*
X164149114Y-89453686D01*
X164088104Y-89401028D01*
X164088102Y-89401027D01*
X164088101Y-89401026D01*
X163957107Y-89341509D01*
X163934011Y-89334776D01*
X163890029Y-89321954D01*
X163890024Y-89321953D01*
X163890023Y-89321953D01*
X163865247Y-89318440D01*
X163747572Y-89301755D01*
X163747567Y-89301755D01*
X160544513Y-89308021D01*
X157669007Y-89308021D01*
X157668998Y-89308021D01*
X157668997Y-89308022D01*
X157561556Y-89319573D01*
X157561544Y-89319575D01*
X157510034Y-89330781D01*
X157407509Y-89364904D01*
X157407503Y-89364907D01*
X157286469Y-89442692D01*
X157286458Y-89442700D01*
X157233666Y-89488444D01*
X157139440Y-89597185D01*
X157139437Y-89597189D01*
X157079671Y-89728055D01*
X157059985Y-89795096D01*
X157059983Y-89795101D01*
X157039507Y-89937522D01*
X157039507Y-104475500D01*
X157019822Y-104542539D01*
X156967018Y-104588294D01*
X156915507Y-104599500D01*
X156272129Y-104599500D01*
X156272123Y-104599501D01*
X156212516Y-104605908D01*
X156077671Y-104656202D01*
X156077664Y-104656206D01*
X155962455Y-104742452D01*
X155962452Y-104742455D01*
X155876206Y-104857664D01*
X155876202Y-104857671D01*
X155825908Y-104992517D01*
X155819501Y-105052116D01*
X155819500Y-105052135D01*
X155819500Y-106547870D01*
X155819501Y-106547876D01*
X155825908Y-106607483D01*
X155876202Y-106742328D01*
X155876203Y-106742330D01*
X155947471Y-106837531D01*
X155971888Y-106902995D01*
X155957037Y-106971268D01*
X155935885Y-106999523D01*
X155506681Y-107428728D01*
X155445358Y-107462213D01*
X155375667Y-107457229D01*
X155319733Y-107415358D01*
X155295316Y-107349893D01*
X155295000Y-107341047D01*
X155295000Y-107325000D01*
X153345001Y-107325000D01*
X153345001Y-107374154D01*
X153355319Y-107475152D01*
X153409546Y-107638800D01*
X153409551Y-107638811D01*
X153500052Y-107785534D01*
X153500055Y-107785538D01*
X153613982Y-107899465D01*
X153647467Y-107960788D01*
X153642483Y-108030480D01*
X153613983Y-108074827D01*
X153499659Y-108189151D01*
X153409093Y-108335981D01*
X153409091Y-108335986D01*
X153383084Y-108414471D01*
X153354826Y-108499747D01*
X153354826Y-108499748D01*
X153354825Y-108499748D01*
X153344500Y-108600815D01*
X153344500Y-109199169D01*
X153344501Y-109199187D01*
X153354825Y-109300252D01*
X153409092Y-109464015D01*
X153409093Y-109464018D01*
X153443395Y-109519629D01*
X153499660Y-109610850D01*
X153621650Y-109732840D01*
X153633920Y-109740408D01*
X153635596Y-109741442D01*
X153682321Y-109793390D01*
X153694500Y-109846981D01*
X153694500Y-110265547D01*
X153674815Y-110332586D01*
X153622011Y-110378341D01*
X153552853Y-110388285D01*
X153489297Y-110359260D01*
X153482819Y-110353228D01*
X149954591Y-106825000D01*
X153345000Y-106825000D01*
X154070000Y-106825000D01*
X154070000Y-106087500D01*
X154570000Y-106087500D01*
X154570000Y-106825000D01*
X155294999Y-106825000D01*
X155294999Y-106775860D01*
X155294998Y-106775845D01*
X155284680Y-106674847D01*
X155230453Y-106511199D01*
X155230448Y-106511188D01*
X155139947Y-106364465D01*
X155139944Y-106364461D01*
X155018038Y-106242555D01*
X155018034Y-106242552D01*
X154871311Y-106152051D01*
X154871300Y-106152046D01*
X154707652Y-106097819D01*
X154606654Y-106087500D01*
X154570000Y-106087500D01*
X154070000Y-106087500D01*
X154033361Y-106087500D01*
X154033343Y-106087501D01*
X153932347Y-106097819D01*
X153768699Y-106152046D01*
X153768688Y-106152051D01*
X153621965Y-106242552D01*
X153621961Y-106242555D01*
X153500055Y-106364461D01*
X153500052Y-106364465D01*
X153409551Y-106511188D01*
X153409546Y-106511199D01*
X153355319Y-106674847D01*
X153345000Y-106775845D01*
X153345000Y-106825000D01*
X149954591Y-106825000D01*
X142629591Y-99500000D01*
X149814659Y-99500000D01*
X149833975Y-99696129D01*
X149833976Y-99696132D01*
X149884325Y-99862111D01*
X149891188Y-99884733D01*
X149984086Y-100058532D01*
X149984090Y-100058539D01*
X150109116Y-100210883D01*
X150261460Y-100335909D01*
X150261467Y-100335913D01*
X150310512Y-100362128D01*
X150435273Y-100428814D01*
X150465937Y-100438116D01*
X150469436Y-100439294D01*
X150471796Y-100440168D01*
X150471799Y-100440170D01*
X150478005Y-100441776D01*
X150623868Y-100486024D01*
X150654662Y-100489056D01*
X150661911Y-100490344D01*
X150661955Y-100490063D01*
X150668175Y-100491015D01*
X150668182Y-100491017D01*
X150679880Y-100491610D01*
X150682782Y-100491826D01*
X150820000Y-100505341D01*
X150855203Y-100501873D01*
X150864500Y-100501653D01*
X150864498Y-100501610D01*
X150870768Y-100501291D01*
X150870780Y-100501292D01*
X150886580Y-100498871D01*
X150889831Y-100498463D01*
X151016132Y-100486024D01*
X151054291Y-100474448D01*
X151070827Y-100470694D01*
X151071296Y-100470573D01*
X151071299Y-100470573D01*
X151088704Y-100464127D01*
X151092227Y-100462940D01*
X151204727Y-100428814D01*
X151247647Y-100405872D01*
X151255331Y-100402415D01*
X151261530Y-100400120D01*
X151278615Y-100389470D01*
X151282088Y-100387463D01*
X151378538Y-100335910D01*
X151419627Y-100302188D01*
X151426142Y-100297515D01*
X151433684Y-100292815D01*
X151448726Y-100278516D01*
X151452034Y-100275592D01*
X151530883Y-100210883D01*
X151567511Y-100166251D01*
X151572696Y-100160674D01*
X151580715Y-100153052D01*
X151592568Y-100136021D01*
X151595484Y-100132165D01*
X151655910Y-100058538D01*
X151685356Y-100003446D01*
X151689125Y-99997293D01*
X151696601Y-99986553D01*
X151704578Y-99967963D01*
X151706862Y-99963213D01*
X151748814Y-99884727D01*
X151768361Y-99820288D01*
X151770696Y-99813892D01*
X151776600Y-99800135D01*
X151780497Y-99781170D01*
X151781881Y-99775719D01*
X151806024Y-99696132D01*
X151813116Y-99624121D01*
X151814082Y-99617740D01*
X151817435Y-99601429D01*
X151818098Y-99575196D01*
X151818373Y-99570741D01*
X151825341Y-99500000D01*
X151818373Y-99429261D01*
X151818098Y-99424800D01*
X151817435Y-99398571D01*
X151814081Y-99382253D01*
X151813116Y-99375881D01*
X151806024Y-99303868D01*
X151781888Y-99224305D01*
X151780492Y-99218804D01*
X151776600Y-99199865D01*
X151770702Y-99186121D01*
X151768354Y-99179687D01*
X151751765Y-99125000D01*
X151748815Y-99115275D01*
X151706871Y-99036803D01*
X151704577Y-99032035D01*
X151696601Y-99013447D01*
X151689135Y-99002721D01*
X151685347Y-98996535D01*
X151655910Y-98941462D01*
X151655908Y-98941460D01*
X151655908Y-98941459D01*
X151621472Y-98899500D01*
X151595498Y-98867850D01*
X151592561Y-98863969D01*
X151580715Y-98846948D01*
X151572711Y-98839339D01*
X151567497Y-98833731D01*
X151530883Y-98789116D01*
X151452085Y-98724448D01*
X151448703Y-98721460D01*
X151433686Y-98707187D01*
X151433684Y-98707185D01*
X151426145Y-98702486D01*
X151419606Y-98697794D01*
X151378540Y-98664091D01*
X151378532Y-98664086D01*
X151313705Y-98629436D01*
X151282130Y-98612558D01*
X151278570Y-98610501D01*
X151261535Y-98599883D01*
X151261534Y-98599882D01*
X151261530Y-98599880D01*
X151261526Y-98599878D01*
X151261523Y-98599877D01*
X151255335Y-98597585D01*
X151247635Y-98594120D01*
X151204728Y-98571186D01*
X151092253Y-98537066D01*
X151088721Y-98535878D01*
X151071300Y-98529427D01*
X151070854Y-98529312D01*
X151054276Y-98525547D01*
X151054121Y-98525500D01*
X151016132Y-98513976D01*
X151016130Y-98513975D01*
X151016132Y-98513975D01*
X150889849Y-98501537D01*
X150886541Y-98501122D01*
X150870784Y-98498708D01*
X150864504Y-98498390D01*
X150864506Y-98498347D01*
X150855205Y-98498125D01*
X150820003Y-98494659D01*
X150819999Y-98494659D01*
X150682793Y-98508171D01*
X150679860Y-98508390D01*
X150668185Y-98508982D01*
X150661974Y-98509934D01*
X150661931Y-98509654D01*
X150654679Y-98510941D01*
X150623869Y-98513975D01*
X150478009Y-98558221D01*
X150471793Y-98559831D01*
X150469430Y-98560706D01*
X150465903Y-98561893D01*
X150435270Y-98571186D01*
X150261467Y-98664086D01*
X150261460Y-98664090D01*
X150109116Y-98789116D01*
X149984090Y-98941460D01*
X149984086Y-98941467D01*
X149891188Y-99115266D01*
X149833975Y-99303870D01*
X149814659Y-99500000D01*
X142629591Y-99500000D01*
X141679591Y-98550000D01*
X144470000Y-98550000D01*
X144470000Y-98672844D01*
X144476401Y-98732372D01*
X144476403Y-98732379D01*
X144526645Y-98867086D01*
X144526649Y-98867093D01*
X144612809Y-98982187D01*
X144612812Y-98982190D01*
X144727906Y-99068350D01*
X144727913Y-99068354D01*
X144862620Y-99118596D01*
X144862627Y-99118598D01*
X144922155Y-99124999D01*
X144922172Y-99125000D01*
X145570000Y-99125000D01*
X145570000Y-98550000D01*
X146070000Y-98550000D01*
X146070000Y-99125000D01*
X146717828Y-99125000D01*
X146717844Y-99124999D01*
X146777372Y-99118598D01*
X146777379Y-99118596D01*
X146912086Y-99068354D01*
X146912093Y-99068350D01*
X147027187Y-98982190D01*
X147027190Y-98982187D01*
X147113350Y-98867093D01*
X147113354Y-98867086D01*
X147163596Y-98732379D01*
X147163598Y-98732372D01*
X147169999Y-98672844D01*
X147170000Y-98672827D01*
X147170000Y-98550000D01*
X146070000Y-98550000D01*
X145570000Y-98550000D01*
X144470000Y-98550000D01*
X141679591Y-98550000D01*
X139906818Y-96777227D01*
X139873333Y-96715904D01*
X139870499Y-96689546D01*
X139870499Y-96657129D01*
X139870498Y-96657123D01*
X139870344Y-96655691D01*
X139864091Y-96597517D01*
X139857191Y-96579016D01*
X139813797Y-96462670D01*
X139809547Y-96454888D01*
X139812757Y-96453134D01*
X139794361Y-96404001D01*
X139809127Y-96335709D01*
X139809752Y-96334736D01*
X139813791Y-96327336D01*
X139813796Y-96327331D01*
X139863004Y-96195395D01*
X139874490Y-96172288D01*
X139877318Y-96167829D01*
X139877324Y-96167823D01*
X139944614Y-96024826D01*
X139974227Y-95869588D01*
X139964304Y-95711862D01*
X139915467Y-95561559D01*
X139889801Y-95521116D01*
X139870499Y-95454675D01*
X139870499Y-95387129D01*
X139870498Y-95387123D01*
X139869612Y-95378882D01*
X139864667Y-95332872D01*
X139863579Y-95322753D01*
X139875986Y-95253994D01*
X139923597Y-95202857D01*
X139986869Y-95185500D01*
X140447257Y-95185500D01*
X140462877Y-95187224D01*
X140462904Y-95186939D01*
X140470660Y-95187671D01*
X140470667Y-95187673D01*
X140539814Y-95185500D01*
X140569350Y-95185500D01*
X140576228Y-95184630D01*
X140582041Y-95184172D01*
X140628627Y-95182709D01*
X140647869Y-95177117D01*
X140666912Y-95173174D01*
X140686792Y-95170664D01*
X140730122Y-95153507D01*
X140735646Y-95151617D01*
X140739396Y-95150527D01*
X140780390Y-95138618D01*
X140797629Y-95128422D01*
X140815103Y-95119862D01*
X140833727Y-95112488D01*
X140833727Y-95112487D01*
X140833732Y-95112486D01*
X140871449Y-95085082D01*
X140876305Y-95081892D01*
X140916420Y-95058170D01*
X140930589Y-95043999D01*
X140945379Y-95031368D01*
X140961587Y-95019594D01*
X140991299Y-94983676D01*
X140995212Y-94979376D01*
X143512772Y-92461819D01*
X143574095Y-92428334D01*
X143600453Y-92425500D01*
X143673019Y-92425500D01*
X143740058Y-92445185D01*
X143778558Y-92484404D01*
X143787160Y-92498350D01*
X143909150Y-92620340D01*
X144055984Y-92710908D01*
X144219747Y-92765174D01*
X144320823Y-92775500D01*
X144560546Y-92775499D01*
X144627585Y-92795183D01*
X144673340Y-92847987D01*
X144683284Y-92917146D01*
X144654259Y-92980701D01*
X144648227Y-92987180D01*
X143936208Y-93699199D01*
X143923951Y-93709020D01*
X143924134Y-93709241D01*
X143918123Y-93714213D01*
X143870772Y-93764636D01*
X143849889Y-93785519D01*
X143849877Y-93785532D01*
X143845621Y-93791017D01*
X143841837Y-93795447D01*
X143809937Y-93829418D01*
X143809936Y-93829420D01*
X143800284Y-93846976D01*
X143789610Y-93863226D01*
X143777329Y-93879061D01*
X143777324Y-93879068D01*
X143758815Y-93921838D01*
X143756245Y-93927084D01*
X143733803Y-93967906D01*
X143728822Y-93987307D01*
X143722521Y-94005710D01*
X143714562Y-94024102D01*
X143714561Y-94024105D01*
X143707271Y-94070127D01*
X143706087Y-94075846D01*
X143694501Y-94120972D01*
X143694500Y-94120982D01*
X143694500Y-94141016D01*
X143692973Y-94160415D01*
X143689840Y-94180194D01*
X143689840Y-94180195D01*
X143694225Y-94226583D01*
X143694500Y-94232421D01*
X143694500Y-95317255D01*
X143692775Y-95332872D01*
X143693061Y-95332899D01*
X143692326Y-95340665D01*
X143694500Y-95409814D01*
X143694500Y-95439343D01*
X143694501Y-95439360D01*
X143695368Y-95446231D01*
X143695826Y-95452050D01*
X143697290Y-95498624D01*
X143697291Y-95498627D01*
X143702880Y-95517867D01*
X143706824Y-95536911D01*
X143709336Y-95556792D01*
X143725336Y-95597204D01*
X143726490Y-95600119D01*
X143728382Y-95605647D01*
X143739601Y-95644263D01*
X143741382Y-95650390D01*
X143749086Y-95663418D01*
X143751580Y-95667634D01*
X143760136Y-95685100D01*
X143767514Y-95703732D01*
X143794898Y-95741423D01*
X143798106Y-95746307D01*
X143821827Y-95786416D01*
X143821833Y-95786424D01*
X143835990Y-95800580D01*
X143848628Y-95815376D01*
X143860405Y-95831586D01*
X143860406Y-95831587D01*
X143896309Y-95861288D01*
X143900620Y-95865210D01*
X144077731Y-96042321D01*
X144249194Y-96213784D01*
X144259017Y-96226045D01*
X144259239Y-96225863D01*
X144264212Y-96231875D01*
X144314636Y-96279227D01*
X144335523Y-96300115D01*
X144335527Y-96300118D01*
X144335529Y-96300120D01*
X144341011Y-96304373D01*
X144345443Y-96308157D01*
X144379418Y-96340062D01*
X144396976Y-96349714D01*
X144413233Y-96360393D01*
X144429064Y-96372673D01*
X144433123Y-96374429D01*
X144433510Y-96374597D01*
X144487218Y-96419287D01*
X144508238Y-96485920D01*
X144500445Y-96531731D01*
X144475910Y-96597513D01*
X144475909Y-96597517D01*
X144469500Y-96657127D01*
X144469500Y-96657134D01*
X144469500Y-96657135D01*
X144469500Y-97402870D01*
X144469501Y-97402876D01*
X144475908Y-97462483D01*
X144526202Y-97597327D01*
X144530452Y-97605109D01*
X144527394Y-97606778D01*
X144545963Y-97656594D01*
X144531098Y-97724864D01*
X144530717Y-97725457D01*
X144526645Y-97732913D01*
X144476403Y-97867620D01*
X144476401Y-97867627D01*
X144470000Y-97927155D01*
X144470000Y-98050000D01*
X147170000Y-98050000D01*
X147170000Y-97927172D01*
X147169999Y-97927155D01*
X147163075Y-97862756D01*
X147175480Y-97793996D01*
X147223090Y-97742859D01*
X147286364Y-97725500D01*
X147532770Y-97725500D01*
X147599809Y-97745185D01*
X147620451Y-97761819D01*
X147701344Y-97842712D01*
X147850666Y-97934814D01*
X148017203Y-97989999D01*
X148119991Y-98000500D01*
X148720008Y-98000499D01*
X148720016Y-98000498D01*
X148720019Y-98000498D01*
X148776302Y-97994748D01*
X148822797Y-97989999D01*
X148989334Y-97934814D01*
X149138656Y-97842712D01*
X149262712Y-97718656D01*
X149354814Y-97569334D01*
X149409999Y-97402797D01*
X149420500Y-97300009D01*
X149420499Y-95699992D01*
X149418051Y-95676032D01*
X149409999Y-95597203D01*
X149409998Y-95597200D01*
X149402807Y-95575499D01*
X149354814Y-95430666D01*
X149320229Y-95374595D01*
X149301790Y-95307204D01*
X149322713Y-95240541D01*
X149376355Y-95195771D01*
X149425769Y-95185500D01*
X149969548Y-95185500D01*
X150036587Y-95205185D01*
X150057229Y-95221819D01*
X152358181Y-97522771D01*
X152391666Y-97584094D01*
X152394500Y-97610452D01*
X152394500Y-102701312D01*
X152374815Y-102768351D01*
X152362650Y-102784284D01*
X152287466Y-102867784D01*
X152192821Y-103031715D01*
X152192818Y-103031722D01*
X152146492Y-103174300D01*
X152134326Y-103211744D01*
X152114540Y-103400000D01*
X152134326Y-103588256D01*
X152134327Y-103588259D01*
X152192818Y-103768277D01*
X152192821Y-103768284D01*
X152287467Y-103932216D01*
X152359024Y-104011688D01*
X152414129Y-104072888D01*
X152567265Y-104184148D01*
X152567270Y-104184151D01*
X152740192Y-104261142D01*
X152740197Y-104261144D01*
X152925354Y-104300500D01*
X152925355Y-104300500D01*
X153114644Y-104300500D01*
X153114646Y-104300500D01*
X153299803Y-104261144D01*
X153472730Y-104184151D01*
X153625871Y-104072888D01*
X153752533Y-103932216D01*
X153847179Y-103768284D01*
X153905674Y-103588256D01*
X153925460Y-103400000D01*
X153905674Y-103211744D01*
X153847179Y-103031716D01*
X153752533Y-102867784D01*
X153716182Y-102827412D01*
X153677350Y-102784284D01*
X153647120Y-102721292D01*
X153645500Y-102701312D01*
X153645500Y-97382738D01*
X153647224Y-97367124D01*
X153646938Y-97367097D01*
X153647672Y-97359334D01*
X153645500Y-97290203D01*
X153645500Y-97260651D01*
X153645500Y-97260650D01*
X153644629Y-97253759D01*
X153644172Y-97247945D01*
X153642709Y-97201372D01*
X153637122Y-97182144D01*
X153633174Y-97163084D01*
X153630664Y-97143208D01*
X153613507Y-97099875D01*
X153611619Y-97094359D01*
X153598619Y-97049612D01*
X153588418Y-97032363D01*
X153579860Y-97014894D01*
X153572486Y-96996268D01*
X153572483Y-96996264D01*
X153572483Y-96996263D01*
X153545098Y-96958571D01*
X153541890Y-96953687D01*
X153518172Y-96913582D01*
X153518163Y-96913571D01*
X153504005Y-96899413D01*
X153491370Y-96884620D01*
X153479593Y-96868412D01*
X153443693Y-96838713D01*
X153439381Y-96834790D01*
X150780803Y-94176212D01*
X150770980Y-94163950D01*
X150770759Y-94164134D01*
X150765786Y-94158123D01*
X150726235Y-94120982D01*
X150715364Y-94110773D01*
X150703681Y-94099090D01*
X150694475Y-94089883D01*
X150688986Y-94085625D01*
X150684561Y-94081847D01*
X150650582Y-94049938D01*
X150650580Y-94049936D01*
X150650577Y-94049935D01*
X150633029Y-94040288D01*
X150616763Y-94029604D01*
X150609674Y-94024105D01*
X150600936Y-94017327D01*
X150600935Y-94017326D01*
X150600933Y-94017325D01*
X150558168Y-93998818D01*
X150552922Y-93996248D01*
X150512093Y-93973803D01*
X150512092Y-93973802D01*
X150492693Y-93968822D01*
X150474281Y-93962518D01*
X150455898Y-93954562D01*
X150455892Y-93954560D01*
X150409874Y-93947272D01*
X150404152Y-93946087D01*
X150359021Y-93934500D01*
X150359019Y-93934500D01*
X150338984Y-93934500D01*
X150319586Y-93932973D01*
X150311333Y-93931666D01*
X150299805Y-93929840D01*
X150299804Y-93929840D01*
X150253416Y-93934225D01*
X150247578Y-93934500D01*
X147194500Y-93934500D01*
X147127461Y-93914815D01*
X147081706Y-93862011D01*
X147070500Y-93810500D01*
X147070500Y-92742191D01*
X147090185Y-92675152D01*
X147129404Y-92636652D01*
X147137408Y-92631715D01*
X147155850Y-92620340D01*
X147277840Y-92498350D01*
X147368408Y-92351516D01*
X147422674Y-92187753D01*
X147433000Y-92086677D01*
X147432999Y-91513324D01*
X147430548Y-91489334D01*
X147422674Y-91412247D01*
X147411510Y-91378557D01*
X147368408Y-91248484D01*
X147277840Y-91101650D01*
X147155850Y-90979660D01*
X147009016Y-90889092D01*
X146845253Y-90834826D01*
X146845251Y-90834825D01*
X146744184Y-90824500D01*
X146269500Y-90824500D01*
X146202461Y-90804815D01*
X146156706Y-90752011D01*
X146145500Y-90700500D01*
X146145500Y-89882742D01*
X146147224Y-89867122D01*
X146146939Y-89867095D01*
X146147673Y-89859333D01*
X146145500Y-89790172D01*
X146145500Y-89760656D01*
X146145500Y-89760650D01*
X146144631Y-89753779D01*
X146144173Y-89747952D01*
X146143548Y-89728055D01*
X146142710Y-89701373D01*
X146137119Y-89682130D01*
X146133173Y-89663078D01*
X146130664Y-89643208D01*
X146113504Y-89599867D01*
X146111624Y-89594379D01*
X146098618Y-89549610D01*
X146097516Y-89547747D01*
X146088423Y-89532371D01*
X146079861Y-89514894D01*
X146072487Y-89496270D01*
X146071585Y-89495028D01*
X146045079Y-89458545D01*
X146041888Y-89453686D01*
X146035386Y-89442692D01*
X146018170Y-89413580D01*
X146018168Y-89413578D01*
X146018165Y-89413574D01*
X146004006Y-89399415D01*
X145991368Y-89384619D01*
X145979594Y-89368413D01*
X145975357Y-89364908D01*
X145943688Y-89338709D01*
X145939376Y-89334786D01*
X142220803Y-85616212D01*
X142210980Y-85603950D01*
X142210759Y-85604134D01*
X142205786Y-85598123D01*
X142187159Y-85580631D01*
X142155364Y-85550773D01*
X142144919Y-85540328D01*
X142134475Y-85529883D01*
X142128986Y-85525625D01*
X142124561Y-85521847D01*
X142090582Y-85489938D01*
X142090580Y-85489936D01*
X142090577Y-85489935D01*
X142073029Y-85480288D01*
X142056763Y-85469604D01*
X142040933Y-85457325D01*
X141998168Y-85438818D01*
X141992922Y-85436248D01*
X141952093Y-85413803D01*
X141952092Y-85413802D01*
X141932693Y-85408822D01*
X141914281Y-85402518D01*
X141895898Y-85394562D01*
X141895892Y-85394560D01*
X141849874Y-85387272D01*
X141844152Y-85386087D01*
X141799021Y-85374500D01*
X141799019Y-85374500D01*
X141778984Y-85374500D01*
X141759586Y-85372973D01*
X141752162Y-85371797D01*
X141739805Y-85369840D01*
X141739804Y-85369840D01*
X141693416Y-85374225D01*
X141687578Y-85374500D01*
X131902737Y-85374500D01*
X131887120Y-85372776D01*
X131887093Y-85373062D01*
X131879331Y-85372327D01*
X131810203Y-85374500D01*
X131780650Y-85374500D01*
X131779929Y-85374590D01*
X131773757Y-85375369D01*
X131767945Y-85375826D01*
X131721372Y-85377290D01*
X131721369Y-85377291D01*
X131702126Y-85382881D01*
X131683083Y-85386825D01*
X131663204Y-85389336D01*
X131663203Y-85389337D01*
X131619878Y-85406490D01*
X131614352Y-85408382D01*
X131569608Y-85421383D01*
X131569604Y-85421385D01*
X131552365Y-85431580D01*
X131534898Y-85440137D01*
X131516269Y-85447512D01*
X131516267Y-85447513D01*
X131478564Y-85474906D01*
X131473682Y-85478112D01*
X131433580Y-85501828D01*
X131419408Y-85516000D01*
X131404623Y-85528628D01*
X131388412Y-85540407D01*
X131358709Y-85576310D01*
X131354777Y-85580631D01*
X129336208Y-87599199D01*
X129323951Y-87609020D01*
X129324134Y-87609241D01*
X129318123Y-87614213D01*
X129270772Y-87664636D01*
X129249889Y-87685519D01*
X129249877Y-87685532D01*
X129245621Y-87691017D01*
X129241837Y-87695447D01*
X129209937Y-87729418D01*
X129209936Y-87729420D01*
X129200284Y-87746976D01*
X129189610Y-87763226D01*
X129177329Y-87779061D01*
X129177324Y-87779068D01*
X129158815Y-87821838D01*
X129156245Y-87827084D01*
X129133803Y-87867906D01*
X129128822Y-87887307D01*
X129122521Y-87905710D01*
X129114562Y-87924102D01*
X129114561Y-87924105D01*
X129107271Y-87970127D01*
X129106087Y-87975846D01*
X129094501Y-88020972D01*
X129094500Y-88020982D01*
X129094500Y-88041016D01*
X129092973Y-88060415D01*
X129089840Y-88080194D01*
X129089840Y-88080195D01*
X129094225Y-88126583D01*
X129094500Y-88132421D01*
X129094500Y-92950500D01*
X129074815Y-93017539D01*
X129022011Y-93063294D01*
X128970500Y-93074500D01*
X125402743Y-93074500D01*
X125387122Y-93072775D01*
X125387096Y-93073061D01*
X125379334Y-93072327D01*
X125379333Y-93072327D01*
X125310186Y-93074500D01*
X125280649Y-93074500D01*
X125273766Y-93075369D01*
X125267949Y-93075826D01*
X125221373Y-93077290D01*
X125202129Y-93082881D01*
X125183079Y-93086825D01*
X125163211Y-93089334D01*
X125119884Y-93106488D01*
X125114358Y-93108379D01*
X125069614Y-93121379D01*
X125069610Y-93121381D01*
X125052366Y-93131579D01*
X125034905Y-93140133D01*
X125016274Y-93147510D01*
X125016262Y-93147517D01*
X124978570Y-93174902D01*
X124973687Y-93178109D01*
X124933580Y-93201829D01*
X124919414Y-93215995D01*
X124904624Y-93228627D01*
X124888414Y-93240404D01*
X124888411Y-93240407D01*
X124858710Y-93276309D01*
X124854777Y-93280631D01*
X123836208Y-94299199D01*
X123823951Y-94309020D01*
X123824134Y-94309241D01*
X123818123Y-94314213D01*
X123770772Y-94364636D01*
X123749889Y-94385519D01*
X123749877Y-94385532D01*
X123745621Y-94391017D01*
X123741837Y-94395447D01*
X123709937Y-94429418D01*
X123709936Y-94429420D01*
X123700284Y-94446976D01*
X123689610Y-94463226D01*
X123677329Y-94479061D01*
X123677324Y-94479068D01*
X123658815Y-94521838D01*
X123656245Y-94527084D01*
X123633803Y-94567906D01*
X123628822Y-94587307D01*
X123622521Y-94605710D01*
X123614562Y-94624102D01*
X123614561Y-94624105D01*
X123607271Y-94670127D01*
X123606087Y-94675846D01*
X123594501Y-94720972D01*
X123594500Y-94720982D01*
X123594500Y-94741016D01*
X123592973Y-94760415D01*
X123589840Y-94780194D01*
X123589840Y-94780195D01*
X122720500Y-94780195D01*
X122720500Y-76324500D01*
X122740185Y-76257461D01*
X122792989Y-76211706D01*
X122844500Y-76200500D01*
X156271125Y-76200500D01*
X156338164Y-76220185D01*
G37*
G04 #@! TD.AperFunction*
M02*
