G04 #@! TF.GenerationSoftware,KiCad,Pcbnew,7.0.9*
G04 #@! TF.CreationDate,2023-11-26T00:11:53+01:00*
G04 #@! TF.ProjectId,v1,76312e6b-6963-4616-945f-706362585858,rev?*
G04 #@! TF.SameCoordinates,Original*
G04 #@! TF.FileFunction,Copper,L1,Top*
G04 #@! TF.FilePolarity,Positive*
%FSLAX46Y46*%
G04 Gerber Fmt 4.6, Leading zero omitted, Abs format (unit mm)*
G04 Created by KiCad (PCBNEW 7.0.9) date 2023-11-26 00:11:53*
%MOMM*%
%LPD*%
G01*
G04 APERTURE LIST*
G04 Aperture macros list*
%AMRoundRect*
0 Rectangle with rounded corners*
0 $1 Rounding radius*
0 $2 $3 $4 $5 $6 $7 $8 $9 X,Y pos of 4 corners*
0 Add a 4 corners polygon primitive as box body*
4,1,4,$2,$3,$4,$5,$6,$7,$8,$9,$2,$3,0*
0 Add four circle primitives for the rounded corners*
1,1,$1+$1,$2,$3*
1,1,$1+$1,$4,$5*
1,1,$1+$1,$6,$7*
1,1,$1+$1,$8,$9*
0 Add four rect primitives between the rounded corners*
20,1,$1+$1,$2,$3,$4,$5,0*
20,1,$1+$1,$4,$5,$6,$7,0*
20,1,$1+$1,$6,$7,$8,$9,0*
20,1,$1+$1,$8,$9,$2,$3,0*%
G04 Aperture macros list end*
G04 #@! TA.AperFunction,ComponentPad*
%ADD10R,0.850000X0.850000*%
G04 #@! TD*
G04 #@! TA.AperFunction,ComponentPad*
%ADD11O,0.850000X0.850000*%
G04 #@! TD*
G04 #@! TA.AperFunction,SMDPad,CuDef*
%ADD12RoundRect,0.250001X-0.624999X0.462499X-0.624999X-0.462499X0.624999X-0.462499X0.624999X0.462499X0*%
G04 #@! TD*
G04 #@! TA.AperFunction,SMDPad,CuDef*
%ADD13RoundRect,0.250001X0.624999X-0.462499X0.624999X0.462499X-0.624999X0.462499X-0.624999X-0.462499X0*%
G04 #@! TD*
G04 #@! TA.AperFunction,ComponentPad*
%ADD14O,1.400000X0.800000*%
G04 #@! TD*
G04 #@! TA.AperFunction,ViaPad*
%ADD15C,0.800000*%
G04 #@! TD*
G04 #@! TA.AperFunction,Conductor*
%ADD16C,0.250000*%
G04 #@! TD*
G04 APERTURE END LIST*
D10*
X153320000Y-115400000D03*
D11*
X154320000Y-115400000D03*
X155320000Y-115400000D03*
X156320000Y-115400000D03*
X157320000Y-115400000D03*
D12*
X125000000Y-78512500D03*
X125000000Y-81487500D03*
D13*
X125520000Y-123575000D03*
X125520000Y-120600000D03*
X124920000Y-102800000D03*
X124920000Y-99825000D03*
D12*
X147720000Y-78512500D03*
X147720000Y-81487500D03*
D13*
X170320000Y-102800000D03*
X170320000Y-99825000D03*
X147720000Y-102800000D03*
X147720000Y-99825000D03*
D12*
X170320000Y-78512500D03*
X170320000Y-81487500D03*
D13*
X147720000Y-123500000D03*
X147720000Y-120525000D03*
X170320000Y-123500000D03*
X170320000Y-120525000D03*
D14*
X121420000Y-105800000D03*
X127370000Y-105440000D03*
X127370000Y-97180000D03*
X121420000Y-96820000D03*
D15*
X152520000Y-111400000D03*
X168720000Y-101800000D03*
X168820000Y-89500000D03*
X168820000Y-93600000D03*
X168720000Y-95600000D03*
X168720000Y-97700000D03*
X168720000Y-99800000D03*
X159620000Y-109500000D03*
X156120000Y-109400000D03*
X157820000Y-110100000D03*
X124920000Y-113900000D03*
X129920000Y-113800000D03*
X127420000Y-114500000D03*
X145020000Y-77700000D03*
X167220000Y-77700000D03*
X126020000Y-98100000D03*
X149920000Y-102700000D03*
X168120000Y-124100000D03*
X145120000Y-124400000D03*
X171520000Y-104900000D03*
X127420000Y-77600000D03*
X128120000Y-124400000D03*
X168720000Y-91600000D03*
X167520000Y-109000000D03*
X168620000Y-105700000D03*
X136120000Y-99700000D03*
X132920000Y-93000000D03*
X153020000Y-103400000D03*
D16*
X167520000Y-119200000D02*
X166195000Y-120525000D01*
X166195000Y-120525000D02*
X147720000Y-120525000D01*
X167520000Y-109000000D02*
X167520000Y-119200000D01*
X153020000Y-109100000D02*
X156320000Y-112400000D01*
X153020000Y-103400000D02*
X153020000Y-109100000D01*
X156320000Y-112400000D02*
X156320000Y-115400000D01*
X155320000Y-114200000D02*
X152520000Y-111400000D01*
X155320000Y-115400000D02*
X155320000Y-114200000D01*
X168720000Y-101800000D02*
X168720000Y-104400000D01*
X168720000Y-104400000D02*
X170320000Y-106000000D01*
X170320000Y-106000000D02*
X170320000Y-120525000D01*
X168820000Y-89500000D02*
X170320000Y-88000000D01*
X170320000Y-88000000D02*
X170320000Y-81487500D01*
X165120000Y-86200000D02*
X129712500Y-86200000D01*
X129712500Y-86200000D02*
X125000000Y-81487500D01*
X167220000Y-88300000D02*
X165120000Y-86200000D01*
X167220000Y-92000000D02*
X167220000Y-88300000D01*
X168820000Y-93600000D02*
X167220000Y-92000000D01*
X170320000Y-97200000D02*
X170320000Y-99825000D01*
X168720000Y-95600000D02*
X170320000Y-97200000D01*
X147720000Y-98800000D02*
X147720000Y-99825000D01*
X148820000Y-97700000D02*
X147720000Y-98800000D01*
X168720000Y-97700000D02*
X148820000Y-97700000D01*
X168720000Y-99800000D02*
X153320000Y-99800000D01*
X153320000Y-99800000D02*
X151820000Y-101300000D01*
X126395000Y-101300000D02*
X124920000Y-99825000D01*
X151820000Y-101300000D02*
X126395000Y-101300000D01*
X170320000Y-78512500D02*
X168032500Y-78512500D01*
X127310000Y-97200000D02*
X121720000Y-97200000D01*
X170320000Y-103700000D02*
X171520000Y-104900000D01*
X125000000Y-78512500D02*
X126507500Y-78512500D01*
X124920000Y-102800000D02*
X123020000Y-100900000D01*
X121720000Y-105460000D02*
X121360000Y-105820000D01*
X121720000Y-97200000D02*
X121360000Y-96840000D01*
X168720000Y-123500000D02*
X168120000Y-124100000D01*
X121360000Y-105820000D02*
X121360000Y-96840000D01*
X123020000Y-100900000D02*
X123020000Y-99000000D01*
X122820000Y-105460000D02*
X121720000Y-105460000D01*
X123920000Y-98100000D02*
X126020000Y-98100000D01*
X125520000Y-123575000D02*
X127295000Y-123575000D01*
X146020000Y-123500000D02*
X145120000Y-124400000D01*
X147720000Y-78512500D02*
X145832500Y-78512500D01*
X127310000Y-105460000D02*
X122820000Y-105460000D01*
X168032500Y-78512500D02*
X167220000Y-77700000D01*
X170320000Y-123500000D02*
X168720000Y-123500000D01*
X127295000Y-123575000D02*
X128120000Y-124400000D01*
X123020000Y-99000000D02*
X123920000Y-98100000D01*
X147720000Y-123500000D02*
X146020000Y-123500000D01*
X147720000Y-102800000D02*
X149820000Y-102800000D01*
X170320000Y-102800000D02*
X170320000Y-103700000D01*
X149820000Y-102800000D02*
X149920000Y-102700000D01*
X145832500Y-78512500D02*
X145020000Y-77700000D01*
X126507500Y-78512500D02*
X127420000Y-77600000D01*
X165520000Y-85500000D02*
X149420000Y-85500000D01*
X167920000Y-87900000D02*
X165520000Y-85500000D01*
X147720000Y-83800000D02*
X147720000Y-81487500D01*
X167920000Y-90800000D02*
X167920000Y-87900000D01*
X149420000Y-85500000D02*
X147720000Y-83800000D01*
X168720000Y-91600000D02*
X167920000Y-90800000D01*
X138920000Y-116300000D02*
X127120000Y-116300000D01*
X125520000Y-117900000D02*
X125520000Y-120600000D01*
X168620000Y-119700000D02*
X166320000Y-122000000D01*
X168620000Y-105700000D02*
X168620000Y-119700000D01*
X166320000Y-122000000D02*
X144620000Y-122000000D01*
X144620000Y-122000000D02*
X138920000Y-116300000D01*
X127120000Y-116300000D02*
X125520000Y-117900000D01*
X132920000Y-96500000D02*
X136120000Y-99700000D01*
X132920000Y-93000000D02*
X132920000Y-96500000D01*
G04 #@! TA.AperFunction,Conductor*
G36*
X156338164Y-76220185D02*
G01*
X156383919Y-76272989D01*
X156393863Y-76342147D01*
X156364838Y-76405703D01*
X156312901Y-76441250D01*
X156276664Y-76454216D01*
X156241267Y-76466881D01*
X156241265Y-76466882D01*
X155886409Y-76634716D01*
X155549721Y-76836520D01*
X155234421Y-77070362D01*
X154943572Y-77333972D01*
X154679962Y-77624821D01*
X154446120Y-77940121D01*
X154244316Y-78276809D01*
X154076482Y-78631665D01*
X154076474Y-78631685D01*
X153944242Y-79001250D01*
X153944239Y-79001258D01*
X153944239Y-79001261D01*
X153928277Y-79064986D01*
X153848860Y-79382032D01*
X153799469Y-79714999D01*
X153791261Y-79770331D01*
X153772000Y-80162400D01*
X153791261Y-80554469D01*
X153791261Y-80554474D01*
X153791262Y-80554478D01*
X153848860Y-80942767D01*
X153944242Y-81323549D01*
X154076474Y-81693114D01*
X154076482Y-81693134D01*
X154244316Y-82047990D01*
X154376986Y-82269335D01*
X154446122Y-82384681D01*
X154675659Y-82694177D01*
X154679962Y-82699978D01*
X154943572Y-82990827D01*
X155234421Y-83254437D01*
X155234427Y-83254442D01*
X155549719Y-83488278D01*
X155595812Y-83515905D01*
X155886409Y-83690083D01*
X155886412Y-83690084D01*
X155886413Y-83690085D01*
X156241266Y-83857918D01*
X156241280Y-83857923D01*
X156241285Y-83857925D01*
X156517598Y-83956791D01*
X156610861Y-83990161D01*
X156991639Y-84085541D01*
X157379931Y-84143139D01*
X157772000Y-84162400D01*
X158164069Y-84143139D01*
X158552361Y-84085541D01*
X158933139Y-83990161D01*
X159302734Y-83857918D01*
X159657587Y-83690085D01*
X159994281Y-83488278D01*
X160309573Y-83254442D01*
X160600427Y-82990827D01*
X160864042Y-82699973D01*
X161097878Y-82384681D01*
X161299685Y-82047987D01*
X161467518Y-81693134D01*
X161599761Y-81323539D01*
X161695141Y-80942761D01*
X161752739Y-80554469D01*
X161772000Y-80162400D01*
X161752739Y-79770331D01*
X161695141Y-79382039D01*
X161599761Y-79001261D01*
X161467518Y-78631666D01*
X161299685Y-78276813D01*
X161297332Y-78272888D01*
X161165147Y-78052350D01*
X161097878Y-77940119D01*
X160919794Y-77700000D01*
X166314540Y-77700000D01*
X166334326Y-77888256D01*
X166334327Y-77888259D01*
X166392818Y-78068277D01*
X166392821Y-78068284D01*
X166487467Y-78232216D01*
X166614129Y-78372888D01*
X166767265Y-78484148D01*
X166767270Y-78484151D01*
X166940192Y-78561142D01*
X166940197Y-78561144D01*
X167125354Y-78600500D01*
X167184548Y-78600500D01*
X167251587Y-78620185D01*
X167272229Y-78636819D01*
X167531694Y-78896284D01*
X167541519Y-78908548D01*
X167541740Y-78908366D01*
X167546710Y-78914373D01*
X167546713Y-78914376D01*
X167546714Y-78914377D01*
X167597151Y-78961741D01*
X167618030Y-78982620D01*
X167623504Y-78986866D01*
X167627942Y-78990656D01*
X167661918Y-79022562D01*
X167666380Y-79025015D01*
X167679473Y-79032213D01*
X167695731Y-79042892D01*
X167711564Y-79055174D01*
X167733515Y-79064672D01*
X167754337Y-79073683D01*
X167759581Y-79076252D01*
X167800408Y-79098697D01*
X167819812Y-79103679D01*
X167838210Y-79109978D01*
X167856605Y-79117938D01*
X167902629Y-79125226D01*
X167908332Y-79126407D01*
X167953481Y-79138000D01*
X167973516Y-79138000D01*
X167992913Y-79139526D01*
X168012696Y-79142660D01*
X168059084Y-79138275D01*
X168064922Y-79138000D01*
X168868841Y-79138000D01*
X168935880Y-79157685D01*
X168981635Y-79210489D01*
X168986547Y-79222996D01*
X169010185Y-79294331D01*
X169010190Y-79294342D01*
X169102286Y-79443651D01*
X169102289Y-79443655D01*
X169226344Y-79567710D01*
X169226348Y-79567713D01*
X169375662Y-79659812D01*
X169375664Y-79659813D01*
X169375666Y-79659814D01*
X169542203Y-79714999D01*
X169644992Y-79725500D01*
X169644997Y-79725500D01*
X170995003Y-79725500D01*
X170995008Y-79725500D01*
X171097797Y-79714999D01*
X171264334Y-79659814D01*
X171413655Y-79567711D01*
X171537711Y-79443655D01*
X171629814Y-79294334D01*
X171684999Y-79127797D01*
X171695500Y-79025008D01*
X171695500Y-77999992D01*
X171684999Y-77897203D01*
X171629814Y-77730666D01*
X171629808Y-77730657D01*
X171537713Y-77581348D01*
X171537710Y-77581344D01*
X171413655Y-77457289D01*
X171413651Y-77457286D01*
X171264337Y-77365187D01*
X171264335Y-77365186D01*
X171181065Y-77337593D01*
X171097797Y-77310001D01*
X171097795Y-77310000D01*
X170995015Y-77299500D01*
X170995008Y-77299500D01*
X169644992Y-77299500D01*
X169644984Y-77299500D01*
X169542204Y-77310000D01*
X169542203Y-77310001D01*
X169375664Y-77365186D01*
X169375662Y-77365187D01*
X169226348Y-77457286D01*
X169226344Y-77457289D01*
X169102289Y-77581344D01*
X169102286Y-77581348D01*
X169010190Y-77730657D01*
X169010185Y-77730668D01*
X168986547Y-77802004D01*
X168946774Y-77859449D01*
X168882258Y-77886272D01*
X168868841Y-77887000D01*
X168342953Y-77887000D01*
X168275914Y-77867315D01*
X168255272Y-77850681D01*
X168158960Y-77754369D01*
X168125475Y-77693046D01*
X168123323Y-77679668D01*
X168105674Y-77511744D01*
X168047179Y-77331716D01*
X167952533Y-77167784D01*
X167825871Y-77027112D01*
X167825870Y-77027111D01*
X167672734Y-76915851D01*
X167672729Y-76915848D01*
X167499807Y-76838857D01*
X167499802Y-76838855D01*
X167354001Y-76807865D01*
X167314646Y-76799500D01*
X167125354Y-76799500D01*
X167092897Y-76806398D01*
X166940197Y-76838855D01*
X166940192Y-76838857D01*
X166767270Y-76915848D01*
X166767265Y-76915851D01*
X166614129Y-77027111D01*
X166487466Y-77167785D01*
X166392821Y-77331715D01*
X166392818Y-77331722D01*
X166334327Y-77511740D01*
X166334326Y-77511744D01*
X166314540Y-77700000D01*
X160919794Y-77700000D01*
X160864042Y-77624827D01*
X160858656Y-77618884D01*
X160600427Y-77333972D01*
X160309578Y-77070362D01*
X160306103Y-77067785D01*
X159994281Y-76836522D01*
X159959794Y-76815851D01*
X159657590Y-76634716D01*
X159302734Y-76466882D01*
X159302732Y-76466881D01*
X159281101Y-76459141D01*
X159231099Y-76441250D01*
X159174612Y-76400133D01*
X159149320Y-76335001D01*
X159163257Y-76266536D01*
X159211996Y-76216473D01*
X159272875Y-76200500D01*
X172582700Y-76200500D01*
X172649739Y-76220185D01*
X172695494Y-76272989D01*
X172706700Y-76324500D01*
X172706700Y-126062700D01*
X172687015Y-126129739D01*
X172634211Y-126175494D01*
X172582700Y-126186700D01*
X139156075Y-126186700D01*
X139089036Y-126167015D01*
X139043281Y-126114211D01*
X139033337Y-126045053D01*
X139062362Y-125981497D01*
X139114298Y-125945949D01*
X139185934Y-125920318D01*
X139540787Y-125752485D01*
X139877481Y-125550678D01*
X140192773Y-125316842D01*
X140483627Y-125053227D01*
X140747242Y-124762373D01*
X140981078Y-124447081D01*
X141182885Y-124110387D01*
X141350718Y-123755534D01*
X141482961Y-123385939D01*
X141578341Y-123005161D01*
X141635939Y-122616869D01*
X141655200Y-122224800D01*
X141635939Y-121832731D01*
X141578341Y-121444439D01*
X141482961Y-121063661D01*
X141350718Y-120694066D01*
X141182885Y-120339213D01*
X141135460Y-120260090D01*
X141032004Y-120087484D01*
X140981078Y-120002519D01*
X140747242Y-119687227D01*
X140747237Y-119687221D01*
X140483627Y-119396372D01*
X140192778Y-119132762D01*
X139983064Y-118977228D01*
X139877481Y-118898922D01*
X139861840Y-118889547D01*
X139540790Y-118697116D01*
X139185934Y-118529282D01*
X139185914Y-118529274D01*
X138816349Y-118397042D01*
X138816343Y-118397040D01*
X138816339Y-118397039D01*
X138627444Y-118349723D01*
X138435567Y-118301660D01*
X138435562Y-118301659D01*
X138435561Y-118301659D01*
X138339605Y-118287425D01*
X138047278Y-118244062D01*
X138047274Y-118244061D01*
X138047269Y-118244061D01*
X137655200Y-118224800D01*
X137263131Y-118244061D01*
X137263125Y-118244061D01*
X137263121Y-118244062D01*
X136874832Y-118301660D01*
X136587386Y-118373662D01*
X136494061Y-118397039D01*
X136494058Y-118397039D01*
X136494050Y-118397042D01*
X136124485Y-118529274D01*
X136124465Y-118529282D01*
X135769609Y-118697116D01*
X135432921Y-118898920D01*
X135117621Y-119132762D01*
X134826772Y-119396372D01*
X134563162Y-119687221D01*
X134329320Y-120002521D01*
X134127516Y-120339209D01*
X133959682Y-120694065D01*
X133959674Y-120694085D01*
X133827442Y-121063650D01*
X133827439Y-121063658D01*
X133827439Y-121063661D01*
X133815202Y-121112515D01*
X133732060Y-121444432D01*
X133677388Y-121813000D01*
X133674461Y-121832731D01*
X133655200Y-122224800D01*
X133674461Y-122616869D01*
X133674461Y-122616874D01*
X133674462Y-122616878D01*
X133708586Y-122846923D01*
X133719631Y-122921382D01*
X133732060Y-123005167D01*
X133757037Y-123104880D01*
X133809882Y-123315849D01*
X133827442Y-123385949D01*
X133959674Y-123755514D01*
X133959682Y-123755534D01*
X134127516Y-124110390D01*
X134319774Y-124431151D01*
X134329322Y-124447081D01*
X134533448Y-124722314D01*
X134563162Y-124762378D01*
X134826772Y-125053227D01*
X135099596Y-125300500D01*
X135117627Y-125316842D01*
X135432919Y-125550678D01*
X135432921Y-125550679D01*
X135769609Y-125752483D01*
X135769612Y-125752484D01*
X135769613Y-125752485D01*
X136124466Y-125920318D01*
X136196100Y-125945949D01*
X136252588Y-125987067D01*
X136277880Y-126052199D01*
X136263943Y-126120664D01*
X136215204Y-126170727D01*
X136154325Y-126186700D01*
X122844500Y-126186700D01*
X122777461Y-126167015D01*
X122731706Y-126114211D01*
X122720500Y-126062700D01*
X122720500Y-124087515D01*
X124144500Y-124087515D01*
X124155000Y-124190295D01*
X124155001Y-124190297D01*
X124170417Y-124236819D01*
X124210186Y-124356835D01*
X124210187Y-124356837D01*
X124302286Y-124506151D01*
X124302289Y-124506155D01*
X124426344Y-124630210D01*
X124426348Y-124630213D01*
X124575662Y-124722312D01*
X124575664Y-124722313D01*
X124575666Y-124722314D01*
X124742203Y-124777499D01*
X124844992Y-124788000D01*
X124844997Y-124788000D01*
X126195003Y-124788000D01*
X126195008Y-124788000D01*
X126297797Y-124777499D01*
X126464334Y-124722314D01*
X126613655Y-124630211D01*
X126737711Y-124506155D01*
X126829814Y-124356834D01*
X126853453Y-124285495D01*
X126893226Y-124228051D01*
X126957742Y-124201228D01*
X126971159Y-124200500D01*
X126984548Y-124200500D01*
X127051587Y-124220185D01*
X127072223Y-124236814D01*
X127181039Y-124345630D01*
X127214523Y-124406952D01*
X127216678Y-124420348D01*
X127219488Y-124447078D01*
X127234326Y-124588256D01*
X127234327Y-124588259D01*
X127292818Y-124768277D01*
X127292821Y-124768284D01*
X127387467Y-124932216D01*
X127496426Y-125053227D01*
X127514129Y-125072888D01*
X127667265Y-125184148D01*
X127667270Y-125184151D01*
X127840192Y-125261142D01*
X127840197Y-125261144D01*
X128025354Y-125300500D01*
X128025355Y-125300500D01*
X128214644Y-125300500D01*
X128214646Y-125300500D01*
X128399803Y-125261144D01*
X128572730Y-125184151D01*
X128725871Y-125072888D01*
X128852533Y-124932216D01*
X128947179Y-124768284D01*
X129005674Y-124588256D01*
X129025460Y-124400000D01*
X129005674Y-124211744D01*
X128947179Y-124031716D01*
X128852533Y-123867784D01*
X128725871Y-123727112D01*
X128725870Y-123727111D01*
X128572734Y-123615851D01*
X128572729Y-123615848D01*
X128399807Y-123538857D01*
X128399802Y-123538855D01*
X128254001Y-123507865D01*
X128214646Y-123499500D01*
X128214645Y-123499500D01*
X128155453Y-123499500D01*
X128088414Y-123479815D01*
X128067772Y-123463181D01*
X127795803Y-123191212D01*
X127785980Y-123178950D01*
X127785759Y-123179134D01*
X127780786Y-123173123D01*
X127770198Y-123163180D01*
X127730364Y-123125773D01*
X127719919Y-123115328D01*
X127709475Y-123104883D01*
X127703986Y-123100625D01*
X127699561Y-123096847D01*
X127665582Y-123064938D01*
X127665580Y-123064936D01*
X127665577Y-123064935D01*
X127648029Y-123055288D01*
X127631763Y-123044604D01*
X127615936Y-123032327D01*
X127615935Y-123032326D01*
X127615933Y-123032325D01*
X127573168Y-123013818D01*
X127567922Y-123011248D01*
X127527093Y-122988803D01*
X127527092Y-122988802D01*
X127507693Y-122983822D01*
X127489281Y-122977518D01*
X127470898Y-122969562D01*
X127470892Y-122969560D01*
X127424874Y-122962272D01*
X127419152Y-122961087D01*
X127374021Y-122949500D01*
X127374019Y-122949500D01*
X127353984Y-122949500D01*
X127334586Y-122947973D01*
X127327162Y-122946797D01*
X127314805Y-122944840D01*
X127314804Y-122944840D01*
X127268416Y-122949225D01*
X127262578Y-122949500D01*
X126971159Y-122949500D01*
X126904120Y-122929815D01*
X126858365Y-122877011D01*
X126853453Y-122864504D01*
X126847627Y-122846923D01*
X126829814Y-122793166D01*
X126829810Y-122793160D01*
X126829809Y-122793157D01*
X126737713Y-122643848D01*
X126737710Y-122643844D01*
X126613655Y-122519789D01*
X126613651Y-122519786D01*
X126464337Y-122427687D01*
X126464335Y-122427686D01*
X126361074Y-122393469D01*
X126297797Y-122372501D01*
X126297795Y-122372500D01*
X126195015Y-122362000D01*
X126195008Y-122362000D01*
X124844992Y-122362000D01*
X124844984Y-122362000D01*
X124742204Y-122372500D01*
X124742203Y-122372501D01*
X124575664Y-122427686D01*
X124575662Y-122427687D01*
X124426348Y-122519786D01*
X124426344Y-122519789D01*
X124302289Y-122643844D01*
X124302286Y-122643848D01*
X124210187Y-122793162D01*
X124210186Y-122793164D01*
X124155001Y-122959703D01*
X124155000Y-122959704D01*
X124144500Y-123062484D01*
X124144500Y-124087515D01*
X122720500Y-124087515D01*
X122720500Y-111400000D01*
X151614540Y-111400000D01*
X151634326Y-111588256D01*
X151634327Y-111588259D01*
X151692818Y-111768277D01*
X151692821Y-111768284D01*
X151787467Y-111932216D01*
X151899106Y-112056203D01*
X151914129Y-112072888D01*
X152067265Y-112184148D01*
X152067270Y-112184151D01*
X152240192Y-112261142D01*
X152240197Y-112261144D01*
X152425354Y-112300500D01*
X152484548Y-112300500D01*
X152551587Y-112320185D01*
X152572229Y-112336819D01*
X154498229Y-114262819D01*
X154531714Y-114324142D01*
X154526730Y-114393834D01*
X154484858Y-114449767D01*
X154419394Y-114474184D01*
X154410548Y-114474500D01*
X154222726Y-114474500D01*
X154032429Y-114514948D01*
X154026245Y-114516958D01*
X154025349Y-114514201D01*
X153968341Y-114521511D01*
X153944527Y-114515239D01*
X153852482Y-114480908D01*
X153852483Y-114480908D01*
X153792883Y-114474501D01*
X153792881Y-114474500D01*
X153792873Y-114474500D01*
X153792864Y-114474500D01*
X152847129Y-114474500D01*
X152847123Y-114474501D01*
X152787516Y-114480908D01*
X152652671Y-114531202D01*
X152652664Y-114531206D01*
X152537455Y-114617452D01*
X152537452Y-114617455D01*
X152451206Y-114732664D01*
X152451202Y-114732671D01*
X152400908Y-114867517D01*
X152394501Y-114927116D01*
X152394500Y-114927135D01*
X152394500Y-115872870D01*
X152394501Y-115872876D01*
X152400908Y-115932483D01*
X152451202Y-116067328D01*
X152451206Y-116067335D01*
X152537452Y-116182544D01*
X152537455Y-116182547D01*
X152652664Y-116268793D01*
X152652671Y-116268797D01*
X152787517Y-116319091D01*
X152787516Y-116319091D01*
X152794444Y-116319835D01*
X152847127Y-116325500D01*
X153792872Y-116325499D01*
X153852483Y-116319091D01*
X153944530Y-116284759D01*
X154014218Y-116279776D01*
X154026039Y-116283678D01*
X154026246Y-116283042D01*
X154032426Y-116285049D01*
X154032429Y-116285051D01*
X154222726Y-116325500D01*
X154417274Y-116325500D01*
X154607566Y-116285052D01*
X154607565Y-116285052D01*
X154607571Y-116285051D01*
X154769569Y-116212925D01*
X154838815Y-116203642D01*
X154870425Y-116212922D01*
X155032429Y-116285051D01*
X155032432Y-116285051D01*
X155032433Y-116285052D01*
X155222726Y-116325500D01*
X155417274Y-116325500D01*
X155607566Y-116285052D01*
X155607565Y-116285052D01*
X155607571Y-116285051D01*
X155769569Y-116212925D01*
X155838815Y-116203642D01*
X155870425Y-116212922D01*
X156032429Y-116285051D01*
X156032432Y-116285051D01*
X156032433Y-116285052D01*
X156222726Y-116325500D01*
X156417274Y-116325500D01*
X156607566Y-116285052D01*
X156607565Y-116285052D01*
X156607571Y-116285051D01*
X156769569Y-116212925D01*
X156838815Y-116203642D01*
X156870425Y-116212922D01*
X157032429Y-116285051D01*
X157032432Y-116285051D01*
X157032433Y-116285052D01*
X157222726Y-116325500D01*
X157417274Y-116325500D01*
X157607571Y-116285051D01*
X157785299Y-116205922D01*
X157942692Y-116091569D01*
X157964513Y-116067335D01*
X157970895Y-116060245D01*
X158072870Y-115946992D01*
X158170144Y-115778508D01*
X158230262Y-115593482D01*
X158250598Y-115400000D01*
X158230262Y-115206518D01*
X158170144Y-115021492D01*
X158170143Y-115021491D01*
X158170143Y-115021489D01*
X158170142Y-115021488D01*
X158115667Y-114927135D01*
X158072870Y-114853008D01*
X158021882Y-114796381D01*
X157942697Y-114708435D01*
X157942694Y-114708433D01*
X157942693Y-114708432D01*
X157942692Y-114708431D01*
X157817475Y-114617455D01*
X157785297Y-114594076D01*
X157644076Y-114531202D01*
X157607571Y-114514949D01*
X157607569Y-114514948D01*
X157417274Y-114474500D01*
X157222726Y-114474500D01*
X157095281Y-114501589D01*
X157025614Y-114496273D01*
X156969880Y-114454136D01*
X156945775Y-114388556D01*
X156945500Y-114380299D01*
X156945500Y-112482742D01*
X156947224Y-112467122D01*
X156946939Y-112467095D01*
X156947673Y-112459333D01*
X156945500Y-112390172D01*
X156945500Y-112360656D01*
X156945500Y-112360650D01*
X156944631Y-112353779D01*
X156944173Y-112347952D01*
X156943823Y-112336819D01*
X156942710Y-112301373D01*
X156937119Y-112282130D01*
X156933173Y-112263078D01*
X156930664Y-112243208D01*
X156913504Y-112199867D01*
X156911624Y-112194379D01*
X156898618Y-112149610D01*
X156888422Y-112132370D01*
X156879861Y-112114894D01*
X156872487Y-112096270D01*
X156872486Y-112096268D01*
X156845079Y-112058545D01*
X156841888Y-112053686D01*
X156818172Y-112013583D01*
X156818165Y-112013574D01*
X156804006Y-111999415D01*
X156791368Y-111984619D01*
X156779594Y-111968413D01*
X156743688Y-111938709D01*
X156739376Y-111934786D01*
X153681819Y-108877228D01*
X153648334Y-108815905D01*
X153645500Y-108789547D01*
X153645500Y-104098687D01*
X153665185Y-104031648D01*
X153677350Y-104015715D01*
X153709674Y-103979815D01*
X153752533Y-103932216D01*
X153847179Y-103768284D01*
X153905674Y-103588256D01*
X153925460Y-103400000D01*
X153905674Y-103211744D01*
X153847179Y-103031716D01*
X153752533Y-102867784D01*
X153625871Y-102727112D01*
X153625870Y-102727111D01*
X153472734Y-102615851D01*
X153472729Y-102615848D01*
X153299807Y-102538857D01*
X153299802Y-102538855D01*
X153154001Y-102507865D01*
X153114646Y-102499500D01*
X152925354Y-102499500D01*
X152892897Y-102506398D01*
X152740197Y-102538855D01*
X152740192Y-102538857D01*
X152567270Y-102615848D01*
X152567265Y-102615851D01*
X152414129Y-102727111D01*
X152287466Y-102867785D01*
X152192821Y-103031715D01*
X152192818Y-103031722D01*
X152134327Y-103211740D01*
X152134326Y-103211744D01*
X152114540Y-103400000D01*
X152134326Y-103588256D01*
X152134327Y-103588259D01*
X152192818Y-103768277D01*
X152192821Y-103768284D01*
X152287467Y-103932216D01*
X152330326Y-103979815D01*
X152362650Y-104015715D01*
X152392880Y-104078706D01*
X152394500Y-104098687D01*
X152394500Y-109017255D01*
X152392775Y-109032872D01*
X152393061Y-109032899D01*
X152392326Y-109040665D01*
X152394500Y-109109814D01*
X152394500Y-109139343D01*
X152394501Y-109139360D01*
X152395368Y-109146231D01*
X152395826Y-109152050D01*
X152397290Y-109198624D01*
X152397291Y-109198627D01*
X152402880Y-109217867D01*
X152406824Y-109236911D01*
X152409336Y-109256791D01*
X152426490Y-109300119D01*
X152428382Y-109305647D01*
X152441381Y-109350388D01*
X152451580Y-109367634D01*
X152460138Y-109385103D01*
X152467514Y-109403732D01*
X152494898Y-109441423D01*
X152498106Y-109446307D01*
X152521827Y-109486416D01*
X152521833Y-109486424D01*
X152535990Y-109500580D01*
X152548628Y-109515376D01*
X152560405Y-109531586D01*
X152560406Y-109531587D01*
X152596309Y-109561288D01*
X152600620Y-109565210D01*
X154247150Y-111211740D01*
X155658181Y-112622771D01*
X155691666Y-112684094D01*
X155694500Y-112710452D01*
X155694500Y-113390547D01*
X155674815Y-113457586D01*
X155622011Y-113503341D01*
X155552853Y-113513285D01*
X155489297Y-113484260D01*
X155482819Y-113478228D01*
X153458960Y-111454369D01*
X153425475Y-111393046D01*
X153423323Y-111379668D01*
X153405674Y-111211744D01*
X153347179Y-111031716D01*
X153252533Y-110867784D01*
X153125871Y-110727112D01*
X153125870Y-110727111D01*
X152972734Y-110615851D01*
X152972729Y-110615848D01*
X152799807Y-110538857D01*
X152799802Y-110538855D01*
X152654001Y-110507865D01*
X152614646Y-110499500D01*
X152425354Y-110499500D01*
X152392897Y-110506398D01*
X152240197Y-110538855D01*
X152240192Y-110538857D01*
X152067270Y-110615848D01*
X152067265Y-110615851D01*
X151914129Y-110727111D01*
X151787466Y-110867785D01*
X151692821Y-111031715D01*
X151692818Y-111031722D01*
X151634327Y-111211740D01*
X151634326Y-111211744D01*
X151614540Y-111400000D01*
X122720500Y-111400000D01*
X122720500Y-107424759D01*
X122720528Y-107424616D01*
X122720524Y-107424616D01*
X122720539Y-107400002D01*
X122720541Y-107400000D01*
X122720462Y-107399808D01*
X122720384Y-107399618D01*
X122720382Y-107399616D01*
X122720099Y-107399500D01*
X122720000Y-107399459D01*
X122695446Y-107399459D01*
X122695240Y-107399500D01*
X120144294Y-107399500D01*
X120077255Y-107379815D01*
X120031500Y-107327011D01*
X120020294Y-107275705D01*
X120018388Y-106122829D01*
X120037962Y-106055760D01*
X120090690Y-106009918D01*
X120159832Y-105999860D01*
X120223436Y-106028780D01*
X120254038Y-106074833D01*
X120256212Y-106073866D01*
X120335848Y-106252729D01*
X120335851Y-106252734D01*
X120447111Y-106405870D01*
X120447112Y-106405871D01*
X120587784Y-106532533D01*
X120751716Y-106627179D01*
X120931744Y-106685674D01*
X121072808Y-106700500D01*
X121072812Y-106700500D01*
X121767188Y-106700500D01*
X121767192Y-106700500D01*
X121908256Y-106685674D01*
X122088284Y-106627179D01*
X122252216Y-106532533D01*
X122392888Y-106405871D01*
X122504151Y-106252730D01*
X122513285Y-106232216D01*
X122545855Y-106159064D01*
X122591105Y-106105827D01*
X122657954Y-106085506D01*
X122659134Y-106085500D01*
X122740981Y-106085500D01*
X126393525Y-106085500D01*
X126460564Y-106105185D01*
X126476497Y-106117350D01*
X126537784Y-106172533D01*
X126701716Y-106267179D01*
X126881744Y-106325674D01*
X127022808Y-106340500D01*
X127022812Y-106340500D01*
X127717188Y-106340500D01*
X127717192Y-106340500D01*
X127858256Y-106325674D01*
X128038284Y-106267179D01*
X128202216Y-106172533D01*
X128342888Y-106045871D01*
X128454151Y-105892730D01*
X128512738Y-105761144D01*
X128531142Y-105719808D01*
X128531142Y-105719807D01*
X128531144Y-105719803D01*
X128560516Y-105581613D01*
X128593707Y-105520137D01*
X128654869Y-105486360D01*
X128665620Y-105484460D01*
X128693093Y-105480843D01*
X128770236Y-105470687D01*
X128910233Y-105412698D01*
X129030451Y-105320451D01*
X129122698Y-105200233D01*
X129180687Y-105060236D01*
X129200466Y-104910000D01*
X129199149Y-104900000D01*
X129180687Y-104759765D01*
X129180687Y-104759764D01*
X129122698Y-104619767D01*
X129030451Y-104499549D01*
X128910233Y-104407302D01*
X128910229Y-104407300D01*
X128814831Y-104367785D01*
X128770236Y-104349313D01*
X128756171Y-104347461D01*
X128657727Y-104334500D01*
X128657720Y-104334500D01*
X128582280Y-104334500D01*
X128582272Y-104334500D01*
X128469764Y-104349313D01*
X128469763Y-104349313D01*
X128329770Y-104407300D01*
X128329767Y-104407301D01*
X128329767Y-104407302D01*
X128210751Y-104498627D01*
X128209548Y-104499550D01*
X128159146Y-104565234D01*
X128102717Y-104606436D01*
X128032971Y-104610590D01*
X128022453Y-104607677D01*
X127880050Y-104561407D01*
X127858256Y-104554326D01*
X127717192Y-104539500D01*
X127022808Y-104539500D01*
X126881744Y-104554326D01*
X126881741Y-104554326D01*
X126881740Y-104554327D01*
X126701722Y-104612818D01*
X126701715Y-104612821D01*
X126537785Y-104707466D01*
X126432073Y-104802650D01*
X126369082Y-104832880D01*
X126349101Y-104834500D01*
X122109500Y-104834500D01*
X122042461Y-104814815D01*
X121996706Y-104762011D01*
X121985500Y-104710500D01*
X121985500Y-97949500D01*
X122005185Y-97882461D01*
X122057989Y-97836706D01*
X122109500Y-97825500D01*
X123010547Y-97825500D01*
X123077586Y-97845185D01*
X123123341Y-97897989D01*
X123133285Y-97967147D01*
X123104260Y-98030703D01*
X123098228Y-98037181D01*
X122636208Y-98499199D01*
X122623951Y-98509020D01*
X122624134Y-98509241D01*
X122618123Y-98514213D01*
X122570772Y-98564636D01*
X122549889Y-98585519D01*
X122549877Y-98585532D01*
X122545621Y-98591017D01*
X122541837Y-98595447D01*
X122509937Y-98629418D01*
X122509936Y-98629420D01*
X122500284Y-98646976D01*
X122489610Y-98663226D01*
X122477329Y-98679061D01*
X122477324Y-98679068D01*
X122458815Y-98721838D01*
X122456245Y-98727084D01*
X122433803Y-98767906D01*
X122428822Y-98787307D01*
X122422521Y-98805710D01*
X122414562Y-98824102D01*
X122414561Y-98824105D01*
X122407271Y-98870127D01*
X122406087Y-98875846D01*
X122394501Y-98920972D01*
X122394500Y-98920982D01*
X122394500Y-98941016D01*
X122392973Y-98960413D01*
X122392254Y-98964957D01*
X122389840Y-98980194D01*
X122389840Y-98980195D01*
X122394225Y-99026583D01*
X122394500Y-99032421D01*
X122394500Y-100817255D01*
X122392775Y-100832872D01*
X122393061Y-100832899D01*
X122392326Y-100840665D01*
X122394500Y-100909814D01*
X122394500Y-100939343D01*
X122394501Y-100939360D01*
X122395368Y-100946231D01*
X122395826Y-100952050D01*
X122397290Y-100998624D01*
X122397291Y-100998627D01*
X122402880Y-101017867D01*
X122406824Y-101036911D01*
X122409336Y-101056792D01*
X122425781Y-101098329D01*
X122426490Y-101100119D01*
X122428382Y-101105647D01*
X122441381Y-101150388D01*
X122451580Y-101167634D01*
X122460138Y-101185103D01*
X122467514Y-101203732D01*
X122494898Y-101241423D01*
X122498106Y-101246307D01*
X122521827Y-101286416D01*
X122521833Y-101286424D01*
X122535990Y-101300580D01*
X122548628Y-101315376D01*
X122560405Y-101331586D01*
X122560406Y-101331587D01*
X122596309Y-101361288D01*
X122600620Y-101365210D01*
X123057298Y-101821888D01*
X123508181Y-102272771D01*
X123541666Y-102334094D01*
X123544500Y-102360452D01*
X123544500Y-103312515D01*
X123555000Y-103415295D01*
X123555001Y-103415297D01*
X123577816Y-103484148D01*
X123610186Y-103581835D01*
X123610187Y-103581837D01*
X123702286Y-103731151D01*
X123702289Y-103731155D01*
X123826344Y-103855210D01*
X123826348Y-103855213D01*
X123975662Y-103947312D01*
X123975664Y-103947313D01*
X123975666Y-103947314D01*
X124142203Y-104002499D01*
X124244992Y-104013000D01*
X124244997Y-104013000D01*
X125595003Y-104013000D01*
X125595008Y-104013000D01*
X125697797Y-104002499D01*
X125864334Y-103947314D01*
X126013655Y-103855211D01*
X126137711Y-103731155D01*
X126229814Y-103581834D01*
X126284999Y-103415297D01*
X126295500Y-103312508D01*
X126295500Y-102287492D01*
X126284999Y-102184703D01*
X126254655Y-102093133D01*
X126252254Y-102023308D01*
X126287986Y-101963266D01*
X126350506Y-101932073D01*
X126370045Y-101930646D01*
X126375192Y-101930159D01*
X126375196Y-101930160D01*
X126421584Y-101925775D01*
X126427422Y-101925500D01*
X146269172Y-101925500D01*
X146336211Y-101945185D01*
X146381966Y-101997989D01*
X146391910Y-102067147D01*
X146386878Y-102088503D01*
X146355001Y-102184700D01*
X146355000Y-102184704D01*
X146344500Y-102287484D01*
X146344500Y-103312515D01*
X146355000Y-103415295D01*
X146355001Y-103415297D01*
X146377816Y-103484148D01*
X146410186Y-103581835D01*
X146410187Y-103581837D01*
X146502286Y-103731151D01*
X146502289Y-103731155D01*
X146626344Y-103855210D01*
X146626348Y-103855213D01*
X146775662Y-103947312D01*
X146775664Y-103947313D01*
X146775666Y-103947314D01*
X146942203Y-104002499D01*
X147044992Y-104013000D01*
X147044997Y-104013000D01*
X148395003Y-104013000D01*
X148395008Y-104013000D01*
X148497797Y-104002499D01*
X148664334Y-103947314D01*
X148813655Y-103855211D01*
X148937711Y-103731155D01*
X149029814Y-103581834D01*
X149053453Y-103510495D01*
X149093226Y-103453051D01*
X149157742Y-103426228D01*
X149171159Y-103425500D01*
X149346253Y-103425500D01*
X149413292Y-103445185D01*
X149419138Y-103449182D01*
X149467265Y-103484148D01*
X149467270Y-103484151D01*
X149640192Y-103561142D01*
X149640197Y-103561144D01*
X149825354Y-103600500D01*
X149825355Y-103600500D01*
X150014644Y-103600500D01*
X150014646Y-103600500D01*
X150199803Y-103561144D01*
X150372730Y-103484151D01*
X150525871Y-103372888D01*
X150652533Y-103232216D01*
X150747179Y-103068284D01*
X150805674Y-102888256D01*
X150825460Y-102700000D01*
X150805674Y-102511744D01*
X150747952Y-102334094D01*
X150747181Y-102331722D01*
X150747180Y-102331721D01*
X150747179Y-102331716D01*
X150652533Y-102167784D01*
X150620738Y-102132472D01*
X150590508Y-102069480D01*
X150599133Y-102000145D01*
X150643875Y-101946480D01*
X150710527Y-101925522D01*
X150712888Y-101925500D01*
X151737257Y-101925500D01*
X151752877Y-101927224D01*
X151752904Y-101926939D01*
X151760660Y-101927671D01*
X151760667Y-101927673D01*
X151829814Y-101925500D01*
X151859350Y-101925500D01*
X151866228Y-101924630D01*
X151872041Y-101924172D01*
X151918627Y-101922709D01*
X151937869Y-101917117D01*
X151956912Y-101913174D01*
X151976792Y-101910664D01*
X152020122Y-101893507D01*
X152025646Y-101891617D01*
X152029396Y-101890527D01*
X152070390Y-101878618D01*
X152087629Y-101868422D01*
X152105103Y-101859862D01*
X152123727Y-101852488D01*
X152123727Y-101852487D01*
X152123732Y-101852486D01*
X152161449Y-101825082D01*
X152166305Y-101821892D01*
X152206420Y-101798170D01*
X152220589Y-101783999D01*
X152235379Y-101771368D01*
X152251587Y-101759594D01*
X152281299Y-101723676D01*
X152285212Y-101719376D01*
X153542772Y-100461819D01*
X153604095Y-100428334D01*
X153630453Y-100425500D01*
X168016252Y-100425500D01*
X168083291Y-100445185D01*
X168108400Y-100466526D01*
X168114126Y-100472885D01*
X168114130Y-100472889D01*
X168267265Y-100584148D01*
X168267270Y-100584151D01*
X168440192Y-100661142D01*
X168440197Y-100661144D01*
X168522839Y-100678710D01*
X168584321Y-100711902D01*
X168618097Y-100773065D01*
X168613445Y-100842780D01*
X168571840Y-100898912D01*
X168522839Y-100921290D01*
X168440197Y-100938855D01*
X168440192Y-100938857D01*
X168267270Y-101015848D01*
X168267265Y-101015851D01*
X168114129Y-101127111D01*
X167987466Y-101267785D01*
X167892821Y-101431715D01*
X167892818Y-101431722D01*
X167838954Y-101597500D01*
X167834326Y-101611744D01*
X167814540Y-101800000D01*
X167834326Y-101988256D01*
X167834327Y-101988259D01*
X167892818Y-102168277D01*
X167892821Y-102168284D01*
X167987467Y-102332216D01*
X168012891Y-102360452D01*
X168062650Y-102415715D01*
X168092880Y-102478706D01*
X168094500Y-102498687D01*
X168094500Y-104317255D01*
X168092775Y-104332872D01*
X168093061Y-104332899D01*
X168092326Y-104340665D01*
X168094500Y-104409814D01*
X168094500Y-104439343D01*
X168094501Y-104439360D01*
X168095368Y-104446231D01*
X168095826Y-104452050D01*
X168097290Y-104498624D01*
X168097291Y-104498627D01*
X168102880Y-104517867D01*
X168106824Y-104536911D01*
X168109336Y-104556792D01*
X168126490Y-104600119D01*
X168128382Y-104605647D01*
X168141381Y-104650388D01*
X168151580Y-104667634D01*
X168160138Y-104685103D01*
X168167514Y-104703732D01*
X168194898Y-104741424D01*
X168198106Y-104746307D01*
X168201535Y-104752104D01*
X168218718Y-104819828D01*
X168196559Y-104886091D01*
X168167689Y-104915544D01*
X168014127Y-105027113D01*
X167887466Y-105167785D01*
X167792821Y-105331715D01*
X167792818Y-105331722D01*
X167734327Y-105511740D01*
X167734326Y-105511744D01*
X167714540Y-105700000D01*
X167734326Y-105888256D01*
X167734327Y-105888259D01*
X167792818Y-106068277D01*
X167792821Y-106068284D01*
X167887467Y-106232216D01*
X167905942Y-106252734D01*
X167962650Y-106315715D01*
X167992880Y-106378706D01*
X167994500Y-106398687D01*
X167994500Y-108034597D01*
X167974815Y-108101636D01*
X167922011Y-108147391D01*
X167852853Y-108157335D01*
X167820065Y-108147877D01*
X167799802Y-108138855D01*
X167654001Y-108107865D01*
X167614646Y-108099500D01*
X167425354Y-108099500D01*
X167392897Y-108106398D01*
X167240197Y-108138855D01*
X167240192Y-108138857D01*
X167067270Y-108215848D01*
X167067265Y-108215851D01*
X166914129Y-108327111D01*
X166787466Y-108467785D01*
X166692821Y-108631715D01*
X166692818Y-108631722D01*
X166641538Y-108789547D01*
X166634326Y-108811744D01*
X166614540Y-109000000D01*
X166634326Y-109188256D01*
X166634327Y-109188259D01*
X166692818Y-109368277D01*
X166692821Y-109368284D01*
X166787467Y-109532216D01*
X166813644Y-109561288D01*
X166862650Y-109615715D01*
X166892880Y-109678706D01*
X166894500Y-109698687D01*
X166894500Y-118889547D01*
X166874815Y-118956586D01*
X166858181Y-118977228D01*
X165972228Y-119863181D01*
X165910905Y-119896666D01*
X165884547Y-119899500D01*
X149171159Y-119899500D01*
X149104120Y-119879815D01*
X149058365Y-119827011D01*
X149053453Y-119814504D01*
X149029814Y-119743166D01*
X149029810Y-119743160D01*
X149029809Y-119743157D01*
X148937713Y-119593848D01*
X148937710Y-119593844D01*
X148813655Y-119469789D01*
X148813651Y-119469786D01*
X148664337Y-119377687D01*
X148664335Y-119377686D01*
X148530911Y-119333474D01*
X148497797Y-119322501D01*
X148497795Y-119322500D01*
X148395015Y-119312000D01*
X148395008Y-119312000D01*
X147044992Y-119312000D01*
X147044984Y-119312000D01*
X146942204Y-119322500D01*
X146942203Y-119322501D01*
X146775664Y-119377686D01*
X146775662Y-119377687D01*
X146626348Y-119469786D01*
X146626344Y-119469789D01*
X146502289Y-119593844D01*
X146502286Y-119593848D01*
X146410187Y-119743162D01*
X146410186Y-119743164D01*
X146355001Y-119909703D01*
X146355000Y-119909704D01*
X146344500Y-120012484D01*
X146344500Y-121037515D01*
X146355000Y-121140295D01*
X146355001Y-121140299D01*
X146378594Y-121211497D01*
X146380996Y-121281325D01*
X146345264Y-121341367D01*
X146282743Y-121372559D01*
X146260888Y-121374500D01*
X144930453Y-121374500D01*
X144863414Y-121354815D01*
X144842772Y-121338181D01*
X139420803Y-115916212D01*
X139410980Y-115903950D01*
X139410759Y-115904134D01*
X139405786Y-115898123D01*
X139387159Y-115880631D01*
X139355364Y-115850773D01*
X139344919Y-115840328D01*
X139334475Y-115829883D01*
X139328986Y-115825625D01*
X139324561Y-115821847D01*
X139290582Y-115789938D01*
X139290580Y-115789936D01*
X139290577Y-115789935D01*
X139273029Y-115780288D01*
X139256763Y-115769604D01*
X139240933Y-115757325D01*
X139198168Y-115738818D01*
X139192922Y-115736248D01*
X139152093Y-115713803D01*
X139152092Y-115713802D01*
X139132693Y-115708822D01*
X139114281Y-115702518D01*
X139095898Y-115694562D01*
X139095892Y-115694560D01*
X139049874Y-115687272D01*
X139044152Y-115686087D01*
X138999021Y-115674500D01*
X138999019Y-115674500D01*
X138978984Y-115674500D01*
X138959586Y-115672973D01*
X138952162Y-115671797D01*
X138939805Y-115669840D01*
X138939804Y-115669840D01*
X138893416Y-115674225D01*
X138887578Y-115674500D01*
X127202743Y-115674500D01*
X127187122Y-115672775D01*
X127187095Y-115673061D01*
X127179333Y-115672326D01*
X127110172Y-115674500D01*
X127080649Y-115674500D01*
X127073778Y-115675367D01*
X127067959Y-115675825D01*
X127021374Y-115677289D01*
X127021368Y-115677290D01*
X127002126Y-115682880D01*
X126983087Y-115686823D01*
X126963217Y-115689334D01*
X126963203Y-115689337D01*
X126919883Y-115706488D01*
X126914358Y-115708380D01*
X126869613Y-115721380D01*
X126869610Y-115721381D01*
X126852366Y-115731579D01*
X126834905Y-115740133D01*
X126816274Y-115747510D01*
X126816262Y-115747517D01*
X126778570Y-115774902D01*
X126773687Y-115778109D01*
X126733580Y-115801829D01*
X126719414Y-115815995D01*
X126704624Y-115828627D01*
X126688414Y-115840404D01*
X126688411Y-115840407D01*
X126658710Y-115876309D01*
X126654777Y-115880631D01*
X125136208Y-117399199D01*
X125123951Y-117409020D01*
X125124134Y-117409241D01*
X125118123Y-117414213D01*
X125070772Y-117464636D01*
X125049889Y-117485519D01*
X125049877Y-117485532D01*
X125045621Y-117491017D01*
X125041837Y-117495447D01*
X125009937Y-117529418D01*
X125009936Y-117529420D01*
X125000284Y-117546976D01*
X124989610Y-117563226D01*
X124977329Y-117579061D01*
X124977324Y-117579068D01*
X124958815Y-117621838D01*
X124956245Y-117627084D01*
X124933803Y-117667906D01*
X124928822Y-117687307D01*
X124922521Y-117705710D01*
X124914562Y-117724102D01*
X124914561Y-117724105D01*
X124907271Y-117770127D01*
X124906087Y-117775846D01*
X124894501Y-117820972D01*
X124894500Y-117820982D01*
X124894500Y-117841016D01*
X124892973Y-117860415D01*
X124889840Y-117880194D01*
X124889840Y-117880195D01*
X124894225Y-117926583D01*
X124894500Y-117932421D01*
X124894500Y-119269964D01*
X124874815Y-119337003D01*
X124822011Y-119382758D01*
X124783104Y-119393322D01*
X124742204Y-119397500D01*
X124742203Y-119397501D01*
X124575664Y-119452686D01*
X124575662Y-119452687D01*
X124426348Y-119544786D01*
X124426344Y-119544789D01*
X124302289Y-119668844D01*
X124302286Y-119668848D01*
X124210187Y-119818162D01*
X124210186Y-119818164D01*
X124155001Y-119984703D01*
X124155000Y-119984704D01*
X124144500Y-120087484D01*
X124144500Y-121112515D01*
X124155000Y-121215295D01*
X124155001Y-121215296D01*
X124210186Y-121381835D01*
X124210187Y-121381837D01*
X124302286Y-121531151D01*
X124302289Y-121531155D01*
X124426344Y-121655210D01*
X124426348Y-121655213D01*
X124575662Y-121747312D01*
X124575664Y-121747313D01*
X124575666Y-121747314D01*
X124742203Y-121802499D01*
X124844992Y-121813000D01*
X124844997Y-121813000D01*
X126195003Y-121813000D01*
X126195008Y-121813000D01*
X126297797Y-121802499D01*
X126464334Y-121747314D01*
X126613655Y-121655211D01*
X126737711Y-121531155D01*
X126829814Y-121381834D01*
X126884999Y-121215297D01*
X126895500Y-121112508D01*
X126895500Y-120087492D01*
X126884999Y-119984703D01*
X126829814Y-119818166D01*
X126827555Y-119814504D01*
X126737713Y-119668848D01*
X126737710Y-119668844D01*
X126613655Y-119544789D01*
X126613651Y-119544786D01*
X126464337Y-119452687D01*
X126464335Y-119452686D01*
X126381065Y-119425093D01*
X126297797Y-119397501D01*
X126297795Y-119397500D01*
X126256896Y-119393322D01*
X126192205Y-119366925D01*
X126152054Y-119309744D01*
X126145500Y-119269964D01*
X126145500Y-118210452D01*
X126165185Y-118143413D01*
X126181819Y-118122771D01*
X127342771Y-116961819D01*
X127404094Y-116928334D01*
X127430452Y-116925500D01*
X138609548Y-116925500D01*
X138676587Y-116945185D01*
X138697228Y-116961818D01*
X141422630Y-119687221D01*
X144119197Y-122383788D01*
X144129022Y-122396051D01*
X144129243Y-122395869D01*
X144134214Y-122401878D01*
X144155043Y-122421437D01*
X144184635Y-122449226D01*
X144205529Y-122470120D01*
X144211011Y-122474373D01*
X144215443Y-122478157D01*
X144249418Y-122510062D01*
X144266976Y-122519714D01*
X144283235Y-122530395D01*
X144299064Y-122542673D01*
X144341838Y-122561182D01*
X144347056Y-122563738D01*
X144387908Y-122586197D01*
X144407316Y-122591180D01*
X144425717Y-122597480D01*
X144444104Y-122605437D01*
X144487488Y-122612308D01*
X144490119Y-122612725D01*
X144495839Y-122613909D01*
X144540981Y-122625500D01*
X144561016Y-122625500D01*
X144580414Y-122627026D01*
X144600194Y-122630159D01*
X144600195Y-122630160D01*
X144600195Y-122630159D01*
X144600196Y-122630160D01*
X144646584Y-122625775D01*
X144652422Y-122625500D01*
X146040080Y-122625500D01*
X146064496Y-122632669D01*
X146073994Y-122627762D01*
X146097573Y-122625500D01*
X146269172Y-122625500D01*
X146336211Y-122645185D01*
X146381966Y-122697989D01*
X146391910Y-122767147D01*
X146386891Y-122788465D01*
X146386560Y-122789465D01*
X146346806Y-122846923D01*
X146282299Y-122873767D01*
X146268841Y-122874500D01*
X146102737Y-122874500D01*
X146087121Y-122872776D01*
X146087095Y-122873062D01*
X146085900Y-122872949D01*
X146084836Y-122872524D01*
X146075692Y-122871515D01*
X146071723Y-122870628D01*
X146072099Y-122868943D01*
X146043974Y-122873438D01*
X146010203Y-122874500D01*
X145980650Y-122874500D01*
X145979929Y-122874590D01*
X145973757Y-122875369D01*
X145967945Y-122875826D01*
X145921373Y-122877290D01*
X145921372Y-122877290D01*
X145902129Y-122882881D01*
X145883079Y-122886825D01*
X145863211Y-122889334D01*
X145863209Y-122889335D01*
X145819884Y-122906488D01*
X145814357Y-122908380D01*
X145769610Y-122921381D01*
X145769609Y-122921382D01*
X145752367Y-122931579D01*
X145734899Y-122940137D01*
X145716269Y-122947513D01*
X145716267Y-122947514D01*
X145678576Y-122974898D01*
X145673694Y-122978105D01*
X145633579Y-123001830D01*
X145619408Y-123016000D01*
X145604623Y-123028628D01*
X145588412Y-123040407D01*
X145558709Y-123076310D01*
X145554777Y-123080631D01*
X145172228Y-123463181D01*
X145110905Y-123496666D01*
X145084547Y-123499500D01*
X145025354Y-123499500D01*
X144992897Y-123506398D01*
X144840197Y-123538855D01*
X144840192Y-123538857D01*
X144667270Y-123615848D01*
X144667265Y-123615851D01*
X144514129Y-123727111D01*
X144387466Y-123867785D01*
X144292821Y-124031715D01*
X144292818Y-124031722D01*
X144234327Y-124211740D01*
X144234326Y-124211744D01*
X144214540Y-124400000D01*
X144234326Y-124588256D01*
X144234327Y-124588259D01*
X144292818Y-124768277D01*
X144292821Y-124768284D01*
X144387467Y-124932216D01*
X144496426Y-125053227D01*
X144514129Y-125072888D01*
X144667265Y-125184148D01*
X144667270Y-125184151D01*
X144840192Y-125261142D01*
X144840197Y-125261144D01*
X145025354Y-125300500D01*
X145025355Y-125300500D01*
X145214644Y-125300500D01*
X145214646Y-125300500D01*
X145399803Y-125261144D01*
X145572730Y-125184151D01*
X145725871Y-125072888D01*
X145852533Y-124932216D01*
X145947179Y-124768284D01*
X146005674Y-124588256D01*
X146023321Y-124420344D01*
X146049904Y-124355734D01*
X146058950Y-124345639D01*
X146196497Y-124208092D01*
X146257817Y-124174610D01*
X146327509Y-124179594D01*
X146383442Y-124221466D01*
X146401880Y-124256770D01*
X146410183Y-124281827D01*
X146410190Y-124281842D01*
X146502286Y-124431151D01*
X146502289Y-124431155D01*
X146626344Y-124555210D01*
X146626348Y-124555213D01*
X146775662Y-124647312D01*
X146775664Y-124647313D01*
X146775666Y-124647314D01*
X146942203Y-124702499D01*
X147044992Y-124713000D01*
X147044997Y-124713000D01*
X148395003Y-124713000D01*
X148395008Y-124713000D01*
X148497797Y-124702499D01*
X148664334Y-124647314D01*
X148813655Y-124555211D01*
X148937711Y-124431155D01*
X149029814Y-124281834D01*
X149084999Y-124115297D01*
X149086562Y-124100000D01*
X167214540Y-124100000D01*
X167234326Y-124288256D01*
X167234327Y-124288259D01*
X167292818Y-124468277D01*
X167292821Y-124468284D01*
X167387467Y-124632216D01*
X167468590Y-124722312D01*
X167514129Y-124772888D01*
X167667265Y-124884148D01*
X167667270Y-124884151D01*
X167840192Y-124961142D01*
X167840197Y-124961144D01*
X168025354Y-125000500D01*
X168025355Y-125000500D01*
X168214644Y-125000500D01*
X168214646Y-125000500D01*
X168399803Y-124961144D01*
X168572730Y-124884151D01*
X168725871Y-124772888D01*
X168852533Y-124632216D01*
X168936745Y-124486356D01*
X168987309Y-124438143D01*
X169055916Y-124424919D01*
X169120781Y-124450887D01*
X169131811Y-124460677D01*
X169226344Y-124555210D01*
X169226348Y-124555213D01*
X169375662Y-124647312D01*
X169375664Y-124647313D01*
X169375666Y-124647314D01*
X169542203Y-124702499D01*
X169644992Y-124713000D01*
X169644997Y-124713000D01*
X170995003Y-124713000D01*
X170995008Y-124713000D01*
X171097797Y-124702499D01*
X171264334Y-124647314D01*
X171413655Y-124555211D01*
X171537711Y-124431155D01*
X171629814Y-124281834D01*
X171684999Y-124115297D01*
X171695500Y-124012508D01*
X171695500Y-122987492D01*
X171684999Y-122884703D01*
X171629814Y-122718166D01*
X171629808Y-122718157D01*
X171537713Y-122568848D01*
X171537710Y-122568844D01*
X171413655Y-122444789D01*
X171413651Y-122444786D01*
X171264337Y-122352687D01*
X171264335Y-122352686D01*
X171181065Y-122325093D01*
X171097797Y-122297501D01*
X171097795Y-122297500D01*
X170995015Y-122287000D01*
X170995008Y-122287000D01*
X169644992Y-122287000D01*
X169644984Y-122287000D01*
X169542204Y-122297500D01*
X169542203Y-122297501D01*
X169375664Y-122352686D01*
X169375662Y-122352687D01*
X169226348Y-122444786D01*
X169226344Y-122444789D01*
X169102289Y-122568844D01*
X169102286Y-122568848D01*
X169010190Y-122718157D01*
X169010185Y-122718168D01*
X168986547Y-122789504D01*
X168946774Y-122846949D01*
X168882258Y-122873772D01*
X168868841Y-122874500D01*
X168802738Y-122874500D01*
X168787121Y-122872776D01*
X168787094Y-122873062D01*
X168779332Y-122872327D01*
X168710204Y-122874500D01*
X168680650Y-122874500D01*
X168679929Y-122874590D01*
X168673757Y-122875369D01*
X168667945Y-122875826D01*
X168621373Y-122877290D01*
X168621372Y-122877290D01*
X168602129Y-122882881D01*
X168583079Y-122886825D01*
X168563211Y-122889334D01*
X168563209Y-122889335D01*
X168519884Y-122906488D01*
X168514357Y-122908380D01*
X168469610Y-122921381D01*
X168469609Y-122921382D01*
X168452367Y-122931579D01*
X168434899Y-122940137D01*
X168416269Y-122947513D01*
X168416267Y-122947514D01*
X168378576Y-122974898D01*
X168373694Y-122978105D01*
X168333579Y-123001830D01*
X168319408Y-123016000D01*
X168304623Y-123028628D01*
X168288412Y-123040407D01*
X168258714Y-123076304D01*
X168254783Y-123080624D01*
X168172228Y-123163180D01*
X168110906Y-123196666D01*
X168084546Y-123199500D01*
X168025354Y-123199500D01*
X167992897Y-123206398D01*
X167840197Y-123238855D01*
X167840192Y-123238857D01*
X167667270Y-123315848D01*
X167667265Y-123315851D01*
X167514129Y-123427111D01*
X167387466Y-123567785D01*
X167292821Y-123731715D01*
X167292818Y-123731722D01*
X167248609Y-123867785D01*
X167234326Y-123911744D01*
X167214540Y-124100000D01*
X149086562Y-124100000D01*
X149095500Y-124012508D01*
X149095500Y-122987492D01*
X149084999Y-122884703D01*
X149081375Y-122873767D01*
X149053122Y-122788503D01*
X149050720Y-122718675D01*
X149086452Y-122658633D01*
X149148973Y-122627441D01*
X149170828Y-122625500D01*
X166237257Y-122625500D01*
X166252877Y-122627224D01*
X166252904Y-122626939D01*
X166260660Y-122627671D01*
X166260667Y-122627673D01*
X166329814Y-122625500D01*
X166359350Y-122625500D01*
X166366228Y-122624630D01*
X166372041Y-122624172D01*
X166418627Y-122622709D01*
X166437869Y-122617117D01*
X166456912Y-122613174D01*
X166476792Y-122610664D01*
X166520122Y-122593507D01*
X166525646Y-122591617D01*
X166529396Y-122590527D01*
X166570390Y-122578618D01*
X166587629Y-122568422D01*
X166605103Y-122559862D01*
X166623727Y-122552488D01*
X166623727Y-122552487D01*
X166623732Y-122552486D01*
X166661449Y-122525082D01*
X166666305Y-122521892D01*
X166706420Y-122498170D01*
X166720589Y-122483999D01*
X166735379Y-122471368D01*
X166751587Y-122459594D01*
X166781299Y-122423676D01*
X166785212Y-122419376D01*
X168732820Y-120471768D01*
X168794142Y-120438285D01*
X168863834Y-120443269D01*
X168919767Y-120485141D01*
X168944184Y-120550605D01*
X168944500Y-120559451D01*
X168944500Y-121037515D01*
X168955000Y-121140295D01*
X168955001Y-121140297D01*
X168958382Y-121150500D01*
X169010186Y-121306835D01*
X169010187Y-121306837D01*
X169102286Y-121456151D01*
X169102289Y-121456155D01*
X169226344Y-121580210D01*
X169226348Y-121580213D01*
X169375662Y-121672312D01*
X169375664Y-121672313D01*
X169375666Y-121672314D01*
X169542203Y-121727499D01*
X169644992Y-121738000D01*
X169644997Y-121738000D01*
X170995003Y-121738000D01*
X170995008Y-121738000D01*
X171097797Y-121727499D01*
X171264334Y-121672314D01*
X171413655Y-121580211D01*
X171537711Y-121456155D01*
X171629814Y-121306834D01*
X171684999Y-121140297D01*
X171695500Y-121037508D01*
X171695500Y-120012492D01*
X171684999Y-119909703D01*
X171629814Y-119743166D01*
X171629808Y-119743157D01*
X171537713Y-119593848D01*
X171537710Y-119593844D01*
X171413655Y-119469789D01*
X171413651Y-119469786D01*
X171264337Y-119377687D01*
X171264335Y-119377686D01*
X171130911Y-119333474D01*
X171097797Y-119322501D01*
X171097795Y-119322500D01*
X171056896Y-119318322D01*
X170992205Y-119291925D01*
X170952054Y-119234744D01*
X170945500Y-119194964D01*
X170945500Y-106082742D01*
X170947224Y-106067122D01*
X170946939Y-106067095D01*
X170947673Y-106059333D01*
X170945500Y-105990172D01*
X170945500Y-105960656D01*
X170945500Y-105960650D01*
X170944631Y-105953779D01*
X170944173Y-105947952D01*
X170942710Y-105901373D01*
X170937119Y-105882130D01*
X170933173Y-105863078D01*
X170930664Y-105843208D01*
X170929686Y-105835462D01*
X170930991Y-105835297D01*
X170933106Y-105773572D01*
X170972870Y-105716122D01*
X171037383Y-105689290D01*
X171101251Y-105699280D01*
X171240197Y-105761144D01*
X171425354Y-105800500D01*
X171425355Y-105800500D01*
X171614644Y-105800500D01*
X171614646Y-105800500D01*
X171799803Y-105761144D01*
X171972730Y-105684151D01*
X172125871Y-105572888D01*
X172252533Y-105432216D01*
X172347179Y-105268284D01*
X172405674Y-105088256D01*
X172425460Y-104900000D01*
X172405674Y-104711744D01*
X172347179Y-104531716D01*
X172252533Y-104367784D01*
X172125871Y-104227112D01*
X172125870Y-104227111D01*
X171972734Y-104115851D01*
X171972729Y-104115848D01*
X171799807Y-104038857D01*
X171799802Y-104038855D01*
X171628755Y-104002499D01*
X171614646Y-103999500D01*
X171614645Y-103999500D01*
X171568728Y-103999500D01*
X171501689Y-103979815D01*
X171455934Y-103927011D01*
X171445990Y-103857853D01*
X171475015Y-103794297D01*
X171481047Y-103787819D01*
X171500589Y-103768277D01*
X171537711Y-103731155D01*
X171629814Y-103581834D01*
X171684999Y-103415297D01*
X171695500Y-103312508D01*
X171695500Y-102287492D01*
X171684999Y-102184703D01*
X171629814Y-102018166D01*
X171618698Y-102000145D01*
X171537713Y-101868848D01*
X171537710Y-101868844D01*
X171413655Y-101744789D01*
X171413651Y-101744786D01*
X171264337Y-101652687D01*
X171264335Y-101652686D01*
X171140767Y-101611740D01*
X171097797Y-101597501D01*
X171097795Y-101597500D01*
X170995015Y-101587000D01*
X170995008Y-101587000D01*
X169687725Y-101587000D01*
X169620686Y-101567315D01*
X169574931Y-101514511D01*
X169569794Y-101501318D01*
X169547181Y-101431721D01*
X169547178Y-101431715D01*
X169508788Y-101365221D01*
X169452533Y-101267784D01*
X169419100Y-101230653D01*
X169388871Y-101167664D01*
X169397495Y-101098329D01*
X169442235Y-101044663D01*
X169508888Y-101023705D01*
X169537210Y-101026430D01*
X169542196Y-101027496D01*
X169542203Y-101027499D01*
X169644992Y-101038000D01*
X169644997Y-101038000D01*
X170995003Y-101038000D01*
X170995008Y-101038000D01*
X171097797Y-101027499D01*
X171264334Y-100972314D01*
X171413655Y-100880211D01*
X171537711Y-100756155D01*
X171629814Y-100606834D01*
X171684999Y-100440297D01*
X171695500Y-100337508D01*
X171695500Y-99312492D01*
X171684999Y-99209703D01*
X171629814Y-99043166D01*
X171625889Y-99036803D01*
X171537713Y-98893848D01*
X171537710Y-98893844D01*
X171413655Y-98769789D01*
X171413651Y-98769786D01*
X171264337Y-98677687D01*
X171264335Y-98677686D01*
X171181065Y-98650093D01*
X171097797Y-98622501D01*
X171097795Y-98622500D01*
X171056896Y-98618322D01*
X170992205Y-98591925D01*
X170952054Y-98534744D01*
X170945500Y-98494964D01*
X170945500Y-97282742D01*
X170947224Y-97267122D01*
X170946939Y-97267095D01*
X170947673Y-97259333D01*
X170945500Y-97190172D01*
X170945500Y-97160656D01*
X170945500Y-97160650D01*
X170944631Y-97153779D01*
X170944173Y-97147952D01*
X170944159Y-97147510D01*
X170942710Y-97101373D01*
X170937119Y-97082130D01*
X170933173Y-97063078D01*
X170930664Y-97043208D01*
X170913504Y-96999867D01*
X170911624Y-96994379D01*
X170898618Y-96949610D01*
X170888422Y-96932370D01*
X170879861Y-96914894D01*
X170872487Y-96896270D01*
X170872486Y-96896268D01*
X170845079Y-96858545D01*
X170841888Y-96853686D01*
X170837524Y-96846307D01*
X170818170Y-96813580D01*
X170818168Y-96813578D01*
X170818165Y-96813574D01*
X170804006Y-96799415D01*
X170791368Y-96784619D01*
X170784210Y-96774767D01*
X170779594Y-96768413D01*
X170778652Y-96767634D01*
X170743688Y-96738709D01*
X170739376Y-96734786D01*
X169658960Y-95654369D01*
X169625475Y-95593046D01*
X169623323Y-95579668D01*
X169605674Y-95411744D01*
X169547179Y-95231716D01*
X169452533Y-95067784D01*
X169325871Y-94927112D01*
X169325870Y-94927111D01*
X169172734Y-94815851D01*
X169172729Y-94815848D01*
X168999807Y-94738857D01*
X168999803Y-94738856D01*
X168967159Y-94731917D01*
X168905677Y-94698724D01*
X168871901Y-94637561D01*
X168876555Y-94567846D01*
X168918160Y-94511714D01*
X168967154Y-94489339D01*
X169099803Y-94461144D01*
X169099807Y-94461142D01*
X169099808Y-94461142D01*
X169158058Y-94435206D01*
X169272730Y-94384151D01*
X169425871Y-94272888D01*
X169552533Y-94132216D01*
X169647179Y-93968284D01*
X169705674Y-93788256D01*
X169725460Y-93600000D01*
X169705674Y-93411744D01*
X169647179Y-93231716D01*
X169552533Y-93067784D01*
X169425871Y-92927112D01*
X169425870Y-92927111D01*
X169272734Y-92815851D01*
X169272729Y-92815848D01*
X169099807Y-92738857D01*
X169099802Y-92738855D01*
X168967160Y-92710662D01*
X168905678Y-92677470D01*
X168871902Y-92616307D01*
X168876554Y-92546592D01*
X168918159Y-92490460D01*
X168967157Y-92468082D01*
X168999803Y-92461144D01*
X169172730Y-92384151D01*
X169325871Y-92272888D01*
X169452533Y-92132216D01*
X169547179Y-91968284D01*
X169605674Y-91788256D01*
X169625460Y-91600000D01*
X169605674Y-91411744D01*
X169547179Y-91231716D01*
X169452533Y-91067784D01*
X169325871Y-90927112D01*
X169325870Y-90927111D01*
X169172734Y-90815851D01*
X169172729Y-90815848D01*
X168999807Y-90738857D01*
X168999802Y-90738855D01*
X168854001Y-90707865D01*
X168814646Y-90699500D01*
X168814645Y-90699500D01*
X168755453Y-90699500D01*
X168688414Y-90679815D01*
X168667772Y-90663181D01*
X168614647Y-90610056D01*
X168581162Y-90548733D01*
X168586146Y-90479041D01*
X168628018Y-90423108D01*
X168693482Y-90398691D01*
X168718831Y-90400444D01*
X168718897Y-90399821D01*
X168725353Y-90400499D01*
X168725354Y-90400500D01*
X168725355Y-90400500D01*
X168914644Y-90400500D01*
X168914646Y-90400500D01*
X169099803Y-90361144D01*
X169272730Y-90284151D01*
X169425871Y-90172888D01*
X169552533Y-90032216D01*
X169647179Y-89868284D01*
X169705674Y-89688256D01*
X169723321Y-89520344D01*
X169749904Y-89455734D01*
X169758951Y-89445638D01*
X170703788Y-88500801D01*
X170716042Y-88490986D01*
X170715859Y-88490764D01*
X170721866Y-88485792D01*
X170721877Y-88485786D01*
X170752775Y-88452882D01*
X170769227Y-88435364D01*
X170779671Y-88424918D01*
X170790120Y-88414471D01*
X170794379Y-88408978D01*
X170798152Y-88404561D01*
X170830062Y-88370582D01*
X170839713Y-88353024D01*
X170850396Y-88336761D01*
X170862673Y-88320936D01*
X170881185Y-88278153D01*
X170883738Y-88272941D01*
X170906197Y-88232092D01*
X170911180Y-88212680D01*
X170917481Y-88194280D01*
X170925437Y-88175896D01*
X170932729Y-88129852D01*
X170933906Y-88124171D01*
X170945500Y-88079019D01*
X170945500Y-88058983D01*
X170947027Y-88039582D01*
X170950160Y-88019804D01*
X170945775Y-87973415D01*
X170945500Y-87967577D01*
X170945500Y-82817535D01*
X170965185Y-82750496D01*
X171017989Y-82704741D01*
X171056896Y-82694177D01*
X171097797Y-82689999D01*
X171264334Y-82634814D01*
X171413655Y-82542711D01*
X171537711Y-82418655D01*
X171629814Y-82269334D01*
X171684999Y-82102797D01*
X171695500Y-82000008D01*
X171695500Y-80974992D01*
X171684999Y-80872203D01*
X171629814Y-80705666D01*
X171537711Y-80556345D01*
X171413655Y-80432289D01*
X171413651Y-80432286D01*
X171264337Y-80340187D01*
X171264335Y-80340186D01*
X171181065Y-80312593D01*
X171097797Y-80285001D01*
X171097795Y-80285000D01*
X170995015Y-80274500D01*
X170995008Y-80274500D01*
X169644992Y-80274500D01*
X169644984Y-80274500D01*
X169542204Y-80285000D01*
X169542203Y-80285001D01*
X169375664Y-80340186D01*
X169375662Y-80340187D01*
X169226348Y-80432286D01*
X169226344Y-80432289D01*
X169102289Y-80556344D01*
X169102286Y-80556348D01*
X169010187Y-80705662D01*
X169010186Y-80705664D01*
X168955001Y-80872203D01*
X168955000Y-80872204D01*
X168944500Y-80974984D01*
X168944500Y-82000015D01*
X168955000Y-82102795D01*
X168955001Y-82102796D01*
X169010186Y-82269335D01*
X169010187Y-82269337D01*
X169102286Y-82418651D01*
X169102289Y-82418655D01*
X169226344Y-82542710D01*
X169226348Y-82542713D01*
X169375662Y-82634812D01*
X169375664Y-82634813D01*
X169375666Y-82634814D01*
X169542203Y-82689999D01*
X169583102Y-82694177D01*
X169647793Y-82720573D01*
X169687945Y-82777753D01*
X169694500Y-82817535D01*
X169694500Y-87689547D01*
X169674815Y-87756586D01*
X169658181Y-87777228D01*
X168872228Y-88563181D01*
X168810905Y-88596666D01*
X168784547Y-88599500D01*
X168725354Y-88599500D01*
X168695280Y-88605892D01*
X168625613Y-88600575D01*
X168569879Y-88558437D01*
X168545775Y-88492857D01*
X168545500Y-88484601D01*
X168545500Y-87982742D01*
X168547224Y-87967122D01*
X168546939Y-87967095D01*
X168547673Y-87959333D01*
X168545500Y-87890172D01*
X168545500Y-87860656D01*
X168545500Y-87860650D01*
X168544631Y-87853779D01*
X168544173Y-87847952D01*
X168542710Y-87801373D01*
X168537119Y-87782130D01*
X168533173Y-87763078D01*
X168530664Y-87743208D01*
X168513504Y-87699867D01*
X168511624Y-87694379D01*
X168498618Y-87649610D01*
X168488422Y-87632370D01*
X168479861Y-87614894D01*
X168472487Y-87596270D01*
X168472486Y-87596268D01*
X168445079Y-87558545D01*
X168441888Y-87553686D01*
X168418172Y-87513583D01*
X168418165Y-87513574D01*
X168404006Y-87499415D01*
X168391368Y-87484619D01*
X168379594Y-87468413D01*
X168343688Y-87438709D01*
X168339376Y-87434786D01*
X166020803Y-85116212D01*
X166010980Y-85103950D01*
X166010759Y-85104134D01*
X166005786Y-85098123D01*
X165955364Y-85050773D01*
X165944919Y-85040328D01*
X165934475Y-85029883D01*
X165928986Y-85025625D01*
X165924561Y-85021847D01*
X165890582Y-84989938D01*
X165890580Y-84989936D01*
X165890577Y-84989935D01*
X165873029Y-84980288D01*
X165856763Y-84969604D01*
X165840933Y-84957325D01*
X165798168Y-84938818D01*
X165792922Y-84936248D01*
X165752093Y-84913803D01*
X165752092Y-84913802D01*
X165732693Y-84908822D01*
X165714281Y-84902518D01*
X165695898Y-84894562D01*
X165695892Y-84894560D01*
X165649874Y-84887272D01*
X165644152Y-84886087D01*
X165599021Y-84874500D01*
X165599019Y-84874500D01*
X165578984Y-84874500D01*
X165559586Y-84872973D01*
X165552162Y-84871797D01*
X165539805Y-84869840D01*
X165539804Y-84869840D01*
X165493416Y-84874225D01*
X165487578Y-84874500D01*
X149730452Y-84874500D01*
X149663413Y-84854815D01*
X149642771Y-84838181D01*
X148381819Y-83577228D01*
X148348334Y-83515905D01*
X148345500Y-83489547D01*
X148345500Y-82817535D01*
X148365185Y-82750496D01*
X148417989Y-82704741D01*
X148456896Y-82694177D01*
X148497797Y-82689999D01*
X148664334Y-82634814D01*
X148813655Y-82542711D01*
X148937711Y-82418655D01*
X149029814Y-82269334D01*
X149084999Y-82102797D01*
X149095500Y-82000008D01*
X149095500Y-80974992D01*
X149084999Y-80872203D01*
X149029814Y-80705666D01*
X148937711Y-80556345D01*
X148813655Y-80432289D01*
X148813651Y-80432286D01*
X148664337Y-80340187D01*
X148664335Y-80340186D01*
X148581065Y-80312593D01*
X148497797Y-80285001D01*
X148497795Y-80285000D01*
X148395015Y-80274500D01*
X148395008Y-80274500D01*
X147044992Y-80274500D01*
X147044984Y-80274500D01*
X146942204Y-80285000D01*
X146942203Y-80285001D01*
X146775664Y-80340186D01*
X146775662Y-80340187D01*
X146626348Y-80432286D01*
X146626344Y-80432289D01*
X146502289Y-80556344D01*
X146502286Y-80556348D01*
X146410187Y-80705662D01*
X146410186Y-80705664D01*
X146355001Y-80872203D01*
X146355000Y-80872204D01*
X146344500Y-80974984D01*
X146344500Y-82000015D01*
X146355000Y-82102795D01*
X146355001Y-82102796D01*
X146410186Y-82269335D01*
X146410187Y-82269337D01*
X146502286Y-82418651D01*
X146502289Y-82418655D01*
X146626344Y-82542710D01*
X146626348Y-82542713D01*
X146775662Y-82634812D01*
X146775664Y-82634813D01*
X146775666Y-82634814D01*
X146942203Y-82689999D01*
X146983102Y-82694177D01*
X147047793Y-82720573D01*
X147087945Y-82777753D01*
X147094500Y-82817535D01*
X147094500Y-83717255D01*
X147092775Y-83732872D01*
X147093061Y-83732899D01*
X147092326Y-83740665D01*
X147094500Y-83809814D01*
X147094500Y-83839343D01*
X147094501Y-83839360D01*
X147095368Y-83846231D01*
X147095826Y-83852050D01*
X147097290Y-83898624D01*
X147097291Y-83898627D01*
X147102880Y-83917867D01*
X147106824Y-83936911D01*
X147109336Y-83956792D01*
X147126490Y-84000119D01*
X147128382Y-84005647D01*
X147141381Y-84050388D01*
X147151580Y-84067634D01*
X147160136Y-84085100D01*
X147160311Y-84085541D01*
X147167514Y-84103732D01*
X147194898Y-84141423D01*
X147198106Y-84146307D01*
X147221827Y-84186416D01*
X147221833Y-84186424D01*
X147235990Y-84200580D01*
X147248628Y-84215376D01*
X147260405Y-84231586D01*
X147260406Y-84231587D01*
X147296309Y-84261288D01*
X147300620Y-84265210D01*
X148133532Y-85098123D01*
X148398228Y-85362819D01*
X148431713Y-85424142D01*
X148426729Y-85493834D01*
X148384857Y-85549767D01*
X148319393Y-85574184D01*
X148310547Y-85574500D01*
X130022953Y-85574500D01*
X129955914Y-85554815D01*
X129935272Y-85538181D01*
X126411819Y-82014728D01*
X126378334Y-81953405D01*
X126375500Y-81927047D01*
X126375500Y-80974997D01*
X126375499Y-80974984D01*
X126364999Y-80872204D01*
X126364999Y-80872203D01*
X126309814Y-80705666D01*
X126217711Y-80556345D01*
X126093655Y-80432289D01*
X126093651Y-80432286D01*
X125944337Y-80340187D01*
X125944335Y-80340186D01*
X125861065Y-80312593D01*
X125777797Y-80285001D01*
X125777795Y-80285000D01*
X125675015Y-80274500D01*
X125675008Y-80274500D01*
X124324992Y-80274500D01*
X124324984Y-80274500D01*
X124222204Y-80285000D01*
X124222203Y-80285001D01*
X124055664Y-80340186D01*
X124055662Y-80340187D01*
X123906348Y-80432286D01*
X123906344Y-80432289D01*
X123782289Y-80556344D01*
X123782286Y-80556348D01*
X123690187Y-80705662D01*
X123690186Y-80705664D01*
X123635001Y-80872203D01*
X123635000Y-80872204D01*
X123624500Y-80974984D01*
X123624500Y-82000015D01*
X123635000Y-82102795D01*
X123635001Y-82102796D01*
X123690186Y-82269335D01*
X123690187Y-82269337D01*
X123782286Y-82418651D01*
X123782289Y-82418655D01*
X123906344Y-82542710D01*
X123906348Y-82542713D01*
X124055662Y-82634812D01*
X124055664Y-82634813D01*
X124055666Y-82634814D01*
X124222203Y-82689999D01*
X124324992Y-82700500D01*
X125277048Y-82700500D01*
X125344087Y-82720185D01*
X125364729Y-82736819D01*
X129211697Y-86583788D01*
X129221522Y-86596051D01*
X129221743Y-86595869D01*
X129226714Y-86601878D01*
X129252717Y-86626295D01*
X129277135Y-86649226D01*
X129298029Y-86670120D01*
X129303511Y-86674373D01*
X129307943Y-86678157D01*
X129341918Y-86710062D01*
X129359476Y-86719714D01*
X129375735Y-86730395D01*
X129391564Y-86742673D01*
X129434338Y-86761182D01*
X129439556Y-86763738D01*
X129480408Y-86786197D01*
X129499816Y-86791180D01*
X129518217Y-86797480D01*
X129536604Y-86805437D01*
X129579988Y-86812308D01*
X129582619Y-86812725D01*
X129588339Y-86813909D01*
X129633481Y-86825500D01*
X129653516Y-86825500D01*
X129672914Y-86827026D01*
X129692694Y-86830159D01*
X129692695Y-86830160D01*
X129692695Y-86830159D01*
X129692696Y-86830160D01*
X129739084Y-86825775D01*
X129744922Y-86825500D01*
X164809548Y-86825500D01*
X164876587Y-86845185D01*
X164897229Y-86861819D01*
X166558181Y-88522771D01*
X166591666Y-88584094D01*
X166594500Y-88610452D01*
X166594500Y-91917255D01*
X166592775Y-91932872D01*
X166593061Y-91932899D01*
X166592326Y-91940665D01*
X166594500Y-92009814D01*
X166594500Y-92039343D01*
X166594501Y-92039360D01*
X166595368Y-92046231D01*
X166595826Y-92052050D01*
X166597290Y-92098624D01*
X166597291Y-92098627D01*
X166602880Y-92117867D01*
X166606824Y-92136911D01*
X166609336Y-92156791D01*
X166626490Y-92200119D01*
X166628382Y-92205647D01*
X166641381Y-92250388D01*
X166651580Y-92267634D01*
X166660138Y-92285103D01*
X166667514Y-92303732D01*
X166694898Y-92341423D01*
X166698106Y-92346307D01*
X166721827Y-92386416D01*
X166721833Y-92386424D01*
X166735990Y-92400580D01*
X166748627Y-92415375D01*
X166760406Y-92431587D01*
X166796132Y-92461142D01*
X166796309Y-92461288D01*
X166800620Y-92465210D01*
X167403194Y-93067784D01*
X167881038Y-93545628D01*
X167914523Y-93606951D01*
X167916678Y-93620347D01*
X167917866Y-93631648D01*
X167934326Y-93788256D01*
X167934327Y-93788259D01*
X167992818Y-93968277D01*
X167992821Y-93968284D01*
X168087467Y-94132216D01*
X168214129Y-94272888D01*
X168367265Y-94384148D01*
X168367270Y-94384151D01*
X168540191Y-94461142D01*
X168540193Y-94461142D01*
X168540197Y-94461144D01*
X168572841Y-94468082D01*
X168634320Y-94501273D01*
X168668097Y-94562436D01*
X168663445Y-94632151D01*
X168621841Y-94688283D01*
X168572839Y-94710662D01*
X168440197Y-94738855D01*
X168440192Y-94738857D01*
X168267270Y-94815848D01*
X168267265Y-94815851D01*
X168114129Y-94927111D01*
X167987466Y-95067785D01*
X167892821Y-95231715D01*
X167892818Y-95231722D01*
X167834327Y-95411740D01*
X167834326Y-95411744D01*
X167814540Y-95600000D01*
X167834326Y-95788256D01*
X167834327Y-95788259D01*
X167892818Y-95968277D01*
X167892821Y-95968284D01*
X167987467Y-96132216D01*
X168061222Y-96214129D01*
X168114129Y-96272888D01*
X168267265Y-96384148D01*
X168267270Y-96384151D01*
X168440192Y-96461142D01*
X168440197Y-96461144D01*
X168625354Y-96500500D01*
X168684548Y-96500500D01*
X168751587Y-96520185D01*
X168772229Y-96536819D01*
X168823229Y-96587819D01*
X168856714Y-96649142D01*
X168851730Y-96718834D01*
X168809858Y-96774767D01*
X168744394Y-96799184D01*
X168735548Y-96799500D01*
X168625354Y-96799500D01*
X168605444Y-96803732D01*
X168440197Y-96838855D01*
X168440192Y-96838857D01*
X168267270Y-96915848D01*
X168267265Y-96915851D01*
X168114130Y-97027110D01*
X168114126Y-97027114D01*
X168108400Y-97033474D01*
X168048913Y-97070121D01*
X168016252Y-97074500D01*
X148902743Y-97074500D01*
X148887122Y-97072775D01*
X148887096Y-97073061D01*
X148879334Y-97072327D01*
X148879333Y-97072327D01*
X148810186Y-97074500D01*
X148780649Y-97074500D01*
X148773766Y-97075369D01*
X148767949Y-97075826D01*
X148721373Y-97077290D01*
X148702129Y-97082881D01*
X148683079Y-97086825D01*
X148663211Y-97089334D01*
X148619884Y-97106488D01*
X148614358Y-97108379D01*
X148569614Y-97121379D01*
X148569610Y-97121381D01*
X148552366Y-97131579D01*
X148534905Y-97140133D01*
X148516274Y-97147510D01*
X148516262Y-97147517D01*
X148478570Y-97174902D01*
X148473687Y-97178109D01*
X148433580Y-97201829D01*
X148419414Y-97215995D01*
X148404624Y-97228627D01*
X148388414Y-97240404D01*
X148388411Y-97240407D01*
X148358710Y-97276309D01*
X148354777Y-97280631D01*
X147336208Y-98299199D01*
X147323951Y-98309020D01*
X147324134Y-98309241D01*
X147318123Y-98314213D01*
X147270772Y-98364636D01*
X147249889Y-98385519D01*
X147249877Y-98385532D01*
X147245621Y-98391017D01*
X147241837Y-98395447D01*
X147209937Y-98429418D01*
X147209936Y-98429420D01*
X147200284Y-98446976D01*
X147189610Y-98463226D01*
X147177329Y-98479061D01*
X147177324Y-98479068D01*
X147158815Y-98521838D01*
X147156245Y-98527085D01*
X147144731Y-98548029D01*
X147095185Y-98597294D01*
X147048020Y-98610574D01*
X147048133Y-98611679D01*
X146942204Y-98622500D01*
X146942203Y-98622501D01*
X146775664Y-98677686D01*
X146775662Y-98677687D01*
X146626348Y-98769786D01*
X146626344Y-98769789D01*
X146502289Y-98893844D01*
X146502286Y-98893848D01*
X146410187Y-99043162D01*
X146410186Y-99043164D01*
X146355001Y-99209703D01*
X146355000Y-99209704D01*
X146344500Y-99312484D01*
X146344500Y-100337515D01*
X146355000Y-100440295D01*
X146355001Y-100440299D01*
X146378594Y-100511497D01*
X146380996Y-100581325D01*
X146345264Y-100641367D01*
X146282743Y-100672559D01*
X146260888Y-100674500D01*
X136692370Y-100674500D01*
X136625331Y-100654815D01*
X136579576Y-100602011D01*
X136569632Y-100532853D01*
X136598657Y-100469297D01*
X136619485Y-100450182D01*
X136656322Y-100423418D01*
X136725871Y-100372888D01*
X136852533Y-100232216D01*
X136947179Y-100068284D01*
X137005674Y-99888256D01*
X137025460Y-99700000D01*
X137005674Y-99511744D01*
X136947179Y-99331716D01*
X136852533Y-99167784D01*
X136725871Y-99027112D01*
X136710369Y-99015849D01*
X136572734Y-98915851D01*
X136572729Y-98915848D01*
X136399807Y-98838857D01*
X136399802Y-98838855D01*
X136243862Y-98805710D01*
X136214646Y-98799500D01*
X136214645Y-98799500D01*
X136155453Y-98799500D01*
X136088414Y-98779815D01*
X136067772Y-98763181D01*
X133581819Y-96277228D01*
X133548334Y-96215905D01*
X133545500Y-96189547D01*
X133545500Y-93698687D01*
X133565185Y-93631648D01*
X133577350Y-93615715D01*
X133595891Y-93595122D01*
X133652533Y-93532216D01*
X133747179Y-93368284D01*
X133805674Y-93188256D01*
X133825460Y-93000000D01*
X133805674Y-92811744D01*
X133747179Y-92631716D01*
X133652533Y-92467784D01*
X133525871Y-92327112D01*
X133525870Y-92327111D01*
X133372734Y-92215851D01*
X133372729Y-92215848D01*
X133199807Y-92138857D01*
X133199802Y-92138855D01*
X133054001Y-92107865D01*
X133014646Y-92099500D01*
X132825354Y-92099500D01*
X132792897Y-92106398D01*
X132640197Y-92138855D01*
X132640192Y-92138857D01*
X132467270Y-92215848D01*
X132467265Y-92215851D01*
X132314129Y-92327111D01*
X132187466Y-92467785D01*
X132092821Y-92631715D01*
X132092818Y-92631722D01*
X132034327Y-92811740D01*
X132034326Y-92811744D01*
X132014540Y-93000000D01*
X132034326Y-93188256D01*
X132034327Y-93188259D01*
X132092818Y-93368277D01*
X132092821Y-93368284D01*
X132187467Y-93532216D01*
X132230772Y-93580310D01*
X132262650Y-93615715D01*
X132292880Y-93678706D01*
X132294500Y-93698687D01*
X132294500Y-96417255D01*
X132292775Y-96432872D01*
X132293061Y-96432899D01*
X132292326Y-96440665D01*
X132294500Y-96509814D01*
X132294500Y-96539343D01*
X132294501Y-96539360D01*
X132295368Y-96546231D01*
X132295826Y-96552050D01*
X132297290Y-96598624D01*
X132297291Y-96598627D01*
X132302880Y-96617867D01*
X132306824Y-96636911D01*
X132308370Y-96649142D01*
X132309336Y-96656791D01*
X132326490Y-96700119D01*
X132328382Y-96705647D01*
X132341381Y-96750388D01*
X132351580Y-96767634D01*
X132360138Y-96785103D01*
X132367514Y-96803732D01*
X132394898Y-96841423D01*
X132398106Y-96846307D01*
X132421827Y-96886416D01*
X132421833Y-96886424D01*
X132435990Y-96900580D01*
X132448627Y-96915375D01*
X132460406Y-96931587D01*
X132482187Y-96949606D01*
X132496309Y-96961288D01*
X132500620Y-96965210D01*
X134510988Y-98975579D01*
X135181038Y-99645629D01*
X135214523Y-99706952D01*
X135216678Y-99720348D01*
X135223071Y-99781170D01*
X135234326Y-99888256D01*
X135234327Y-99888259D01*
X135292818Y-100068277D01*
X135292821Y-100068284D01*
X135387467Y-100232216D01*
X135482267Y-100337502D01*
X135514129Y-100372888D01*
X135620515Y-100450182D01*
X135663181Y-100505512D01*
X135669160Y-100575125D01*
X135636554Y-100636920D01*
X135575716Y-100671277D01*
X135547630Y-100674500D01*
X126705452Y-100674500D01*
X126638413Y-100654815D01*
X126617771Y-100638181D01*
X126331819Y-100352228D01*
X126298334Y-100290905D01*
X126295500Y-100264547D01*
X126295500Y-99312497D01*
X126295499Y-99312484D01*
X126294410Y-99301828D01*
X126284999Y-99209703D01*
X126250451Y-99105447D01*
X126248050Y-99035621D01*
X126283782Y-98975579D01*
X126317722Y-98953166D01*
X126358471Y-98935023D01*
X126472730Y-98884151D01*
X126625871Y-98772888D01*
X126752533Y-98632216D01*
X126847179Y-98468284D01*
X126905674Y-98288256D01*
X126915839Y-98191537D01*
X126942424Y-98126924D01*
X126999721Y-98086939D01*
X127039160Y-98080500D01*
X127717188Y-98080500D01*
X127717192Y-98080500D01*
X127858256Y-98065674D01*
X127946689Y-98036939D01*
X128016528Y-98034945D01*
X128076361Y-98071025D01*
X128099567Y-98107418D01*
X128117302Y-98150233D01*
X128209549Y-98270451D01*
X128329767Y-98362698D01*
X128469764Y-98420687D01*
X128536082Y-98429418D01*
X128619999Y-98440466D01*
X128620000Y-98440466D01*
X128620001Y-98440466D01*
X128703902Y-98429420D01*
X128770236Y-98420687D01*
X128910233Y-98362698D01*
X129030451Y-98270451D01*
X129122698Y-98150233D01*
X129180687Y-98010236D01*
X129195500Y-97897720D01*
X129195500Y-97522280D01*
X129180687Y-97409764D01*
X129122698Y-97269767D01*
X129030451Y-97149549D01*
X128910233Y-97057302D01*
X128910229Y-97057300D01*
X128798629Y-97011074D01*
X128770236Y-96999313D01*
X128732546Y-96994351D01*
X128631671Y-96981070D01*
X128567775Y-96952803D01*
X128535827Y-96905226D01*
X128533788Y-96906134D01*
X128454151Y-96727270D01*
X128454148Y-96727265D01*
X128342888Y-96574129D01*
X128261599Y-96500936D01*
X128202216Y-96447467D01*
X128038284Y-96352821D01*
X128038277Y-96352818D01*
X127858259Y-96294327D01*
X127858256Y-96294326D01*
X127717192Y-96279500D01*
X127022808Y-96279500D01*
X126881744Y-96294326D01*
X126881741Y-96294326D01*
X126881740Y-96294327D01*
X126701722Y-96352818D01*
X126701715Y-96352821D01*
X126537785Y-96447466D01*
X126432073Y-96542650D01*
X126369082Y-96572880D01*
X126349101Y-96574500D01*
X122676943Y-96574500D01*
X122609904Y-96554815D01*
X122564149Y-96502011D01*
X122563664Y-96500936D01*
X122504151Y-96367270D01*
X122504148Y-96367265D01*
X122392888Y-96214129D01*
X122365587Y-96189547D01*
X122252216Y-96087467D01*
X122088284Y-95992821D01*
X122088277Y-95992818D01*
X121908259Y-95934327D01*
X121908256Y-95934326D01*
X121767192Y-95919500D01*
X121072808Y-95919500D01*
X120931744Y-95934326D01*
X120931741Y-95934326D01*
X120931740Y-95934327D01*
X120751722Y-95992818D01*
X120751715Y-95992821D01*
X120587785Y-96087466D01*
X120447111Y-96214129D01*
X120335851Y-96367265D01*
X120335848Y-96367270D01*
X120258857Y-96540192D01*
X120258855Y-96540197D01*
X120247883Y-96591820D01*
X120214691Y-96653302D01*
X120153528Y-96687078D01*
X120083813Y-96682426D01*
X120027681Y-96640821D01*
X120002952Y-96575474D01*
X120002593Y-96566244D01*
X120002397Y-96447466D01*
X120000706Y-95424703D01*
X120020280Y-95357633D01*
X120073008Y-95311791D01*
X120124706Y-95300500D01*
X122695240Y-95300500D01*
X122695383Y-95300528D01*
X122695384Y-95300524D01*
X122719997Y-95300539D01*
X122720000Y-95300541D01*
X122720383Y-95300383D01*
X122720500Y-95300099D01*
X122720541Y-95300000D01*
X122720540Y-95299997D01*
X122720583Y-95275889D01*
X122720500Y-95275467D01*
X122720500Y-79025015D01*
X123624500Y-79025015D01*
X123635000Y-79127795D01*
X123635001Y-79127797D01*
X123638382Y-79137999D01*
X123690186Y-79294335D01*
X123690187Y-79294337D01*
X123782286Y-79443651D01*
X123782289Y-79443655D01*
X123906344Y-79567710D01*
X123906348Y-79567713D01*
X124055662Y-79659812D01*
X124055664Y-79659813D01*
X124055666Y-79659814D01*
X124222203Y-79714999D01*
X124324992Y-79725500D01*
X124324997Y-79725500D01*
X125675003Y-79725500D01*
X125675008Y-79725500D01*
X125777797Y-79714999D01*
X125944334Y-79659814D01*
X126093655Y-79567711D01*
X126217711Y-79443655D01*
X126309814Y-79294334D01*
X126332737Y-79225156D01*
X126372508Y-79167713D01*
X126437024Y-79140890D01*
X126446548Y-79140223D01*
X126448163Y-79140172D01*
X126448167Y-79140173D01*
X126514870Y-79138076D01*
X126517315Y-79138000D01*
X126546847Y-79138000D01*
X126546850Y-79138000D01*
X126553728Y-79137130D01*
X126559541Y-79136672D01*
X126606127Y-79135209D01*
X126625369Y-79129617D01*
X126644412Y-79125674D01*
X126664292Y-79123164D01*
X126707622Y-79106007D01*
X126713146Y-79104117D01*
X126716896Y-79103027D01*
X126757890Y-79091118D01*
X126775129Y-79080922D01*
X126792603Y-79072362D01*
X126811227Y-79064988D01*
X126811227Y-79064987D01*
X126811232Y-79064986D01*
X126848949Y-79037582D01*
X126853805Y-79034392D01*
X126893920Y-79010670D01*
X126908089Y-78996499D01*
X126922879Y-78983868D01*
X126939087Y-78972094D01*
X126968799Y-78936176D01*
X126972712Y-78931876D01*
X127367773Y-78536816D01*
X127429095Y-78503334D01*
X127455453Y-78500500D01*
X127514644Y-78500500D01*
X127514646Y-78500500D01*
X127699803Y-78461144D01*
X127872730Y-78384151D01*
X128025871Y-78272888D01*
X128152533Y-78132216D01*
X128247179Y-77968284D01*
X128305674Y-77788256D01*
X128314950Y-77700000D01*
X144114540Y-77700000D01*
X144134326Y-77888256D01*
X144134327Y-77888259D01*
X144192818Y-78068277D01*
X144192821Y-78068284D01*
X144287467Y-78232216D01*
X144414129Y-78372888D01*
X144567265Y-78484148D01*
X144567270Y-78484151D01*
X144740192Y-78561142D01*
X144740197Y-78561144D01*
X144925354Y-78600500D01*
X144984548Y-78600500D01*
X145051587Y-78620185D01*
X145072229Y-78636819D01*
X145331694Y-78896284D01*
X145341519Y-78908548D01*
X145341740Y-78908366D01*
X145346710Y-78914373D01*
X145346713Y-78914376D01*
X145346714Y-78914377D01*
X145397151Y-78961741D01*
X145418030Y-78982620D01*
X145423504Y-78986866D01*
X145427942Y-78990656D01*
X145461918Y-79022562D01*
X145466380Y-79025015D01*
X145479473Y-79032213D01*
X145495731Y-79042892D01*
X145511564Y-79055174D01*
X145533515Y-79064672D01*
X145554337Y-79073683D01*
X145559581Y-79076252D01*
X145600408Y-79098697D01*
X145619812Y-79103679D01*
X145638210Y-79109978D01*
X145656605Y-79117938D01*
X145702629Y-79125226D01*
X145708332Y-79126407D01*
X145753481Y-79138000D01*
X145773516Y-79138000D01*
X145792913Y-79139526D01*
X145812696Y-79142660D01*
X145859084Y-79138275D01*
X145864922Y-79138000D01*
X146268841Y-79138000D01*
X146335880Y-79157685D01*
X146381635Y-79210489D01*
X146386547Y-79222996D01*
X146410185Y-79294331D01*
X146410190Y-79294342D01*
X146502286Y-79443651D01*
X146502289Y-79443655D01*
X146626344Y-79567710D01*
X146626348Y-79567713D01*
X146775662Y-79659812D01*
X146775664Y-79659813D01*
X146775666Y-79659814D01*
X146942203Y-79714999D01*
X147044992Y-79725500D01*
X147044997Y-79725500D01*
X148395003Y-79725500D01*
X148395008Y-79725500D01*
X148497797Y-79714999D01*
X148664334Y-79659814D01*
X148813655Y-79567711D01*
X148937711Y-79443655D01*
X149029814Y-79294334D01*
X149084999Y-79127797D01*
X149095500Y-79025008D01*
X149095500Y-77999992D01*
X149084999Y-77897203D01*
X149029814Y-77730666D01*
X149029808Y-77730657D01*
X148937713Y-77581348D01*
X148937710Y-77581344D01*
X148813655Y-77457289D01*
X148813651Y-77457286D01*
X148664337Y-77365187D01*
X148664335Y-77365186D01*
X148581065Y-77337593D01*
X148497797Y-77310001D01*
X148497795Y-77310000D01*
X148395015Y-77299500D01*
X148395008Y-77299500D01*
X147044992Y-77299500D01*
X147044984Y-77299500D01*
X146942204Y-77310000D01*
X146942203Y-77310001D01*
X146775664Y-77365186D01*
X146775662Y-77365187D01*
X146626348Y-77457286D01*
X146626344Y-77457289D01*
X146502289Y-77581344D01*
X146502286Y-77581348D01*
X146410190Y-77730657D01*
X146410185Y-77730668D01*
X146386547Y-77802004D01*
X146346774Y-77859449D01*
X146282258Y-77886272D01*
X146268841Y-77887000D01*
X146142953Y-77887000D01*
X146075914Y-77867315D01*
X146055272Y-77850681D01*
X145958960Y-77754369D01*
X145925475Y-77693046D01*
X145923323Y-77679668D01*
X145905674Y-77511744D01*
X145847179Y-77331716D01*
X145752533Y-77167784D01*
X145625871Y-77027112D01*
X145625870Y-77027111D01*
X145472734Y-76915851D01*
X145472729Y-76915848D01*
X145299807Y-76838857D01*
X145299802Y-76838855D01*
X145154001Y-76807865D01*
X145114646Y-76799500D01*
X144925354Y-76799500D01*
X144892897Y-76806398D01*
X144740197Y-76838855D01*
X144740192Y-76838857D01*
X144567270Y-76915848D01*
X144567265Y-76915851D01*
X144414129Y-77027111D01*
X144287466Y-77167785D01*
X144192821Y-77331715D01*
X144192818Y-77331722D01*
X144134327Y-77511740D01*
X144134326Y-77511744D01*
X144114540Y-77700000D01*
X128314950Y-77700000D01*
X128325460Y-77600000D01*
X128305674Y-77411744D01*
X128247179Y-77231716D01*
X128152533Y-77067784D01*
X128025871Y-76927112D01*
X128010369Y-76915849D01*
X127872734Y-76815851D01*
X127872729Y-76815848D01*
X127699807Y-76738857D01*
X127699802Y-76738855D01*
X127554001Y-76707865D01*
X127514646Y-76699500D01*
X127325354Y-76699500D01*
X127292897Y-76706398D01*
X127140197Y-76738855D01*
X127140192Y-76738857D01*
X126967270Y-76815848D01*
X126967265Y-76815851D01*
X126814129Y-76927111D01*
X126687466Y-77067785D01*
X126592821Y-77231715D01*
X126592818Y-77231722D01*
X126549453Y-77365187D01*
X126534326Y-77411744D01*
X126523816Y-77511744D01*
X126516679Y-77579650D01*
X126490094Y-77644264D01*
X126481037Y-77654371D01*
X126456917Y-77678490D01*
X126395594Y-77711974D01*
X126325902Y-77706988D01*
X126269969Y-77665115D01*
X126263708Y-77655917D01*
X126217711Y-77581345D01*
X126093655Y-77457289D01*
X126093651Y-77457286D01*
X125944337Y-77365187D01*
X125944335Y-77365186D01*
X125861065Y-77337593D01*
X125777797Y-77310001D01*
X125777795Y-77310000D01*
X125675015Y-77299500D01*
X125675008Y-77299500D01*
X124324992Y-77299500D01*
X124324984Y-77299500D01*
X124222204Y-77310000D01*
X124222203Y-77310001D01*
X124055664Y-77365186D01*
X124055662Y-77365187D01*
X123906348Y-77457286D01*
X123906344Y-77457289D01*
X123782289Y-77581344D01*
X123782286Y-77581348D01*
X123690187Y-77730662D01*
X123690186Y-77730664D01*
X123635001Y-77897203D01*
X123635000Y-77897204D01*
X123624500Y-77999984D01*
X123624500Y-79025015D01*
X122720500Y-79025015D01*
X122720500Y-76324500D01*
X122740185Y-76257461D01*
X122792989Y-76211706D01*
X122844500Y-76200500D01*
X156271125Y-76200500D01*
X156338164Y-76220185D01*
G37*
G04 #@! TD.AperFunction*
M02*
