%TF.GenerationSoftware,KiCad,Pcbnew,7.0.9*%
%TF.CreationDate,2023-11-26T00:13:49+01:00*%
%TF.ProjectId,v1,76312e6b-6963-4616-945f-706362585858,rev?*%
%TF.SameCoordinates,Original*%
%TF.FileFunction,Drillmap*%
%TF.FilePolarity,Positive*%
%FSLAX45Y45*%
G04 Gerber Fmt 4.5, Leading zero omitted, Abs format (unit mm)*
G04 Created by KiCad (PCBNEW 7.0.9) date 2023-11-26 00:13:49*
%MOMM*%
%LPD*%
G01*
G04 APERTURE LIST*
%ADD10C,0.100000*%
%ADD11C,0.200000*%
G04 APERTURE END LIST*
D10*
X17270720Y-7620000D02*
X17270720Y-12618720D01*
X12002000Y-10740000D02*
X12272000Y-10740000D01*
X17270720Y-12618720D02*
X12272000Y-12618720D01*
X12272000Y-9530000D02*
X12000000Y-9530000D01*
X12272000Y-7620000D02*
X17270720Y-7620000D01*
X15182000Y-9950000D02*
G75*
G03*
X15182000Y-9950000I-100000J0D01*
G01*
X12272000Y-12618720D02*
X12272000Y-10740000D01*
X12000000Y-9530000D02*
X12002000Y-10740000D01*
X16002200Y-8016240D02*
G75*
G03*
X16002200Y-8016240I-225000J0D01*
G01*
X14000680Y-12222480D02*
G75*
G03*
X14000680Y-12222480I-225000J0D01*
G01*
X12272000Y-9530000D02*
X12272000Y-7620000D01*
D11*
D10*
X12829500Y-9738500D02*
X12894500Y-9803500D01*
X12894500Y-9738500D02*
X12829500Y-9803500D01*
X12894500Y-9786000D02*
X12894500Y-9756000D01*
X12894500Y-9756000D02*
G75*
G03*
X12829500Y-9756000I-32500J0D01*
G01*
X12829500Y-9756000D02*
X12829500Y-9786000D01*
X12829500Y-9786000D02*
G75*
G03*
X12894500Y-9786000I32500J0D01*
G01*
X12829500Y-10458500D02*
X12894500Y-10523500D01*
X12894500Y-10458500D02*
X12829500Y-10523500D01*
D11*
X12255777Y-12935204D02*
X12255777Y-12735204D01*
X12255777Y-12735204D02*
X12303396Y-12735204D01*
X12303396Y-12735204D02*
X12331967Y-12744728D01*
X12331967Y-12744728D02*
X12351015Y-12763775D01*
X12351015Y-12763775D02*
X12360539Y-12782823D01*
X12360539Y-12782823D02*
X12370062Y-12820918D01*
X12370062Y-12820918D02*
X12370062Y-12849489D01*
X12370062Y-12849489D02*
X12360539Y-12887585D01*
X12360539Y-12887585D02*
X12351015Y-12906632D01*
X12351015Y-12906632D02*
X12331967Y-12925680D01*
X12331967Y-12925680D02*
X12303396Y-12935204D01*
X12303396Y-12935204D02*
X12255777Y-12935204D01*
X12455777Y-12935204D02*
X12455777Y-12801870D01*
X12455777Y-12839966D02*
X12465301Y-12820918D01*
X12465301Y-12820918D02*
X12474824Y-12811394D01*
X12474824Y-12811394D02*
X12493872Y-12801870D01*
X12493872Y-12801870D02*
X12512920Y-12801870D01*
X12579586Y-12935204D02*
X12579586Y-12801870D01*
X12579586Y-12735204D02*
X12570062Y-12744728D01*
X12570062Y-12744728D02*
X12579586Y-12754251D01*
X12579586Y-12754251D02*
X12589110Y-12744728D01*
X12589110Y-12744728D02*
X12579586Y-12735204D01*
X12579586Y-12735204D02*
X12579586Y-12754251D01*
X12703396Y-12935204D02*
X12684348Y-12925680D01*
X12684348Y-12925680D02*
X12674824Y-12906632D01*
X12674824Y-12906632D02*
X12674824Y-12735204D01*
X12808158Y-12935204D02*
X12789110Y-12925680D01*
X12789110Y-12925680D02*
X12779586Y-12906632D01*
X12779586Y-12906632D02*
X12779586Y-12735204D01*
X13036729Y-12935204D02*
X13036729Y-12735204D01*
X13036729Y-12735204D02*
X13103396Y-12878061D01*
X13103396Y-12878061D02*
X13170062Y-12735204D01*
X13170062Y-12735204D02*
X13170062Y-12935204D01*
X13351015Y-12935204D02*
X13351015Y-12830442D01*
X13351015Y-12830442D02*
X13341491Y-12811394D01*
X13341491Y-12811394D02*
X13322443Y-12801870D01*
X13322443Y-12801870D02*
X13284348Y-12801870D01*
X13284348Y-12801870D02*
X13265301Y-12811394D01*
X13351015Y-12925680D02*
X13331967Y-12935204D01*
X13331967Y-12935204D02*
X13284348Y-12935204D01*
X13284348Y-12935204D02*
X13265301Y-12925680D01*
X13265301Y-12925680D02*
X13255777Y-12906632D01*
X13255777Y-12906632D02*
X13255777Y-12887585D01*
X13255777Y-12887585D02*
X13265301Y-12868537D01*
X13265301Y-12868537D02*
X13284348Y-12859013D01*
X13284348Y-12859013D02*
X13331967Y-12859013D01*
X13331967Y-12859013D02*
X13351015Y-12849489D01*
X13446253Y-12801870D02*
X13446253Y-13001870D01*
X13446253Y-12811394D02*
X13465301Y-12801870D01*
X13465301Y-12801870D02*
X13503396Y-12801870D01*
X13503396Y-12801870D02*
X13522443Y-12811394D01*
X13522443Y-12811394D02*
X13531967Y-12820918D01*
X13531967Y-12820918D02*
X13541491Y-12839966D01*
X13541491Y-12839966D02*
X13541491Y-12897108D01*
X13541491Y-12897108D02*
X13531967Y-12916156D01*
X13531967Y-12916156D02*
X13522443Y-12925680D01*
X13522443Y-12925680D02*
X13503396Y-12935204D01*
X13503396Y-12935204D02*
X13465301Y-12935204D01*
X13465301Y-12935204D02*
X13446253Y-12925680D01*
X13627205Y-12916156D02*
X13636729Y-12925680D01*
X13636729Y-12925680D02*
X13627205Y-12935204D01*
X13627205Y-12935204D02*
X13617682Y-12925680D01*
X13617682Y-12925680D02*
X13627205Y-12916156D01*
X13627205Y-12916156D02*
X13627205Y-12935204D01*
X13627205Y-12811394D02*
X13636729Y-12820918D01*
X13636729Y-12820918D02*
X13627205Y-12830442D01*
X13627205Y-12830442D02*
X13617682Y-12820918D01*
X13617682Y-12820918D02*
X13627205Y-12811394D01*
X13627205Y-12811394D02*
X13627205Y-12830442D01*
D10*
X11930000Y-13231220D02*
X11995000Y-13296220D01*
X11995000Y-13231220D02*
X11930000Y-13296220D01*
D11*
X12293872Y-13155204D02*
X12312920Y-13155204D01*
X12312920Y-13155204D02*
X12331967Y-13164728D01*
X12331967Y-13164728D02*
X12341491Y-13174251D01*
X12341491Y-13174251D02*
X12351015Y-13193299D01*
X12351015Y-13193299D02*
X12360539Y-13231394D01*
X12360539Y-13231394D02*
X12360539Y-13279013D01*
X12360539Y-13279013D02*
X12351015Y-13317108D01*
X12351015Y-13317108D02*
X12341491Y-13336156D01*
X12341491Y-13336156D02*
X12331967Y-13345680D01*
X12331967Y-13345680D02*
X12312920Y-13355204D01*
X12312920Y-13355204D02*
X12293872Y-13355204D01*
X12293872Y-13355204D02*
X12274824Y-13345680D01*
X12274824Y-13345680D02*
X12265301Y-13336156D01*
X12265301Y-13336156D02*
X12255777Y-13317108D01*
X12255777Y-13317108D02*
X12246253Y-13279013D01*
X12246253Y-13279013D02*
X12246253Y-13231394D01*
X12246253Y-13231394D02*
X12255777Y-13193299D01*
X12255777Y-13193299D02*
X12265301Y-13174251D01*
X12265301Y-13174251D02*
X12274824Y-13164728D01*
X12274824Y-13164728D02*
X12293872Y-13155204D01*
X12446253Y-13336156D02*
X12455777Y-13345680D01*
X12455777Y-13345680D02*
X12446253Y-13355204D01*
X12446253Y-13355204D02*
X12436729Y-13345680D01*
X12436729Y-13345680D02*
X12446253Y-13336156D01*
X12446253Y-13336156D02*
X12446253Y-13355204D01*
X12627205Y-13155204D02*
X12589110Y-13155204D01*
X12589110Y-13155204D02*
X12570062Y-13164728D01*
X12570062Y-13164728D02*
X12560539Y-13174251D01*
X12560539Y-13174251D02*
X12541491Y-13202823D01*
X12541491Y-13202823D02*
X12531967Y-13240918D01*
X12531967Y-13240918D02*
X12531967Y-13317108D01*
X12531967Y-13317108D02*
X12541491Y-13336156D01*
X12541491Y-13336156D02*
X12551015Y-13345680D01*
X12551015Y-13345680D02*
X12570062Y-13355204D01*
X12570062Y-13355204D02*
X12608158Y-13355204D01*
X12608158Y-13355204D02*
X12627205Y-13345680D01*
X12627205Y-13345680D02*
X12636729Y-13336156D01*
X12636729Y-13336156D02*
X12646253Y-13317108D01*
X12646253Y-13317108D02*
X12646253Y-13269489D01*
X12646253Y-13269489D02*
X12636729Y-13250442D01*
X12636729Y-13250442D02*
X12627205Y-13240918D01*
X12627205Y-13240918D02*
X12608158Y-13231394D01*
X12608158Y-13231394D02*
X12570062Y-13231394D01*
X12570062Y-13231394D02*
X12551015Y-13240918D01*
X12551015Y-13240918D02*
X12541491Y-13250442D01*
X12541491Y-13250442D02*
X12531967Y-13269489D01*
X12827205Y-13155204D02*
X12731967Y-13155204D01*
X12731967Y-13155204D02*
X12722443Y-13250442D01*
X12722443Y-13250442D02*
X12731967Y-13240918D01*
X12731967Y-13240918D02*
X12751015Y-13231394D01*
X12751015Y-13231394D02*
X12798634Y-13231394D01*
X12798634Y-13231394D02*
X12817682Y-13240918D01*
X12817682Y-13240918D02*
X12827205Y-13250442D01*
X12827205Y-13250442D02*
X12836729Y-13269489D01*
X12836729Y-13269489D02*
X12836729Y-13317108D01*
X12836729Y-13317108D02*
X12827205Y-13336156D01*
X12827205Y-13336156D02*
X12817682Y-13345680D01*
X12817682Y-13345680D02*
X12798634Y-13355204D01*
X12798634Y-13355204D02*
X12751015Y-13355204D01*
X12751015Y-13355204D02*
X12731967Y-13345680D01*
X12731967Y-13345680D02*
X12722443Y-13336156D01*
X12960539Y-13155204D02*
X12979586Y-13155204D01*
X12979586Y-13155204D02*
X12998634Y-13164728D01*
X12998634Y-13164728D02*
X13008158Y-13174251D01*
X13008158Y-13174251D02*
X13017682Y-13193299D01*
X13017682Y-13193299D02*
X13027205Y-13231394D01*
X13027205Y-13231394D02*
X13027205Y-13279013D01*
X13027205Y-13279013D02*
X13017682Y-13317108D01*
X13017682Y-13317108D02*
X13008158Y-13336156D01*
X13008158Y-13336156D02*
X12998634Y-13345680D01*
X12998634Y-13345680D02*
X12979586Y-13355204D01*
X12979586Y-13355204D02*
X12960539Y-13355204D01*
X12960539Y-13355204D02*
X12941491Y-13345680D01*
X12941491Y-13345680D02*
X12931967Y-13336156D01*
X12931967Y-13336156D02*
X12922443Y-13317108D01*
X12922443Y-13317108D02*
X12912920Y-13279013D01*
X12912920Y-13279013D02*
X12912920Y-13231394D01*
X12912920Y-13231394D02*
X12922443Y-13193299D01*
X12922443Y-13193299D02*
X12931967Y-13174251D01*
X12931967Y-13174251D02*
X12941491Y-13164728D01*
X12941491Y-13164728D02*
X12960539Y-13155204D01*
X13112920Y-13355204D02*
X13112920Y-13221870D01*
X13112920Y-13240918D02*
X13122443Y-13231394D01*
X13122443Y-13231394D02*
X13141491Y-13221870D01*
X13141491Y-13221870D02*
X13170063Y-13221870D01*
X13170063Y-13221870D02*
X13189110Y-13231394D01*
X13189110Y-13231394D02*
X13198634Y-13250442D01*
X13198634Y-13250442D02*
X13198634Y-13355204D01*
X13198634Y-13250442D02*
X13208158Y-13231394D01*
X13208158Y-13231394D02*
X13227205Y-13221870D01*
X13227205Y-13221870D02*
X13255777Y-13221870D01*
X13255777Y-13221870D02*
X13274824Y-13231394D01*
X13274824Y-13231394D02*
X13284348Y-13250442D01*
X13284348Y-13250442D02*
X13284348Y-13355204D01*
X13379586Y-13355204D02*
X13379586Y-13221870D01*
X13379586Y-13240918D02*
X13389110Y-13231394D01*
X13389110Y-13231394D02*
X13408158Y-13221870D01*
X13408158Y-13221870D02*
X13436729Y-13221870D01*
X13436729Y-13221870D02*
X13455777Y-13231394D01*
X13455777Y-13231394D02*
X13465301Y-13250442D01*
X13465301Y-13250442D02*
X13465301Y-13355204D01*
X13465301Y-13250442D02*
X13474824Y-13231394D01*
X13474824Y-13231394D02*
X13493872Y-13221870D01*
X13493872Y-13221870D02*
X13522443Y-13221870D01*
X13522443Y-13221870D02*
X13541491Y-13231394D01*
X13541491Y-13231394D02*
X13551015Y-13250442D01*
X13551015Y-13250442D02*
X13551015Y-13355204D01*
X13941491Y-13145680D02*
X13770063Y-13402823D01*
X14198634Y-13155204D02*
X14217682Y-13155204D01*
X14217682Y-13155204D02*
X14236729Y-13164728D01*
X14236729Y-13164728D02*
X14246253Y-13174251D01*
X14246253Y-13174251D02*
X14255777Y-13193299D01*
X14255777Y-13193299D02*
X14265301Y-13231394D01*
X14265301Y-13231394D02*
X14265301Y-13279013D01*
X14265301Y-13279013D02*
X14255777Y-13317108D01*
X14255777Y-13317108D02*
X14246253Y-13336156D01*
X14246253Y-13336156D02*
X14236729Y-13345680D01*
X14236729Y-13345680D02*
X14217682Y-13355204D01*
X14217682Y-13355204D02*
X14198634Y-13355204D01*
X14198634Y-13355204D02*
X14179586Y-13345680D01*
X14179586Y-13345680D02*
X14170063Y-13336156D01*
X14170063Y-13336156D02*
X14160539Y-13317108D01*
X14160539Y-13317108D02*
X14151015Y-13279013D01*
X14151015Y-13279013D02*
X14151015Y-13231394D01*
X14151015Y-13231394D02*
X14160539Y-13193299D01*
X14160539Y-13193299D02*
X14170063Y-13174251D01*
X14170063Y-13174251D02*
X14179586Y-13164728D01*
X14179586Y-13164728D02*
X14198634Y-13155204D01*
X14351015Y-13336156D02*
X14360539Y-13345680D01*
X14360539Y-13345680D02*
X14351015Y-13355204D01*
X14351015Y-13355204D02*
X14341491Y-13345680D01*
X14341491Y-13345680D02*
X14351015Y-13336156D01*
X14351015Y-13336156D02*
X14351015Y-13355204D01*
X14484348Y-13155204D02*
X14503396Y-13155204D01*
X14503396Y-13155204D02*
X14522444Y-13164728D01*
X14522444Y-13164728D02*
X14531967Y-13174251D01*
X14531967Y-13174251D02*
X14541491Y-13193299D01*
X14541491Y-13193299D02*
X14551015Y-13231394D01*
X14551015Y-13231394D02*
X14551015Y-13279013D01*
X14551015Y-13279013D02*
X14541491Y-13317108D01*
X14541491Y-13317108D02*
X14531967Y-13336156D01*
X14531967Y-13336156D02*
X14522444Y-13345680D01*
X14522444Y-13345680D02*
X14503396Y-13355204D01*
X14503396Y-13355204D02*
X14484348Y-13355204D01*
X14484348Y-13355204D02*
X14465301Y-13345680D01*
X14465301Y-13345680D02*
X14455777Y-13336156D01*
X14455777Y-13336156D02*
X14446253Y-13317108D01*
X14446253Y-13317108D02*
X14436729Y-13279013D01*
X14436729Y-13279013D02*
X14436729Y-13231394D01*
X14436729Y-13231394D02*
X14446253Y-13193299D01*
X14446253Y-13193299D02*
X14455777Y-13174251D01*
X14455777Y-13174251D02*
X14465301Y-13164728D01*
X14465301Y-13164728D02*
X14484348Y-13155204D01*
X14627206Y-13174251D02*
X14636729Y-13164728D01*
X14636729Y-13164728D02*
X14655777Y-13155204D01*
X14655777Y-13155204D02*
X14703396Y-13155204D01*
X14703396Y-13155204D02*
X14722444Y-13164728D01*
X14722444Y-13164728D02*
X14731967Y-13174251D01*
X14731967Y-13174251D02*
X14741491Y-13193299D01*
X14741491Y-13193299D02*
X14741491Y-13212347D01*
X14741491Y-13212347D02*
X14731967Y-13240918D01*
X14731967Y-13240918D02*
X14617682Y-13355204D01*
X14617682Y-13355204D02*
X14741491Y-13355204D01*
X14922444Y-13155204D02*
X14827206Y-13155204D01*
X14827206Y-13155204D02*
X14817682Y-13250442D01*
X14817682Y-13250442D02*
X14827206Y-13240918D01*
X14827206Y-13240918D02*
X14846253Y-13231394D01*
X14846253Y-13231394D02*
X14893872Y-13231394D01*
X14893872Y-13231394D02*
X14912920Y-13240918D01*
X14912920Y-13240918D02*
X14922444Y-13250442D01*
X14922444Y-13250442D02*
X14931967Y-13269489D01*
X14931967Y-13269489D02*
X14931967Y-13317108D01*
X14931967Y-13317108D02*
X14922444Y-13336156D01*
X14922444Y-13336156D02*
X14912920Y-13345680D01*
X14912920Y-13345680D02*
X14893872Y-13355204D01*
X14893872Y-13355204D02*
X14846253Y-13355204D01*
X14846253Y-13355204D02*
X14827206Y-13345680D01*
X14827206Y-13345680D02*
X14817682Y-13336156D01*
X15103396Y-13155204D02*
X15065301Y-13155204D01*
X15065301Y-13155204D02*
X15046253Y-13164728D01*
X15046253Y-13164728D02*
X15036729Y-13174251D01*
X15036729Y-13174251D02*
X15017682Y-13202823D01*
X15017682Y-13202823D02*
X15008158Y-13240918D01*
X15008158Y-13240918D02*
X15008158Y-13317108D01*
X15008158Y-13317108D02*
X15017682Y-13336156D01*
X15017682Y-13336156D02*
X15027206Y-13345680D01*
X15027206Y-13345680D02*
X15046253Y-13355204D01*
X15046253Y-13355204D02*
X15084348Y-13355204D01*
X15084348Y-13355204D02*
X15103396Y-13345680D01*
X15103396Y-13345680D02*
X15112920Y-13336156D01*
X15112920Y-13336156D02*
X15122444Y-13317108D01*
X15122444Y-13317108D02*
X15122444Y-13269489D01*
X15122444Y-13269489D02*
X15112920Y-13250442D01*
X15112920Y-13250442D02*
X15103396Y-13240918D01*
X15103396Y-13240918D02*
X15084348Y-13231394D01*
X15084348Y-13231394D02*
X15046253Y-13231394D01*
X15046253Y-13231394D02*
X15027206Y-13240918D01*
X15027206Y-13240918D02*
X15017682Y-13250442D01*
X15017682Y-13250442D02*
X15008158Y-13269489D01*
X15198634Y-13155204D02*
X15198634Y-13193299D01*
X15274825Y-13155204D02*
X15274825Y-13193299D01*
X15570063Y-13431394D02*
X15560539Y-13421870D01*
X15560539Y-13421870D02*
X15541491Y-13393299D01*
X15541491Y-13393299D02*
X15531968Y-13374251D01*
X15531968Y-13374251D02*
X15522444Y-13345680D01*
X15522444Y-13345680D02*
X15512920Y-13298061D01*
X15512920Y-13298061D02*
X15512920Y-13259966D01*
X15512920Y-13259966D02*
X15522444Y-13212347D01*
X15522444Y-13212347D02*
X15531968Y-13183775D01*
X15531968Y-13183775D02*
X15541491Y-13164728D01*
X15541491Y-13164728D02*
X15560539Y-13136156D01*
X15560539Y-13136156D02*
X15570063Y-13126632D01*
X15751015Y-13355204D02*
X15636729Y-13355204D01*
X15693872Y-13355204D02*
X15693872Y-13155204D01*
X15693872Y-13155204D02*
X15674825Y-13183775D01*
X15674825Y-13183775D02*
X15655777Y-13202823D01*
X15655777Y-13202823D02*
X15636729Y-13212347D01*
X15989110Y-13355204D02*
X15989110Y-13155204D01*
X16074825Y-13355204D02*
X16074825Y-13250442D01*
X16074825Y-13250442D02*
X16065301Y-13231394D01*
X16065301Y-13231394D02*
X16046253Y-13221870D01*
X16046253Y-13221870D02*
X16017682Y-13221870D01*
X16017682Y-13221870D02*
X15998634Y-13231394D01*
X15998634Y-13231394D02*
X15989110Y-13240918D01*
X16198634Y-13355204D02*
X16179587Y-13345680D01*
X16179587Y-13345680D02*
X16170063Y-13336156D01*
X16170063Y-13336156D02*
X16160539Y-13317108D01*
X16160539Y-13317108D02*
X16160539Y-13259966D01*
X16160539Y-13259966D02*
X16170063Y-13240918D01*
X16170063Y-13240918D02*
X16179587Y-13231394D01*
X16179587Y-13231394D02*
X16198634Y-13221870D01*
X16198634Y-13221870D02*
X16227206Y-13221870D01*
X16227206Y-13221870D02*
X16246253Y-13231394D01*
X16246253Y-13231394D02*
X16255777Y-13240918D01*
X16255777Y-13240918D02*
X16265301Y-13259966D01*
X16265301Y-13259966D02*
X16265301Y-13317108D01*
X16265301Y-13317108D02*
X16255777Y-13336156D01*
X16255777Y-13336156D02*
X16246253Y-13345680D01*
X16246253Y-13345680D02*
X16227206Y-13355204D01*
X16227206Y-13355204D02*
X16198634Y-13355204D01*
X16379587Y-13355204D02*
X16360539Y-13345680D01*
X16360539Y-13345680D02*
X16351015Y-13326632D01*
X16351015Y-13326632D02*
X16351015Y-13155204D01*
X16531968Y-13345680D02*
X16512920Y-13355204D01*
X16512920Y-13355204D02*
X16474825Y-13355204D01*
X16474825Y-13355204D02*
X16455777Y-13345680D01*
X16455777Y-13345680D02*
X16446253Y-13326632D01*
X16446253Y-13326632D02*
X16446253Y-13250442D01*
X16446253Y-13250442D02*
X16455777Y-13231394D01*
X16455777Y-13231394D02*
X16474825Y-13221870D01*
X16474825Y-13221870D02*
X16512920Y-13221870D01*
X16512920Y-13221870D02*
X16531968Y-13231394D01*
X16531968Y-13231394D02*
X16541491Y-13250442D01*
X16541491Y-13250442D02*
X16541491Y-13269489D01*
X16541491Y-13269489D02*
X16446253Y-13288537D01*
X16617682Y-13345680D02*
X16636730Y-13355204D01*
X16636730Y-13355204D02*
X16674825Y-13355204D01*
X16674825Y-13355204D02*
X16693872Y-13345680D01*
X16693872Y-13345680D02*
X16703396Y-13326632D01*
X16703396Y-13326632D02*
X16703396Y-13317108D01*
X16703396Y-13317108D02*
X16693872Y-13298061D01*
X16693872Y-13298061D02*
X16674825Y-13288537D01*
X16674825Y-13288537D02*
X16646253Y-13288537D01*
X16646253Y-13288537D02*
X16627206Y-13279013D01*
X16627206Y-13279013D02*
X16617682Y-13259966D01*
X16617682Y-13259966D02*
X16617682Y-13250442D01*
X16617682Y-13250442D02*
X16627206Y-13231394D01*
X16627206Y-13231394D02*
X16646253Y-13221870D01*
X16646253Y-13221870D02*
X16674825Y-13221870D01*
X16674825Y-13221870D02*
X16693872Y-13231394D01*
X16941492Y-13279013D02*
X17093873Y-13279013D01*
X17017682Y-13355204D02*
X17017682Y-13202823D01*
X17446254Y-13355204D02*
X17331968Y-13355204D01*
X17389111Y-13355204D02*
X17389111Y-13155204D01*
X17389111Y-13155204D02*
X17370063Y-13183775D01*
X17370063Y-13183775D02*
X17351015Y-13202823D01*
X17351015Y-13202823D02*
X17331968Y-13212347D01*
X17674825Y-13345680D02*
X17693873Y-13355204D01*
X17693873Y-13355204D02*
X17731968Y-13355204D01*
X17731968Y-13355204D02*
X17751016Y-13345680D01*
X17751016Y-13345680D02*
X17760539Y-13326632D01*
X17760539Y-13326632D02*
X17760539Y-13317108D01*
X17760539Y-13317108D02*
X17751016Y-13298061D01*
X17751016Y-13298061D02*
X17731968Y-13288537D01*
X17731968Y-13288537D02*
X17703396Y-13288537D01*
X17703396Y-13288537D02*
X17684349Y-13279013D01*
X17684349Y-13279013D02*
X17674825Y-13259966D01*
X17674825Y-13259966D02*
X17674825Y-13250442D01*
X17674825Y-13250442D02*
X17684349Y-13231394D01*
X17684349Y-13231394D02*
X17703396Y-13221870D01*
X17703396Y-13221870D02*
X17731968Y-13221870D01*
X17731968Y-13221870D02*
X17751016Y-13231394D01*
X17874825Y-13355204D02*
X17855777Y-13345680D01*
X17855777Y-13345680D02*
X17846254Y-13326632D01*
X17846254Y-13326632D02*
X17846254Y-13155204D01*
X17979587Y-13355204D02*
X17960539Y-13345680D01*
X17960539Y-13345680D02*
X17951016Y-13336156D01*
X17951016Y-13336156D02*
X17941492Y-13317108D01*
X17941492Y-13317108D02*
X17941492Y-13259966D01*
X17941492Y-13259966D02*
X17951016Y-13240918D01*
X17951016Y-13240918D02*
X17960539Y-13231394D01*
X17960539Y-13231394D02*
X17979587Y-13221870D01*
X17979587Y-13221870D02*
X18008158Y-13221870D01*
X18008158Y-13221870D02*
X18027206Y-13231394D01*
X18027206Y-13231394D02*
X18036730Y-13240918D01*
X18036730Y-13240918D02*
X18046254Y-13259966D01*
X18046254Y-13259966D02*
X18046254Y-13317108D01*
X18046254Y-13317108D02*
X18036730Y-13336156D01*
X18036730Y-13336156D02*
X18027206Y-13345680D01*
X18027206Y-13345680D02*
X18008158Y-13355204D01*
X18008158Y-13355204D02*
X17979587Y-13355204D01*
X18103397Y-13221870D02*
X18179587Y-13221870D01*
X18131968Y-13155204D02*
X18131968Y-13326632D01*
X18131968Y-13326632D02*
X18141492Y-13345680D01*
X18141492Y-13345680D02*
X18160539Y-13355204D01*
X18160539Y-13355204D02*
X18179587Y-13355204D01*
X18227206Y-13431394D02*
X18236730Y-13421870D01*
X18236730Y-13421870D02*
X18255777Y-13393299D01*
X18255777Y-13393299D02*
X18265301Y-13374251D01*
X18265301Y-13374251D02*
X18274825Y-13345680D01*
X18274825Y-13345680D02*
X18284349Y-13298061D01*
X18284349Y-13298061D02*
X18284349Y-13259966D01*
X18284349Y-13259966D02*
X18274825Y-13212347D01*
X18274825Y-13212347D02*
X18265301Y-13183775D01*
X18265301Y-13183775D02*
X18255777Y-13164728D01*
X18255777Y-13164728D02*
X18236730Y-13136156D01*
X18236730Y-13136156D02*
X18227206Y-13126632D01*
X18589111Y-13431394D02*
X18579587Y-13421870D01*
X18579587Y-13421870D02*
X18560539Y-13393299D01*
X18560539Y-13393299D02*
X18551016Y-13374251D01*
X18551016Y-13374251D02*
X18541492Y-13345680D01*
X18541492Y-13345680D02*
X18531968Y-13298061D01*
X18531968Y-13298061D02*
X18531968Y-13259966D01*
X18531968Y-13259966D02*
X18541492Y-13212347D01*
X18541492Y-13212347D02*
X18551016Y-13183775D01*
X18551016Y-13183775D02*
X18560539Y-13164728D01*
X18560539Y-13164728D02*
X18579587Y-13136156D01*
X18579587Y-13136156D02*
X18589111Y-13126632D01*
X18665301Y-13221870D02*
X18665301Y-13355204D01*
X18665301Y-13240918D02*
X18674825Y-13231394D01*
X18674825Y-13231394D02*
X18693873Y-13221870D01*
X18693873Y-13221870D02*
X18722444Y-13221870D01*
X18722444Y-13221870D02*
X18741492Y-13231394D01*
X18741492Y-13231394D02*
X18751016Y-13250442D01*
X18751016Y-13250442D02*
X18751016Y-13355204D01*
X18874825Y-13355204D02*
X18855777Y-13345680D01*
X18855777Y-13345680D02*
X18846254Y-13336156D01*
X18846254Y-13336156D02*
X18836730Y-13317108D01*
X18836730Y-13317108D02*
X18836730Y-13259966D01*
X18836730Y-13259966D02*
X18846254Y-13240918D01*
X18846254Y-13240918D02*
X18855777Y-13231394D01*
X18855777Y-13231394D02*
X18874825Y-13221870D01*
X18874825Y-13221870D02*
X18903397Y-13221870D01*
X18903397Y-13221870D02*
X18922444Y-13231394D01*
X18922444Y-13231394D02*
X18931968Y-13240918D01*
X18931968Y-13240918D02*
X18941492Y-13259966D01*
X18941492Y-13259966D02*
X18941492Y-13317108D01*
X18941492Y-13317108D02*
X18931968Y-13336156D01*
X18931968Y-13336156D02*
X18922444Y-13345680D01*
X18922444Y-13345680D02*
X18903397Y-13355204D01*
X18903397Y-13355204D02*
X18874825Y-13355204D01*
X18998635Y-13221870D02*
X19074825Y-13221870D01*
X19027206Y-13155204D02*
X19027206Y-13326632D01*
X19027206Y-13326632D02*
X19036730Y-13345680D01*
X19036730Y-13345680D02*
X19055777Y-13355204D01*
X19055777Y-13355204D02*
X19074825Y-13355204D01*
X19293873Y-13221870D02*
X19293873Y-13421870D01*
X19293873Y-13231394D02*
X19312920Y-13221870D01*
X19312920Y-13221870D02*
X19351016Y-13221870D01*
X19351016Y-13221870D02*
X19370063Y-13231394D01*
X19370063Y-13231394D02*
X19379587Y-13240918D01*
X19379587Y-13240918D02*
X19389111Y-13259966D01*
X19389111Y-13259966D02*
X19389111Y-13317108D01*
X19389111Y-13317108D02*
X19379587Y-13336156D01*
X19379587Y-13336156D02*
X19370063Y-13345680D01*
X19370063Y-13345680D02*
X19351016Y-13355204D01*
X19351016Y-13355204D02*
X19312920Y-13355204D01*
X19312920Y-13355204D02*
X19293873Y-13345680D01*
X19503397Y-13355204D02*
X19484349Y-13345680D01*
X19484349Y-13345680D02*
X19474825Y-13326632D01*
X19474825Y-13326632D02*
X19474825Y-13155204D01*
X19665301Y-13355204D02*
X19665301Y-13250442D01*
X19665301Y-13250442D02*
X19655778Y-13231394D01*
X19655778Y-13231394D02*
X19636730Y-13221870D01*
X19636730Y-13221870D02*
X19598635Y-13221870D01*
X19598635Y-13221870D02*
X19579587Y-13231394D01*
X19665301Y-13345680D02*
X19646254Y-13355204D01*
X19646254Y-13355204D02*
X19598635Y-13355204D01*
X19598635Y-13355204D02*
X19579587Y-13345680D01*
X19579587Y-13345680D02*
X19570063Y-13326632D01*
X19570063Y-13326632D02*
X19570063Y-13307585D01*
X19570063Y-13307585D02*
X19579587Y-13288537D01*
X19579587Y-13288537D02*
X19598635Y-13279013D01*
X19598635Y-13279013D02*
X19646254Y-13279013D01*
X19646254Y-13279013D02*
X19665301Y-13269489D01*
X19731968Y-13221870D02*
X19808158Y-13221870D01*
X19760539Y-13155204D02*
X19760539Y-13326632D01*
X19760539Y-13326632D02*
X19770063Y-13345680D01*
X19770063Y-13345680D02*
X19789111Y-13355204D01*
X19789111Y-13355204D02*
X19808158Y-13355204D01*
X19951016Y-13345680D02*
X19931968Y-13355204D01*
X19931968Y-13355204D02*
X19893873Y-13355204D01*
X19893873Y-13355204D02*
X19874825Y-13345680D01*
X19874825Y-13345680D02*
X19865301Y-13326632D01*
X19865301Y-13326632D02*
X19865301Y-13250442D01*
X19865301Y-13250442D02*
X19874825Y-13231394D01*
X19874825Y-13231394D02*
X19893873Y-13221870D01*
X19893873Y-13221870D02*
X19931968Y-13221870D01*
X19931968Y-13221870D02*
X19951016Y-13231394D01*
X19951016Y-13231394D02*
X19960539Y-13250442D01*
X19960539Y-13250442D02*
X19960539Y-13269489D01*
X19960539Y-13269489D02*
X19865301Y-13288537D01*
X20131968Y-13355204D02*
X20131968Y-13155204D01*
X20131968Y-13345680D02*
X20112920Y-13355204D01*
X20112920Y-13355204D02*
X20074825Y-13355204D01*
X20074825Y-13355204D02*
X20055778Y-13345680D01*
X20055778Y-13345680D02*
X20046254Y-13336156D01*
X20046254Y-13336156D02*
X20036730Y-13317108D01*
X20036730Y-13317108D02*
X20036730Y-13259966D01*
X20036730Y-13259966D02*
X20046254Y-13240918D01*
X20046254Y-13240918D02*
X20055778Y-13231394D01*
X20055778Y-13231394D02*
X20074825Y-13221870D01*
X20074825Y-13221870D02*
X20112920Y-13221870D01*
X20112920Y-13221870D02*
X20131968Y-13231394D01*
X20208159Y-13431394D02*
X20217682Y-13421870D01*
X20217682Y-13421870D02*
X20236730Y-13393299D01*
X20236730Y-13393299D02*
X20246254Y-13374251D01*
X20246254Y-13374251D02*
X20255778Y-13345680D01*
X20255778Y-13345680D02*
X20265301Y-13298061D01*
X20265301Y-13298061D02*
X20265301Y-13259966D01*
X20265301Y-13259966D02*
X20255778Y-13212347D01*
X20255778Y-13212347D02*
X20246254Y-13183775D01*
X20246254Y-13183775D02*
X20236730Y-13164728D01*
X20236730Y-13164728D02*
X20217682Y-13136156D01*
X20217682Y-13136156D02*
X20208159Y-13126632D01*
M02*
