%TF.GenerationSoftware,KiCad,Pcbnew,7.0.9*%
%TF.CreationDate,2023-11-26T00:13:49+01:00*%
%TF.ProjectId,v1,76312e6b-6963-4616-945f-706362585858,rev?*%
%TF.SameCoordinates,Original*%
%TF.FileFunction,Drillmap*%
%TF.FilePolarity,Positive*%
%FSLAX45Y45*%
G04 Gerber Fmt 4.5, Leading zero omitted, Abs format (unit mm)*
G04 Created by KiCad (PCBNEW 7.0.9) date 2023-11-26 00:13:49*
%MOMM*%
%LPD*%
G01*
G04 APERTURE LIST*
%ADD10C,0.100000*%
%ADD11C,0.200000*%
G04 APERTURE END LIST*
D10*
X17270720Y-7620000D02*
X17270720Y-12618720D01*
X12002000Y-10740000D02*
X12272000Y-10740000D01*
X17270720Y-12618720D02*
X12272000Y-12618720D01*
X12272000Y-9530000D02*
X12000000Y-9530000D01*
X12272000Y-7620000D02*
X17270720Y-7620000D01*
X15182000Y-9950000D02*
G75*
G03*
X15182000Y-9950000I-100000J0D01*
G01*
X12272000Y-12618720D02*
X12272000Y-10740000D01*
X12000000Y-9530000D02*
X12002000Y-10740000D01*
X16002200Y-8016240D02*
G75*
G03*
X16002200Y-8016240I-225000J0D01*
G01*
X14000680Y-12222480D02*
G75*
G03*
X14000680Y-12222480I-225000J0D01*
G01*
X12272000Y-9530000D02*
X12272000Y-7620000D01*
D11*
D10*
X12472000Y-11370000D02*
X12512000Y-11410000D01*
X12512000Y-11370000D02*
X12472000Y-11410000D01*
X12582000Y-9790000D02*
X12622000Y-9830000D01*
X12622000Y-9790000D02*
X12582000Y-9830000D01*
X12722000Y-7740000D02*
X12762000Y-7780000D01*
X12762000Y-7740000D02*
X12722000Y-7780000D01*
X12722000Y-11430000D02*
X12762000Y-11470000D01*
X12762000Y-11430000D02*
X12722000Y-11470000D01*
X12792000Y-12420000D02*
X12832000Y-12460000D01*
X12832000Y-12420000D02*
X12792000Y-12460000D01*
X12972000Y-11360000D02*
X13012000Y-11400000D01*
X13012000Y-11360000D02*
X12972000Y-11400000D01*
X13272000Y-9280000D02*
X13312000Y-9320000D01*
X13312000Y-9280000D02*
X13272000Y-9320000D01*
X13592000Y-9950000D02*
X13632000Y-9990000D01*
X13632000Y-9950000D02*
X13592000Y-9990000D01*
X14482000Y-7750000D02*
X14522000Y-7790000D01*
X14522000Y-7750000D02*
X14482000Y-7790000D01*
X14492000Y-12420000D02*
X14532000Y-12460000D01*
X14532000Y-12420000D02*
X14492000Y-12460000D01*
X14972000Y-10250000D02*
X15012000Y-10290000D01*
X15012000Y-10250000D02*
X14972000Y-10290000D01*
X15232000Y-11120000D02*
X15272000Y-11160000D01*
X15272000Y-11120000D02*
X15232000Y-11160000D01*
X15282000Y-10320000D02*
X15322000Y-10360000D01*
X15322000Y-10320000D02*
X15282000Y-10360000D01*
X15592000Y-10920000D02*
X15632000Y-10960000D01*
X15632000Y-10920000D02*
X15592000Y-10960000D01*
X15762000Y-10990000D02*
X15802000Y-11030000D01*
X15802000Y-10990000D02*
X15762000Y-11030000D01*
X15942000Y-10930000D02*
X15982000Y-10970000D01*
X15982000Y-10930000D02*
X15942000Y-10970000D01*
X16702000Y-7750000D02*
X16742000Y-7790000D01*
X16742000Y-7750000D02*
X16702000Y-7790000D01*
X16732000Y-10880000D02*
X16772000Y-10920000D01*
X16772000Y-10880000D02*
X16732000Y-10920000D01*
X16792000Y-12390000D02*
X16832000Y-12430000D01*
X16832000Y-12390000D02*
X16792000Y-12430000D01*
X16842000Y-10550000D02*
X16882000Y-10590000D01*
X16882000Y-10550000D02*
X16842000Y-10590000D01*
X16852000Y-9140000D02*
X16892000Y-9180000D01*
X16892000Y-9140000D02*
X16852000Y-9180000D01*
X16852000Y-9540000D02*
X16892000Y-9580000D01*
X16892000Y-9540000D02*
X16852000Y-9580000D01*
X16852000Y-9750000D02*
X16892000Y-9790000D01*
X16892000Y-9750000D02*
X16852000Y-9790000D01*
X16852000Y-9960000D02*
X16892000Y-10000000D01*
X16892000Y-9960000D02*
X16852000Y-10000000D01*
X16852000Y-10160000D02*
X16892000Y-10200000D01*
X16892000Y-10160000D02*
X16852000Y-10200000D01*
X16862000Y-8930000D02*
X16902000Y-8970000D01*
X16902000Y-8930000D02*
X16862000Y-8970000D01*
X16862000Y-9340000D02*
X16902000Y-9380000D01*
X16902000Y-9340000D02*
X16862000Y-9380000D01*
X17132000Y-10470000D02*
X17172000Y-10510000D01*
X17172000Y-10470000D02*
X17132000Y-10510000D01*
X12167000Y-9682000D02*
G75*
G03*
X12167000Y-9682000I-25000J0D01*
G01*
X12112000Y-9707000D02*
X12172000Y-9707000D01*
X12172000Y-9707000D02*
G75*
G03*
X12172000Y-9657000I0J25000D01*
G01*
X12172000Y-9657000D02*
X12112000Y-9657000D01*
X12112000Y-9657000D02*
G75*
G03*
X12112000Y-9707000I0J-25000D01*
G01*
X12167000Y-10580000D02*
G75*
G03*
X12167000Y-10580000I-25000J0D01*
G01*
X12112000Y-10605000D02*
X12172000Y-10605000D01*
X12172000Y-10605000D02*
G75*
G03*
X12172000Y-10555000I0J25000D01*
G01*
X12172000Y-10555000D02*
X12112000Y-10555000D01*
X12112000Y-10555000D02*
G75*
G03*
X12112000Y-10605000I0J-25000D01*
G01*
X12762000Y-9718000D02*
G75*
G03*
X12762000Y-9718000I-25000J0D01*
G01*
X12707000Y-9743000D02*
X12767000Y-9743000D01*
X12767000Y-9743000D02*
G75*
G03*
X12767000Y-9693000I0J25000D01*
G01*
X12767000Y-9693000D02*
X12707000Y-9693000D01*
X12707000Y-9693000D02*
G75*
G03*
X12707000Y-9743000I0J-25000D01*
G01*
X12762000Y-10544000D02*
G75*
G03*
X12762000Y-10544000I-25000J0D01*
G01*
X12707000Y-10569000D02*
X12767000Y-10569000D01*
X12767000Y-10569000D02*
G75*
G03*
X12767000Y-10519000I0J25000D01*
G01*
X12767000Y-10519000D02*
X12707000Y-10519000D01*
X12707000Y-10519000D02*
G75*
G03*
X12707000Y-10569000I0J-25000D01*
G01*
X15357000Y-11540000D02*
G75*
G03*
X15357000Y-11540000I-25000J0D01*
G01*
X15457000Y-11540000D02*
G75*
G03*
X15457000Y-11540000I-25000J0D01*
G01*
X15557000Y-11540000D02*
G75*
G03*
X15557000Y-11540000I-25000J0D01*
G01*
X15657000Y-11540000D02*
G75*
G03*
X15657000Y-11540000I-25000J0D01*
G01*
X15757000Y-11540000D02*
G75*
G03*
X15757000Y-11540000I-25000J0D01*
G01*
D11*
X12255777Y-12935204D02*
X12255777Y-12735204D01*
X12255777Y-12735204D02*
X12303396Y-12735204D01*
X12303396Y-12735204D02*
X12331967Y-12744728D01*
X12331967Y-12744728D02*
X12351015Y-12763775D01*
X12351015Y-12763775D02*
X12360539Y-12782823D01*
X12360539Y-12782823D02*
X12370062Y-12820918D01*
X12370062Y-12820918D02*
X12370062Y-12849489D01*
X12370062Y-12849489D02*
X12360539Y-12887585D01*
X12360539Y-12887585D02*
X12351015Y-12906632D01*
X12351015Y-12906632D02*
X12331967Y-12925680D01*
X12331967Y-12925680D02*
X12303396Y-12935204D01*
X12303396Y-12935204D02*
X12255777Y-12935204D01*
X12455777Y-12935204D02*
X12455777Y-12801870D01*
X12455777Y-12839966D02*
X12465301Y-12820918D01*
X12465301Y-12820918D02*
X12474824Y-12811394D01*
X12474824Y-12811394D02*
X12493872Y-12801870D01*
X12493872Y-12801870D02*
X12512920Y-12801870D01*
X12579586Y-12935204D02*
X12579586Y-12801870D01*
X12579586Y-12735204D02*
X12570062Y-12744728D01*
X12570062Y-12744728D02*
X12579586Y-12754251D01*
X12579586Y-12754251D02*
X12589110Y-12744728D01*
X12589110Y-12744728D02*
X12579586Y-12735204D01*
X12579586Y-12735204D02*
X12579586Y-12754251D01*
X12703396Y-12935204D02*
X12684348Y-12925680D01*
X12684348Y-12925680D02*
X12674824Y-12906632D01*
X12674824Y-12906632D02*
X12674824Y-12735204D01*
X12808158Y-12935204D02*
X12789110Y-12925680D01*
X12789110Y-12925680D02*
X12779586Y-12906632D01*
X12779586Y-12906632D02*
X12779586Y-12735204D01*
X13036729Y-12935204D02*
X13036729Y-12735204D01*
X13036729Y-12735204D02*
X13103396Y-12878061D01*
X13103396Y-12878061D02*
X13170062Y-12735204D01*
X13170062Y-12735204D02*
X13170062Y-12935204D01*
X13351015Y-12935204D02*
X13351015Y-12830442D01*
X13351015Y-12830442D02*
X13341491Y-12811394D01*
X13341491Y-12811394D02*
X13322443Y-12801870D01*
X13322443Y-12801870D02*
X13284348Y-12801870D01*
X13284348Y-12801870D02*
X13265301Y-12811394D01*
X13351015Y-12925680D02*
X13331967Y-12935204D01*
X13331967Y-12935204D02*
X13284348Y-12935204D01*
X13284348Y-12935204D02*
X13265301Y-12925680D01*
X13265301Y-12925680D02*
X13255777Y-12906632D01*
X13255777Y-12906632D02*
X13255777Y-12887585D01*
X13255777Y-12887585D02*
X13265301Y-12868537D01*
X13265301Y-12868537D02*
X13284348Y-12859013D01*
X13284348Y-12859013D02*
X13331967Y-12859013D01*
X13331967Y-12859013D02*
X13351015Y-12849489D01*
X13446253Y-12801870D02*
X13446253Y-13001870D01*
X13446253Y-12811394D02*
X13465301Y-12801870D01*
X13465301Y-12801870D02*
X13503396Y-12801870D01*
X13503396Y-12801870D02*
X13522443Y-12811394D01*
X13522443Y-12811394D02*
X13531967Y-12820918D01*
X13531967Y-12820918D02*
X13541491Y-12839966D01*
X13541491Y-12839966D02*
X13541491Y-12897108D01*
X13541491Y-12897108D02*
X13531967Y-12916156D01*
X13531967Y-12916156D02*
X13522443Y-12925680D01*
X13522443Y-12925680D02*
X13503396Y-12935204D01*
X13503396Y-12935204D02*
X13465301Y-12935204D01*
X13465301Y-12935204D02*
X13446253Y-12925680D01*
X13627205Y-12916156D02*
X13636729Y-12925680D01*
X13636729Y-12925680D02*
X13627205Y-12935204D01*
X13627205Y-12935204D02*
X13617682Y-12925680D01*
X13617682Y-12925680D02*
X13627205Y-12916156D01*
X13627205Y-12916156D02*
X13627205Y-12935204D01*
X13627205Y-12811394D02*
X13636729Y-12820918D01*
X13636729Y-12820918D02*
X13627205Y-12830442D01*
X13627205Y-12830442D02*
X13617682Y-12820918D01*
X13617682Y-12820918D02*
X13627205Y-12811394D01*
X13627205Y-12811394D02*
X13627205Y-12830442D01*
D10*
X11955000Y-13243720D02*
X11995000Y-13283720D01*
X11995000Y-13243720D02*
X11955000Y-13283720D01*
D11*
X12293872Y-13155204D02*
X12312920Y-13155204D01*
X12312920Y-13155204D02*
X12331967Y-13164728D01*
X12331967Y-13164728D02*
X12341491Y-13174251D01*
X12341491Y-13174251D02*
X12351015Y-13193299D01*
X12351015Y-13193299D02*
X12360539Y-13231394D01*
X12360539Y-13231394D02*
X12360539Y-13279013D01*
X12360539Y-13279013D02*
X12351015Y-13317108D01*
X12351015Y-13317108D02*
X12341491Y-13336156D01*
X12341491Y-13336156D02*
X12331967Y-13345680D01*
X12331967Y-13345680D02*
X12312920Y-13355204D01*
X12312920Y-13355204D02*
X12293872Y-13355204D01*
X12293872Y-13355204D02*
X12274824Y-13345680D01*
X12274824Y-13345680D02*
X12265301Y-13336156D01*
X12265301Y-13336156D02*
X12255777Y-13317108D01*
X12255777Y-13317108D02*
X12246253Y-13279013D01*
X12246253Y-13279013D02*
X12246253Y-13231394D01*
X12246253Y-13231394D02*
X12255777Y-13193299D01*
X12255777Y-13193299D02*
X12265301Y-13174251D01*
X12265301Y-13174251D02*
X12274824Y-13164728D01*
X12274824Y-13164728D02*
X12293872Y-13155204D01*
X12446253Y-13336156D02*
X12455777Y-13345680D01*
X12455777Y-13345680D02*
X12446253Y-13355204D01*
X12446253Y-13355204D02*
X12436729Y-13345680D01*
X12436729Y-13345680D02*
X12446253Y-13336156D01*
X12446253Y-13336156D02*
X12446253Y-13355204D01*
X12627205Y-13221870D02*
X12627205Y-13355204D01*
X12579586Y-13145680D02*
X12531967Y-13288537D01*
X12531967Y-13288537D02*
X12655777Y-13288537D01*
X12770062Y-13155204D02*
X12789110Y-13155204D01*
X12789110Y-13155204D02*
X12808158Y-13164728D01*
X12808158Y-13164728D02*
X12817682Y-13174251D01*
X12817682Y-13174251D02*
X12827205Y-13193299D01*
X12827205Y-13193299D02*
X12836729Y-13231394D01*
X12836729Y-13231394D02*
X12836729Y-13279013D01*
X12836729Y-13279013D02*
X12827205Y-13317108D01*
X12827205Y-13317108D02*
X12817682Y-13336156D01*
X12817682Y-13336156D02*
X12808158Y-13345680D01*
X12808158Y-13345680D02*
X12789110Y-13355204D01*
X12789110Y-13355204D02*
X12770062Y-13355204D01*
X12770062Y-13355204D02*
X12751015Y-13345680D01*
X12751015Y-13345680D02*
X12741491Y-13336156D01*
X12741491Y-13336156D02*
X12731967Y-13317108D01*
X12731967Y-13317108D02*
X12722443Y-13279013D01*
X12722443Y-13279013D02*
X12722443Y-13231394D01*
X12722443Y-13231394D02*
X12731967Y-13193299D01*
X12731967Y-13193299D02*
X12741491Y-13174251D01*
X12741491Y-13174251D02*
X12751015Y-13164728D01*
X12751015Y-13164728D02*
X12770062Y-13155204D01*
X12960539Y-13155204D02*
X12979586Y-13155204D01*
X12979586Y-13155204D02*
X12998634Y-13164728D01*
X12998634Y-13164728D02*
X13008158Y-13174251D01*
X13008158Y-13174251D02*
X13017682Y-13193299D01*
X13017682Y-13193299D02*
X13027205Y-13231394D01*
X13027205Y-13231394D02*
X13027205Y-13279013D01*
X13027205Y-13279013D02*
X13017682Y-13317108D01*
X13017682Y-13317108D02*
X13008158Y-13336156D01*
X13008158Y-13336156D02*
X12998634Y-13345680D01*
X12998634Y-13345680D02*
X12979586Y-13355204D01*
X12979586Y-13355204D02*
X12960539Y-13355204D01*
X12960539Y-13355204D02*
X12941491Y-13345680D01*
X12941491Y-13345680D02*
X12931967Y-13336156D01*
X12931967Y-13336156D02*
X12922443Y-13317108D01*
X12922443Y-13317108D02*
X12912920Y-13279013D01*
X12912920Y-13279013D02*
X12912920Y-13231394D01*
X12912920Y-13231394D02*
X12922443Y-13193299D01*
X12922443Y-13193299D02*
X12931967Y-13174251D01*
X12931967Y-13174251D02*
X12941491Y-13164728D01*
X12941491Y-13164728D02*
X12960539Y-13155204D01*
X13112920Y-13355204D02*
X13112920Y-13221870D01*
X13112920Y-13240918D02*
X13122443Y-13231394D01*
X13122443Y-13231394D02*
X13141491Y-13221870D01*
X13141491Y-13221870D02*
X13170063Y-13221870D01*
X13170063Y-13221870D02*
X13189110Y-13231394D01*
X13189110Y-13231394D02*
X13198634Y-13250442D01*
X13198634Y-13250442D02*
X13198634Y-13355204D01*
X13198634Y-13250442D02*
X13208158Y-13231394D01*
X13208158Y-13231394D02*
X13227205Y-13221870D01*
X13227205Y-13221870D02*
X13255777Y-13221870D01*
X13255777Y-13221870D02*
X13274824Y-13231394D01*
X13274824Y-13231394D02*
X13284348Y-13250442D01*
X13284348Y-13250442D02*
X13284348Y-13355204D01*
X13379586Y-13355204D02*
X13379586Y-13221870D01*
X13379586Y-13240918D02*
X13389110Y-13231394D01*
X13389110Y-13231394D02*
X13408158Y-13221870D01*
X13408158Y-13221870D02*
X13436729Y-13221870D01*
X13436729Y-13221870D02*
X13455777Y-13231394D01*
X13455777Y-13231394D02*
X13465301Y-13250442D01*
X13465301Y-13250442D02*
X13465301Y-13355204D01*
X13465301Y-13250442D02*
X13474824Y-13231394D01*
X13474824Y-13231394D02*
X13493872Y-13221870D01*
X13493872Y-13221870D02*
X13522443Y-13221870D01*
X13522443Y-13221870D02*
X13541491Y-13231394D01*
X13541491Y-13231394D02*
X13551015Y-13250442D01*
X13551015Y-13250442D02*
X13551015Y-13355204D01*
X13941491Y-13145680D02*
X13770063Y-13402823D01*
X14198634Y-13155204D02*
X14217682Y-13155204D01*
X14217682Y-13155204D02*
X14236729Y-13164728D01*
X14236729Y-13164728D02*
X14246253Y-13174251D01*
X14246253Y-13174251D02*
X14255777Y-13193299D01*
X14255777Y-13193299D02*
X14265301Y-13231394D01*
X14265301Y-13231394D02*
X14265301Y-13279013D01*
X14265301Y-13279013D02*
X14255777Y-13317108D01*
X14255777Y-13317108D02*
X14246253Y-13336156D01*
X14246253Y-13336156D02*
X14236729Y-13345680D01*
X14236729Y-13345680D02*
X14217682Y-13355204D01*
X14217682Y-13355204D02*
X14198634Y-13355204D01*
X14198634Y-13355204D02*
X14179586Y-13345680D01*
X14179586Y-13345680D02*
X14170063Y-13336156D01*
X14170063Y-13336156D02*
X14160539Y-13317108D01*
X14160539Y-13317108D02*
X14151015Y-13279013D01*
X14151015Y-13279013D02*
X14151015Y-13231394D01*
X14151015Y-13231394D02*
X14160539Y-13193299D01*
X14160539Y-13193299D02*
X14170063Y-13174251D01*
X14170063Y-13174251D02*
X14179586Y-13164728D01*
X14179586Y-13164728D02*
X14198634Y-13155204D01*
X14351015Y-13336156D02*
X14360539Y-13345680D01*
X14360539Y-13345680D02*
X14351015Y-13355204D01*
X14351015Y-13355204D02*
X14341491Y-13345680D01*
X14341491Y-13345680D02*
X14351015Y-13336156D01*
X14351015Y-13336156D02*
X14351015Y-13355204D01*
X14484348Y-13155204D02*
X14503396Y-13155204D01*
X14503396Y-13155204D02*
X14522444Y-13164728D01*
X14522444Y-13164728D02*
X14531967Y-13174251D01*
X14531967Y-13174251D02*
X14541491Y-13193299D01*
X14541491Y-13193299D02*
X14551015Y-13231394D01*
X14551015Y-13231394D02*
X14551015Y-13279013D01*
X14551015Y-13279013D02*
X14541491Y-13317108D01*
X14541491Y-13317108D02*
X14531967Y-13336156D01*
X14531967Y-13336156D02*
X14522444Y-13345680D01*
X14522444Y-13345680D02*
X14503396Y-13355204D01*
X14503396Y-13355204D02*
X14484348Y-13355204D01*
X14484348Y-13355204D02*
X14465301Y-13345680D01*
X14465301Y-13345680D02*
X14455777Y-13336156D01*
X14455777Y-13336156D02*
X14446253Y-13317108D01*
X14446253Y-13317108D02*
X14436729Y-13279013D01*
X14436729Y-13279013D02*
X14436729Y-13231394D01*
X14436729Y-13231394D02*
X14446253Y-13193299D01*
X14446253Y-13193299D02*
X14455777Y-13174251D01*
X14455777Y-13174251D02*
X14465301Y-13164728D01*
X14465301Y-13164728D02*
X14484348Y-13155204D01*
X14741491Y-13355204D02*
X14627206Y-13355204D01*
X14684348Y-13355204D02*
X14684348Y-13155204D01*
X14684348Y-13155204D02*
X14665301Y-13183775D01*
X14665301Y-13183775D02*
X14646253Y-13202823D01*
X14646253Y-13202823D02*
X14627206Y-13212347D01*
X14922444Y-13155204D02*
X14827206Y-13155204D01*
X14827206Y-13155204D02*
X14817682Y-13250442D01*
X14817682Y-13250442D02*
X14827206Y-13240918D01*
X14827206Y-13240918D02*
X14846253Y-13231394D01*
X14846253Y-13231394D02*
X14893872Y-13231394D01*
X14893872Y-13231394D02*
X14912920Y-13240918D01*
X14912920Y-13240918D02*
X14922444Y-13250442D01*
X14922444Y-13250442D02*
X14931967Y-13269489D01*
X14931967Y-13269489D02*
X14931967Y-13317108D01*
X14931967Y-13317108D02*
X14922444Y-13336156D01*
X14922444Y-13336156D02*
X14912920Y-13345680D01*
X14912920Y-13345680D02*
X14893872Y-13355204D01*
X14893872Y-13355204D02*
X14846253Y-13355204D01*
X14846253Y-13355204D02*
X14827206Y-13345680D01*
X14827206Y-13345680D02*
X14817682Y-13336156D01*
X14998634Y-13155204D02*
X15131967Y-13155204D01*
X15131967Y-13155204D02*
X15046253Y-13355204D01*
X15198634Y-13155204D02*
X15198634Y-13193299D01*
X15274825Y-13155204D02*
X15274825Y-13193299D01*
X15570063Y-13431394D02*
X15560539Y-13421870D01*
X15560539Y-13421870D02*
X15541491Y-13393299D01*
X15541491Y-13393299D02*
X15531968Y-13374251D01*
X15531968Y-13374251D02*
X15522444Y-13345680D01*
X15522444Y-13345680D02*
X15512920Y-13298061D01*
X15512920Y-13298061D02*
X15512920Y-13259966D01*
X15512920Y-13259966D02*
X15522444Y-13212347D01*
X15522444Y-13212347D02*
X15531968Y-13183775D01*
X15531968Y-13183775D02*
X15541491Y-13164728D01*
X15541491Y-13164728D02*
X15560539Y-13136156D01*
X15560539Y-13136156D02*
X15570063Y-13126632D01*
X15636729Y-13174251D02*
X15646253Y-13164728D01*
X15646253Y-13164728D02*
X15665301Y-13155204D01*
X15665301Y-13155204D02*
X15712920Y-13155204D01*
X15712920Y-13155204D02*
X15731968Y-13164728D01*
X15731968Y-13164728D02*
X15741491Y-13174251D01*
X15741491Y-13174251D02*
X15751015Y-13193299D01*
X15751015Y-13193299D02*
X15751015Y-13212347D01*
X15751015Y-13212347D02*
X15741491Y-13240918D01*
X15741491Y-13240918D02*
X15627206Y-13355204D01*
X15627206Y-13355204D02*
X15751015Y-13355204D01*
X15865301Y-13240918D02*
X15846253Y-13231394D01*
X15846253Y-13231394D02*
X15836729Y-13221870D01*
X15836729Y-13221870D02*
X15827206Y-13202823D01*
X15827206Y-13202823D02*
X15827206Y-13193299D01*
X15827206Y-13193299D02*
X15836729Y-13174251D01*
X15836729Y-13174251D02*
X15846253Y-13164728D01*
X15846253Y-13164728D02*
X15865301Y-13155204D01*
X15865301Y-13155204D02*
X15903396Y-13155204D01*
X15903396Y-13155204D02*
X15922444Y-13164728D01*
X15922444Y-13164728D02*
X15931968Y-13174251D01*
X15931968Y-13174251D02*
X15941491Y-13193299D01*
X15941491Y-13193299D02*
X15941491Y-13202823D01*
X15941491Y-13202823D02*
X15931968Y-13221870D01*
X15931968Y-13221870D02*
X15922444Y-13231394D01*
X15922444Y-13231394D02*
X15903396Y-13240918D01*
X15903396Y-13240918D02*
X15865301Y-13240918D01*
X15865301Y-13240918D02*
X15846253Y-13250442D01*
X15846253Y-13250442D02*
X15836729Y-13259966D01*
X15836729Y-13259966D02*
X15827206Y-13279013D01*
X15827206Y-13279013D02*
X15827206Y-13317108D01*
X15827206Y-13317108D02*
X15836729Y-13336156D01*
X15836729Y-13336156D02*
X15846253Y-13345680D01*
X15846253Y-13345680D02*
X15865301Y-13355204D01*
X15865301Y-13355204D02*
X15903396Y-13355204D01*
X15903396Y-13355204D02*
X15922444Y-13345680D01*
X15922444Y-13345680D02*
X15931968Y-13336156D01*
X15931968Y-13336156D02*
X15941491Y-13317108D01*
X15941491Y-13317108D02*
X15941491Y-13279013D01*
X15941491Y-13279013D02*
X15931968Y-13259966D01*
X15931968Y-13259966D02*
X15922444Y-13250442D01*
X15922444Y-13250442D02*
X15903396Y-13240918D01*
X16179587Y-13355204D02*
X16179587Y-13155204D01*
X16265301Y-13355204D02*
X16265301Y-13250442D01*
X16265301Y-13250442D02*
X16255777Y-13231394D01*
X16255777Y-13231394D02*
X16236730Y-13221870D01*
X16236730Y-13221870D02*
X16208158Y-13221870D01*
X16208158Y-13221870D02*
X16189110Y-13231394D01*
X16189110Y-13231394D02*
X16179587Y-13240918D01*
X16389110Y-13355204D02*
X16370063Y-13345680D01*
X16370063Y-13345680D02*
X16360539Y-13336156D01*
X16360539Y-13336156D02*
X16351015Y-13317108D01*
X16351015Y-13317108D02*
X16351015Y-13259966D01*
X16351015Y-13259966D02*
X16360539Y-13240918D01*
X16360539Y-13240918D02*
X16370063Y-13231394D01*
X16370063Y-13231394D02*
X16389110Y-13221870D01*
X16389110Y-13221870D02*
X16417682Y-13221870D01*
X16417682Y-13221870D02*
X16436730Y-13231394D01*
X16436730Y-13231394D02*
X16446253Y-13240918D01*
X16446253Y-13240918D02*
X16455777Y-13259966D01*
X16455777Y-13259966D02*
X16455777Y-13317108D01*
X16455777Y-13317108D02*
X16446253Y-13336156D01*
X16446253Y-13336156D02*
X16436730Y-13345680D01*
X16436730Y-13345680D02*
X16417682Y-13355204D01*
X16417682Y-13355204D02*
X16389110Y-13355204D01*
X16570063Y-13355204D02*
X16551015Y-13345680D01*
X16551015Y-13345680D02*
X16541491Y-13326632D01*
X16541491Y-13326632D02*
X16541491Y-13155204D01*
X16722444Y-13345680D02*
X16703396Y-13355204D01*
X16703396Y-13355204D02*
X16665301Y-13355204D01*
X16665301Y-13355204D02*
X16646253Y-13345680D01*
X16646253Y-13345680D02*
X16636730Y-13326632D01*
X16636730Y-13326632D02*
X16636730Y-13250442D01*
X16636730Y-13250442D02*
X16646253Y-13231394D01*
X16646253Y-13231394D02*
X16665301Y-13221870D01*
X16665301Y-13221870D02*
X16703396Y-13221870D01*
X16703396Y-13221870D02*
X16722444Y-13231394D01*
X16722444Y-13231394D02*
X16731968Y-13250442D01*
X16731968Y-13250442D02*
X16731968Y-13269489D01*
X16731968Y-13269489D02*
X16636730Y-13288537D01*
X16808158Y-13345680D02*
X16827206Y-13355204D01*
X16827206Y-13355204D02*
X16865301Y-13355204D01*
X16865301Y-13355204D02*
X16884349Y-13345680D01*
X16884349Y-13345680D02*
X16893873Y-13326632D01*
X16893873Y-13326632D02*
X16893873Y-13317108D01*
X16893873Y-13317108D02*
X16884349Y-13298061D01*
X16884349Y-13298061D02*
X16865301Y-13288537D01*
X16865301Y-13288537D02*
X16836730Y-13288537D01*
X16836730Y-13288537D02*
X16817682Y-13279013D01*
X16817682Y-13279013D02*
X16808158Y-13259966D01*
X16808158Y-13259966D02*
X16808158Y-13250442D01*
X16808158Y-13250442D02*
X16817682Y-13231394D01*
X16817682Y-13231394D02*
X16836730Y-13221870D01*
X16836730Y-13221870D02*
X16865301Y-13221870D01*
X16865301Y-13221870D02*
X16884349Y-13231394D01*
X16960539Y-13431394D02*
X16970063Y-13421870D01*
X16970063Y-13421870D02*
X16989111Y-13393299D01*
X16989111Y-13393299D02*
X16998634Y-13374251D01*
X16998634Y-13374251D02*
X17008158Y-13345680D01*
X17008158Y-13345680D02*
X17017682Y-13298061D01*
X17017682Y-13298061D02*
X17017682Y-13259966D01*
X17017682Y-13259966D02*
X17008158Y-13212347D01*
X17008158Y-13212347D02*
X16998634Y-13183775D01*
X16998634Y-13183775D02*
X16989111Y-13164728D01*
X16989111Y-13164728D02*
X16970063Y-13136156D01*
X16970063Y-13136156D02*
X16960539Y-13126632D01*
D10*
X11995000Y-13527720D02*
G75*
G03*
X11995000Y-13527720I-25000J0D01*
G01*
D11*
X12293872Y-13419204D02*
X12312920Y-13419204D01*
X12312920Y-13419204D02*
X12331967Y-13428728D01*
X12331967Y-13428728D02*
X12341491Y-13438251D01*
X12341491Y-13438251D02*
X12351015Y-13457299D01*
X12351015Y-13457299D02*
X12360539Y-13495394D01*
X12360539Y-13495394D02*
X12360539Y-13543013D01*
X12360539Y-13543013D02*
X12351015Y-13581108D01*
X12351015Y-13581108D02*
X12341491Y-13600156D01*
X12341491Y-13600156D02*
X12331967Y-13609680D01*
X12331967Y-13609680D02*
X12312920Y-13619204D01*
X12312920Y-13619204D02*
X12293872Y-13619204D01*
X12293872Y-13619204D02*
X12274824Y-13609680D01*
X12274824Y-13609680D02*
X12265301Y-13600156D01*
X12265301Y-13600156D02*
X12255777Y-13581108D01*
X12255777Y-13581108D02*
X12246253Y-13543013D01*
X12246253Y-13543013D02*
X12246253Y-13495394D01*
X12246253Y-13495394D02*
X12255777Y-13457299D01*
X12255777Y-13457299D02*
X12265301Y-13438251D01*
X12265301Y-13438251D02*
X12274824Y-13428728D01*
X12274824Y-13428728D02*
X12293872Y-13419204D01*
X12446253Y-13600156D02*
X12455777Y-13609680D01*
X12455777Y-13609680D02*
X12446253Y-13619204D01*
X12446253Y-13619204D02*
X12436729Y-13609680D01*
X12436729Y-13609680D02*
X12446253Y-13600156D01*
X12446253Y-13600156D02*
X12446253Y-13619204D01*
X12636729Y-13419204D02*
X12541491Y-13419204D01*
X12541491Y-13419204D02*
X12531967Y-13514442D01*
X12531967Y-13514442D02*
X12541491Y-13504918D01*
X12541491Y-13504918D02*
X12560539Y-13495394D01*
X12560539Y-13495394D02*
X12608158Y-13495394D01*
X12608158Y-13495394D02*
X12627205Y-13504918D01*
X12627205Y-13504918D02*
X12636729Y-13514442D01*
X12636729Y-13514442D02*
X12646253Y-13533489D01*
X12646253Y-13533489D02*
X12646253Y-13581108D01*
X12646253Y-13581108D02*
X12636729Y-13600156D01*
X12636729Y-13600156D02*
X12627205Y-13609680D01*
X12627205Y-13609680D02*
X12608158Y-13619204D01*
X12608158Y-13619204D02*
X12560539Y-13619204D01*
X12560539Y-13619204D02*
X12541491Y-13609680D01*
X12541491Y-13609680D02*
X12531967Y-13600156D01*
X12770062Y-13419204D02*
X12789110Y-13419204D01*
X12789110Y-13419204D02*
X12808158Y-13428728D01*
X12808158Y-13428728D02*
X12817682Y-13438251D01*
X12817682Y-13438251D02*
X12827205Y-13457299D01*
X12827205Y-13457299D02*
X12836729Y-13495394D01*
X12836729Y-13495394D02*
X12836729Y-13543013D01*
X12836729Y-13543013D02*
X12827205Y-13581108D01*
X12827205Y-13581108D02*
X12817682Y-13600156D01*
X12817682Y-13600156D02*
X12808158Y-13609680D01*
X12808158Y-13609680D02*
X12789110Y-13619204D01*
X12789110Y-13619204D02*
X12770062Y-13619204D01*
X12770062Y-13619204D02*
X12751015Y-13609680D01*
X12751015Y-13609680D02*
X12741491Y-13600156D01*
X12741491Y-13600156D02*
X12731967Y-13581108D01*
X12731967Y-13581108D02*
X12722443Y-13543013D01*
X12722443Y-13543013D02*
X12722443Y-13495394D01*
X12722443Y-13495394D02*
X12731967Y-13457299D01*
X12731967Y-13457299D02*
X12741491Y-13438251D01*
X12741491Y-13438251D02*
X12751015Y-13428728D01*
X12751015Y-13428728D02*
X12770062Y-13419204D01*
X12960539Y-13419204D02*
X12979586Y-13419204D01*
X12979586Y-13419204D02*
X12998634Y-13428728D01*
X12998634Y-13428728D02*
X13008158Y-13438251D01*
X13008158Y-13438251D02*
X13017682Y-13457299D01*
X13017682Y-13457299D02*
X13027205Y-13495394D01*
X13027205Y-13495394D02*
X13027205Y-13543013D01*
X13027205Y-13543013D02*
X13017682Y-13581108D01*
X13017682Y-13581108D02*
X13008158Y-13600156D01*
X13008158Y-13600156D02*
X12998634Y-13609680D01*
X12998634Y-13609680D02*
X12979586Y-13619204D01*
X12979586Y-13619204D02*
X12960539Y-13619204D01*
X12960539Y-13619204D02*
X12941491Y-13609680D01*
X12941491Y-13609680D02*
X12931967Y-13600156D01*
X12931967Y-13600156D02*
X12922443Y-13581108D01*
X12922443Y-13581108D02*
X12912920Y-13543013D01*
X12912920Y-13543013D02*
X12912920Y-13495394D01*
X12912920Y-13495394D02*
X12922443Y-13457299D01*
X12922443Y-13457299D02*
X12931967Y-13438251D01*
X12931967Y-13438251D02*
X12941491Y-13428728D01*
X12941491Y-13428728D02*
X12960539Y-13419204D01*
X13112920Y-13619204D02*
X13112920Y-13485870D01*
X13112920Y-13504918D02*
X13122443Y-13495394D01*
X13122443Y-13495394D02*
X13141491Y-13485870D01*
X13141491Y-13485870D02*
X13170063Y-13485870D01*
X13170063Y-13485870D02*
X13189110Y-13495394D01*
X13189110Y-13495394D02*
X13198634Y-13514442D01*
X13198634Y-13514442D02*
X13198634Y-13619204D01*
X13198634Y-13514442D02*
X13208158Y-13495394D01*
X13208158Y-13495394D02*
X13227205Y-13485870D01*
X13227205Y-13485870D02*
X13255777Y-13485870D01*
X13255777Y-13485870D02*
X13274824Y-13495394D01*
X13274824Y-13495394D02*
X13284348Y-13514442D01*
X13284348Y-13514442D02*
X13284348Y-13619204D01*
X13379586Y-13619204D02*
X13379586Y-13485870D01*
X13379586Y-13504918D02*
X13389110Y-13495394D01*
X13389110Y-13495394D02*
X13408158Y-13485870D01*
X13408158Y-13485870D02*
X13436729Y-13485870D01*
X13436729Y-13485870D02*
X13455777Y-13495394D01*
X13455777Y-13495394D02*
X13465301Y-13514442D01*
X13465301Y-13514442D02*
X13465301Y-13619204D01*
X13465301Y-13514442D02*
X13474824Y-13495394D01*
X13474824Y-13495394D02*
X13493872Y-13485870D01*
X13493872Y-13485870D02*
X13522443Y-13485870D01*
X13522443Y-13485870D02*
X13541491Y-13495394D01*
X13541491Y-13495394D02*
X13551015Y-13514442D01*
X13551015Y-13514442D02*
X13551015Y-13619204D01*
X13941491Y-13409680D02*
X13770063Y-13666823D01*
X14198634Y-13419204D02*
X14217682Y-13419204D01*
X14217682Y-13419204D02*
X14236729Y-13428728D01*
X14236729Y-13428728D02*
X14246253Y-13438251D01*
X14246253Y-13438251D02*
X14255777Y-13457299D01*
X14255777Y-13457299D02*
X14265301Y-13495394D01*
X14265301Y-13495394D02*
X14265301Y-13543013D01*
X14265301Y-13543013D02*
X14255777Y-13581108D01*
X14255777Y-13581108D02*
X14246253Y-13600156D01*
X14246253Y-13600156D02*
X14236729Y-13609680D01*
X14236729Y-13609680D02*
X14217682Y-13619204D01*
X14217682Y-13619204D02*
X14198634Y-13619204D01*
X14198634Y-13619204D02*
X14179586Y-13609680D01*
X14179586Y-13609680D02*
X14170063Y-13600156D01*
X14170063Y-13600156D02*
X14160539Y-13581108D01*
X14160539Y-13581108D02*
X14151015Y-13543013D01*
X14151015Y-13543013D02*
X14151015Y-13495394D01*
X14151015Y-13495394D02*
X14160539Y-13457299D01*
X14160539Y-13457299D02*
X14170063Y-13438251D01*
X14170063Y-13438251D02*
X14179586Y-13428728D01*
X14179586Y-13428728D02*
X14198634Y-13419204D01*
X14351015Y-13600156D02*
X14360539Y-13609680D01*
X14360539Y-13609680D02*
X14351015Y-13619204D01*
X14351015Y-13619204D02*
X14341491Y-13609680D01*
X14341491Y-13609680D02*
X14351015Y-13600156D01*
X14351015Y-13600156D02*
X14351015Y-13619204D01*
X14484348Y-13419204D02*
X14503396Y-13419204D01*
X14503396Y-13419204D02*
X14522444Y-13428728D01*
X14522444Y-13428728D02*
X14531967Y-13438251D01*
X14531967Y-13438251D02*
X14541491Y-13457299D01*
X14541491Y-13457299D02*
X14551015Y-13495394D01*
X14551015Y-13495394D02*
X14551015Y-13543013D01*
X14551015Y-13543013D02*
X14541491Y-13581108D01*
X14541491Y-13581108D02*
X14531967Y-13600156D01*
X14531967Y-13600156D02*
X14522444Y-13609680D01*
X14522444Y-13609680D02*
X14503396Y-13619204D01*
X14503396Y-13619204D02*
X14484348Y-13619204D01*
X14484348Y-13619204D02*
X14465301Y-13609680D01*
X14465301Y-13609680D02*
X14455777Y-13600156D01*
X14455777Y-13600156D02*
X14446253Y-13581108D01*
X14446253Y-13581108D02*
X14436729Y-13543013D01*
X14436729Y-13543013D02*
X14436729Y-13495394D01*
X14436729Y-13495394D02*
X14446253Y-13457299D01*
X14446253Y-13457299D02*
X14455777Y-13438251D01*
X14455777Y-13438251D02*
X14465301Y-13428728D01*
X14465301Y-13428728D02*
X14484348Y-13419204D01*
X14741491Y-13619204D02*
X14627206Y-13619204D01*
X14684348Y-13619204D02*
X14684348Y-13419204D01*
X14684348Y-13419204D02*
X14665301Y-13447775D01*
X14665301Y-13447775D02*
X14646253Y-13466823D01*
X14646253Y-13466823D02*
X14627206Y-13476347D01*
X14836729Y-13619204D02*
X14874825Y-13619204D01*
X14874825Y-13619204D02*
X14893872Y-13609680D01*
X14893872Y-13609680D02*
X14903396Y-13600156D01*
X14903396Y-13600156D02*
X14922444Y-13571585D01*
X14922444Y-13571585D02*
X14931967Y-13533489D01*
X14931967Y-13533489D02*
X14931967Y-13457299D01*
X14931967Y-13457299D02*
X14922444Y-13438251D01*
X14922444Y-13438251D02*
X14912920Y-13428728D01*
X14912920Y-13428728D02*
X14893872Y-13419204D01*
X14893872Y-13419204D02*
X14855777Y-13419204D01*
X14855777Y-13419204D02*
X14836729Y-13428728D01*
X14836729Y-13428728D02*
X14827206Y-13438251D01*
X14827206Y-13438251D02*
X14817682Y-13457299D01*
X14817682Y-13457299D02*
X14817682Y-13504918D01*
X14817682Y-13504918D02*
X14827206Y-13523966D01*
X14827206Y-13523966D02*
X14836729Y-13533489D01*
X14836729Y-13533489D02*
X14855777Y-13543013D01*
X14855777Y-13543013D02*
X14893872Y-13543013D01*
X14893872Y-13543013D02*
X14912920Y-13533489D01*
X14912920Y-13533489D02*
X14922444Y-13523966D01*
X14922444Y-13523966D02*
X14931967Y-13504918D01*
X14998634Y-13419204D02*
X15131967Y-13419204D01*
X15131967Y-13419204D02*
X15046253Y-13619204D01*
X15198634Y-13419204D02*
X15198634Y-13457299D01*
X15274825Y-13419204D02*
X15274825Y-13457299D01*
X15570063Y-13695394D02*
X15560539Y-13685870D01*
X15560539Y-13685870D02*
X15541491Y-13657299D01*
X15541491Y-13657299D02*
X15531968Y-13638251D01*
X15531968Y-13638251D02*
X15522444Y-13609680D01*
X15522444Y-13609680D02*
X15512920Y-13562061D01*
X15512920Y-13562061D02*
X15512920Y-13523966D01*
X15512920Y-13523966D02*
X15522444Y-13476347D01*
X15522444Y-13476347D02*
X15531968Y-13447775D01*
X15531968Y-13447775D02*
X15541491Y-13428728D01*
X15541491Y-13428728D02*
X15560539Y-13400156D01*
X15560539Y-13400156D02*
X15570063Y-13390632D01*
X15741491Y-13419204D02*
X15646253Y-13419204D01*
X15646253Y-13419204D02*
X15636729Y-13514442D01*
X15636729Y-13514442D02*
X15646253Y-13504918D01*
X15646253Y-13504918D02*
X15665301Y-13495394D01*
X15665301Y-13495394D02*
X15712920Y-13495394D01*
X15712920Y-13495394D02*
X15731968Y-13504918D01*
X15731968Y-13504918D02*
X15741491Y-13514442D01*
X15741491Y-13514442D02*
X15751015Y-13533489D01*
X15751015Y-13533489D02*
X15751015Y-13581108D01*
X15751015Y-13581108D02*
X15741491Y-13600156D01*
X15741491Y-13600156D02*
X15731968Y-13609680D01*
X15731968Y-13609680D02*
X15712920Y-13619204D01*
X15712920Y-13619204D02*
X15665301Y-13619204D01*
X15665301Y-13619204D02*
X15646253Y-13609680D01*
X15646253Y-13609680D02*
X15636729Y-13600156D01*
X15989110Y-13619204D02*
X15989110Y-13419204D01*
X16074825Y-13619204D02*
X16074825Y-13514442D01*
X16074825Y-13514442D02*
X16065301Y-13495394D01*
X16065301Y-13495394D02*
X16046253Y-13485870D01*
X16046253Y-13485870D02*
X16017682Y-13485870D01*
X16017682Y-13485870D02*
X15998634Y-13495394D01*
X15998634Y-13495394D02*
X15989110Y-13504918D01*
X16198634Y-13619204D02*
X16179587Y-13609680D01*
X16179587Y-13609680D02*
X16170063Y-13600156D01*
X16170063Y-13600156D02*
X16160539Y-13581108D01*
X16160539Y-13581108D02*
X16160539Y-13523966D01*
X16160539Y-13523966D02*
X16170063Y-13504918D01*
X16170063Y-13504918D02*
X16179587Y-13495394D01*
X16179587Y-13495394D02*
X16198634Y-13485870D01*
X16198634Y-13485870D02*
X16227206Y-13485870D01*
X16227206Y-13485870D02*
X16246253Y-13495394D01*
X16246253Y-13495394D02*
X16255777Y-13504918D01*
X16255777Y-13504918D02*
X16265301Y-13523966D01*
X16265301Y-13523966D02*
X16265301Y-13581108D01*
X16265301Y-13581108D02*
X16255777Y-13600156D01*
X16255777Y-13600156D02*
X16246253Y-13609680D01*
X16246253Y-13609680D02*
X16227206Y-13619204D01*
X16227206Y-13619204D02*
X16198634Y-13619204D01*
X16379587Y-13619204D02*
X16360539Y-13609680D01*
X16360539Y-13609680D02*
X16351015Y-13590632D01*
X16351015Y-13590632D02*
X16351015Y-13419204D01*
X16531968Y-13609680D02*
X16512920Y-13619204D01*
X16512920Y-13619204D02*
X16474825Y-13619204D01*
X16474825Y-13619204D02*
X16455777Y-13609680D01*
X16455777Y-13609680D02*
X16446253Y-13590632D01*
X16446253Y-13590632D02*
X16446253Y-13514442D01*
X16446253Y-13514442D02*
X16455777Y-13495394D01*
X16455777Y-13495394D02*
X16474825Y-13485870D01*
X16474825Y-13485870D02*
X16512920Y-13485870D01*
X16512920Y-13485870D02*
X16531968Y-13495394D01*
X16531968Y-13495394D02*
X16541491Y-13514442D01*
X16541491Y-13514442D02*
X16541491Y-13533489D01*
X16541491Y-13533489D02*
X16446253Y-13552537D01*
X16617682Y-13609680D02*
X16636730Y-13619204D01*
X16636730Y-13619204D02*
X16674825Y-13619204D01*
X16674825Y-13619204D02*
X16693872Y-13609680D01*
X16693872Y-13609680D02*
X16703396Y-13590632D01*
X16703396Y-13590632D02*
X16703396Y-13581108D01*
X16703396Y-13581108D02*
X16693872Y-13562061D01*
X16693872Y-13562061D02*
X16674825Y-13552537D01*
X16674825Y-13552537D02*
X16646253Y-13552537D01*
X16646253Y-13552537D02*
X16627206Y-13543013D01*
X16627206Y-13543013D02*
X16617682Y-13523966D01*
X16617682Y-13523966D02*
X16617682Y-13514442D01*
X16617682Y-13514442D02*
X16627206Y-13495394D01*
X16627206Y-13495394D02*
X16646253Y-13485870D01*
X16646253Y-13485870D02*
X16674825Y-13485870D01*
X16674825Y-13485870D02*
X16693872Y-13495394D01*
X16941492Y-13543013D02*
X17093873Y-13543013D01*
X17017682Y-13619204D02*
X17017682Y-13466823D01*
X17427206Y-13485870D02*
X17427206Y-13619204D01*
X17379587Y-13409680D02*
X17331968Y-13552537D01*
X17331968Y-13552537D02*
X17455777Y-13552537D01*
X17674825Y-13609680D02*
X17693873Y-13619204D01*
X17693873Y-13619204D02*
X17731968Y-13619204D01*
X17731968Y-13619204D02*
X17751016Y-13609680D01*
X17751016Y-13609680D02*
X17760539Y-13590632D01*
X17760539Y-13590632D02*
X17760539Y-13581108D01*
X17760539Y-13581108D02*
X17751016Y-13562061D01*
X17751016Y-13562061D02*
X17731968Y-13552537D01*
X17731968Y-13552537D02*
X17703396Y-13552537D01*
X17703396Y-13552537D02*
X17684349Y-13543013D01*
X17684349Y-13543013D02*
X17674825Y-13523966D01*
X17674825Y-13523966D02*
X17674825Y-13514442D01*
X17674825Y-13514442D02*
X17684349Y-13495394D01*
X17684349Y-13495394D02*
X17703396Y-13485870D01*
X17703396Y-13485870D02*
X17731968Y-13485870D01*
X17731968Y-13485870D02*
X17751016Y-13495394D01*
X17874825Y-13619204D02*
X17855777Y-13609680D01*
X17855777Y-13609680D02*
X17846254Y-13590632D01*
X17846254Y-13590632D02*
X17846254Y-13419204D01*
X17979587Y-13619204D02*
X17960539Y-13609680D01*
X17960539Y-13609680D02*
X17951016Y-13600156D01*
X17951016Y-13600156D02*
X17941492Y-13581108D01*
X17941492Y-13581108D02*
X17941492Y-13523966D01*
X17941492Y-13523966D02*
X17951016Y-13504918D01*
X17951016Y-13504918D02*
X17960539Y-13495394D01*
X17960539Y-13495394D02*
X17979587Y-13485870D01*
X17979587Y-13485870D02*
X18008158Y-13485870D01*
X18008158Y-13485870D02*
X18027206Y-13495394D01*
X18027206Y-13495394D02*
X18036730Y-13504918D01*
X18036730Y-13504918D02*
X18046254Y-13523966D01*
X18046254Y-13523966D02*
X18046254Y-13581108D01*
X18046254Y-13581108D02*
X18036730Y-13600156D01*
X18036730Y-13600156D02*
X18027206Y-13609680D01*
X18027206Y-13609680D02*
X18008158Y-13619204D01*
X18008158Y-13619204D02*
X17979587Y-13619204D01*
X18103397Y-13485870D02*
X18179587Y-13485870D01*
X18131968Y-13419204D02*
X18131968Y-13590632D01*
X18131968Y-13590632D02*
X18141492Y-13609680D01*
X18141492Y-13609680D02*
X18160539Y-13619204D01*
X18160539Y-13619204D02*
X18179587Y-13619204D01*
X18236730Y-13609680D02*
X18255777Y-13619204D01*
X18255777Y-13619204D02*
X18293873Y-13619204D01*
X18293873Y-13619204D02*
X18312920Y-13609680D01*
X18312920Y-13609680D02*
X18322444Y-13590632D01*
X18322444Y-13590632D02*
X18322444Y-13581108D01*
X18322444Y-13581108D02*
X18312920Y-13562061D01*
X18312920Y-13562061D02*
X18293873Y-13552537D01*
X18293873Y-13552537D02*
X18265301Y-13552537D01*
X18265301Y-13552537D02*
X18246254Y-13543013D01*
X18246254Y-13543013D02*
X18236730Y-13523966D01*
X18236730Y-13523966D02*
X18236730Y-13514442D01*
X18236730Y-13514442D02*
X18246254Y-13495394D01*
X18246254Y-13495394D02*
X18265301Y-13485870D01*
X18265301Y-13485870D02*
X18293873Y-13485870D01*
X18293873Y-13485870D02*
X18312920Y-13495394D01*
X18389111Y-13695394D02*
X18398635Y-13685870D01*
X18398635Y-13685870D02*
X18417682Y-13657299D01*
X18417682Y-13657299D02*
X18427206Y-13638251D01*
X18427206Y-13638251D02*
X18436730Y-13609680D01*
X18436730Y-13609680D02*
X18446254Y-13562061D01*
X18446254Y-13562061D02*
X18446254Y-13523966D01*
X18446254Y-13523966D02*
X18436730Y-13476347D01*
X18436730Y-13476347D02*
X18427206Y-13447775D01*
X18427206Y-13447775D02*
X18417682Y-13428728D01*
X18417682Y-13428728D02*
X18398635Y-13400156D01*
X18398635Y-13400156D02*
X18389111Y-13390632D01*
M02*
