M48
; DRILL file {KiCad 7.0.9} date Sun Nov 26 00:13:22 2023
; FORMAT={-:-/ absolute / metric / decimal}
; #@! TF.CreationDate,2023-11-26T00:13:22+01:00
; #@! TF.GenerationSoftware,Kicad,Pcbnew,7.0.9
; #@! TF.FileFunction,Plated,1,2,PTH
FMAT,2
METRIC
; #@! TA.AperFunction,Plated,PTH,ViaDrill
T1C0.400
; #@! TA.AperFunction,Plated,PTH,ComponentDrill
T2C0.500
%
G90
G05
T1
X124.92Y-113.9
X126.02Y-98.1
X127.42Y-77.6
X127.42Y-114.5
X128.12Y-124.4
X129.92Y-113.8
X132.92Y-93.0
X136.12Y-99.7
X145.02Y-77.7
X145.12Y-124.4
X149.92Y-102.7
X152.52Y-111.4
X153.02Y-103.4
X156.12Y-109.4
X157.82Y-110.1
X159.62Y-109.5
X167.22Y-77.7
X167.52Y-109.0
X168.12Y-124.1
X168.62Y-105.7
X168.72Y-91.6
X168.72Y-95.6
X168.72Y-97.7
X168.72Y-99.8
X168.72Y-101.8
X168.82Y-89.5
X168.82Y-93.6
X171.52Y-104.9
T2
X153.32Y-115.4
X154.32Y-115.4
X155.32Y-115.4
X156.32Y-115.4
X157.32Y-115.4
T2
X121.12Y-96.82G85X121.72Y-96.82
G05
X121.12Y-105.8G85X121.72Y-105.8
G05
X127.07Y-97.18G85X127.67Y-97.18
G05
X127.07Y-105.44G85X127.67Y-105.44
G05
T0
M30
